  0
SECTION
  2
HEADER
  9
$ACADVER
  1
AC1021
  9
$ACADMAINTVER
 70
    25
  9
$DWGCODEPAGE
  3
ANSI_1252
  9
$INSBASE
 10
0.0
 20
0.0
 30
0.0
  9
$EXTMIN
 10
-10.47646
 20
-7.47646
 30
0.0
  9
$EXTMAX
 10
10.47646
 20
7.47646
 30
0.0
  9
$LIMMIN
 10
0.0
 20
0.0
  9
$LIMMAX
 10
12.0
 20
9.0
  9
$ORTHOMODE
 70
     0
  9
$REGENMODE
 70
     1
  9
$FILLMODE
 70
     1
  9
$QTEXTMODE
 70
     0
  9
$MIRRTEXT
 70
     1
  9
$LTSCALE
 40
1.0
  9
$ATTMODE
 70
     1
  9
$TEXTSIZE
 40
0.2
  9
$TRACEWID
 40
0.05
  9
$TEXTSTYLE
  7
Standard
  9
$CLAYER
  8
0
  9
$CELTYPE
  6
ByLayer
  9
$CECOLOR
 62
   256
  9
$CELTSCALE
 40
1.0
  9
$DISPSILH
 70
     0
  9
$DIMSCALE
 40
1.0
  9
$DIMASZ
 40
0.18
  9
$DIMEXO
 40
0.0625
  9
$DIMDLI
 40
0.38
  9
$DIMRND
 40
0.0
  9
$DIMDLE
 40
0.0
  9
$DIMEXE
 40
0.18
  9
$DIMTP
 40
0.0
  9
$DIMTM
 40
0.0
  9
$DIMTXT
 40
0.18
  9
$DIMCEN
 40
0.09
  9
$DIMTSZ
 40
0.0
  9
$DIMTOL
 70
     0
  9
$DIMLIM
 70
     0
  9
$DIMTIH
 70
     1
  9
$DIMTOH
 70
     1
  9
$DIMSE1
 70
     0
  9
$DIMSE2
 70
     0
  9
$DIMTAD
 70
     0
  9
$DIMZIN
 70
     0
  9
$DIMBLK
  1

  9
$DIMASO
 70
     1
  9
$DIMSHO
 70
     1
  9
$DIMPOST
  1

  9
$DIMAPOST
  1

  9
$DIMALT
 70
     0
  9
$DIMALTD
 70
     2
  9
$DIMALTF
 40
25.4
  9
$DIMLFAC
 40
1.0
  9
$DIMTOFL
 70
     0
  9
$DIMTVP
 40
0.0
  9
$DIMTIX
 70
     0
  9
$DIMSOXD
 70
     0
  9
$DIMSAH
 70
     0
  9
$DIMBLK1
  1

  9
$DIMBLK2
  1

  9
$DIMSTYLE
  2
Standard
  9
$DIMCLRD
 70
     0
  9
$DIMCLRE
 70
     0
  9
$DIMCLRT
 70
     0
  9
$DIMTFAC
 40
1.0
  9
$DIMGAP
 40
0.09
  9
$DIMJUST
 70
     0
  9
$DIMSD1
 70
     0
  9
$DIMSD2
 70
     0
  9
$DIMTOLJ
 70
     1
  9
$DIMTZIN
 70
     0
  9
$DIMALTZ
 70
     0
  9
$DIMALTTZ
 70
     0
  9
$DIMUPT
 70
     0
  9
$DIMDEC
 70
     4
  9
$DIMTDEC
 70
     4
  9
$DIMALTU
 70
     2
  9
$DIMALTTD
 70
     2
  9
$DIMTXSTY
  7
Standard
  9
$DIMAUNIT
 70
     0
  9
$DIMADEC
 70
     0
  9
$DIMALTRND
 40
0.0
  9
$DIMAZIN
 70
     0
  9
$DIMDSEP
 70
    46
  9
$DIMATFIT
 70
     3
  9
$DIMFRAC
 70
     0
  9
$DIMLDRBLK
  1

  9
$DIMLUNIT
 70
     2
  9
$DIMLWD
 70
    -2
  9
$DIMLWE
 70
    -2
  9
$DIMTMOVE
 70
     0
  9
$DIMFXL
 40
1.0
  9
$DIMFXLON
 70
     0
  9
$DIMJOGANG
 40
0.7853981633974483
  9
$DIMTFILL
 70
     0
  9
$DIMTFILLCLR
 70
     0
  9
$DIMARCSYM
 70
     0
  9
$DIMLTYPE
  6

  9
$DIMLTEX1
  6

  9
$DIMLTEX2
  6

  9
$LUNITS
 70
     2
  9
$LUPREC
 70
     4
  9
$SKETCHINC
 40
0.1
  9
$FILLETRAD
 40
0.5
  9
$AUNITS
 70
     0
  9
$AUPREC
 70
     0
  9
$MENU
  1
.
  9
$ELEVATION
 40
0.0
  9
$PELEVATION
 40
0.0
  9
$THICKNESS
 40
0.0
  9
$LIMCHECK
 70
     0
  9
$CHAMFERA
 40
0.5
  9
$CHAMFERB
 40
0.5
  9
$CHAMFERC
 40
1.0
  9
$CHAMFERD
 40
0.0
  9
$SKPOLY
 70
     0
  9
$TDCREATE
 40
2460292.727347407
  9
$TDUCREATE
 40
2460292.727347407
  9
$TDUPDATE
 40
2460292.727347593
  9
$TDUUPDATE
 40
2460292.727347593
  9
$TDINDWG
 40
0.0000000116
  9
$TDUSRTIMER
 40
0.0000000116
  9
$USRTIMER
 70
     1
  9
$ANGBASE
 50
0.0
  9
$ANGDIR
 70
     0
  9
$PDMODE
 70
     0
  9
$PDSIZE
 40
0.0
  9
$PLINEWID
 40
0.0
  9
$SPLFRAME
 70
     0
  9
$SPLINETYPE
 70
     6
  9
$SPLINESEGS
 70
     8
  9
$HANDSEED
  5
D3
  9
$SURFTAB1
 70
     6
  9
$SURFTAB2
 70
     6
  9
$SURFTYPE
 70
     6
  9
$SURFU
 70
     6
  9
$SURFV
 70
     6
  9
$UCSBASE
  2

  9
$UCSNAME
  2

  9
$UCSORG
 10
0.0
 20
0.0
 30
0.0
  9
$UCSXDIR
 10
1.0
 20
0.0
 30
0.0
  9
$UCSYDIR
 10
0.0
 20
1.0
 30
0.0
  9
$UCSORTHOREF
  2

  9
$UCSORTHOVIEW
 70
     0
  9
$UCSORGTOP
 10
0.0
 20
0.0
 30
0.0
  9
$UCSORGBOTTOM
 10
0.0
 20
0.0
 30
0.0
  9
$UCSORGLEFT
 10
0.0
 20
0.0
 30
0.0
  9
$UCSORGRIGHT
 10
0.0
 20
0.0
 30
0.0
  9
$UCSORGFRONT
 10
0.0
 20
0.0
 30
0.0
  9
$UCSORGBACK
 10
0.0
 20
0.0
 30
0.0
  9
$PUCSBASE
  2

  9
$PUCSNAME
  2

  9
$PUCSORG
 10
0.0
 20
0.0
 30
0.0
  9
$PUCSXDIR
 10
1.0
 20
0.0
 30
0.0
  9
$PUCSYDIR
 10
0.0
 20
1.0
 30
0.0
  9
$PUCSORTHOREF
  2

  9
$PUCSORTHOVIEW
 70
     0
  9
$PUCSORGTOP
 10
0.0
 20
0.0
 30
0.0
  9
$PUCSORGBOTTOM
 10
0.0
 20
0.0
 30
0.0
  9
$PUCSORGLEFT
 10
0.0
 20
0.0
 30
0.0
  9
$PUCSORGRIGHT
 10
0.0
 20
0.0
 30
0.0
  9
$PUCSORGFRONT
 10
0.0
 20
0.0
 30
0.0
  9
$PUCSORGBACK
 10
0.0
 20
0.0
 30
0.0
  9
$USERI1
 70
     0
  9
$USERI2
 70
     0
  9
$USERI3
 70
     0
  9
$USERI4
 70
     0
  9
$USERI5
 70
     0
  9
$USERR1
 40
0.0
  9
$USERR2
 40
0.0
  9
$USERR3
 40
0.0
  9
$USERR4
 40
0.0
  9
$USERR5
 40
0.0
  9
$WORLDVIEW
 70
     1
  9
$SHADEDGE
 70
     3
  9
$SHADEDIF
 70
    70
  9
$TILEMODE
 70
     1
  9
$MAXACTVP
 70
    64
  9
$PINSBASE
 10
0.0
 20
0.0
 30
0.0
  9
$PLIMCHECK
 70
     0
  9
$PEXTMIN
 10
1.000000000000000E+20
 20
1.000000000000000E+20
 30
1.000000000000000E+20
  9
$PEXTMAX
 10
-1.000000000000000E+20
 20
-1.000000000000000E+20
 30
-1.000000000000000E+20
  9
$PLIMMIN
 10
0.0
 20
0.0
  9
$PLIMMAX
 10
12.0
 20
9.0
  9
$UNITMODE
 70
     0
  9
$VISRETAIN
 70
     1
  9
$PLINEGEN
 70
     0
  9
$PSLTSCALE
 70
     1
  9
$TREEDEPTH
 70
  3020
  9
$CMLSTYLE
  2
Standard
  9
$CMLJUST
 70
     0
  9
$CMLSCALE
 40
1.0
  9
$PROXYGRAPHICS
 70
     1
  9
$MEASUREMENT
 70
     0
  9
$CELWEIGHT
370
    -1
  9
$ENDCAPS
280
     0
  9
$JOINSTYLE
280
     0
  9
$LWDISPLAY
290
     0
  9
$INSUNITS
 70
     5
  9
$HYPERLINKBASE
  1

  9
$STYLESHEET
  1

  9
$XEDIT
290
     1
  9
$CEPSNTYPE
380
     0
  9
$PSTYLEMODE
290
     1
  9
$FINGERPRINTGUID
  2
{110DA0D6-B324-43BB-AC43-6D616ABBC6F6}
  9
$VERSIONGUID
  2
{FAEB1C32-E019-11D5-929B-00C0DF256EC4}
  9
$EXTNAMES
290
     1
  9
$PSVPSCALE
 40
0.0
  9
$OLESTARTUP
290
     0
  9
$SORTENTS
280
   127
  9
$INDEXCTL
280
     0
  9
$HIDETEXT
280
     1
  9
$XCLIPFRAME
290
     0
  9
$HALOGAP
280
     0
  9
$OBSCOLOR
 70
   257
  9
$OBSLTYPE
280
     0
  9
$INTERSECTIONDISPLAY
280
     0
  9
$INTERSECTIONCOLOR
 70
   257
  9
$DIMASSOC
280
     2
  9
$PROJECTNAME
  1

  9
$CAMERADISPLAY
290
     0
  9
$LENSLENGTH
 40
50.0
  9
$CAMERAHEIGHT
 40
0.0
  9
$STEPSPERSEC
 40
2.0
  9
$STEPSIZE
 40
6.0
  9
$3DDWFPREC
 40
2.0
  9
$PSOLWIDTH
 40
0.25
  9
$PSOLHEIGHT
 40
4.0
  9
$LOFTANG1
 40
1.570796326794897
  9
$LOFTANG2
 40
1.570796326794897
  9
$LOFTMAG1
 40
0.0
  9
$LOFTMAG2
 40
0.0
  9
$LOFTPARAM
 70
     7
  9
$LOFTNORMALS
280
     1
  9
$LATITUDE
 40
37.795
  9
$LONGITUDE
 40
-122.394
  9
$NORTHDIRECTION
 40
0.0
  9
$TIMEZONE
 70
 -8000
  9
$LIGHTGLYPHDISPLAY
280
     1
  9
$TILEMODELIGHTSYNCH
280
     1
  9
$SOLIDHIST
280
     1
  9
$SHOWHIST
280
     1
  9
$DWFFRAME
280
     2
  9
$DGNFRAME
280
     2
  9
$REALWORLDSCALE
290
     1
  9
$INTERFERECOLOR
 62
   256
  9
$CSHADOW
280
     0
  9
$SHADOWPLANELOCATION
 40
0.0
  0
ENDSEC
  0
SECTION
  2
CLASSES
  0
CLASS
  1
ACDBDICTIONARYWDFLT
  2
AcDbDictionaryWithDefault
  3
ObjectDBX Classes
 90
        0
 91
        4
280
     0
281
     0
  0
CLASS
  1
VISUALSTYLE
  2
AcDbVisualStyle
  3
ObjectDBX Classes
 90
     4095
 91
        4
280
     0
281
     0
  0
CLASS
  1
MATERIAL
  2
AcDbMaterial
  3
ObjectDBX Classes
 90
     1153
 91
        4
280
     0
281
     0
  0
ENDSEC
  0
SECTION
  2
TABLES
  0
TABLE
  2
VPORT
  5
8
330
0
100
AcDbSymbolTable
 70
     1
  0
VPORT
  5
29
330
8
100
AcDbSymbolTableRecord
100
AcDbViewportTableRecord
  2
*Active
 70
     0
 10
0.0
 20
0.0
 11
1.0
 21
1.0
 12
10.42990654205607
 22
4.5
 13
0.0
 23
0.0
 14
0.5
 24
0.5
 15
0.5
 25
0.5
 16
0.0
 26
0.0
 36
1.0
 17
0.0
 27
0.0
 37
0.0
 40
9.0
 41
1.972972972850329
 42
50.0
 43
0.0
 44
0.0
 50
0.0
 51
0.0
 71
     0
 72
   100
 73
     1
 74
     3
 75
     0
 76
     0
 77
     0
 78
     0
281
     0
 65
     1
110
0.0
120
0.0
130
0.0
111
1.0
121
0.0
131
0.0
112
0.0
122
1.0
132
0.0
 79
     0
146
0.0
 60
     3
 61
     5
292
     1
282
     1
141
0.0
142
0.0
 63
   250
  0
ENDTAB
  0
TABLE
  2
LTYPE
  5
5
330
0
100
AcDbSymbolTable
 70
     1
  0
LTYPE
  5
14
330
5
100
AcDbSymbolTableRecord
100
AcDbLinetypeTableRecord
  2
ByBlock
 70
     0
  3

 72
    65
 73
     0
 40
0.0
  0
LTYPE
  5
15
330
5
100
AcDbSymbolTableRecord
100
AcDbLinetypeTableRecord
  2
ByLayer
 70
     0
  3

 72
    65
 73
     0
 40
0.0
  0
LTYPE
  5
16
330
5
100
AcDbSymbolTableRecord
100
AcDbLinetypeTableRecord
  2
Continuous
 70
     0
  3
Solid line
 72
    65
 73
     0
 40
0.0
  0
ENDTAB
  0
TABLE
  2
LAYER
  5
2
330
0
100
AcDbSymbolTable
 70
     2
  0
LAYER
  5
10
330
2
100
AcDbSymbolTableRecord
100
AcDbLayerTableRecord
  2
0
 70
     0
 62
     7
  6
Continuous
370
    -3
390
F
347
3E
  0
LAYER
  5
40
330
2
100
AcDbSymbolTableRecord
100
AcDbLayerTableRecord
  2
Layer 1
 70
     0
 62
     7
  6
Continuous
370
    -3
390
F
347
3E
  0
ENDTAB
  0
TABLE
  2
STYLE
  5
3
330
0
100
AcDbSymbolTable
 70
     1
  0
STYLE
  5
11
330
3
100
AcDbSymbolTableRecord
100
AcDbTextStyleTableRecord
  2
Standard
 70
     0
 40
0.0
 41
1.0
 50
0.0
 71
     0
 42
0.2
  3
txt
  4

  0
ENDTAB
  0
TABLE
  2
VIEW
  5
6
330
0
100
AcDbSymbolTable
 70
     0
  0
ENDTAB
  0
TABLE
  2
UCS
  5
7
330
0
100
AcDbSymbolTable
 70
     0
  0
ENDTAB
  0
TABLE
  2
APPID
  5
9
330
0
100
AcDbSymbolTable
 70
     2
  0
APPID
  5
12
330
9
100
AcDbSymbolTableRecord
100
AcDbRegAppTableRecord
  2
ACAD
 70
     0
  0
APPID
  5
3F
330
9
100
AcDbSymbolTableRecord
100
AcDbRegAppTableRecord
  2
ODA
 70
     0
  0
ENDTAB
  0
TABLE
  2
DIMSTYLE
  5
A
330
0
100
AcDbSymbolTable
 70
     1
100
AcDbDimStyleTable
  0
DIMSTYLE
105
27
330
A
100
AcDbSymbolTableRecord
100
AcDbDimStyleTableRecord
  2
Standard
 70
     0
178
     0
340
11
  0
ENDTAB
  0
TABLE
  2
BLOCK_RECORD
  5
1
330
0
100
AcDbSymbolTable
 70
     1
  0
BLOCK_RECORD
  5
1F
330
1
100
AcDbSymbolTableRecord
100
AcDbBlockTableRecord
  2
*Model_Space
340
22
 70
     0
280
     1
281
     0
  0
BLOCK_RECORD
  5
1B
330
1
100
AcDbSymbolTableRecord
100
AcDbBlockTableRecord
  2
*Paper_Space
340
1E
 70
     0
280
     1
281
     0
  0
BLOCK_RECORD
  5
23
330
1
100
AcDbSymbolTableRecord
100
AcDbBlockTableRecord
  2
*Paper_Space0
340
26
 70
     0
280
     1
281
     0
  0
ENDTAB
  0
ENDSEC
  0
SECTION
  2
BLOCKS
  0
BLOCK
  5
20
330
1F
100
AcDbEntity
  8
0
100
AcDbBlockBegin
  2
*Model_Space
 70
     0
 10
0.0
 20
0.0
 30
0.0
  3
*Model_Space
  1

  0
ENDBLK
  5
21
330
1F
100
AcDbEntity
  8
0
100
AcDbBlockEnd
  0
BLOCK
  5
1C
330
1B
100
AcDbEntity
 67
     1
  8
0
100
AcDbBlockBegin
  2
*Paper_Space
 70
     0
 10
0.0
 20
0.0
 30
0.0
  3
*Paper_Space
  1

  0
ENDBLK
  5
1D
330
1B
100
AcDbEntity
 67
     1
  8
0
100
AcDbBlockEnd
  0
BLOCK
  5
24
330
23
100
AcDbEntity
  8
0
100
AcDbBlockBegin
  2
*Paper_Space0
 70
     0
 10
0.0
 20
0.0
 30
0.0
  3
*Paper_Space0
  1

  0
ENDBLK
  5
25
330
23
100
AcDbEntity
  8
0
100
AcDbBlockEnd
  0
ENDSEC
  0
SECTION
  2
ENTITIES
  0
SPLINE
  5
41
330
1F
100
AcDbEntity
  8
Layer 1
370
    53
100
AcDbSpline
210
0.0
220
0.0
230
1.0
 70
    11
 71
     3
 72
    36
 73
    32
 74
     0
 42
0.0000000001
 43
0.0000000001
 12
1.0
 22
0.0
 32
0.0
 13
1.0
 23
0.0
 33
0.0
 40
0.0
 40
0.0
 40
0.0
 40
0.0
 40
0.1111111111111111
 40
0.1111111111111111
 40
0.1111111111111111
 40
0.1111111111111111
 40
0.2222222222222222
 40
0.2222222222222222
 40
0.2222222222222222
 40
0.2222222222222222
 40
0.3333333333333333
 40
0.3333333333333333
 40
0.3333333333333333
 40
0.3333333333333333
 40
0.4444444444444444
 40
0.4444444444444444
 40
0.4444444444444444
 40
0.4444444444444444
 40
0.5555555555555556
 40
0.5555555555555556
 40
0.5555555555555556
 40
0.5555555555555556
 40
0.6666666666666666
 40
0.6666666666666666
 40
0.6666666666666666
 40
0.6666666666666666
 40
0.7777777777777778
 40
0.7777777777777778
 40
0.7777777777777778
 40
0.7777777777777778
 40
1.0
 40
1.0
 40
1.0
 40
1.0
 10
-10.45
 20
-6.95
 30
0.0
 10
-10.45
 20
-6.95
 30
0.0
 10
-10.45
 20
6.95
 30
0.0
 10
-10.45
 20
6.95
 30
0.0
 10
-10.45
 20
6.95
 30
0.0
 10
-10.45
 20
7.22614
 30
0.0
 10
-10.22614
 20
7.45
 30
0.0
 10
-9.95
 20
7.45
 30
0.0
 10
-9.95
 20
7.45
 30
0.0
 10
-9.95
 20
7.45
 30
0.0
 10
9.95
 20
7.45
 30
0.0
 10
9.95
 20
7.45
 30
0.0
 10
9.95
 20
7.45
 30
0.0
 10
10.22614
 20
7.45
 30
0.0
 10
10.45
 20
7.22614
 30
0.0
 10
10.45
 20
6.95
 30
0.0
 10
10.45
 20
6.95
 30
0.0
 10
10.45
 20
6.95
 30
0.0
 10
10.45
 20
-6.95
 30
0.0
 10
10.45
 20
-6.95
 30
0.0
 10
10.45
 20
-6.95
 30
0.0
 10
10.45
 20
-7.22614
 30
0.0
 10
10.22614
 20
-7.45
 30
0.0
 10
9.95
 20
-7.45
 30
0.0
 10
9.95
 20
-7.45
 30
0.0
 10
9.95
 20
-7.45
 30
0.0
 10
-9.95
 20
-7.45
 30
0.0
 10
-9.95
 20
-7.45
 30
0.0
 10
-9.95
 20
-7.45
 30
0.0
 10
-10.22614
 20
-7.45
 30
0.0
 10
-10.45
 20
-7.22614
 30
0.0
 10
-10.45
 20
-6.95
 30
0.0
  0
ELLIPSE
  5
42
330
1F
100
AcDbEntity
  8
Layer 1
370
    53
100
AcDbEllipse
 10
-6.74995
 20
-1.50005
 30
0.0
 11
0.0
 21
2.45005
 31
0.0
210
0.0
220
0.0
230
1.0
 40
1.0
 41
0.0
 42
6.283185307179586
  0
ELLIPSE
  5
43
330
1F
100
AcDbEntity
  8
Layer 1
 62
     4
370
    53
100
AcDbEllipse
 10
-6.74995
 20
-1.50005
 30
0.0
 11
0.0
 21
2.55005
 31
0.0
210
0.0
220
0.0
230
1.0
 40
1.0
 41
0.0
 42
6.283185307179586
  0
ELLIPSE
  5
44
330
1F
100
AcDbEntity
  8
Layer 1
370
    53
100
AcDbEllipse
 10
-6.74995
 20
4.49995
 30
0.0
 11
0.0
 21
2.45005
 31
0.0
210
0.0
220
0.0
230
1.0
 40
1.0
 41
0.0
 42
6.283185307179586
  0
ELLIPSE
  5
45
330
1F
100
AcDbEntity
  8
Layer 1
 62
     4
370
    53
100
AcDbEllipse
 10
-6.74995
 20
4.49995
 30
0.0
 11
0.0
 21
2.55005
 31
0.0
210
0.0
220
0.0
230
1.0
 40
1.0
 41
0.0
 42
6.283185307179586
  0
ELLIPSE
  5
46
330
1F
100
AcDbEntity
  8
Layer 1
370
    53
100
AcDbEllipse
 10
-2.24995
 20
-4.50005
 30
0.0
 11
0.0
 21
2.45005
 31
0.0
210
0.0
220
0.0
230
1.0
 40
1.0
 41
0.0
 42
6.283185307179586
  0
ELLIPSE
  5
47
330
1F
100
AcDbEntity
  8
Layer 1
 62
     4
370
    53
100
AcDbEllipse
 10
-2.24995
 20
-4.50005
 30
0.0
 11
0.0
 21
2.55005
 31
0.0
210
0.0
220
0.0
230
1.0
 40
1.0
 41
0.0
 42
6.283185307179586
  0
ELLIPSE
  5
48
330
1F
100
AcDbEntity
  8
Layer 1
370
    53
100
AcDbEllipse
 10
-2.24995
 20
1.49995
 30
0.0
 11
0.0
 21
2.45005
 31
0.0
210
0.0
220
0.0
230
1.0
 40
1.0
 41
0.0
 42
6.283185307179586
  0
ELLIPSE
  5
49
330
1F
100
AcDbEntity
  8
Layer 1
 62
     4
370
    53
100
AcDbEllipse
 10
-2.24995
 20
1.49995
 30
0.0
 11
0.0
 21
2.55005
 31
0.0
210
0.0
220
0.0
230
1.0
 40
1.0
 41
0.0
 42
6.283185307179586
  0
ELLIPSE
  5
4A
330
1F
100
AcDbEntity
  8
Layer 1
370
    53
100
AcDbEllipse
 10
2.25005
 20
-1.50005
 30
0.0
 11
0.0
 21
2.45005
 31
0.0
210
0.0
220
0.0
230
1.0
 40
1.0
 41
0.0
 42
6.283185307179586
  0
ELLIPSE
  5
4B
330
1F
100
AcDbEntity
  8
Layer 1
 62
     4
370
    53
100
AcDbEllipse
 10
2.25005
 20
-1.50005
 30
0.0
 11
0.0
 21
2.55005
 31
0.0
210
0.0
220
0.0
230
1.0
 40
1.0
 41
0.0
 42
6.283185307179586
  0
ELLIPSE
  5
4C
330
1F
100
AcDbEntity
  8
Layer 1
370
    53
100
AcDbEllipse
 10
2.25005
 20
4.49995
 30
0.0
 11
0.0
 21
2.45005
 31
0.0
210
0.0
220
0.0
230
1.0
 40
1.0
 41
0.0
 42
6.283185307179586
  0
ELLIPSE
  5
4D
330
1F
100
AcDbEntity
  8
Layer 1
 62
     4
370
    53
100
AcDbEllipse
 10
2.25005
 20
4.49995
 30
0.0
 11
0.0
 21
2.55005
 31
0.0
210
0.0
220
0.0
230
1.0
 40
1.0
 41
0.0
 42
6.283185307179586
  0
ELLIPSE
  5
4E
330
1F
100
AcDbEntity
  8
Layer 1
370
    53
100
AcDbEllipse
 10
6.75005
 20
-4.50005
 30
0.0
 11
0.0
 21
2.45005
 31
0.0
210
0.0
220
0.0
230
1.0
 40
1.0
 41
0.0
 42
6.283185307179586
  0
ELLIPSE
  5
4F
330
1F
100
AcDbEntity
  8
Layer 1
 62
     4
370
    53
100
AcDbEllipse
 10
6.75005
 20
-4.50005
 30
0.0
 11
0.0
 21
2.55005
 31
0.0
210
0.0
220
0.0
230
1.0
 40
1.0
 41
0.0
 42
6.283185307179586
  0
ELLIPSE
  5
50
330
1F
100
AcDbEntity
  8
Layer 1
370
    53
100
AcDbEllipse
 10
6.75005
 20
1.49995
 30
0.0
 11
0.0
 21
2.45005
 31
0.0
210
0.0
220
0.0
230
1.0
 40
1.0
 41
0.0
 42
6.283185307179586
  0
ELLIPSE
  5
51
330
1F
100
AcDbEntity
  8
Layer 1
 62
     4
370
    53
100
AcDbEllipse
 10
6.75005
 20
1.49995
 30
0.0
 11
0.0
 21
2.55005
 31
0.0
210
0.0
220
0.0
230
1.0
 40
1.0
 41
0.0
 42
6.283185307179586
  0
SPLINE
  5
52
330
1F
100
AcDbEntity
  8
Layer 1
 62
     5
370
     9
100
AcDbSpline
210
0.0
220
0.0
230
1.0
 70
    11
 71
     3
 72
    48
 73
    44
 74
     0
 42
0.0000000001
 43
0.0000000001
 12
1.0
 22
0.0
 32
0.0
 13
1.0
 23
0.0
 33
0.0
 40
0.0
 40
0.0
 40
0.0
 40
0.0
 40
0.0833333333333333
 40
0.0833333333333333
 40
0.0833333333333333
 40
0.0833333333333333
 40
0.1666666666666667
 40
0.1666666666666667
 40
0.1666666666666667
 40
0.1666666666666667
 40
0.25
 40
0.25
 40
0.25
 40
0.25
 40
0.3333333333333333
 40
0.3333333333333333
 40
0.3333333333333333
 40
0.3333333333333333
 40
0.4166666666666667
 40
0.4166666666666667
 40
0.4166666666666667
 40
0.4166666666666667
 40
0.5
 40
0.5
 40
0.5
 40
0.5
 40
0.5833333333333334
 40
0.5833333333333334
 40
0.5833333333333334
 40
0.5833333333333334
 40
0.6666666666666666
 40
0.6666666666666666
 40
0.6666666666666666
 40
0.6666666666666666
 40
0.75
 40
0.75
 40
0.75
 40
0.75
 40
0.8333333333333334
 40
0.8333333333333334
 40
0.8333333333333334
 40
0.8333333333333334
 40
1.0
 40
1.0
 40
1.0
 40
1.0
 10
5.72023
 20
5.83336
 30
0.0
 10
5.72023
 20
5.83336
 30
0.0
 10
5.72023
 20
6.21711
 30
0.0
 10
5.72023
 20
6.21711
 30
0.0
 10
5.72023
 20
6.21711
 30
0.0
 10
5.72023
 20
6.21711
 30
0.0
 10
5.76765
 20
6.21711
 30
0.0
 10
5.76765
 20
6.21711
 30
0.0
 10
5.76765
 20
6.21711
 30
0.0
 10
5.76765
 20
6.21711
 30
0.0
 10
5.76765
 20
6.04861
 30
0.0
 10
5.76765
 20
6.04861
 30
0.0
 10
5.76765
 20
6.04861
 30
0.0
 10
5.78707
 20
6.08524
 30
0.0
 10
5.8163
 20
6.10351
 30
0.0
 10
5.85523
 20
6.10351
 30
0.0
 10
5.85523
 20
6.10351
 30
0.0
 10
5.88676
 20
6.10351
 30
0.0
 10
5.91153
 20
6.09207
 30
0.0
 10
5.92964
 20
6.06911
 30
0.0
 10
5.92964
 20
6.06911
 30
0.0
 10
5.94775
 20
6.04614
 30
0.0
 10
5.95681
 20
6.01478
 30
0.0
 10
5.95681
 20
5.97502
 30
0.0
 10
5.95681
 20
5.97502
 30
0.0
 10
5.95681
 20
5.93172
 30
0.0
 10
5.94652
 20
5.89674
 30
0.0
 10
5.92602
 20
5.87023
 30
0.0
 10
5.92602
 20
5.87023
 30
0.0
 10
5.90552
 20
5.84365
 30
0.0
 10
5.87853
 20
5.83039
 30
0.0
 10
5.84511
 20
5.83039
 30
0.0
 10
5.84511
 20
5.83039
 30
0.0
 10
5.81407
 20
5.83039
 30
0.0
 10
5.78823
 20
5.84225
 30
0.0
 10
5.76765
 20
5.86604
 30
0.0
 10
5.76765
 20
5.86604
 30
0.0
 10
5.76765
 20
5.86604
 30
0.0
 10
5.76188
 20
5.83336
 30
0.0
 10
5.76188
 20
5.83336
 30
0.0
 10
5.76188
 20
5.83336
 30
0.0
 10
5.76188
 20
5.83336
 30
0.0
 10
5.72023
 20
5.83336
 30
0.0
 10
5.72023
 20
5.83336
 30
0.0
  0
SPLINE
  5
53
330
1F
100
AcDbEntity
  8
Layer 1
 62
     5
370
     9
100
AcDbSpline
210
0.0
220
0.0
230
1.0
 70
    11
 71
     3
 72
    28
 73
    24
 74
     0
 42
0.0000000001
 43
0.0000000001
 12
1.0
 22
0.0
 32
0.0
 13
1.0
 23
0.0
 33
0.0
 40
0.0
 40
0.0
 40
0.0
 40
0.0
 40
0.1428571428571428
 40
0.1428571428571428
 40
0.1428571428571428
 40
0.1428571428571428
 40
0.2857142857142857
 40
0.2857142857142857
 40
0.2857142857142857
 40
0.2857142857142857
 40
0.4285714285714285
 40
0.4285714285714285
 40
0.4285714285714285
 40
0.4285714285714285
 40
0.5714285714285714
 40
0.5714285714285714
 40
0.5714285714285714
 40
0.5714285714285714
 40
0.7142857142857143
 40
0.7142857142857143
 40
0.7142857142857143
 40
0.7142857142857143
 40
1.0
 40
1.0
 40
1.0
 40
1.0
 10
5.76765
 20
5.89871
 30
0.0
 10
5.79209
 20
5.8769
 30
0.0
 10
5.81539
 20
5.86595
 30
0.0
 10
5.83753
 20
5.86595
 30
0.0
 10
5.83753
 20
5.86595
 30
0.0
 10
5.85935
 20
5.86595
 30
0.0
 10
5.87622
 20
5.87509
 30
0.0
 10
5.88807
 20
5.89328
 30
0.0
 10
5.88807
 20
5.89328
 30
0.0
 10
5.90001
 20
5.91147
 30
0.0
 10
5.90594
 20
5.93707
 30
0.0
 10
5.90594
 20
5.97016
 30
0.0
 10
5.90594
 20
5.97016
 30
0.0
 10
5.90594
 20
6.03141
 30
0.0
 10
5.88569
 20
6.06203
 30
0.0
 10
5.84519
 20
6.06203
 30
0.0
 10
5.84519
 20
6.06203
 30
0.0
 10
5.81868
 20
6.06203
 30
0.0
 10
5.79284
 20
6.0477
 30
0.0
 10
5.76765
 20
6.01898
 30
0.0
 10
5.76765
 20
6.01898
 30
0.0
 10
5.76765
 20
6.01898
 30
0.0
 10
5.76765
 20
5.89871
 30
0.0
 10
5.76765
 20
5.89871
 30
0.0
  0
SPLINE
  5
54
330
1F
100
AcDbEntity
  8
Layer 1
 62
     5
370
     9
100
AcDbSpline
210
0.0
220
0.0
230
1.0
 70
    11
 71
     3
 72
    36
 73
    32
 74
     0
 42
0.0000000001
 43
0.0000000001
 12
1.0
 22
0.0
 32
0.0
 13
1.0
 23
0.0
 33
0.0
 40
0.0
 40
0.0
 40
0.0
 40
0.0
 40
0.1111111111111111
 40
0.1111111111111111
 40
0.1111111111111111
 40
0.1111111111111111
 40
0.2222222222222222
 40
0.2222222222222222
 40
0.2222222222222222
 40
0.2222222222222222
 40
0.3333333333333333
 40
0.3333333333333333
 40
0.3333333333333333
 40
0.3333333333333333
 40
0.4444444444444444
 40
0.4444444444444444
 40
0.4444444444444444
 40
0.4444444444444444
 40
0.5555555555555556
 40
0.5555555555555556
 40
0.5555555555555556
 40
0.5555555555555556
 40
0.6666666666666666
 40
0.6666666666666666
 40
0.6666666666666666
 40
0.6666666666666666
 40
0.7777777777777778
 40
0.7777777777777778
 40
0.7777777777777778
 40
0.7777777777777778
 40
1.0
 40
1.0
 40
1.0
 40
1.0
 10
6.13526
 20
5.83039
 30
0.0
 10
6.09682
 20
5.83039
 30
0.0
 10
6.06637
 20
5.84266
 30
0.0
 10
6.04398
 20
5.86719
 30
0.0
 10
6.04398
 20
5.86719
 30
0.0
 10
6.0215
 20
5.89172
 30
0.0
 10
6.01031
 20
5.92506
 30
0.0
 10
6.01031
 20
5.96712
 30
0.0
 10
6.01031
 20
5.96712
 30
0.0
 10
6.01031
 20
6.0091
 30
0.0
 10
6.0215
 20
6.04235
 30
0.0
 10
6.04398
 20
6.0668
 30
0.0
 10
6.04398
 20
6.0668
 30
0.0
 10
6.06637
 20
6.09125
 30
0.0
 10
6.09682
 20
6.10351
 30
0.0
 10
6.13526
 20
6.10351
 30
0.0
 10
6.13526
 20
6.10351
 30
0.0
 10
6.17371
 20
6.10351
 30
0.0
 10
6.20416
 20
6.09125
 30
0.0
 10
6.22655
 20
6.0668
 30
0.0
 10
6.22655
 20
6.0668
 30
0.0
 10
6.24902
 20
6.04235
 30
0.0
 10
6.26022
 20
6.0091
 30
0.0
 10
6.26022
 20
5.96712
 30
0.0
 10
6.26022
 20
5.96712
 30
0.0
 10
6.26022
 20
5.92506
 30
0.0
 10
6.24902
 20
5.89172
 30
0.0
 10
6.22655
 20
5.86719
 30
0.0
 10
6.22655
 20
5.86719
 30
0.0
 10
6.20416
 20
5.84266
 30
0.0
 10
6.17371
 20
5.83039
 30
0.0
 10
6.13526
 20
5.83039
 30
0.0
  0
SPLINE
  5
55
330
1F
100
AcDbEntity
  8
Layer 1
 62
     5
370
     9
100
AcDbSpline
210
0.0
220
0.0
230
1.0
 70
    11
 71
     3
 72
    36
 73
    32
 74
     0
 42
0.0000000001
 43
0.0000000001
 12
1.0
 22
0.0
 32
0.0
 13
1.0
 23
0.0
 33
0.0
 40
0.0
 40
0.0
 40
0.0
 40
0.0
 40
0.1111111111111111
 40
0.1111111111111111
 40
0.1111111111111111
 40
0.1111111111111111
 40
0.2222222222222222
 40
0.2222222222222222
 40
0.2222222222222222
 40
0.2222222222222222
 40
0.3333333333333333
 40
0.3333333333333333
 40
0.3333333333333333
 40
0.3333333333333333
 40
0.4444444444444444
 40
0.4444444444444444
 40
0.4444444444444444
 40
0.4444444444444444
 40
0.5555555555555556
 40
0.5555555555555556
 40
0.5555555555555556
 40
0.5555555555555556
 40
0.6666666666666666
 40
0.6666666666666666
 40
0.6666666666666666
 40
0.6666666666666666
 40
0.7777777777777778
 40
0.7777777777777778
 40
0.7777777777777778
 40
0.7777777777777778
 40
1.0
 40
1.0
 40
1.0
 40
1.0
 10
6.13518
 20
5.86595
 30
0.0
 10
6.15864
 20
5.86595
 30
0.0
 10
6.17692
 20
5.87476
 30
0.0
 10
6.18992
 20
5.89246
 30
0.0
 10
6.18992
 20
5.89246
 30
0.0
 10
6.20284
 20
5.91007
 30
0.0
 10
6.20935
 20
5.93502
 30
0.0
 10
6.20935
 20
5.96712
 30
0.0
 10
6.20935
 20
5.96712
 30
0.0
 10
6.20935
 20
5.99914
 30
0.0
 10
6.20284
 20
6.024
 30
0.0
 10
6.18992
 20
6.04161
 30
0.0
 10
6.18992
 20
6.04161
 30
0.0
 10
6.17692
 20
6.05915
 30
0.0
 10
6.15864
 20
6.06795
 30
0.0
 10
6.13518
 20
6.06795
 30
0.0
 10
6.13518
 20
6.06795
 30
0.0
 10
6.11164
 20
6.06795
 30
0.0
 10
6.09337
 20
6.05915
 30
0.0
 10
6.08052
 20
6.04161
 30
0.0
 10
6.08052
 20
6.04161
 30
0.0
 10
6.0676
 20
6.024
 30
0.0
 10
6.06118
 20
5.99914
 30
0.0
 10
6.06118
 20
5.96712
 30
0.0
 10
6.06118
 20
5.96712
 30
0.0
 10
6.06118
 20
5.93502
 30
0.0
 10
6.0676
 20
5.91007
 30
0.0
 10
6.08052
 20
5.89246
 30
0.0
 10
6.08052
 20
5.89246
 30
0.0
 10
6.09337
 20
5.87476
 30
0.0
 10
6.11164
 20
5.86595
 30
0.0
 10
6.13518
 20
5.86595
 30
0.0
  0
SPLINE
  5
56
330
1F
100
AcDbEntity
  8
Layer 1
 62
     5
370
     9
100
AcDbSpline
210
0.0
220
0.0
230
1.0
 70
    11
 71
     3
 72
    20
 73
    16
 74
     0
 42
0.0000000001
 43
0.0000000001
 12
1.0
 22
0.0
 32
0.0
 13
1.0
 23
0.0
 33
0.0
 40
0.0
 40
0.0
 40
0.0
 40
0.0
 40
0.2
 40
0.2
 40
0.2
 40
0.2
 40
0.4
 40
0.4
 40
0.4
 40
0.4
 40
0.6
 40
0.6
 40
0.6
 40
0.6
 40
1.0
 40
1.0
 40
1.0
 40
1.0
 10
6.33446
 20
5.83632
 30
0.0
 10
6.33446
 20
5.83632
 30
0.0
 10
6.33446
 20
6.21711
 30
0.0
 10
6.33446
 20
6.21711
 30
0.0
 10
6.33446
 20
6.21711
 30
0.0
 10
6.33446
 20
6.21711
 30
0.0
 10
6.38188
 20
6.21711
 30
0.0
 10
6.38188
 20
6.21711
 30
0.0
 10
6.38188
 20
6.21711
 30
0.0
 10
6.38188
 20
6.21711
 30
0.0
 10
6.38188
 20
5.83632
 30
0.0
 10
6.38188
 20
5.83632
 30
0.0
 10
6.38188
 20
5.83632
 30
0.0
 10
6.38188
 20
5.83632
 30
0.0
 10
6.33446
 20
5.83632
 30
0.0
 10
6.33446
 20
5.83632
 30
0.0
  0
SPLINE
  5
57
330
1F
100
AcDbEntity
  8
Layer 1
 62
     5
370
     9
100
AcDbSpline
210
0.0
220
0.0
230
1.0
 70
    11
 71
     3
 72
    72
 73
    68
 74
     0
 42
0.0000000001
 43
0.0000000001
 12
1.0
 22
0.0
 32
0.0
 13
1.0
 23
0.0
 33
0.0
 40
0.0
 40
0.0
 40
0.0
 40
0.0
 40
0.0555555555555556
 40
0.0555555555555556
 40
0.0555555555555556
 40
0.0555555555555556
 40
0.1111111111111111
 40
0.1111111111111111
 40
0.1111111111111111
 40
0.1111111111111111
 40
0.1666666666666667
 40
0.1666666666666667
 40
0.1666666666666667
 40
0.1666666666666667
 40
0.2222222222222222
 40
0.2222222222222222
 40
0.2222222222222222
 40
0.2222222222222222
 40
0.2777777777777778
 40
0.2777777777777778
 40
0.2777777777777778
 40
0.2777777777777778
 40
0.3333333333333333
 40
0.3333333333333333
 40
0.3333333333333333
 40
0.3333333333333333
 40
0.3888888888888889
 40
0.3888888888888889
 40
0.3888888888888889
 40
0.3888888888888889
 40
0.4444444444444444
 40
0.4444444444444444
 40
0.4444444444444444
 40
0.4444444444444444
 40
0.5
 40
0.5
 40
0.5
 40
0.5
 40
0.5555555555555556
 40
0.5555555555555556
 40
0.5555555555555556
 40
0.5555555555555556
 40
0.6111111111111112
 40
0.6111111111111112
 40
0.6111111111111112
 40
0.6111111111111112
 40
0.6666666666666666
 40
0.6666666666666666
 40
0.6666666666666666
 40
0.6666666666666666
 40
0.7222222222222222
 40
0.7222222222222222
 40
0.7222222222222222
 40
0.7222222222222222
 40
0.7777777777777778
 40
0.7777777777777778
 40
0.7777777777777778
 40
0.7777777777777778
 40
0.8333333333333334
 40
0.8333333333333334
 40
0.8333333333333334
 40
0.8333333333333334
 40
0.8888888888888888
 40
0.8888888888888888
 40
0.8888888888888888
 40
0.8888888888888888
 40
1.0
 40
1.0
 40
1.0
 40
1.0
 10
6.59425
 20
5.8364
 30
0.0
 10
6.57959
 20
5.83237
 30
0.0
 10
6.56683
 20
5.83039
 30
0.0
 10
6.55605
 20
5.83039
 30
0.0
 10
6.55605
 20
5.83039
 30
0.0
 10
6.53185
 20
5.83039
 30
0.0
 10
6.513
 20
5.83731
 30
0.0
 10
6.4995
 20
5.85114
 30
0.0
 10
6.4995
 20
5.85114
 30
0.0
 10
6.48592
 20
5.86497
 30
0.0
 10
6.47917
 20
5.88415
 30
0.0
 10
6.47917
 20
5.90876
 30
0.0
 10
6.47917
 20
5.90876
 30
0.0
 10
6.47917
 20
5.90876
 30
0.0
 10
6.47917
 20
6.06252
 30
0.0
 10
6.47917
 20
6.06252
 30
0.0
 10
6.47917
 20
6.06252
 30
0.0
 10
6.47917
 20
6.06252
 30
0.0
 10
6.44641
 20
6.06252
 30
0.0
 10
6.44641
 20
6.06252
 30
0.0
 10
6.44641
 20
6.06252
 30
0.0
 10
6.44641
 20
6.06252
 30
0.0
 10
6.44641
 20
6.09808
 30
0.0
 10
6.44641
 20
6.09808
 30
0.0
 10
6.44641
 20
6.09808
 30
0.0
 10
6.44641
 20
6.09808
 30
0.0
 10
6.47917
 20
6.09808
 30
0.0
 10
6.47917
 20
6.09808
 30
0.0
 10
6.47917
 20
6.09808
 30
0.0
 10
6.47917
 20
6.09808
 30
0.0
 10
6.47917
 20
6.14541
 30
0.0
 10
6.47917
 20
6.14541
 30
0.0
 10
6.47917
 20
6.14541
 30
0.0
 10
6.47917
 20
6.14541
 30
0.0
 10
6.52658
 20
6.14994
 30
0.0
 10
6.52658
 20
6.14994
 30
0.0
 10
6.52658
 20
6.14994
 30
0.0
 10
6.52658
 20
6.14994
 30
0.0
 10
6.52658
 20
6.09808
 30
0.0
 10
6.52658
 20
6.09808
 30
0.0
 10
6.52658
 20
6.09808
 30
0.0
 10
6.52658
 20
6.09808
 30
0.0
 10
6.59523
 20
6.09808
 30
0.0
 10
6.59523
 20
6.09808
 30
0.0
 10
6.59523
 20
6.09808
 30
0.0
 10
6.59523
 20
6.09808
 30
0.0
 10
6.59523
 20
6.06252
 30
0.0
 10
6.59523
 20
6.06252
 30
0.0
 10
6.59523
 20
6.06252
 30
0.0
 10
6.59523
 20
6.06252
 30
0.0
 10
6.52658
 20
6.06252
 30
0.0
 10
6.52658
 20
6.06252
 30
0.0
 10
6.52658
 20
6.06252
 30
0.0
 10
6.52658
 20
6.06252
 30
0.0
 10
6.52658
 20
5.91732
 30
0.0
 10
6.52658
 20
5.91732
 30
0.0
 10
6.52658
 20
5.91732
 30
0.0
 10
6.52658
 20
5.88307
 30
0.0
 10
6.54148
 20
5.86595
 30
0.0
 10
6.5712
 20
5.86595
 30
0.0
 10
6.5712
 20
5.86595
 30
0.0
 10
6.57754
 20
5.86595
 30
0.0
 10
6.58519
 20
5.86702
 30
0.0
 10
6.59425
 20
5.86908
 30
0.0
 10
6.59425
 20
5.86908
 30
0.0
 10
6.59425
 20
5.86908
 30
0.0
 10
6.59425
 20
5.8364
 30
0.0
 10
6.59425
 20
5.8364
 30
0.0
  0
SPLINE
  5
58
330
1F
100
AcDbEntity
  8
Layer 1
 62
     5
370
     9
100
AcDbSpline
210
0.0
220
0.0
230
1.0
 70
    11
 71
     3
 72
    20
 73
    16
 74
     0
 42
0.0000000001
 43
0.0000000001
 12
1.0
 22
0.0
 32
0.0
 13
1.0
 23
0.0
 33
0.0
 40
0.0
 40
0.0
 40
0.0
 40
0.0
 40
0.2
 40
0.2
 40
0.2
 40
0.2
 40
0.4
 40
0.4
 40
0.4
 40
0.4
 40
0.6
 40
0.6
 40
0.6
 40
0.6
 40
1.0
 40
1.0
 40
1.0
 40
1.0
 10
6.63523
 20
5.80076
 30
0.0
 10
6.63523
 20
5.80076
 30
0.0
 10
6.63523
 20
5.83632
 30
0.0
 10
6.63523
 20
5.83632
 30
0.0
 10
6.63523
 20
5.83632
 30
0.0
 10
6.63523
 20
5.83632
 30
0.0
 10
6.84069
 20
5.83632
 30
0.0
 10
6.84069
 20
5.83632
 30
0.0
 10
6.84069
 20
5.83632
 30
0.0
 10
6.84069
 20
5.83632
 30
0.0
 10
6.84069
 20
5.80076
 30
0.0
 10
6.84069
 20
5.80076
 30
0.0
 10
6.84069
 20
5.80076
 30
0.0
 10
6.84069
 20
5.80076
 30
0.0
 10
6.63523
 20
5.80076
 30
0.0
 10
6.63523
 20
5.80076
 30
0.0
  0
SPLINE
  5
59
330
1F
100
AcDbEntity
  8
Layer 1
 62
     5
370
     9
100
AcDbSpline
210
0.0
220
0.0
230
1.0
 70
    11
 71
     3
 72
    48
 73
    44
 74
     0
 42
0.0000000001
 43
0.0000000001
 12
1.0
 22
0.0
 32
0.0
 13
1.0
 23
0.0
 33
0.0
 40
0.0
 40
0.0
 40
0.0
 40
0.0
 40
0.0833333333333333
 40
0.0833333333333333
 40
0.0833333333333333
 40
0.0833333333333333
 40
0.1666666666666667
 40
0.1666666666666667
 40
0.1666666666666667
 40
0.1666666666666667
 40
0.25
 40
0.25
 40
0.25
 40
0.25
 40
0.3333333333333333
 40
0.3333333333333333
 40
0.3333333333333333
 40
0.3333333333333333
 40
0.4166666666666667
 40
0.4166666666666667
 40
0.4166666666666667
 40
0.4166666666666667
 40
0.5
 40
0.5
 40
0.5
 40
0.5
 40
0.5833333333333334
 40
0.5833333333333334
 40
0.5833333333333334
 40
0.5833333333333334
 40
0.6666666666666666
 40
0.6666666666666666
 40
0.6666666666666666
 40
0.6666666666666666
 40
0.75
 40
0.75
 40
0.75
 40
0.75
 40
0.8333333333333334
 40
0.8333333333333334
 40
0.8333333333333334
 40
0.8333333333333334
 40
1.0
 40
1.0
 40
1.0
 40
1.0
 10
6.90886
 20
5.741
 30
0.0
 10
6.90886
 20
5.741
 30
0.0
 10
6.90886
 20
6.09808
 30
0.0
 10
6.90886
 20
6.09808
 30
0.0
 10
6.90886
 20
6.09808
 30
0.0
 10
6.90886
 20
6.09808
 30
0.0
 10
6.95628
 20
6.09808
 30
0.0
 10
6.95628
 20
6.09808
 30
0.0
 10
6.95628
 20
6.09808
 30
0.0
 10
6.95628
 20
6.09808
 30
0.0
 10
6.95628
 20
6.04861
 30
0.0
 10
6.95628
 20
6.04861
 30
0.0
 10
6.95628
 20
6.04861
 30
0.0
 10
6.9757
 20
6.08524
 30
0.0
 10
7.00493
 20
6.10351
 30
0.0
 10
7.04386
 20
6.10351
 30
0.0
 10
7.04386
 20
6.10351
 30
0.0
 10
7.07539
 20
6.10351
 30
0.0
 10
7.10016
 20
6.09207
 30
0.0
 10
7.11827
 20
6.06911
 30
0.0
 10
7.11827
 20
6.06911
 30
0.0
 10
7.13638
 20
6.04614
 30
0.0
 10
7.14544
 20
6.01478
 30
0.0
 10
7.14544
 20
5.97502
 30
0.0
 10
7.14544
 20
5.97502
 30
0.0
 10
7.14544
 20
5.93172
 30
0.0
 10
7.13515
 20
5.89674
 30
0.0
 10
7.11465
 20
5.87023
 30
0.0
 10
7.11465
 20
5.87023
 30
0.0
 10
7.09415
 20
5.84365
 30
0.0
 10
7.06716
 20
5.83039
 30
0.0
 10
7.03374
 20
5.83039
 30
0.0
 10
7.03374
 20
5.83039
 30
0.0
 10
7.0027
 20
5.83039
 30
0.0
 10
6.97686
 20
5.84225
 30
0.0
 10
6.95628
 20
5.86604
 30
0.0
 10
6.95628
 20
5.86604
 30
0.0
 10
6.95628
 20
5.86604
 30
0.0
 10
6.95628
 20
5.741
 30
0.0
 10
6.95628
 20
5.741
 30
0.0
 10
6.95628
 20
5.741
 30
0.0
 10
6.95628
 20
5.741
 30
0.0
 10
6.90886
 20
5.741
 30
0.0
 10
6.90886
 20
5.741
 30
0.0
  0
SPLINE
  5
5A
330
1F
100
AcDbEntity
  8
Layer 1
 62
     5
370
     9
100
AcDbSpline
210
0.0
220
0.0
230
1.0
 70
    11
 71
     3
 72
    28
 73
    24
 74
     0
 42
0.0000000001
 43
0.0000000001
 12
1.0
 22
0.0
 32
0.0
 13
1.0
 23
0.0
 33
0.0
 40
0.0
 40
0.0
 40
0.0
 40
0.0
 40
0.1428571428571428
 40
0.1428571428571428
 40
0.1428571428571428
 40
0.1428571428571428
 40
0.2857142857142857
 40
0.2857142857142857
 40
0.2857142857142857
 40
0.2857142857142857
 40
0.4285714285714285
 40
0.4285714285714285
 40
0.4285714285714285
 40
0.4285714285714285
 40
0.5714285714285714
 40
0.5714285714285714
 40
0.5714285714285714
 40
0.5714285714285714
 40
0.7142857142857143
 40
0.7142857142857143
 40
0.7142857142857143
 40
0.7142857142857143
 40
1.0
 40
1.0
 40
1.0
 40
1.0
 10
6.95628
 20
5.89871
 30
0.0
 10
6.98072
 20
5.8769
 30
0.0
 10
7.00402
 20
5.86595
 30
0.0
 10
7.02616
 20
5.86595
 30
0.0
 10
7.02616
 20
5.86595
 30
0.0
 10
7.04798
 20
5.86595
 30
0.0
 10
7.06485
 20
5.87509
 30
0.0
 10
7.0767
 20
5.89328
 30
0.0
 10
7.0767
 20
5.89328
 30
0.0
 10
7.08864
 20
5.91147
 30
0.0
 10
7.09457
 20
5.93707
 30
0.0
 10
7.09457
 20
5.97016
 30
0.0
 10
7.09457
 20
5.97016
 30
0.0
 10
7.09457
 20
6.03141
 30
0.0
 10
7.07432
 20
6.06203
 30
0.0
 10
7.03382
 20
6.06203
 30
0.0
 10
7.03382
 20
6.06203
 30
0.0
 10
7.00731
 20
6.06203
 30
0.0
 10
6.98147
 20
6.0477
 30
0.0
 10
6.95628
 20
6.01898
 30
0.0
 10
6.95628
 20
6.01898
 30
0.0
 10
6.95628
 20
6.01898
 30
0.0
 10
6.95628
 20
5.89871
 30
0.0
 10
6.95628
 20
5.89871
 30
0.0
  0
SPLINE
  5
5B
330
1F
100
AcDbEntity
  8
Layer 1
 62
     5
370
     9
100
AcDbSpline
210
0.0
220
0.0
230
1.0
 70
    11
 71
     3
 72
    80
 73
    76
 74
     0
 42
0.0000000001
 43
0.0000000001
 12
1.0
 22
0.0
 32
0.0
 13
1.0
 23
0.0
 33
0.0
 40
0.0
 40
0.0
 40
0.0
 40
0.0
 40
0.05
 40
0.05
 40
0.05
 40
0.05
 40
0.1
 40
0.1
 40
0.1
 40
0.1
 40
0.15
 40
0.15
 40
0.15
 40
0.15
 40
0.2
 40
0.2
 40
0.2
 40
0.2
 40
0.25
 40
0.25
 40
0.25
 40
0.25
 40
0.3
 40
0.3
 40
0.3
 40
0.3
 40
0.35
 40
0.35
 40
0.35
 40
0.35
 40
0.4
 40
0.4
 40
0.4
 40
0.4
 40
0.45
 40
0.45
 40
0.45
 40
0.45
 40
0.5
 40
0.5
 40
0.5
 40
0.5
 40
0.55
 40
0.55
 40
0.55
 40
0.55
 40
0.6
 40
0.6
 40
0.6
 40
0.6
 40
0.65
 40
0.65
 40
0.65
 40
0.65
 40
0.7
 40
0.7
 40
0.7
 40
0.7
 40
0.75
 40
0.75
 40
0.75
 40
0.75
 40
0.8
 40
0.8
 40
0.8
 40
0.8
 40
0.85
 40
0.85
 40
0.85
 40
0.85
 40
0.9
 40
0.9
 40
0.9
 40
0.9
 40
1.0
 40
1.0
 40
1.0
 40
1.0
 10
7.3546
 20
5.86966
 30
0.0
 10
7.32612
 20
5.84348
 30
0.0
 10
7.29871
 20
5.83039
 30
0.0
 10
7.27237
 20
5.83039
 30
0.0
 10
7.27237
 20
5.83039
 30
0.0
 10
7.25072
 20
5.83039
 30
0.0
 10
7.23269
 20
5.83714
 30
0.0
 10
7.21845
 20
5.85073
 30
0.0
 10
7.21845
 20
5.85073
 30
0.0
 10
7.20413
 20
5.86431
 30
0.0
 10
7.19696
 20
5.88143
 30
0.0
 10
7.19696
 20
5.90209
 30
0.0
 10
7.19696
 20
5.90209
 30
0.0
 10
7.19696
 20
5.93065
 30
0.0
 10
7.20898
 20
5.95263
 30
0.0
 10
7.23302
 20
5.96794
 30
0.0
 10
7.23302
 20
5.96794
 30
0.0
 10
7.25705
 20
5.98325
 30
0.0
 10
7.29154
 20
5.99091
 30
0.0
 10
7.33649
 20
5.99091
 30
0.0
 10
7.33649
 20
5.99091
 30
0.0
 10
7.33649
 20
5.99091
 30
0.0
 10
7.3476
 20
5.99091
 30
0.0
 10
7.3476
 20
5.99091
 30
0.0
 10
7.3476
 20
5.99091
 30
0.0
 10
7.3476
 20
5.99091
 30
0.0
 10
7.3476
 20
6.02243
 30
0.0
 10
7.3476
 20
6.02243
 30
0.0
 10
7.3476
 20
6.02243
 30
0.0
 10
7.3476
 20
6.05281
 30
0.0
 10
7.3318
 20
6.06795
 30
0.0
 10
7.30011
 20
6.06795
 30
0.0
 10
7.30011
 20
6.06795
 30
0.0
 10
7.27558
 20
6.06795
 30
0.0
 10
7.24874
 20
6.06022
 30
0.0
 10
7.21968
 20
6.04474
 30
0.0
 10
7.21968
 20
6.04474
 30
0.0
 10
7.21968
 20
6.04474
 30
0.0
 10
7.21968
 20
6.08376
 30
0.0
 10
7.21968
 20
6.08376
 30
0.0
 10
7.21968
 20
6.08376
 30
0.0
 10
7.25162
 20
6.09693
 30
0.0
 10
7.28175
 20
6.10351
 30
0.0
 10
7.30998
 20
6.10351
 30
0.0
 10
7.30998
 20
6.10351
 30
0.0
 10
7.33904
 20
6.10351
 30
0.0
 10
7.36052
 20
6.09693
 30
0.0
 10
7.37427
 20
6.08368
 30
0.0
 10
7.37427
 20
6.08368
 30
0.0
 10
7.3881
 20
6.07042
 30
0.0
 10
7.39501
 20
6.05001
 30
0.0
 10
7.39501
 20
6.02243
 30
0.0
 10
7.39501
 20
6.02243
 30
0.0
 10
7.39501
 20
6.02243
 30
0.0
 10
7.39501
 20
5.90415
 30
0.0
 10
7.39501
 20
5.90415
 30
0.0
 10
7.39501
 20
5.90415
 30
0.0
 10
7.39501
 20
5.87707
 30
0.0
 10
7.40333
 20
5.86348
 30
0.0
 10
7.42004
 20
5.86348
 30
0.0
 10
7.42004
 20
5.86348
 30
0.0
 10
7.4221
 20
5.86348
 30
0.0
 10
7.42514
 20
5.86381
 30
0.0
 10
7.42918
 20
5.86447
 30
0.0
 10
7.42918
 20
5.86447
 30
0.0
 10
7.42918
 20
5.86447
 30
0.0
 10
7.43255
 20
5.83813
 30
0.0
 10
7.43255
 20
5.83813
 30
0.0
 10
7.43255
 20
5.83813
 30
0.0
 10
7.42177
 20
5.83295
 30
0.0
 10
7.40991
 20
5.83039
 30
0.0
 10
7.39691
 20
5.83039
 30
0.0
 10
7.39691
 20
5.83039
 30
0.0
 10
7.37476
 20
5.83039
 30
0.0
 10
7.36069
 20
5.84348
 30
0.0
 10
7.3546
 20
5.86966
 30
0.0
  0
SPLINE
  5
5C
330
1F
100
AcDbEntity
  8
Layer 1
 62
     5
370
     9
100
AcDbSpline
210
0.0
220
0.0
230
1.0
 70
    11
 71
     3
 72
    32
 73
    28
 74
     0
 42
0.0000000001
 43
0.0000000001
 12
1.0
 22
0.0
 32
0.0
 13
1.0
 23
0.0
 33
0.0
 40
0.0
 40
0.0
 40
0.0
 40
0.0
 40
0.125
 40
0.125
 40
0.125
 40
0.125
 40
0.25
 40
0.25
 40
0.25
 40
0.25
 40
0.375
 40
0.375
 40
0.375
 40
0.375
 40
0.5
 40
0.5
 40
0.5
 40
0.5
 40
0.625
 40
0.625
 40
0.625
 40
0.625
 40
0.75
 40
0.75
 40
0.75
 40
0.75
 40
1.0
 40
1.0
 40
1.0
 40
1.0
 10
7.3476
 20
5.8955
 30
0.0
 10
7.3476
 20
5.8955
 30
0.0
 10
7.3476
 20
5.96276
 30
0.0
 10
7.3476
 20
5.96276
 30
0.0
 10
7.3476
 20
5.96276
 30
0.0
 10
7.3476
 20
5.96276
 30
0.0
 10
7.33237
 20
5.96325
 30
0.0
 10
7.33237
 20
5.96325
 30
0.0
 10
7.33237
 20
5.96325
 30
0.0
 10
7.30603
 20
5.96325
 30
0.0
 10
7.28479
 20
5.95839
 30
0.0
 10
7.26858
 20
5.94868
 30
0.0
 10
7.26858
 20
5.94868
 30
0.0
 10
7.25244
 20
5.93888
 30
0.0
 10
7.24438
 20
5.92596
 30
0.0
 10
7.24438
 20
5.90983
 30
0.0
 10
7.24438
 20
5.90983
 30
0.0
 10
7.24438
 20
5.89855
 30
0.0
 10
7.24841
 20
5.889
 30
0.0
 10
7.2564
 20
5.88118
 30
0.0
 10
7.2564
 20
5.88118
 30
0.0
 10
7.26446
 20
5.87336
 30
0.0
 10
7.27426
 20
5.86941
 30
0.0
 10
7.28586
 20
5.86941
 30
0.0
 10
7.28586
 20
5.86941
 30
0.0
 10
7.30562
 20
5.86941
 30
0.0
 10
7.3262
 20
5.87814
 30
0.0
 10
7.3476
 20
5.8955
 30
0.0
  0
SPLINE
  5
5D
330
1F
100
AcDbEntity
  8
Layer 1
 62
     5
370
     9
100
AcDbSpline
210
0.0
220
0.0
230
1.0
 70
    11
 71
     3
 72
    60
 73
    56
 74
     0
 42
0.0000000001
 43
0.0000000001
 12
1.0
 22
0.0
 32
0.0
 13
1.0
 23
0.0
 33
0.0
 40
0.0
 40
0.0
 40
0.0
 40
0.0
 40
0.0666666666666667
 40
0.0666666666666667
 40
0.0666666666666667
 40
0.0666666666666667
 40
0.1333333333333333
 40
0.1333333333333333
 40
0.1333333333333333
 40
0.1333333333333333
 40
0.2
 40
0.2
 40
0.2
 40
0.2
 40
0.2666666666666667
 40
0.2666666666666667
 40
0.2666666666666667
 40
0.2666666666666667
 40
0.3333333333333333
 40
0.3333333333333333
 40
0.3333333333333333
 40
0.3333333333333333
 40
0.4
 40
0.4
 40
0.4
 40
0.4
 40
0.4666666666666667
 40
0.4666666666666667
 40
0.4666666666666667
 40
0.4666666666666667
 40
0.5333333333333333
 40
0.5333333333333333
 40
0.5333333333333333
 40
0.5333333333333333
 40
0.6
 40
0.6
 40
0.6
 40
0.6
 40
0.6666666666666666
 40
0.6666666666666666
 40
0.6666666666666666
 40
0.6666666666666666
 40
0.7333333333333333
 40
0.7333333333333333
 40
0.7333333333333333
 40
0.7333333333333333
 40
0.8
 40
0.8
 40
0.8
 40
0.8
 40
0.8666666666666667
 40
0.8666666666666667
 40
0.8666666666666667
 40
0.8666666666666667
 40
1.0
 40
1.0
 40
1.0
 40
1.0
 10
7.67414
 20
5.84422
 30
0.0
 10
7.64344
 20
5.835
 30
0.0
 10
7.61694
 20
5.83039
 30
0.0
 10
7.59463
 20
5.83039
 30
0.0
 10
7.59463
 20
5.83039
 30
0.0
 10
7.55923
 20
5.83039
 30
0.0
 10
7.52993
 20
5.84348
 30
0.0
 10
7.50663
 20
5.86958
 30
0.0
 10
7.50663
 20
5.86958
 30
0.0
 10
7.48334
 20
5.89575
 30
0.0
 10
7.47165
 20
5.92876
 30
0.0
 10
7.47165
 20
5.96852
 30
0.0
 10
7.47165
 20
5.96852
 30
0.0
 10
7.47165
 20
6.01099
 30
0.0
 10
7.48317
 20
6.04417
 30
0.0
 10
7.50622
 20
6.06787
 30
0.0
 10
7.50622
 20
6.06787
 30
0.0
 10
7.52927
 20
6.09166
 30
0.0
 10
7.56146
 20
6.10351
 30
0.0
 10
7.60278
 20
6.10351
 30
0.0
 10
7.60278
 20
6.10351
 30
0.0
 10
7.62311
 20
6.10351
 30
0.0
 10
7.64599
 20
6.10072
 30
0.0
 10
7.67118
 20
6.09512
 30
0.0
 10
7.67118
 20
6.09512
 30
0.0
 10
7.67118
 20
6.09512
 30
0.0
 10
7.67118
 20
6.05511
 30
0.0
 10
7.67118
 20
6.05511
 30
0.0
 10
7.67118
 20
6.05511
 30
0.0
 10
7.64443
 20
6.06302
 30
0.0
 10
7.62262
 20
6.06697
 30
0.0
 10
7.60582
 20
6.06697
 30
0.0
 10
7.60582
 20
6.06697
 30
0.0
 10
7.58146
 20
6.06697
 30
0.0
 10
7.56195
 20
6.05783
 30
0.0
 10
7.54738
 20
6.03964
 30
0.0
 10
7.54738
 20
6.03964
 30
0.0
 10
7.53281
 20
6.02145
 30
0.0
 10
7.52548
 20
5.99716
 30
0.0
 10
7.52548
 20
5.96687
 30
0.0
 10
7.52548
 20
5.96687
 30
0.0
 10
7.52548
 20
5.93749
 30
0.0
 10
7.53306
 20
5.91378
 30
0.0
 10
7.54812
 20
5.89559
 30
0.0
 10
7.54812
 20
5.89559
 30
0.0
 10
7.56318
 20
5.87748
 30
0.0
 10
7.58286
 20
5.86842
 30
0.0
 10
7.60731
 20
5.86842
 30
0.0
 10
7.60731
 20
5.86842
 30
0.0
 10
7.62895
 20
5.86842
 30
0.0
 10
7.65118
 20
5.87402
 30
0.0
 10
7.67414
 20
5.88522
 30
0.0
 10
7.67414
 20
5.88522
 30
0.0
 10
7.67414
 20
5.88522
 30
0.0
 10
7.67414
 20
5.84422
 30
0.0
 10
7.67414
 20
5.84422
 30
0.0
  0
SPLINE
  5
5E
330
1F
100
AcDbEntity
  8
Layer 1
 62
     5
370
     9
100
AcDbSpline
210
0.0
220
0.0
230
1.0
 70
    11
 71
     3
 72
    48
 73
    44
 74
     0
 42
0.0000000001
 43
0.0000000001
 12
1.0
 22
0.0
 32
0.0
 13
1.0
 23
0.0
 33
0.0
 40
0.0
 40
0.0
 40
0.0
 40
0.0
 40
0.0833333333333333
 40
0.0833333333333333
 40
0.0833333333333333
 40
0.0833333333333333
 40
0.1666666666666667
 40
0.1666666666666667
 40
0.1666666666666667
 40
0.1666666666666667
 40
0.25
 40
0.25
 40
0.25
 40
0.25
 40
0.3333333333333333
 40
0.3333333333333333
 40
0.3333333333333333
 40
0.3333333333333333
 40
0.4166666666666667
 40
0.4166666666666667
 40
0.4166666666666667
 40
0.4166666666666667
 40
0.5
 40
0.5
 40
0.5
 40
0.5
 40
0.5833333333333334
 40
0.5833333333333334
 40
0.5833333333333334
 40
0.5833333333333334
 40
0.6666666666666666
 40
0.6666666666666666
 40
0.6666666666666666
 40
0.6666666666666666
 40
0.75
 40
0.75
 40
0.75
 40
0.75
 40
0.8333333333333334
 40
0.8333333333333334
 40
0.8333333333333334
 40
0.8333333333333334
 40
1.0
 40
1.0
 40
1.0
 40
1.0
 10
7.74534
 20
5.83632
 30
0.0
 10
7.74534
 20
5.83632
 30
0.0
 10
7.74534
 20
6.21711
 30
0.0
 10
7.74534
 20
6.21711
 30
0.0
 10
7.74534
 20
6.21711
 30
0.0
 10
7.74534
 20
6.21711
 30
0.0
 10
7.79276
 20
6.21711
 30
0.0
 10
7.79276
 20
6.21711
 30
0.0
 10
7.79276
 20
6.21711
 30
0.0
 10
7.79276
 20
6.21711
 30
0.0
 10
7.79276
 20
5.97107
 30
0.0
 10
7.79276
 20
5.97107
 30
0.0
 10
7.79276
 20
5.97107
 30
0.0
 10
7.79276
 20
5.97107
 30
0.0
 10
7.90388
 20
6.09808
 30
0.0
 10
7.90388
 20
6.09808
 30
0.0
 10
7.90388
 20
6.09808
 30
0.0
 10
7.90388
 20
6.09808
 30
0.0
 10
7.95508
 20
6.09808
 30
0.0
 10
7.95508
 20
6.09808
 30
0.0
 10
7.95508
 20
6.09808
 30
0.0
 10
7.95508
 20
6.09808
 30
0.0
 10
7.8489
 20
5.97593
 30
0.0
 10
7.8489
 20
5.97593
 30
0.0
 10
7.8489
 20
5.97593
 30
0.0
 10
7.8489
 20
5.97593
 30
0.0
 10
7.97731
 20
5.83632
 30
0.0
 10
7.97731
 20
5.83632
 30
0.0
 10
7.97731
 20
5.83632
 30
0.0
 10
7.97731
 20
5.83632
 30
0.0
 10
7.91623
 20
5.83632
 30
0.0
 10
7.91623
 20
5.83632
 30
0.0
 10
7.91623
 20
5.83632
 30
0.0
 10
7.91623
 20
5.83632
 30
0.0
 10
7.79276
 20
5.97058
 30
0.0
 10
7.79276
 20
5.97058
 30
0.0
 10
7.79276
 20
5.97058
 30
0.0
 10
7.79276
 20
5.97058
 30
0.0
 10
7.79276
 20
5.83632
 30
0.0
 10
7.79276
 20
5.83632
 30
0.0
 10
7.79276
 20
5.83632
 30
0.0
 10
7.79276
 20
5.83632
 30
0.0
 10
7.74534
 20
5.83632
 30
0.0
 10
7.74534
 20
5.83632
 30
0.0
  0
SPLINE
  5
5F
330
1F
100
AcDbEntity
  8
Layer 1
 62
     5
370
     9
100
AcDbSpline
210
0.0
220
0.0
230
1.0
 70
    11
 71
     3
 72
    80
 73
    76
 74
     0
 42
0.0000000001
 43
0.0000000001
 12
1.0
 22
0.0
 32
0.0
 13
1.0
 23
0.0
 33
0.0
 40
0.0
 40
0.0
 40
0.0
 40
0.0
 40
0.05
 40
0.05
 40
0.05
 40
0.05
 40
0.1
 40
0.1
 40
0.1
 40
0.1
 40
0.15
 40
0.15
 40
0.15
 40
0.15
 40
0.2
 40
0.2
 40
0.2
 40
0.2
 40
0.25
 40
0.25
 40
0.25
 40
0.25
 40
0.3
 40
0.3
 40
0.3
 40
0.3
 40
0.35
 40
0.35
 40
0.35
 40
0.35
 40
0.4
 40
0.4
 40
0.4
 40
0.4
 40
0.45
 40
0.45
 40
0.45
 40
0.45
 40
0.5
 40
0.5
 40
0.5
 40
0.5
 40
0.55
 40
0.55
 40
0.55
 40
0.55
 40
0.6
 40
0.6
 40
0.6
 40
0.6
 40
0.65
 40
0.65
 40
0.65
 40
0.65
 40
0.7
 40
0.7
 40
0.7
 40
0.7
 40
0.75
 40
0.75
 40
0.75
 40
0.75
 40
0.8
 40
0.8
 40
0.8
 40
0.8
 40
0.85
 40
0.85
 40
0.85
 40
0.85
 40
0.9
 40
0.9
 40
0.9
 40
0.9
 40
1.0
 40
1.0
 40
1.0
 40
1.0
 10
8.16894
 20
5.86966
 30
0.0
 10
8.14046
 20
5.84348
 30
0.0
 10
8.11305
 20
5.83039
 30
0.0
 10
8.08671
 20
5.83039
 30
0.0
 10
8.08671
 20
5.83039
 30
0.0
 10
8.06506
 20
5.83039
 30
0.0
 10
8.04703
 20
5.83714
 30
0.0
 10
8.03279
 20
5.85073
 30
0.0
 10
8.03279
 20
5.85073
 30
0.0
 10
8.01847
 20
5.86431
 30
0.0
 10
8.0113
 20
5.88143
 30
0.0
 10
8.0113
 20
5.90209
 30
0.0
 10
8.0113
 20
5.90209
 30
0.0
 10
8.0113
 20
5.93065
 30
0.0
 10
8.02332
 20
5.95263
 30
0.0
 10
8.04736
 20
5.96794
 30
0.0
 10
8.04736
 20
5.96794
 30
0.0
 10
8.07139
 20
5.98325
 30
0.0
 10
8.10588
 20
5.99091
 30
0.0
 10
8.15083
 20
5.99091
 30
0.0
 10
8.15083
 20
5.99091
 30
0.0
 10
8.15083
 20
5.99091
 30
0.0
 10
8.16194
 20
5.99091
 30
0.0
 10
8.16194
 20
5.99091
 30
0.0
 10
8.16194
 20
5.99091
 30
0.0
 10
8.16194
 20
5.99091
 30
0.0
 10
8.16194
 20
6.02243
 30
0.0
 10
8.16194
 20
6.02243
 30
0.0
 10
8.16194
 20
6.02243
 30
0.0
 10
8.16194
 20
6.05281
 30
0.0
 10
8.14614
 20
6.06795
 30
0.0
 10
8.11445
 20
6.06795
 30
0.0
 10
8.11445
 20
6.06795
 30
0.0
 10
8.08992
 20
6.06795
 30
0.0
 10
8.06308
 20
6.06022
 30
0.0
 10
8.03402
 20
6.04474
 30
0.0
 10
8.03402
 20
6.04474
 30
0.0
 10
8.03402
 20
6.04474
 30
0.0
 10
8.03402
 20
6.08376
 30
0.0
 10
8.03402
 20
6.08376
 30
0.0
 10
8.03402
 20
6.08376
 30
0.0
 10
8.06596
 20
6.09693
 30
0.0
 10
8.09609
 20
6.10351
 30
0.0
 10
8.12432
 20
6.10351
 30
0.0
 10
8.12432
 20
6.10351
 30
0.0
 10
8.15338
 20
6.10351
 30
0.0
 10
8.17486
 20
6.09693
 30
0.0
 10
8.18861
 20
6.08368
 30
0.0
 10
8.18861
 20
6.08368
 30
0.0
 10
8.20244
 20
6.07042
 30
0.0
 10
8.20935
 20
6.05001
 30
0.0
 10
8.20935
 20
6.02243
 30
0.0
 10
8.20935
 20
6.02243
 30
0.0
 10
8.20935
 20
6.02243
 30
0.0
 10
8.20935
 20
5.90415
 30
0.0
 10
8.20935
 20
5.90415
 30
0.0
 10
8.20935
 20
5.90415
 30
0.0
 10
8.20935
 20
5.87707
 30
0.0
 10
8.21767
 20
5.86348
 30
0.0
 10
8.23438
 20
5.86348
 30
0.0
 10
8.23438
 20
5.86348
 30
0.0
 10
8.23644
 20
5.86348
 30
0.0
 10
8.23948
 20
5.86381
 30
0.0
 10
8.24352
 20
5.86447
 30
0.0
 10
8.24352
 20
5.86447
 30
0.0
 10
8.24352
 20
5.86447
 30
0.0
 10
8.24689
 20
5.83813
 30
0.0
 10
8.24689
 20
5.83813
 30
0.0
 10
8.24689
 20
5.83813
 30
0.0
 10
8.23611
 20
5.83295
 30
0.0
 10
8.22425
 20
5.83039
 30
0.0
 10
8.21125
 20
5.83039
 30
0.0
 10
8.21125
 20
5.83039
 30
0.0
 10
8.1891
 20
5.83039
 30
0.0
 10
8.17503
 20
5.84348
 30
0.0
 10
8.16894
 20
5.86966
 30
0.0
  0
SPLINE
  5
60
330
1F
100
AcDbEntity
  8
Layer 1
 62
     5
370
     9
100
AcDbSpline
210
0.0
220
0.0
230
1.0
 70
    11
 71
     3
 72
    32
 73
    28
 74
     0
 42
0.0000000001
 43
0.0000000001
 12
1.0
 22
0.0
 32
0.0
 13
1.0
 23
0.0
 33
0.0
 40
0.0
 40
0.0
 40
0.0
 40
0.0
 40
0.125
 40
0.125
 40
0.125
 40
0.125
 40
0.25
 40
0.25
 40
0.25
 40
0.25
 40
0.375
 40
0.375
 40
0.375
 40
0.375
 40
0.5
 40
0.5
 40
0.5
 40
0.5
 40
0.625
 40
0.625
 40
0.625
 40
0.625
 40
0.75
 40
0.75
 40
0.75
 40
0.75
 40
1.0
 40
1.0
 40
1.0
 40
1.0
 10
8.16194
 20
5.8955
 30
0.0
 10
8.16194
 20
5.8955
 30
0.0
 10
8.16194
 20
5.96276
 30
0.0
 10
8.16194
 20
5.96276
 30
0.0
 10
8.16194
 20
5.96276
 30
0.0
 10
8.16194
 20
5.96276
 30
0.0
 10
8.14671
 20
5.96325
 30
0.0
 10
8.14671
 20
5.96325
 30
0.0
 10
8.14671
 20
5.96325
 30
0.0
 10
8.12037
 20
5.96325
 30
0.0
 10
8.09913
 20
5.95839
 30
0.0
 10
8.08292
 20
5.94868
 30
0.0
 10
8.08292
 20
5.94868
 30
0.0
 10
8.06678
 20
5.93888
 30
0.0
 10
8.05872
 20
5.92596
 30
0.0
 10
8.05872
 20
5.90983
 30
0.0
 10
8.05872
 20
5.90983
 30
0.0
 10
8.05872
 20
5.89855
 30
0.0
 10
8.06275
 20
5.889
 30
0.0
 10
8.07074
 20
5.88118
 30
0.0
 10
8.07074
 20
5.88118
 30
0.0
 10
8.0788
 20
5.87336
 30
0.0
 10
8.0886
 20
5.86941
 30
0.0
 10
8.1002
 20
5.86941
 30
0.0
 10
8.1002
 20
5.86941
 30
0.0
 10
8.11996
 20
5.86941
 30
0.0
 10
8.14054
 20
5.87814
 30
0.0
 10
8.16194
 20
5.8955
 30
0.0
  0
SPLINE
  5
61
330
1F
100
AcDbEntity
  8
Layer 1
 62
     5
370
     9
100
AcDbSpline
210
0.0
220
0.0
230
1.0
 70
    11
 71
     3
 72
    76
 73
    72
 74
     0
 42
0.0000000001
 43
0.0000000001
 12
1.0
 22
0.0
 32
0.0
 13
1.0
 23
0.0
 33
0.0
 40
0.0
 40
0.0
 40
0.0
 40
0.0
 40
0.0526315789473684
 40
0.0526315789473684
 40
0.0526315789473684
 40
0.0526315789473684
 40
0.1052631578947368
 40
0.1052631578947368
 40
0.1052631578947368
 40
0.1052631578947368
 40
0.1578947368421053
 40
0.1578947368421053
 40
0.1578947368421053
 40
0.1578947368421053
 40
0.2105263157894737
 40
0.2105263157894737
 40
0.2105263157894737
 40
0.2105263157894737
 40
0.2631578947368421
 40
0.2631578947368421
 40
0.2631578947368421
 40
0.2631578947368421
 40
0.3157894736842105
 40
0.3157894736842105
 40
0.3157894736842105
 40
0.3157894736842105
 40
0.3684210526315789
 40
0.3684210526315789
 40
0.3684210526315789
 40
0.3684210526315789
 40
0.4210526315789473
 40
0.4210526315789473
 40
0.4210526315789473
 40
0.4210526315789473
 40
0.4736842105263158
 40
0.4736842105263158
 40
0.4736842105263158
 40
0.4736842105263158
 40
0.5263157894736842
 40
0.5263157894736842
 40
0.5263157894736842
 40
0.5263157894736842
 40
0.5789473684210527
 40
0.5789473684210527
 40
0.5789473684210527
 40
0.5789473684210527
 40
0.631578947368421
 40
0.631578947368421
 40
0.631578947368421
 40
0.631578947368421
 40
0.6842105263157895
 40
0.6842105263157895
 40
0.6842105263157895
 40
0.6842105263157895
 40
0.7368421052631579
 40
0.7368421052631579
 40
0.7368421052631579
 40
0.7368421052631579
 40
0.7894736842105263
 40
0.7894736842105263
 40
0.7894736842105263
 40
0.7894736842105263
 40
0.8421052631578947
 40
0.8421052631578947
 40
0.8421052631578947
 40
0.8421052631578947
 40
0.8947368421052632
 40
0.8947368421052632
 40
0.8947368421052632
 40
0.8947368421052632
 40
1.0
 40
1.0
 40
1.0
 40
1.0
 10
8.30772
 20
5.7494
 30
0.0
 10
8.30772
 20
5.7494
 30
0.0
 10
8.31332
 20
5.79039
 30
0.0
 10
8.31332
 20
5.79039
 30
0.0
 10
8.31332
 20
5.79039
 30
0.0
 10
8.34081
 20
5.77755
 30
0.0
 10
8.36806
 20
5.77113
 30
0.0
 10
8.39498
 20
5.77113
 30
0.0
 10
8.39498
 20
5.77113
 30
0.0
 10
8.4484
 20
5.77113
 30
0.0
 10
8.47515
 20
5.79944
 30
0.0
 10
8.47515
 20
5.85599
 30
0.0
 10
8.47515
 20
5.85599
 30
0.0
 10
8.47515
 20
5.85599
 30
0.0
 10
8.47515
 20
5.89715
 30
0.0
 10
8.47515
 20
5.89715
 30
0.0
 10
8.47515
 20
5.89715
 30
0.0
 10
8.46692
 20
5.87978
 30
0.0
 10
8.45523
 20
5.86636
 30
0.0
 10
8.44
 20
5.85673
 30
0.0
 10
8.44
 20
5.85673
 30
0.0
 10
8.42477
 20
5.8471
 30
0.0
 10
8.40782
 20
5.84225
 30
0.0
 10
8.38913
 20
5.84225
 30
0.0
 10
8.38913
 20
5.84225
 30
0.0
 10
8.35744
 20
5.84225
 30
0.0
 10
8.33233
 20
5.85361
 30
0.0
 10
8.31381
 20
5.87633
 30
0.0
 10
8.31381
 20
5.87633
 30
0.0
 10
8.29529
 20
5.89904
 30
0.0
 10
8.28599
 20
5.92983
 30
0.0
 10
8.28599
 20
5.96868
 30
0.0
 10
8.28599
 20
5.96868
 30
0.0
 10
8.28599
 20
6.00844
 30
0.0
 10
8.29653
 20
6.04087
 30
0.0
 10
8.3176
 20
6.06598
 30
0.0
 10
8.3176
 20
6.06598
 30
0.0
 10
8.33875
 20
6.091
 30
0.0
 10
8.366
 20
6.10351
 30
0.0
 10
8.3995
 20
6.10351
 30
0.0
 10
8.3995
 20
6.10351
 30
0.0
 10
8.42881
 20
6.10351
 30
0.0
 10
8.45408
 20
6.09166
 30
0.0
 10
8.47515
 20
6.06787
 30
0.0
 10
8.47515
 20
6.06787
 30
0.0
 10
8.47515
 20
6.06787
 30
0.0
 10
8.47515
 20
6.09808
 30
0.0
 10
8.47515
 20
6.09808
 30
0.0
 10
8.47515
 20
6.09808
 30
0.0
 10
8.47515
 20
6.09808
 30
0.0
 10
8.52256
 20
6.09808
 30
0.0
 10
8.52256
 20
6.09808
 30
0.0
 10
8.52256
 20
6.09808
 30
0.0
 10
8.52256
 20
6.09808
 30
0.0
 10
8.52256
 20
5.90777
 30
0.0
 10
8.52256
 20
5.90777
 30
0.0
 10
8.52256
 20
5.90777
 30
0.0
 10
8.52256
 20
5.86686
 30
0.0
 10
8.52042
 20
5.83657
 30
0.0
 10
8.51614
 20
5.81689
 30
0.0
 10
8.51614
 20
5.81689
 30
0.0
 10
8.51194
 20
5.79722
 30
0.0
 10
8.50388
 20
5.78109
 30
0.0
 10
8.49219
 20
5.76857
 30
0.0
 10
8.49219
 20
5.76857
 30
0.0
 10
8.47145
 20
5.7466
 30
0.0
 10
8.43901
 20
5.73557
 30
0.0
 10
8.39498
 20
5.73557
 30
0.0
 10
8.39498
 20
5.73557
 30
0.0
 10
8.36477
 20
5.73557
 30
0.0
 10
8.33571
 20
5.74018
 30
0.0
 10
8.30772
 20
5.7494
 30
0.0
  0
SPLINE
  5
62
330
1F
100
AcDbEntity
  8
Layer 1
 62
     5
370
     9
100
AcDbSpline
210
0.0
220
0.0
230
1.0
 70
    11
 71
     3
 72
    28
 73
    24
 74
     0
 42
0.0000000001
 43
0.0000000001
 12
1.0
 22
0.0
 32
0.0
 13
1.0
 23
0.0
 33
0.0
 40
0.0
 40
0.0
 40
0.0
 40
0.0
 40
0.1428571428571428
 40
0.1428571428571428
 40
0.1428571428571428
 40
0.1428571428571428
 40
0.2857142857142857
 40
0.2857142857142857
 40
0.2857142857142857
 40
0.2857142857142857
 40
0.4285714285714285
 40
0.4285714285714285
 40
0.4285714285714285
 40
0.4285714285714285
 40
0.5714285714285714
 40
0.5714285714285714
 40
0.5714285714285714
 40
0.5714285714285714
 40
0.7142857142857143
 40
0.7142857142857143
 40
0.7142857142857143
 40
0.7142857142857143
 40
1.0
 40
1.0
 40
1.0
 40
1.0
 10
8.47515
 20
5.92687
 30
0.0
 10
8.47515
 20
5.92687
 30
0.0
 10
8.47515
 20
6.03544
 30
0.0
 10
8.47515
 20
6.03544
 30
0.0
 10
8.47515
 20
6.03544
 30
0.0
 10
8.45424
 20
6.05709
 30
0.0
 10
8.43144
 20
6.06795
 30
0.0
 10
8.40683
 20
6.06795
 30
0.0
 10
8.40683
 20
6.06795
 30
0.0
 10
8.38493
 20
6.06795
 30
0.0
 10
8.36781
 20
6.05923
 30
0.0
 10
8.35546
 20
6.0417
 30
0.0
 10
8.35546
 20
6.0417
 30
0.0
 10
8.34303
 20
6.02425
 30
0.0
 10
8.33686
 20
5.99996
 30
0.0
 10
8.33686
 20
5.96901
 30
0.0
 10
8.33686
 20
5.96901
 30
0.0
 10
8.33686
 20
5.91213
 30
0.0
 10
8.35703
 20
5.88373
 30
0.0
 10
8.39744
 20
5.88373
 30
0.0
 10
8.39744
 20
5.88373
 30
0.0
 10
8.42494
 20
5.88373
 30
0.0
 10
8.45087
 20
5.89814
 30
0.0
 10
8.47515
 20
5.92687
 30
0.0
  0
SPLINE
  5
63
330
1F
100
AcDbEntity
  8
Layer 1
 62
     5
370
     9
100
AcDbSpline
210
0.0
220
0.0
230
1.0
 70
    11
 71
     3
 72
    20
 73
    16
 74
     0
 42
0.0000000001
 43
0.0000000001
 12
1.0
 22
0.0
 32
0.0
 13
1.0
 23
0.0
 33
0.0
 40
0.0
 40
0.0
 40
0.0
 40
0.0
 40
0.2
 40
0.2
 40
0.2
 40
0.2
 40
0.4
 40
0.4
 40
0.4
 40
0.4
 40
0.6
 40
0.6
 40
0.6
 40
0.6
 40
1.0
 40
1.0
 40
1.0
 40
1.0
 10
8.61468
 20
5.83632
 30
0.0
 10
8.61468
 20
5.83632
 30
0.0
 10
8.61468
 20
6.09808
 30
0.0
 10
8.61468
 20
6.09808
 30
0.0
 10
8.61468
 20
6.09808
 30
0.0
 10
8.61468
 20
6.09808
 30
0.0
 10
8.6621
 20
6.09808
 30
0.0
 10
8.6621
 20
6.09808
 30
0.0
 10
8.6621
 20
6.09808
 30
0.0
 10
8.6621
 20
6.09808
 30
0.0
 10
8.6621
 20
5.83632
 30
0.0
 10
8.6621
 20
5.83632
 30
0.0
 10
8.6621
 20
5.83632
 30
0.0
 10
8.6621
 20
5.83632
 30
0.0
 10
8.61468
 20
5.83632
 30
0.0
 10
8.61468
 20
5.83632
 30
0.0
  0
SPLINE
  5
64
330
1F
100
AcDbEntity
  8
Layer 1
 62
     5
370
     9
100
AcDbSpline
210
0.0
220
0.0
230
1.0
 70
    11
 71
     3
 72
    20
 73
    16
 74
     0
 42
0.0000000001
 43
0.0000000001
 12
1.0
 22
0.0
 32
0.0
 13
1.0
 23
0.0
 33
0.0
 40
0.0
 40
0.0
 40
0.0
 40
0.0
 40
0.2
 40
0.2
 40
0.2
 40
0.2
 40
0.4
 40
0.4
 40
0.4
 40
0.4
 40
0.6
 40
0.6
 40
0.6
 40
0.6
 40
1.0
 40
1.0
 40
1.0
 40
1.0
 10
8.61468
 20
6.14599
 30
0.0
 10
8.61468
 20
6.14599
 30
0.0
 10
8.61468
 20
6.1934
 30
0.0
 10
8.61468
 20
6.1934
 30
0.0
 10
8.61468
 20
6.1934
 30
0.0
 10
8.61468
 20
6.1934
 30
0.0
 10
8.6621
 20
6.1934
 30
0.0
 10
8.6621
 20
6.1934
 30
0.0
 10
8.6621
 20
6.1934
 30
0.0
 10
8.6621
 20
6.1934
 30
0.0
 10
8.6621
 20
6.14599
 30
0.0
 10
8.6621
 20
6.14599
 30
0.0
 10
8.6621
 20
6.14599
 30
0.0
 10
8.6621
 20
6.14599
 30
0.0
 10
8.61468
 20
6.14599
 30
0.0
 10
8.61468
 20
6.14599
 30
0.0
  0
SPLINE
  5
65
330
1F
100
AcDbEntity
  8
Layer 1
 62
     5
370
     9
100
AcDbSpline
210
0.0
220
0.0
230
1.0
 70
    11
 71
     3
 72
    60
 73
    56
 74
     0
 42
0.0000000001
 43
0.0000000001
 12
1.0
 22
0.0
 32
0.0
 13
1.0
 23
0.0
 33
0.0
 40
0.0
 40
0.0
 40
0.0
 40
0.0
 40
0.0666666666666667
 40
0.0666666666666667
 40
0.0666666666666667
 40
0.0666666666666667
 40
0.1333333333333333
 40
0.1333333333333333
 40
0.1333333333333333
 40
0.1333333333333333
 40
0.2
 40
0.2
 40
0.2
 40
0.2
 40
0.2666666666666667
 40
0.2666666666666667
 40
0.2666666666666667
 40
0.2666666666666667
 40
0.3333333333333333
 40
0.3333333333333333
 40
0.3333333333333333
 40
0.3333333333333333
 40
0.4
 40
0.4
 40
0.4
 40
0.4
 40
0.4666666666666667
 40
0.4666666666666667
 40
0.4666666666666667
 40
0.4666666666666667
 40
0.5333333333333333
 40
0.5333333333333333
 40
0.5333333333333333
 40
0.5333333333333333
 40
0.6
 40
0.6
 40
0.6
 40
0.6
 40
0.6666666666666666
 40
0.6666666666666666
 40
0.6666666666666666
 40
0.6666666666666666
 40
0.7333333333333333
 40
0.7333333333333333
 40
0.7333333333333333
 40
0.7333333333333333
 40
0.8
 40
0.8
 40
0.8
 40
0.8
 40
0.8666666666666667
 40
0.8666666666666667
 40
0.8666666666666667
 40
0.8666666666666667
 40
1.0
 40
1.0
 40
1.0
 40
1.0
 10
8.75741
 20
5.83632
 30
0.0
 10
8.75741
 20
5.83632
 30
0.0
 10
8.75741
 20
6.09808
 30
0.0
 10
8.75741
 20
6.09808
 30
0.0
 10
8.75741
 20
6.09808
 30
0.0
 10
8.75741
 20
6.09808
 30
0.0
 10
8.80483
 20
6.09808
 30
0.0
 10
8.80483
 20
6.09808
 30
0.0
 10
8.80483
 20
6.09808
 30
0.0
 10
8.80483
 20
6.09808
 30
0.0
 10
8.80483
 20
6.04861
 30
0.0
 10
8.80483
 20
6.04861
 30
0.0
 10
8.80483
 20
6.04861
 30
0.0
 10
8.82993
 20
6.08524
 30
0.0
 10
8.86072
 20
6.10351
 30
0.0
 10
8.8971
 20
6.10351
 30
0.0
 10
8.8971
 20
6.10351
 30
0.0
 10
8.91999
 20
6.10351
 30
0.0
 10
8.93818
 20
6.09635
 30
0.0
 10
8.95159
 20
6.08195
 30
0.0
 10
8.95159
 20
6.08195
 30
0.0
 10
8.96501
 20
6.06763
 30
0.0
 10
8.97176
 20
6.04828
 30
0.0
 10
8.97176
 20
6.02408
 30
0.0
 10
8.97176
 20
6.02408
 30
0.0
 10
8.97176
 20
6.02408
 30
0.0
 10
8.97176
 20
5.83632
 30
0.0
 10
8.97176
 20
5.83632
 30
0.0
 10
8.97176
 20
5.83632
 30
0.0
 10
8.97176
 20
5.83632
 30
0.0
 10
8.92435
 20
5.83632
 30
0.0
 10
8.92435
 20
5.83632
 30
0.0
 10
8.92435
 20
5.83632
 30
0.0
 10
8.92435
 20
5.83632
 30
0.0
 10
8.92435
 20
6.00861
 30
0.0
 10
8.92435
 20
6.00861
 30
0.0
 10
8.92435
 20
6.00861
 30
0.0
 10
8.92435
 20
6.02803
 30
0.0
 10
8.92147
 20
6.04186
 30
0.0
 10
8.91579
 20
6.05009
 30
0.0
 10
8.91579
 20
6.05009
 30
0.0
 10
8.91003
 20
6.05841
 30
0.0
 10
8.90056
 20
6.06252
 30
0.0
 10
8.88731
 20
6.06252
 30
0.0
 10
8.88731
 20
6.06252
 30
0.0
 10
8.85817
 20
6.06252
 30
0.0
 10
8.83067
 20
6.04351
 30
0.0
 10
8.80483
 20
6.00548
 30
0.0
 10
8.80483
 20
6.00548
 30
0.0
 10
8.80483
 20
6.00548
 30
0.0
 10
8.80483
 20
5.83632
 30
0.0
 10
8.80483
 20
5.83632
 30
0.0
 10
8.80483
 20
5.83632
 30
0.0
 10
8.80483
 20
5.83632
 30
0.0
 10
8.75741
 20
5.83632
 30
0.0
 10
8.75741
 20
5.83632
 30
0.0
  0
SPLINE
  5
66
330
1F
100
AcDbEntity
  8
Layer 1
 62
     5
370
     9
100
AcDbSpline
210
0.0
220
0.0
230
1.0
 70
    11
 71
     3
 72
    76
 73
    72
 74
     0
 42
0.0000000001
 43
0.0000000001
 12
1.0
 22
0.0
 32
0.0
 13
1.0
 23
0.0
 33
0.0
 40
0.0
 40
0.0
 40
0.0
 40
0.0
 40
0.0526315789473684
 40
0.0526315789473684
 40
0.0526315789473684
 40
0.0526315789473684
 40
0.1052631578947368
 40
0.1052631578947368
 40
0.1052631578947368
 40
0.1052631578947368
 40
0.1578947368421053
 40
0.1578947368421053
 40
0.1578947368421053
 40
0.1578947368421053
 40
0.2105263157894737
 40
0.2105263157894737
 40
0.2105263157894737
 40
0.2105263157894737
 40
0.2631578947368421
 40
0.2631578947368421
 40
0.2631578947368421
 40
0.2631578947368421
 40
0.3157894736842105
 40
0.3157894736842105
 40
0.3157894736842105
 40
0.3157894736842105
 40
0.3684210526315789
 40
0.3684210526315789
 40
0.3684210526315789
 40
0.3684210526315789
 40
0.4210526315789473
 40
0.4210526315789473
 40
0.4210526315789473
 40
0.4210526315789473
 40
0.4736842105263158
 40
0.4736842105263158
 40
0.4736842105263158
 40
0.4736842105263158
 40
0.5263157894736842
 40
0.5263157894736842
 40
0.5263157894736842
 40
0.5263157894736842
 40
0.5789473684210527
 40
0.5789473684210527
 40
0.5789473684210527
 40
0.5789473684210527
 40
0.631578947368421
 40
0.631578947368421
 40
0.631578947368421
 40
0.631578947368421
 40
0.6842105263157895
 40
0.6842105263157895
 40
0.6842105263157895
 40
0.6842105263157895
 40
0.7368421052631579
 40
0.7368421052631579
 40
0.7368421052631579
 40
0.7368421052631579
 40
0.7894736842105263
 40
0.7894736842105263
 40
0.7894736842105263
 40
0.7894736842105263
 40
0.8421052631578947
 40
0.8421052631578947
 40
0.8421052631578947
 40
0.8421052631578947
 40
0.8947368421052632
 40
0.8947368421052632
 40
0.8947368421052632
 40
0.8947368421052632
 40
1.0
 40
1.0
 40
1.0
 40
1.0
 10
9.06494
 20
5.7494
 30
0.0
 10
9.06494
 20
5.7494
 30
0.0
 10
9.07054
 20
5.79039
 30
0.0
 10
9.07054
 20
5.79039
 30
0.0
 10
9.07054
 20
5.79039
 30
0.0
 10
9.09803
 20
5.77755
 30
0.0
 10
9.12528
 20
5.77113
 30
0.0
 10
9.1522
 20
5.77113
 30
0.0
 10
9.1522
 20
5.77113
 30
0.0
 10
9.20562
 20
5.77113
 30
0.0
 10
9.23237
 20
5.79944
 30
0.0
 10
9.23237
 20
5.85599
 30
0.0
 10
9.23237
 20
5.85599
 30
0.0
 10
9.23237
 20
5.85599
 30
0.0
 10
9.23237
 20
5.89715
 30
0.0
 10
9.23237
 20
5.89715
 30
0.0
 10
9.23237
 20
5.89715
 30
0.0
 10
9.22414
 20
5.87978
 30
0.0
 10
9.21245
 20
5.86636
 30
0.0
 10
9.19722
 20
5.85673
 30
0.0
 10
9.19722
 20
5.85673
 30
0.0
 10
9.18199
 20
5.8471
 30
0.0
 10
9.16504
 20
5.84225
 30
0.0
 10
9.14635
 20
5.84225
 30
0.0
 10
9.14635
 20
5.84225
 30
0.0
 10
9.11466
 20
5.84225
 30
0.0
 10
9.08955
 20
5.85361
 30
0.0
 10
9.07103
 20
5.87633
 30
0.0
 10
9.07103
 20
5.87633
 30
0.0
 10
9.05251
 20
5.89904
 30
0.0
 10
9.04321
 20
5.92983
 30
0.0
 10
9.04321
 20
5.96868
 30
0.0
 10
9.04321
 20
5.96868
 30
0.0
 10
9.04321
 20
6.00844
 30
0.0
 10
9.05375
 20
6.04087
 30
0.0
 10
9.07482
 20
6.06598
 30
0.0
 10
9.07482
 20
6.06598
 30
0.0
 10
9.09597
 20
6.091
 30
0.0
 10
9.12322
 20
6.10351
 30
0.0
 10
9.15672
 20
6.10351
 30
0.0
 10
9.15672
 20
6.10351
 30
0.0
 10
9.18603
 20
6.10351
 30
0.0
 10
9.2113
 20
6.09166
 30
0.0
 10
9.23237
 20
6.06787
 30
0.0
 10
9.23237
 20
6.06787
 30
0.0
 10
9.23237
 20
6.06787
 30
0.0
 10
9.23237
 20
6.09808
 30
0.0
 10
9.23237
 20
6.09808
 30
0.0
 10
9.23237
 20
6.09808
 30
0.0
 10
9.23237
 20
6.09808
 30
0.0
 10
9.27978
 20
6.09808
 30
0.0
 10
9.27978
 20
6.09808
 30
0.0
 10
9.27978
 20
6.09808
 30
0.0
 10
9.27978
 20
6.09808
 30
0.0
 10
9.27978
 20
5.90777
 30
0.0
 10
9.27978
 20
5.90777
 30
0.0
 10
9.27978
 20
5.90777
 30
0.0
 10
9.27978
 20
5.86686
 30
0.0
 10
9.27764
 20
5.83657
 30
0.0
 10
9.27336
 20
5.81689
 30
0.0
 10
9.27336
 20
5.81689
 30
0.0
 10
9.26916
 20
5.79722
 30
0.0
 10
9.2611
 20
5.78109
 30
0.0
 10
9.24941
 20
5.76857
 30
0.0
 10
9.24941
 20
5.76857
 30
0.0
 10
9.22867
 20
5.7466
 30
0.0
 10
9.19623
 20
5.73557
 30
0.0
 10
9.1522
 20
5.73557
 30
0.0
 10
9.1522
 20
5.73557
 30
0.0
 10
9.12199
 20
5.73557
 30
0.0
 10
9.09293
 20
5.74018
 30
0.0
 10
9.06494
 20
5.7494
 30
0.0
  0
SPLINE
  5
67
330
1F
100
AcDbEntity
  8
Layer 1
 62
     5
370
     9
100
AcDbSpline
210
0.0
220
0.0
230
1.0
 70
    11
 71
     3
 72
    28
 73
    24
 74
     0
 42
0.0000000001
 43
0.0000000001
 12
1.0
 22
0.0
 32
0.0
 13
1.0
 23
0.0
 33
0.0
 40
0.0
 40
0.0
 40
0.0
 40
0.0
 40
0.1428571428571428
 40
0.1428571428571428
 40
0.1428571428571428
 40
0.1428571428571428
 40
0.2857142857142857
 40
0.2857142857142857
 40
0.2857142857142857
 40
0.2857142857142857
 40
0.4285714285714285
 40
0.4285714285714285
 40
0.4285714285714285
 40
0.4285714285714285
 40
0.5714285714285714
 40
0.5714285714285714
 40
0.5714285714285714
 40
0.5714285714285714
 40
0.7142857142857143
 40
0.7142857142857143
 40
0.7142857142857143
 40
0.7142857142857143
 40
1.0
 40
1.0
 40
1.0
 40
1.0
 10
9.23237
 20
5.92687
 30
0.0
 10
9.23237
 20
5.92687
 30
0.0
 10
9.23237
 20
6.03544
 30
0.0
 10
9.23237
 20
6.03544
 30
0.0
 10
9.23237
 20
6.03544
 30
0.0
 10
9.21146
 20
6.05709
 30
0.0
 10
9.18866
 20
6.06795
 30
0.0
 10
9.16405
 20
6.06795
 30
0.0
 10
9.16405
 20
6.06795
 30
0.0
 10
9.14215
 20
6.06795
 30
0.0
 10
9.12503
 20
6.05923
 30
0.0
 10
9.11268
 20
6.0417
 30
0.0
 10
9.11268
 20
6.0417
 30
0.0
 10
9.10025
 20
6.02425
 30
0.0
 10
9.09408
 20
5.99996
 30
0.0
 10
9.09408
 20
5.96901
 30
0.0
 10
9.09408
 20
5.96901
 30
0.0
 10
9.09408
 20
5.91213
 30
0.0
 10
9.11425
 20
5.88373
 30
0.0
 10
9.15466
 20
5.88373
 30
0.0
 10
9.15466
 20
5.88373
 30
0.0
 10
9.18216
 20
5.88373
 30
0.0
 10
9.20809
 20
5.89814
 30
0.0
 10
9.23237
 20
5.92687
 30
0.0
  0
SPLINE
  5
68
330
1F
100
AcDbEntity
  8
Layer 1
 62
     5
370
     9
100
AcDbSpline
210
0.0
220
0.0
230
1.0
 70
    11
 71
     3
 72
    56
 73
    52
 74
     0
 42
0.0000000001
 43
0.0000000001
 12
1.0
 22
0.0
 32
0.0
 13
1.0
 23
0.0
 33
0.0
 40
0.0
 40
0.0
 40
0.0
 40
0.0
 40
0.0714285714285714
 40
0.0714285714285714
 40
0.0714285714285714
 40
0.0714285714285714
 40
0.1428571428571428
 40
0.1428571428571428
 40
0.1428571428571428
 40
0.1428571428571428
 40
0.2142857142857143
 40
0.2142857142857143
 40
0.2142857142857143
 40
0.2142857142857143
 40
0.2857142857142857
 40
0.2857142857142857
 40
0.2857142857142857
 40
0.2857142857142857
 40
0.3571428571428572
 40
0.3571428571428572
 40
0.3571428571428572
 40
0.3571428571428572
 40
0.4285714285714285
 40
0.4285714285714285
 40
0.4285714285714285
 40
0.4285714285714285
 40
0.5
 40
0.5
 40
0.5
 40
0.5
 40
0.5714285714285714
 40
0.5714285714285714
 40
0.5714285714285714
 40
0.5714285714285714
 40
0.6428571428571429
 40
0.6428571428571429
 40
0.6428571428571429
 40
0.6428571428571429
 40
0.7142857142857143
 40
0.7142857142857143
 40
0.7142857142857143
 40
0.7142857142857143
 40
0.7857142857142857
 40
0.7857142857142857
 40
0.7857142857142857
 40
0.7857142857142857
 40
0.8571428571428571
 40
0.8571428571428571
 40
0.8571428571428571
 40
0.8571428571428571
 40
1.0
 40
1.0
 40
1.0
 40
1.0
 10
6.61071
 20
5.07738
 30
0.0
 10
6.61071
 20
5.07738
 30
0.0
 10
6.53563
 20
5.33914
 30
0.0
 10
6.53563
 20
5.33914
 30
0.0
 10
6.53563
 20
5.33914
 30
0.0
 10
6.53563
 20
5.33914
 30
0.0
 10
6.5819
 20
5.33914
 30
0.0
 10
6.5819
 20
5.33914
 30
0.0
 10
6.5819
 20
5.33914
 30
0.0
 10
6.5819
 20
5.33914
 30
0.0
 10
6.63944
 20
5.13591
 30
0.0
 10
6.63944
 20
5.13591
 30
0.0
 10
6.63944
 20
5.13591
 30
0.0
 10
6.63944
 20
5.13591
 30
0.0
 10
6.70151
 20
5.33914
 30
0.0
 10
6.70151
 20
5.33914
 30
0.0
 10
6.70151
 20
5.33914
 30
0.0
 10
6.70151
 20
5.33914
 30
0.0
 10
6.74892
 20
5.33914
 30
0.0
 10
6.74892
 20
5.33914
 30
0.0
 10
6.74892
 20
5.33914
 30
0.0
 10
6.74892
 20
5.33914
 30
0.0
 10
6.8035
 20
5.13624
 30
0.0
 10
6.8035
 20
5.13624
 30
0.0
 10
6.8035
 20
5.13624
 30
0.0
 10
6.8035
 20
5.13624
 30
0.0
 10
6.86951
 20
5.33914
 30
0.0
 10
6.86951
 20
5.33914
 30
0.0
 10
6.86951
 20
5.33914
 30
0.0
 10
6.86951
 20
5.33914
 30
0.0
 10
6.91001
 20
5.33914
 30
0.0
 10
6.91001
 20
5.33914
 30
0.0
 10
6.91001
 20
5.33914
 30
0.0
 10
6.91001
 20
5.33914
 30
0.0
 10
6.82457
 20
5.07738
 30
0.0
 10
6.82457
 20
5.07738
 30
0.0
 10
6.82457
 20
5.07738
 30
0.0
 10
6.82457
 20
5.07738
 30
0.0
 10
6.77716
 20
5.07738
 30
0.0
 10
6.77716
 20
5.07738
 30
0.0
 10
6.77716
 20
5.07738
 30
0.0
 10
6.77716
 20
5.07738
 30
0.0
 10
6.72102
 20
5.28152
 30
0.0
 10
6.72102
 20
5.28152
 30
0.0
 10
6.72102
 20
5.28152
 30
0.0
 10
6.72102
 20
5.28152
 30
0.0
 10
6.65813
 20
5.07738
 30
0.0
 10
6.65813
 20
5.07738
 30
0.0
 10
6.65813
 20
5.07738
 30
0.0
 10
6.65813
 20
5.07738
 30
0.0
 10
6.61071
 20
5.07738
 30
0.0
 10
6.61071
 20
5.07738
 30
0.0
  0
SPLINE
  5
69
330
1F
100
AcDbEntity
  8
Layer 1
 62
     5
370
     9
100
AcDbSpline
210
0.0
220
0.0
230
1.0
 70
    11
 71
     3
 72
    36
 73
    32
 74
     0
 42
0.0000000001
 43
0.0000000001
 12
1.0
 22
0.0
 32
0.0
 13
1.0
 23
0.0
 33
0.0
 40
0.0
 40
0.0
 40
0.0
 40
0.0
 40
0.1111111111111111
 40
0.1111111111111111
 40
0.1111111111111111
 40
0.1111111111111111
 40
0.2222222222222222
 40
0.2222222222222222
 40
0.2222222222222222
 40
0.2222222222222222
 40
0.3333333333333333
 40
0.3333333333333333
 40
0.3333333333333333
 40
0.3333333333333333
 40
0.4444444444444444
 40
0.4444444444444444
 40
0.4444444444444444
 40
0.4444444444444444
 40
0.5555555555555556
 40
0.5555555555555556
 40
0.5555555555555556
 40
0.5555555555555556
 40
0.6666666666666666
 40
0.6666666666666666
 40
0.6666666666666666
 40
0.6666666666666666
 40
0.7777777777777778
 40
0.7777777777777778
 40
0.7777777777777778
 40
0.7777777777777778
 40
1.0
 40
1.0
 40
1.0
 40
1.0
 10
7.06485
 20
5.07145
 30
0.0
 10
7.02641
 20
5.07145
 30
0.0
 10
6.99596
 20
5.08372
 30
0.0
 10
6.97357
 20
5.10825
 30
0.0
 10
6.97357
 20
5.10825
 30
0.0
 10
6.95109
 20
5.13278
 30
0.0
 10
6.9399
 20
5.16612
 30
0.0
 10
6.9399
 20
5.20818
 30
0.0
 10
6.9399
 20
5.20818
 30
0.0
 10
6.9399
 20
5.25016
 30
0.0
 10
6.95109
 20
5.28341
 30
0.0
 10
6.97357
 20
5.30786
 30
0.0
 10
6.97357
 20
5.30786
 30
0.0
 10
6.99596
 20
5.33231
 30
0.0
 10
7.02641
 20
5.34457
 30
0.0
 10
7.06485
 20
5.34457
 30
0.0
 10
7.06485
 20
5.34457
 30
0.0
 10
7.1033
 20
5.34457
 30
0.0
 10
7.13375
 20
5.33231
 30
0.0
 10
7.15614
 20
5.30786
 30
0.0
 10
7.15614
 20
5.30786
 30
0.0
 10
7.17861
 20
5.28341
 30
0.0
 10
7.18981
 20
5.25016
 30
0.0
 10
7.18981
 20
5.20818
 30
0.0
 10
7.18981
 20
5.20818
 30
0.0
 10
7.18981
 20
5.16612
 30
0.0
 10
7.17861
 20
5.13278
 30
0.0
 10
7.15614
 20
5.10825
 30
0.0
 10
7.15614
 20
5.10825
 30
0.0
 10
7.13375
 20
5.08372
 30
0.0
 10
7.1033
 20
5.07145
 30
0.0
 10
7.06485
 20
5.07145
 30
0.0
  0
SPLINE
  5
6A
330
1F
100
AcDbEntity
  8
Layer 1
 62
     5
370
     9
100
AcDbSpline
210
0.0
220
0.0
230
1.0
 70
    11
 71
     3
 72
    36
 73
    32
 74
     0
 42
0.0000000001
 43
0.0000000001
 12
1.0
 22
0.0
 32
0.0
 13
1.0
 23
0.0
 33
0.0
 40
0.0
 40
0.0
 40
0.0
 40
0.0
 40
0.1111111111111111
 40
0.1111111111111111
 40
0.1111111111111111
 40
0.1111111111111111
 40
0.2222222222222222
 40
0.2222222222222222
 40
0.2222222222222222
 40
0.2222222222222222
 40
0.3333333333333333
 40
0.3333333333333333
 40
0.3333333333333333
 40
0.3333333333333333
 40
0.4444444444444444
 40
0.4444444444444444
 40
0.4444444444444444
 40
0.4444444444444444
 40
0.5555555555555556
 40
0.5555555555555556
 40
0.5555555555555556
 40
0.5555555555555556
 40
0.6666666666666666
 40
0.6666666666666666
 40
0.6666666666666666
 40
0.6666666666666666
 40
0.7777777777777778
 40
0.7777777777777778
 40
0.7777777777777778
 40
0.7777777777777778
 40
1.0
 40
1.0
 40
1.0
 40
1.0
 10
7.06477
 20
5.10701
 30
0.0
 10
7.08823
 20
5.10701
 30
0.0
 10
7.10651
 20
5.11582
 30
0.0
 10
7.11951
 20
5.13352
 30
0.0
 10
7.11951
 20
5.13352
 30
0.0
 10
7.13243
 20
5.15113
 30
0.0
 10
7.13894
 20
5.17608
 30
0.0
 10
7.13894
 20
5.20818
 30
0.0
 10
7.13894
 20
5.20818
 30
0.0
 10
7.13894
 20
5.2402
 30
0.0
 10
7.13243
 20
5.26506
 30
0.0
 10
7.11951
 20
5.28267
 30
0.0
 10
7.11951
 20
5.28267
 30
0.0
 10
7.10651
 20
5.30021
 30
0.0
 10
7.08823
 20
5.30901
 30
0.0
 10
7.06477
 20
5.30901
 30
0.0
 10
7.06477
 20
5.30901
 30
0.0
 10
7.04123
 20
5.30901
 30
0.0
 10
7.02296
 20
5.30021
 30
0.0
 10
7.01011
 20
5.28267
 30
0.0
 10
7.01011
 20
5.28267
 30
0.0
 10
6.99719
 20
5.26506
 30
0.0
 10
6.99077
 20
5.2402
 30
0.0
 10
6.99077
 20
5.20818
 30
0.0
 10
6.99077
 20
5.20818
 30
0.0
 10
6.99077
 20
5.17608
 30
0.0
 10
6.99719
 20
5.15113
 30
0.0
 10
7.01011
 20
5.13352
 30
0.0
 10
7.01011
 20
5.13352
 30
0.0
 10
7.02296
 20
5.11582
 30
0.0
 10
7.04123
 20
5.10701
 30
0.0
 10
7.06477
 20
5.10701
 30
0.0
  0
SPLINE
  5
6B
330
1F
100
AcDbEntity
  8
Layer 1
 62
     5
370
     9
100
AcDbSpline
210
0.0
220
0.0
230
1.0
 70
    11
 71
     3
 72
    44
 73
    40
 74
     0
 42
0.0000000001
 43
0.0000000001
 12
1.0
 22
0.0
 32
0.0
 13
1.0
 23
0.0
 33
0.0
 40
0.0
 40
0.0
 40
0.0
 40
0.0
 40
0.0909090909090909
 40
0.0909090909090909
 40
0.0909090909090909
 40
0.0909090909090909
 40
0.1818181818181818
 40
0.1818181818181818
 40
0.1818181818181818
 40
0.1818181818181818
 40
0.2727272727272727
 40
0.2727272727272727
 40
0.2727272727272727
 40
0.2727272727272727
 40
0.3636363636363636
 40
0.3636363636363636
 40
0.3636363636363636
 40
0.3636363636363636
 40
0.4545454545454545
 40
0.4545454545454545
 40
0.4545454545454545
 40
0.4545454545454545
 40
0.5454545454545454
 40
0.5454545454545454
 40
0.5454545454545454
 40
0.5454545454545454
 40
0.6363636363636364
 40
0.6363636363636364
 40
0.6363636363636364
 40
0.6363636363636364
 40
0.7272727272727273
 40
0.7272727272727273
 40
0.7272727272727273
 40
0.7272727272727273
 40
0.8181818181818182
 40
0.8181818181818182
 40
0.8181818181818182
 40
0.8181818181818182
 40
1.0
 40
1.0
 40
1.0
 40
1.0
 10
7.26405
 20
5.07738
 30
0.0
 10
7.26405
 20
5.07738
 30
0.0
 10
7.26405
 20
5.33914
 30
0.0
 10
7.26405
 20
5.33914
 30
0.0
 10
7.26405
 20
5.33914
 30
0.0
 10
7.26405
 20
5.33914
 30
0.0
 10
7.31147
 20
5.33914
 30
0.0
 10
7.31147
 20
5.33914
 30
0.0
 10
7.31147
 20
5.33914
 30
0.0
 10
7.31147
 20
5.33914
 30
0.0
 10
7.31147
 20
5.28967
 30
0.0
 10
7.31147
 20
5.28967
 30
0.0
 10
7.31147
 20
5.28967
 30
0.0
 10
7.33032
 20
5.3263
 30
0.0
 10
7.35765
 20
5.34457
 30
0.0
 10
7.39353
 20
5.34457
 30
0.0
 10
7.39353
 20
5.34457
 30
0.0
 10
7.39839
 20
5.34457
 30
0.0
 10
7.4035
 20
5.34416
 30
0.0
 10
7.40876
 20
5.34334
 30
0.0
 10
7.40876
 20
5.34334
 30
0.0
 10
7.40876
 20
5.34334
 30
0.0
 10
7.40876
 20
5.29897
 30
0.0
 10
7.40876
 20
5.29897
 30
0.0
 10
7.40876
 20
5.29897
 30
0.0
 10
7.40053
 20
5.30169
 30
0.0
 10
7.39329
 20
5.30309
 30
0.0
 10
7.38703
 20
5.30309
 30
0.0
 10
7.38703
 20
5.30309
 30
0.0
 10
7.3569
 20
5.30309
 30
0.0
 10
7.33172
 20
5.28531
 30
0.0
 10
7.31147
 20
5.24967
 30
0.0
 10
7.31147
 20
5.24967
 30
0.0
 10
7.31147
 20
5.24967
 30
0.0
 10
7.31147
 20
5.07738
 30
0.0
 10
7.31147
 20
5.07738
 30
0.0
 10
7.31147
 20
5.07738
 30
0.0
 10
7.31147
 20
5.07738
 30
0.0
 10
7.26405
 20
5.07738
 30
0.0
 10
7.26405
 20
5.07738
 30
0.0
  0
SPLINE
  5
6C
330
1F
100
AcDbEntity
  8
Layer 1
 62
     5
370
     9
100
AcDbSpline
210
0.0
220
0.0
230
1.0
 70
    11
 71
     3
 72
    48
 73
    44
 74
     0
 42
0.0000000001
 43
0.0000000001
 12
1.0
 22
0.0
 32
0.0
 13
1.0
 23
0.0
 33
0.0
 40
0.0
 40
0.0
 40
0.0
 40
0.0
 40
0.0833333333333333
 40
0.0833333333333333
 40
0.0833333333333333
 40
0.0833333333333333
 40
0.1666666666666667
 40
0.1666666666666667
 40
0.1666666666666667
 40
0.1666666666666667
 40
0.25
 40
0.25
 40
0.25
 40
0.25
 40
0.3333333333333333
 40
0.3333333333333333
 40
0.3333333333333333
 40
0.3333333333333333
 40
0.4166666666666667
 40
0.4166666666666667
 40
0.4166666666666667
 40
0.4166666666666667
 40
0.5
 40
0.5
 40
0.5
 40
0.5
 40
0.5833333333333334
 40
0.5833333333333334
 40
0.5833333333333334
 40
0.5833333333333334
 40
0.6666666666666666
 40
0.6666666666666666
 40
0.6666666666666666
 40
0.6666666666666666
 40
0.75
 40
0.75
 40
0.75
 40
0.75
 40
0.8333333333333334
 40
0.8333333333333334
 40
0.8333333333333334
 40
0.8333333333333334
 40
1.0
 40
1.0
 40
1.0
 40
1.0
 10
7.46613
 20
5.07738
 30
0.0
 10
7.46613
 20
5.07738
 30
0.0
 10
7.46613
 20
5.45817
 30
0.0
 10
7.46613
 20
5.45817
 30
0.0
 10
7.46613
 20
5.45817
 30
0.0
 10
7.46613
 20
5.45817
 30
0.0
 10
7.51355
 20
5.45817
 30
0.0
 10
7.51355
 20
5.45817
 30
0.0
 10
7.51355
 20
5.45817
 30
0.0
 10
7.51355
 20
5.45817
 30
0.0
 10
7.51355
 20
5.21213
 30
0.0
 10
7.51355
 20
5.21213
 30
0.0
 10
7.51355
 20
5.21213
 30
0.0
 10
7.51355
 20
5.21213
 30
0.0
 10
7.62467
 20
5.33914
 30
0.0
 10
7.62467
 20
5.33914
 30
0.0
 10
7.62467
 20
5.33914
 30
0.0
 10
7.62467
 20
5.33914
 30
0.0
 10
7.67587
 20
5.33914
 30
0.0
 10
7.67587
 20
5.33914
 30
0.0
 10
7.67587
 20
5.33914
 30
0.0
 10
7.67587
 20
5.33914
 30
0.0
 10
7.56969
 20
5.21699
 30
0.0
 10
7.56969
 20
5.21699
 30
0.0
 10
7.56969
 20
5.21699
 30
0.0
 10
7.56969
 20
5.21699
 30
0.0
 10
7.6981
 20
5.07738
 30
0.0
 10
7.6981
 20
5.07738
 30
0.0
 10
7.6981
 20
5.07738
 30
0.0
 10
7.6981
 20
5.07738
 30
0.0
 10
7.63702
 20
5.07738
 30
0.0
 10
7.63702
 20
5.07738
 30
0.0
 10
7.63702
 20
5.07738
 30
0.0
 10
7.63702
 20
5.07738
 30
0.0
 10
7.51355
 20
5.21164
 30
0.0
 10
7.51355
 20
5.21164
 30
0.0
 10
7.51355
 20
5.21164
 30
0.0
 10
7.51355
 20
5.21164
 30
0.0
 10
7.51355
 20
5.07738
 30
0.0
 10
7.51355
 20
5.07738
 30
0.0
 10
7.51355
 20
5.07738
 30
0.0
 10
7.51355
 20
5.07738
 30
0.0
 10
7.46613
 20
5.07738
 30
0.0
 10
7.46613
 20
5.07738
 30
0.0
  0
SPLINE
  5
6D
330
1F
100
AcDbEntity
  8
Layer 1
 62
     5
370
     9
100
AcDbSpline
210
0.0
220
0.0
230
1.0
 70
    11
 71
     3
 72
    20
 73
    16
 74
     0
 42
0.0000000001
 43
0.0000000001
 12
1.0
 22
0.0
 32
0.0
 13
1.0
 23
0.0
 33
0.0
 40
0.0
 40
0.0
 40
0.0
 40
0.0
 40
0.2
 40
0.2
 40
0.2
 40
0.2
 40
0.4
 40
0.4
 40
0.4
 40
0.4
 40
0.6
 40
0.6
 40
0.6
 40
0.6
 40
1.0
 40
1.0
 40
1.0
 40
1.0
 10
7.75481
 20
5.07738
 30
0.0
 10
7.75481
 20
5.07738
 30
0.0
 10
7.75481
 20
5.33914
 30
0.0
 10
7.75481
 20
5.33914
 30
0.0
 10
7.75481
 20
5.33914
 30
0.0
 10
7.75481
 20
5.33914
 30
0.0
 10
7.80223
 20
5.33914
 30
0.0
 10
7.80223
 20
5.33914
 30
0.0
 10
7.80223
 20
5.33914
 30
0.0
 10
7.80223
 20
5.33914
 30
0.0
 10
7.80223
 20
5.07738
 30
0.0
 10
7.80223
 20
5.07738
 30
0.0
 10
7.80223
 20
5.07738
 30
0.0
 10
7.80223
 20
5.07738
 30
0.0
 10
7.75481
 20
5.07738
 30
0.0
 10
7.75481
 20
5.07738
 30
0.0
  0
SPLINE
  5
6E
330
1F
100
AcDbEntity
  8
Layer 1
 62
     5
370
     9
100
AcDbSpline
210
0.0
220
0.0
230
1.0
 70
    11
 71
     3
 72
    20
 73
    16
 74
     0
 42
0.0000000001
 43
0.0000000001
 12
1.0
 22
0.0
 32
0.0
 13
1.0
 23
0.0
 33
0.0
 40
0.0
 40
0.0
 40
0.0
 40
0.0
 40
0.2
 40
0.2
 40
0.2
 40
0.2
 40
0.4
 40
0.4
 40
0.4
 40
0.4
 40
0.6
 40
0.6
 40
0.6
 40
0.6
 40
1.0
 40
1.0
 40
1.0
 40
1.0
 10
7.75481
 20
5.38705
 30
0.0
 10
7.75481
 20
5.38705
 30
0.0
 10
7.75481
 20
5.43446
 30
0.0
 10
7.75481
 20
5.43446
 30
0.0
 10
7.75481
 20
5.43446
 30
0.0
 10
7.75481
 20
5.43446
 30
0.0
 10
7.80223
 20
5.43446
 30
0.0
 10
7.80223
 20
5.43446
 30
0.0
 10
7.80223
 20
5.43446
 30
0.0
 10
7.80223
 20
5.43446
 30
0.0
 10
7.80223
 20
5.38705
 30
0.0
 10
7.80223
 20
5.38705
 30
0.0
 10
7.80223
 20
5.38705
 30
0.0
 10
7.80223
 20
5.38705
 30
0.0
 10
7.75481
 20
5.38705
 30
0.0
 10
7.75481
 20
5.38705
 30
0.0
  0
SPLINE
  5
6F
330
1F
100
AcDbEntity
  8
Layer 1
 62
     5
370
     9
100
AcDbSpline
210
0.0
220
0.0
230
1.0
 70
    11
 71
     3
 72
    60
 73
    56
 74
     0
 42
0.0000000001
 43
0.0000000001
 12
1.0
 22
0.0
 32
0.0
 13
1.0
 23
0.0
 33
0.0
 40
0.0
 40
0.0
 40
0.0
 40
0.0
 40
0.0666666666666667
 40
0.0666666666666667
 40
0.0666666666666667
 40
0.0666666666666667
 40
0.1333333333333333
 40
0.1333333333333333
 40
0.1333333333333333
 40
0.1333333333333333
 40
0.2
 40
0.2
 40
0.2
 40
0.2
 40
0.2666666666666667
 40
0.2666666666666667
 40
0.2666666666666667
 40
0.2666666666666667
 40
0.3333333333333333
 40
0.3333333333333333
 40
0.3333333333333333
 40
0.3333333333333333
 40
0.4
 40
0.4
 40
0.4
 40
0.4
 40
0.4666666666666667
 40
0.4666666666666667
 40
0.4666666666666667
 40
0.4666666666666667
 40
0.5333333333333333
 40
0.5333333333333333
 40
0.5333333333333333
 40
0.5333333333333333
 40
0.6
 40
0.6
 40
0.6
 40
0.6
 40
0.6666666666666666
 40
0.6666666666666666
 40
0.6666666666666666
 40
0.6666666666666666
 40
0.7333333333333333
 40
0.7333333333333333
 40
0.7333333333333333
 40
0.7333333333333333
 40
0.8
 40
0.8
 40
0.8
 40
0.8
 40
0.8666666666666667
 40
0.8666666666666667
 40
0.8666666666666667
 40
0.8666666666666667
 40
1.0
 40
1.0
 40
1.0
 40
1.0
 10
7.89754
 20
5.07738
 30
0.0
 10
7.89754
 20
5.07738
 30
0.0
 10
7.89754
 20
5.33914
 30
0.0
 10
7.89754
 20
5.33914
 30
0.0
 10
7.89754
 20
5.33914
 30
0.0
 10
7.89754
 20
5.33914
 30
0.0
 10
7.94496
 20
5.33914
 30
0.0
 10
7.94496
 20
5.33914
 30
0.0
 10
7.94496
 20
5.33914
 30
0.0
 10
7.94496
 20
5.33914
 30
0.0
 10
7.94496
 20
5.28967
 30
0.0
 10
7.94496
 20
5.28967
 30
0.0
 10
7.94496
 20
5.28967
 30
0.0
 10
7.97006
 20
5.3263
 30
0.0
 10
8.00085
 20
5.34457
 30
0.0
 10
8.03723
 20
5.34457
 30
0.0
 10
8.03723
 20
5.34457
 30
0.0
 10
8.06012
 20
5.34457
 30
0.0
 10
8.07831
 20
5.33741
 30
0.0
 10
8.09172
 20
5.32301
 30
0.0
 10
8.09172
 20
5.32301
 30
0.0
 10
8.10514
 20
5.30869
 30
0.0
 10
8.11189
 20
5.28934
 30
0.0
 10
8.11189
 20
5.26514
 30
0.0
 10
8.11189
 20
5.26514
 30
0.0
 10
8.11189
 20
5.26514
 30
0.0
 10
8.11189
 20
5.07738
 30
0.0
 10
8.11189
 20
5.07738
 30
0.0
 10
8.11189
 20
5.07738
 30
0.0
 10
8.11189
 20
5.07738
 30
0.0
 10
8.06448
 20
5.07738
 30
0.0
 10
8.06448
 20
5.07738
 30
0.0
 10
8.06448
 20
5.07738
 30
0.0
 10
8.06448
 20
5.07738
 30
0.0
 10
8.06448
 20
5.24967
 30
0.0
 10
8.06448
 20
5.24967
 30
0.0
 10
8.06448
 20
5.24967
 30
0.0
 10
8.06448
 20
5.26909
 30
0.0
 10
8.0616
 20
5.28292
 30
0.0
 10
8.05592
 20
5.29115
 30
0.0
 10
8.05592
 20
5.29115
 30
0.0
 10
8.05016
 20
5.29947
 30
0.0
 10
8.04069
 20
5.30358
 30
0.0
 10
8.02744
 20
5.30358
 30
0.0
 10
8.02744
 20
5.30358
 30
0.0
 10
7.9983
 20
5.30358
 30
0.0
 10
7.9708
 20
5.28457
 30
0.0
 10
7.94496
 20
5.24654
 30
0.0
 10
7.94496
 20
5.24654
 30
0.0
 10
7.94496
 20
5.24654
 30
0.0
 10
7.94496
 20
5.07738
 30
0.0
 10
7.94496
 20
5.07738
 30
0.0
 10
7.94496
 20
5.07738
 30
0.0
 10
7.94496
 20
5.07738
 30
0.0
 10
7.89754
 20
5.07738
 30
0.0
 10
7.89754
 20
5.07738
 30
0.0
  0
SPLINE
  5
70
330
1F
100
AcDbEntity
  8
Layer 1
 62
     5
370
     9
100
AcDbSpline
210
0.0
220
0.0
230
1.0
 70
    11
 71
     3
 72
    76
 73
    72
 74
     0
 42
0.0000000001
 43
0.0000000001
 12
1.0
 22
0.0
 32
0.0
 13
1.0
 23
0.0
 33
0.0
 40
0.0
 40
0.0
 40
0.0
 40
0.0
 40
0.0526315789473684
 40
0.0526315789473684
 40
0.0526315789473684
 40
0.0526315789473684
 40
0.1052631578947368
 40
0.1052631578947368
 40
0.1052631578947368
 40
0.1052631578947368
 40
0.1578947368421053
 40
0.1578947368421053
 40
0.1578947368421053
 40
0.1578947368421053
 40
0.2105263157894737
 40
0.2105263157894737
 40
0.2105263157894737
 40
0.2105263157894737
 40
0.2631578947368421
 40
0.2631578947368421
 40
0.2631578947368421
 40
0.2631578947368421
 40
0.3157894736842105
 40
0.3157894736842105
 40
0.3157894736842105
 40
0.3157894736842105
 40
0.3684210526315789
 40
0.3684210526315789
 40
0.3684210526315789
 40
0.3684210526315789
 40
0.4210526315789473
 40
0.4210526315789473
 40
0.4210526315789473
 40
0.4210526315789473
 40
0.4736842105263158
 40
0.4736842105263158
 40
0.4736842105263158
 40
0.4736842105263158
 40
0.5263157894736842
 40
0.5263157894736842
 40
0.5263157894736842
 40
0.5263157894736842
 40
0.5789473684210527
 40
0.5789473684210527
 40
0.5789473684210527
 40
0.5789473684210527
 40
0.631578947368421
 40
0.631578947368421
 40
0.631578947368421
 40
0.631578947368421
 40
0.6842105263157895
 40
0.6842105263157895
 40
0.6842105263157895
 40
0.6842105263157895
 40
0.7368421052631579
 40
0.7368421052631579
 40
0.7368421052631579
 40
0.7368421052631579
 40
0.7894736842105263
 40
0.7894736842105263
 40
0.7894736842105263
 40
0.7894736842105263
 40
0.8421052631578947
 40
0.8421052631578947
 40
0.8421052631578947
 40
0.8421052631578947
 40
0.8947368421052632
 40
0.8947368421052632
 40
0.8947368421052632
 40
0.8947368421052632
 40
1.0
 40
1.0
 40
1.0
 40
1.0
 10
8.20507
 20
4.99046
 30
0.0
 10
8.20507
 20
4.99046
 30
0.0
 10
8.21067
 20
5.03145
 30
0.0
 10
8.21067
 20
5.03145
 30
0.0
 10
8.21067
 20
5.03145
 30
0.0
 10
8.23816
 20
5.01861
 30
0.0
 10
8.26541
 20
5.01219
 30
0.0
 10
8.29233
 20
5.01219
 30
0.0
 10
8.29233
 20
5.01219
 30
0.0
 10
8.34575
 20
5.01219
 30
0.0
 10
8.3725
 20
5.0405
 30
0.0
 10
8.3725
 20
5.09705
 30
0.0
 10
8.3725
 20
5.09705
 30
0.0
 10
8.3725
 20
5.09705
 30
0.0
 10
8.3725
 20
5.13821
 30
0.0
 10
8.3725
 20
5.13821
 30
0.0
 10
8.3725
 20
5.13821
 30
0.0
 10
8.36427
 20
5.12084
 30
0.0
 10
8.35258
 20
5.10742
 30
0.0
 10
8.33735
 20
5.09779
 30
0.0
 10
8.33735
 20
5.09779
 30
0.0
 10
8.32212
 20
5.08816
 30
0.0
 10
8.30517
 20
5.08331
 30
0.0
 10
8.28648
 20
5.08331
 30
0.0
 10
8.28648
 20
5.08331
 30
0.0
 10
8.25479
 20
5.08331
 30
0.0
 10
8.22968
 20
5.09467
 30
0.0
 10
8.21116
 20
5.11739
 30
0.0
 10
8.21116
 20
5.11739
 30
0.0
 10
8.19264
 20
5.1401
 30
0.0
 10
8.18334
 20
5.17089
 30
0.0
 10
8.18334
 20
5.20974
 30
0.0
 10
8.18334
 20
5.20974
 30
0.0
 10
8.18334
 20
5.2495
 30
0.0
 10
8.19388
 20
5.28193
 30
0.0
 10
8.21495
 20
5.30704
 30
0.0
 10
8.21495
 20
5.30704
 30
0.0
 10
8.2361
 20
5.33206
 30
0.0
 10
8.26335
 20
5.34457
 30
0.0
 10
8.29685
 20
5.34457
 30
0.0
 10
8.29685
 20
5.34457
 30
0.0
 10
8.32616
 20
5.34457
 30
0.0
 10
8.35143
 20
5.33272
 30
0.0
 10
8.3725
 20
5.30893
 30
0.0
 10
8.3725
 20
5.30893
 30
0.0
 10
8.3725
 20
5.30893
 30
0.0
 10
8.3725
 20
5.33914
 30
0.0
 10
8.3725
 20
5.33914
 30
0.0
 10
8.3725
 20
5.33914
 30
0.0
 10
8.3725
 20
5.33914
 30
0.0
 10
8.41991
 20
5.33914
 30
0.0
 10
8.41991
 20
5.33914
 30
0.0
 10
8.41991
 20
5.33914
 30
0.0
 10
8.41991
 20
5.33914
 30
0.0
 10
8.41991
 20
5.14883
 30
0.0
 10
8.41991
 20
5.14883
 30
0.0
 10
8.41991
 20
5.14883
 30
0.0
 10
8.41991
 20
5.10792
 30
0.0
 10
8.41777
 20
5.07763
 30
0.0
 10
8.41349
 20
5.05795
 30
0.0
 10
8.41349
 20
5.05795
 30
0.0
 10
8.40929
 20
5.03828
 30
0.0
 10
8.40123
 20
5.02215
 30
0.0
 10
8.38954
 20
5.00963
 30
0.0
 10
8.38954
 20
5.00963
 30
0.0
 10
8.3688
 20
4.98766
 30
0.0
 10
8.33636
 20
4.97663
 30
0.0
 10
8.29233
 20
4.97663
 30
0.0
 10
8.29233
 20
4.97663
 30
0.0
 10
8.26212
 20
4.97663
 30
0.0
 10
8.23306
 20
4.98124
 30
0.0
 10
8.20507
 20
4.99046
 30
0.0
  0
SPLINE
  5
71
330
1F
100
AcDbEntity
  8
Layer 1
 62
     5
370
     9
100
AcDbSpline
210
0.0
220
0.0
230
1.0
 70
    11
 71
     3
 72
    28
 73
    24
 74
     0
 42
0.0000000001
 43
0.0000000001
 12
1.0
 22
0.0
 32
0.0
 13
1.0
 23
0.0
 33
0.0
 40
0.0
 40
0.0
 40
0.0
 40
0.0
 40
0.1428571428571428
 40
0.1428571428571428
 40
0.1428571428571428
 40
0.1428571428571428
 40
0.2857142857142857
 40
0.2857142857142857
 40
0.2857142857142857
 40
0.2857142857142857
 40
0.4285714285714285
 40
0.4285714285714285
 40
0.4285714285714285
 40
0.4285714285714285
 40
0.5714285714285714
 40
0.5714285714285714
 40
0.5714285714285714
 40
0.5714285714285714
 40
0.7142857142857143
 40
0.7142857142857143
 40
0.7142857142857143
 40
0.7142857142857143
 40
1.0
 40
1.0
 40
1.0
 40
1.0
 10
8.3725
 20
5.16793
 30
0.0
 10
8.3725
 20
5.16793
 30
0.0
 10
8.3725
 20
5.2765
 30
0.0
 10
8.3725
 20
5.2765
 30
0.0
 10
8.3725
 20
5.2765
 30
0.0
 10
8.35159
 20
5.29815
 30
0.0
 10
8.32879
 20
5.30901
 30
0.0
 10
8.30418
 20
5.30901
 30
0.0
 10
8.30418
 20
5.30901
 30
0.0
 10
8.28228
 20
5.30901
 30
0.0
 10
8.26516
 20
5.30029
 30
0.0
 10
8.25281
 20
5.28276
 30
0.0
 10
8.25281
 20
5.28276
 30
0.0
 10
8.24038
 20
5.26531
 30
0.0
 10
8.23421
 20
5.24102
 30
0.0
 10
8.23421
 20
5.21007
 30
0.0
 10
8.23421
 20
5.21007
 30
0.0
 10
8.23421
 20
5.15319
 30
0.0
 10
8.25438
 20
5.12479
 30
0.0
 10
8.29479
 20
5.12479
 30
0.0
 10
8.29479
 20
5.12479
 30
0.0
 10
8.32229
 20
5.12479
 30
0.0
 10
8.34822
 20
5.1392
 30
0.0
 10
8.3725
 20
5.16793
 30
0.0
  0
SPLINE
  5
72
330
1F
100
AcDbEntity
  8
Layer 1
 62
     5
370
     9
100
AcDbSpline
210
0.0
220
0.0
230
1.0
 70
    11
 71
     3
 72
    80
 73
    76
 74
     0
 42
0.0000000001
 43
0.0000000001
 12
1.0
 22
0.0
 32
0.0
 13
1.0
 23
0.0
 33
0.0
 40
0.0
 40
0.0
 40
0.0
 40
0.0
 40
0.05
 40
0.05
 40
0.05
 40
0.05
 40
0.1
 40
0.1
 40
0.1
 40
0.1
 40
0.15
 40
0.15
 40
0.15
 40
0.15
 40
0.2
 40
0.2
 40
0.2
 40
0.2
 40
0.25
 40
0.25
 40
0.25
 40
0.25
 40
0.3
 40
0.3
 40
0.3
 40
0.3
 40
0.35
 40
0.35
 40
0.35
 40
0.35
 40
0.4
 40
0.4
 40
0.4
 40
0.4
 40
0.45
 40
0.45
 40
0.45
 40
0.45
 40
0.5
 40
0.5
 40
0.5
 40
0.5
 40
0.55
 40
0.55
 40
0.55
 40
0.55
 40
0.6
 40
0.6
 40
0.6
 40
0.6
 40
0.65
 40
0.65
 40
0.65
 40
0.65
 40
0.7
 40
0.7
 40
0.7
 40
0.7
 40
0.75
 40
0.75
 40
0.75
 40
0.75
 40
0.8
 40
0.8
 40
0.8
 40
0.8
 40
0.85
 40
0.85
 40
0.85
 40
0.85
 40
0.9
 40
0.9
 40
0.9
 40
0.9
 40
1.0
 40
1.0
 40
1.0
 40
1.0
 10
6.38101
 20
4.35178
 30
0.0
 10
6.35253
 20
4.3256
 30
0.0
 10
6.32512
 20
4.31251
 30
0.0
 10
6.29878
 20
4.31251
 30
0.0
 10
6.29878
 20
4.31251
 30
0.0
 10
6.27713
 20
4.31251
 30
0.0
 10
6.2591
 20
4.31926
 30
0.0
 10
6.24486
 20
4.33285
 30
0.0
 10
6.24486
 20
4.33285
 30
0.0
 10
6.23054
 20
4.34643
 30
0.0
 10
6.22337
 20
4.36355
 30
0.0
 10
6.22337
 20
4.38421
 30
0.0
 10
6.22337
 20
4.38421
 30
0.0
 10
6.22337
 20
4.41277
 30
0.0
 10
6.23539
 20
4.43475
 30
0.0
 10
6.25943
 20
4.45006
 30
0.0
 10
6.25943
 20
4.45006
 30
0.0
 10
6.28346
 20
4.46537
 30
0.0
 10
6.31795
 20
4.47303
 30
0.0
 10
6.3629
 20
4.47303
 30
0.0
 10
6.3629
 20
4.47303
 30
0.0
 10
6.3629
 20
4.47303
 30
0.0
 10
6.37401
 20
4.47303
 30
0.0
 10
6.37401
 20
4.47303
 30
0.0
 10
6.37401
 20
4.47303
 30
0.0
 10
6.37401
 20
4.47303
 30
0.0
 10
6.37401
 20
4.50455
 30
0.0
 10
6.37401
 20
4.50455
 30
0.0
 10
6.37401
 20
4.50455
 30
0.0
 10
6.37401
 20
4.53493
 30
0.0
 10
6.35821
 20
4.55007
 30
0.0
 10
6.32652
 20
4.55007
 30
0.0
 10
6.32652
 20
4.55007
 30
0.0
 10
6.30199
 20
4.55007
 30
0.0
 10
6.27515
 20
4.54234
 30
0.0
 10
6.24609
 20
4.52686
 30
0.0
 10
6.24609
 20
4.52686
 30
0.0
 10
6.24609
 20
4.52686
 30
0.0
 10
6.24609
 20
4.56588
 30
0.0
 10
6.24609
 20
4.56588
 30
0.0
 10
6.24609
 20
4.56588
 30
0.0
 10
6.27803
 20
4.57905
 30
0.0
 10
6.30816
 20
4.58563
 30
0.0
 10
6.33639
 20
4.58563
 30
0.0
 10
6.33639
 20
4.58563
 30
0.0
 10
6.36545
 20
4.58563
 30
0.0
 10
6.38693
 20
4.57905
 30
0.0
 10
6.40068
 20
4.5658
 30
0.0
 10
6.40068
 20
4.5658
 30
0.0
 10
6.41451
 20
4.55254
 30
0.0
 10
6.42142
 20
4.53213
 30
0.0
 10
6.42142
 20
4.50455
 30
0.0
 10
6.42142
 20
4.50455
 30
0.0
 10
6.42142
 20
4.50455
 30
0.0
 10
6.42142
 20
4.38627
 30
0.0
 10
6.42142
 20
4.38627
 30
0.0
 10
6.42142
 20
4.38627
 30
0.0
 10
6.42142
 20
4.35919
 30
0.0
 10
6.42974
 20
4.3456
 30
0.0
 10
6.44645
 20
4.3456
 30
0.0
 10
6.44645
 20
4.3456
 30
0.0
 10
6.44851
 20
4.3456
 30
0.0
 10
6.45155
 20
4.34593
 30
0.0
 10
6.45559
 20
4.34659
 30
0.0
 10
6.45559
 20
4.34659
 30
0.0
 10
6.45559
 20
4.34659
 30
0.0
 10
6.45896
 20
4.32025
 30
0.0
 10
6.45896
 20
4.32025
 30
0.0
 10
6.45896
 20
4.32025
 30
0.0
 10
6.44818
 20
4.31507
 30
0.0
 10
6.43632
 20
4.31251
 30
0.0
 10
6.42332
 20
4.31251
 30
0.0
 10
6.42332
 20
4.31251
 30
0.0
 10
6.40117
 20
4.31251
 30
0.0
 10
6.3871
 20
4.3256
 30
0.0
 10
6.38101
 20
4.35178
 30
0.0
  0
SPLINE
  5
73
330
1F
100
AcDbEntity
  8
Layer 1
 62
     5
370
     9
100
AcDbSpline
210
0.0
220
0.0
230
1.0
 70
    11
 71
     3
 72
    32
 73
    28
 74
     0
 42
0.0000000001
 43
0.0000000001
 12
1.0
 22
0.0
 32
0.0
 13
1.0
 23
0.0
 33
0.0
 40
0.0
 40
0.0
 40
0.0
 40
0.0
 40
0.125
 40
0.125
 40
0.125
 40
0.125
 40
0.25
 40
0.25
 40
0.25
 40
0.25
 40
0.375
 40
0.375
 40
0.375
 40
0.375
 40
0.5
 40
0.5
 40
0.5
 40
0.5
 40
0.625
 40
0.625
 40
0.625
 40
0.625
 40
0.75
 40
0.75
 40
0.75
 40
0.75
 40
1.0
 40
1.0
 40
1.0
 40
1.0
 10
6.37401
 20
4.37762
 30
0.0
 10
6.37401
 20
4.37762
 30
0.0
 10
6.37401
 20
4.44488
 30
0.0
 10
6.37401
 20
4.44488
 30
0.0
 10
6.37401
 20
4.44488
 30
0.0
 10
6.37401
 20
4.44488
 30
0.0
 10
6.35878
 20
4.44537
 30
0.0
 10
6.35878
 20
4.44537
 30
0.0
 10
6.35878
 20
4.44537
 30
0.0
 10
6.33244
 20
4.44537
 30
0.0
 10
6.3112
 20
4.44051
 30
0.0
 10
6.29499
 20
4.4308
 30
0.0
 10
6.29499
 20
4.4308
 30
0.0
 10
6.27885
 20
4.421
 30
0.0
 10
6.27079
 20
4.40808
 30
0.0
 10
6.27079
 20
4.39195
 30
0.0
 10
6.27079
 20
4.39195
 30
0.0
 10
6.27079
 20
4.38067
 30
0.0
 10
6.27482
 20
4.37112
 30
0.0
 10
6.28281
 20
4.3633
 30
0.0
 10
6.28281
 20
4.3633
 30
0.0
 10
6.29087
 20
4.35548
 30
0.0
 10
6.30067
 20
4.35153
 30
0.0
 10
6.31227
 20
4.35153
 30
0.0
 10
6.31227
 20
4.35153
 30
0.0
 10
6.33203
 20
4.35153
 30
0.0
 10
6.35261
 20
4.36026
 30
0.0
 10
6.37401
 20
4.37762
 30
0.0
  0
SPLINE
  5
74
330
1F
100
AcDbEntity
  8
Layer 1
 62
     5
370
     9
100
AcDbSpline
210
0.0
220
0.0
230
1.0
 70
    11
 71
     3
 72
    72
 73
    68
 74
     0
 42
0.0000000001
 43
0.0000000001
 12
1.0
 22
0.0
 32
0.0
 13
1.0
 23
0.0
 33
0.0
 40
0.0
 40
0.0
 40
0.0
 40
0.0
 40
0.0555555555555556
 40
0.0555555555555556
 40
0.0555555555555556
 40
0.0555555555555556
 40
0.1111111111111111
 40
0.1111111111111111
 40
0.1111111111111111
 40
0.1111111111111111
 40
0.1666666666666667
 40
0.1666666666666667
 40
0.1666666666666667
 40
0.1666666666666667
 40
0.2222222222222222
 40
0.2222222222222222
 40
0.2222222222222222
 40
0.2222222222222222
 40
0.2777777777777778
 40
0.2777777777777778
 40
0.2777777777777778
 40
0.2777777777777778
 40
0.3333333333333333
 40
0.3333333333333333
 40
0.3333333333333333
 40
0.3333333333333333
 40
0.3888888888888889
 40
0.3888888888888889
 40
0.3888888888888889
 40
0.3888888888888889
 40
0.4444444444444444
 40
0.4444444444444444
 40
0.4444444444444444
 40
0.4444444444444444
 40
0.5
 40
0.5
 40
0.5
 40
0.5
 40
0.5555555555555556
 40
0.5555555555555556
 40
0.5555555555555556
 40
0.5555555555555556
 40
0.6111111111111112
 40
0.6111111111111112
 40
0.6111111111111112
 40
0.6111111111111112
 40
0.6666666666666666
 40
0.6666666666666666
 40
0.6666666666666666
 40
0.6666666666666666
 40
0.7222222222222222
 40
0.7222222222222222
 40
0.7222222222222222
 40
0.7222222222222222
 40
0.7777777777777778
 40
0.7777777777777778
 40
0.7777777777777778
 40
0.7777777777777778
 40
0.8333333333333334
 40
0.8333333333333334
 40
0.8333333333333334
 40
0.8333333333333334
 40
0.8888888888888888
 40
0.8888888888888888
 40
0.8888888888888888
 40
0.8888888888888888
 40
1.0
 40
1.0
 40
1.0
 40
1.0
 10
6.53164
 20
4.31696
 30
0.0
 10
6.53164
 20
4.31696
 30
0.0
 10
6.53164
 20
4.35943
 30
0.0
 10
6.53164
 20
4.35943
 30
0.0
 10
6.53164
 20
4.35943
 30
0.0
 10
6.55527
 20
4.34988
 30
0.0
 10
6.57766
 20
4.34511
 30
0.0
 10
6.59906
 20
4.34511
 30
0.0
 10
6.59906
 20
4.34511
 30
0.0
 10
6.62244
 20
4.34511
 30
0.0
 10
6.64088
 20
4.35202
 30
0.0
 10
6.65429
 20
4.36585
 30
0.0
 10
6.65429
 20
4.36585
 30
0.0
 10
6.66771
 20
4.37968
 30
0.0
 10
6.67438
 20
4.3987
 30
0.0
 10
6.67438
 20
4.4229
 30
0.0
 10
6.67438
 20
4.4229
 30
0.0
 10
6.67438
 20
4.44891
 30
0.0
 10
6.66491
 20
4.46883
 30
0.0
 10
6.64598
 20
4.48258
 30
0.0
 10
6.64598
 20
4.48258
 30
0.0
 10
6.62705
 20
4.49632
 30
0.0
 10
6.59964
 20
4.50315
 30
0.0
 10
6.56383
 20
4.50315
 30
0.0
 10
6.56383
 20
4.50315
 30
0.0
 10
6.55552
 20
4.50315
 30
0.0
 10
6.54671
 20
4.50258
 30
0.0
 10
6.53757
 20
4.50143
 30
0.0
 10
6.53757
 20
4.50143
 30
0.0
 10
6.53757
 20
4.50143
 30
0.0
 10
6.53757
 20
4.67552
 30
0.0
 10
6.53757
 20
4.67552
 30
0.0
 10
6.53757
 20
4.67552
 30
0.0
 10
6.53757
 20
4.67552
 30
0.0
 10
6.71834
 20
4.67552
 30
0.0
 10
6.71834
 20
4.67552
 30
0.0
 10
6.71834
 20
4.67552
 30
0.0
 10
6.71834
 20
4.67552
 30
0.0
 10
6.71834
 20
4.63404
 30
0.0
 10
6.71834
 20
4.63404
 30
0.0
 10
6.71834
 20
4.63404
 30
0.0
 10
6.71834
 20
4.63404
 30
0.0
 10
6.57906
 20
4.63404
 30
0.0
 10
6.57906
 20
4.63404
 30
0.0
 10
6.57906
 20
4.63404
 30
0.0
 10
6.57906
 20
4.63404
 30
0.0
 10
6.57906
 20
4.5397
 30
0.0
 10
6.57906
 20
4.5397
 30
0.0
 10
6.57906
 20
4.5397
 30
0.0
 10
6.62499
 20
4.5397
 30
0.0
 10
6.6608
 20
4.52917
 30
0.0
 10
6.68656
 20
4.50809
 30
0.0
 10
6.68656
 20
4.50809
 30
0.0
 10
6.71233
 20
4.4871
 30
0.0
 10
6.72525
 20
4.45796
 30
0.0
 10
6.72525
 20
4.42068
 30
0.0
 10
6.72525
 20
4.42068
 30
0.0
 10
6.72525
 20
4.38594
 30
0.0
 10
6.71356
 20
4.35877
 30
0.0
 10
6.69018
 20
4.3391
 30
0.0
 10
6.69018
 20
4.3391
 30
0.0
 10
6.66681
 20
4.31943
 30
0.0
 10
6.63454
 20
4.30955
 30
0.0
 10
6.59338
 20
4.30955
 30
0.0
 10
6.59338
 20
4.30955
 30
0.0
 10
6.57502
 20
4.30955
 30
0.0
 10
6.55445
 20
4.31202
 30
0.0
 10
6.53164
 20
4.31696
 30
0.0
  0
SPLINE
  5
75
330
1F
100
AcDbEntity
  8
Layer 1
 62
     5
370
     9
100
AcDbSpline
210
0.0
220
0.0
230
1.0
 70
    11
 71
     3
 72
    20
 73
    16
 74
     0
 42
0.0000000001
 43
0.0000000001
 12
1.0
 22
0.0
 32
0.0
 13
1.0
 23
0.0
 33
0.0
 40
0.0
 40
0.0
 40
0.0
 40
0.0
 40
0.2
 40
0.2
 40
0.2
 40
0.2
 40
0.4
 40
0.4
 40
0.4
 40
0.4
 40
0.6
 40
0.6
 40
0.6
 40
0.6
 40
1.0
 40
1.0
 40
1.0
 40
1.0
 10
6.80444
 20
4.28288
 30
0.0
 10
6.80444
 20
4.28288
 30
0.0
 10
6.80444
 20
4.31844
 30
0.0
 10
6.80444
 20
4.31844
 30
0.0
 10
6.80444
 20
4.31844
 30
0.0
 10
6.80444
 20
4.31844
 30
0.0
 10
7.0099
 20
4.31844
 30
0.0
 10
7.0099
 20
4.31844
 30
0.0
 10
7.0099
 20
4.31844
 30
0.0
 10
7.0099
 20
4.31844
 30
0.0
 10
7.0099
 20
4.28288
 30
0.0
 10
7.0099
 20
4.28288
 30
0.0
 10
7.0099
 20
4.28288
 30
0.0
 10
7.0099
 20
4.28288
 30
0.0
 10
6.80444
 20
4.28288
 30
0.0
 10
6.80444
 20
4.28288
 30
0.0
  0
SPLINE
  5
76
330
1F
100
AcDbEntity
  8
Layer 1
 62
     5
370
     9
100
AcDbSpline
210
0.0
220
0.0
230
1.0
 70
    11
 71
     3
 72
    72
 73
    68
 74
     0
 42
0.0000000001
 43
0.0000000001
 12
1.0
 22
0.0
 32
0.0
 13
1.0
 23
0.0
 33
0.0
 40
0.0
 40
0.0
 40
0.0
 40
0.0
 40
0.0555555555555556
 40
0.0555555555555556
 40
0.0555555555555556
 40
0.0555555555555556
 40
0.1111111111111111
 40
0.1111111111111111
 40
0.1111111111111111
 40
0.1111111111111111
 40
0.1666666666666667
 40
0.1666666666666667
 40
0.1666666666666667
 40
0.1666666666666667
 40
0.2222222222222222
 40
0.2222222222222222
 40
0.2222222222222222
 40
0.2222222222222222
 40
0.2777777777777778
 40
0.2777777777777778
 40
0.2777777777777778
 40
0.2777777777777778
 40
0.3333333333333333
 40
0.3333333333333333
 40
0.3333333333333333
 40
0.3333333333333333
 40
0.3888888888888889
 40
0.3888888888888889
 40
0.3888888888888889
 40
0.3888888888888889
 40
0.4444444444444444
 40
0.4444444444444444
 40
0.4444444444444444
 40
0.4444444444444444
 40
0.5
 40
0.5
 40
0.5
 40
0.5
 40
0.5555555555555556
 40
0.5555555555555556
 40
0.5555555555555556
 40
0.5555555555555556
 40
0.6111111111111112
 40
0.6111111111111112
 40
0.6111111111111112
 40
0.6111111111111112
 40
0.6666666666666666
 40
0.6666666666666666
 40
0.6666666666666666
 40
0.6666666666666666
 40
0.7222222222222222
 40
0.7222222222222222
 40
0.7222222222222222
 40
0.7222222222222222
 40
0.7777777777777778
 40
0.7777777777777778
 40
0.7777777777777778
 40
0.7777777777777778
 40
0.8333333333333334
 40
0.8333333333333334
 40
0.8333333333333334
 40
0.8333333333333334
 40
0.8888888888888888
 40
0.8888888888888888
 40
0.8888888888888888
 40
0.8888888888888888
 40
1.0
 40
1.0
 40
1.0
 40
1.0
 10
7.19512
 20
4.31852
 30
0.0
 10
7.18046
 20
4.31449
 30
0.0
 10
7.1677
 20
4.31251
 30
0.0
 10
7.15692
 20
4.31251
 30
0.0
 10
7.15692
 20
4.31251
 30
0.0
 10
7.13272
 20
4.31251
 30
0.0
 10
7.11387
 20
4.31943
 30
0.0
 10
7.10037
 20
4.33326
 30
0.0
 10
7.10037
 20
4.33326
 30
0.0
 10
7.08679
 20
4.34709
 30
0.0
 10
7.08004
 20
4.36627
 30
0.0
 10
7.08004
 20
4.39088
 30
0.0
 10
7.08004
 20
4.39088
 30
0.0
 10
7.08004
 20
4.39088
 30
0.0
 10
7.08004
 20
4.54464
 30
0.0
 10
7.08004
 20
4.54464
 30
0.0
 10
7.08004
 20
4.54464
 30
0.0
 10
7.08004
 20
4.54464
 30
0.0
 10
7.04728
 20
4.54464
 30
0.0
 10
7.04728
 20
4.54464
 30
0.0
 10
7.04728
 20
4.54464
 30
0.0
 10
7.04728
 20
4.54464
 30
0.0
 10
7.04728
 20
4.5802
 30
0.0
 10
7.04728
 20
4.5802
 30
0.0
 10
7.04728
 20
4.5802
 30
0.0
 10
7.04728
 20
4.5802
 30
0.0
 10
7.08004
 20
4.5802
 30
0.0
 10
7.08004
 20
4.5802
 30
0.0
 10
7.08004
 20
4.5802
 30
0.0
 10
7.08004
 20
4.5802
 30
0.0
 10
7.08004
 20
4.62753
 30
0.0
 10
7.08004
 20
4.62753
 30
0.0
 10
7.08004
 20
4.62753
 30
0.0
 10
7.08004
 20
4.62753
 30
0.0
 10
7.12745
 20
4.63206
 30
0.0
 10
7.12745
 20
4.63206
 30
0.0
 10
7.12745
 20
4.63206
 30
0.0
 10
7.12745
 20
4.63206
 30
0.0
 10
7.12745
 20
4.5802
 30
0.0
 10
7.12745
 20
4.5802
 30
0.0
 10
7.12745
 20
4.5802
 30
0.0
 10
7.12745
 20
4.5802
 30
0.0
 10
7.1961
 20
4.5802
 30
0.0
 10
7.1961
 20
4.5802
 30
0.0
 10
7.1961
 20
4.5802
 30
0.0
 10
7.1961
 20
4.5802
 30
0.0
 10
7.1961
 20
4.54464
 30
0.0
 10
7.1961
 20
4.54464
 30
0.0
 10
7.1961
 20
4.54464
 30
0.0
 10
7.1961
 20
4.54464
 30
0.0
 10
7.12745
 20
4.54464
 30
0.0
 10
7.12745
 20
4.54464
 30
0.0
 10
7.12745
 20
4.54464
 30
0.0
 10
7.12745
 20
4.54464
 30
0.0
 10
7.12745
 20
4.39944
 30
0.0
 10
7.12745
 20
4.39944
 30
0.0
 10
7.12745
 20
4.39944
 30
0.0
 10
7.12745
 20
4.36519
 30
0.0
 10
7.14235
 20
4.34807
 30
0.0
 10
7.17207
 20
4.34807
 30
0.0
 10
7.17207
 20
4.34807
 30
0.0
 10
7.17841
 20
4.34807
 30
0.0
 10
7.18606
 20
4.34914
 30
0.0
 10
7.19512
 20
4.3512
 30
0.0
 10
7.19512
 20
4.3512
 30
0.0
 10
7.19512
 20
4.3512
 30
0.0
 10
7.19512
 20
4.31852
 30
0.0
 10
7.19512
 20
4.31852
 30
0.0
  0
SPLINE
  5
77
330
1F
100
AcDbEntity
  8
Layer 1
 62
     5
370
     9
100
AcDbSpline
210
0.0
220
0.0
230
1.0
 70
    11
 71
     3
 72
    52
 73
    48
 74
     0
 42
0.0000000001
 43
0.0000000001
 12
1.0
 22
0.0
 32
0.0
 13
1.0
 23
0.0
 33
0.0
 40
0.0
 40
0.0
 40
0.0
 40
0.0
 40
0.0769230769230769
 40
0.0769230769230769
 40
0.0769230769230769
 40
0.0769230769230769
 40
0.1538461538461539
 40
0.1538461538461539
 40
0.1538461538461539
 40
0.1538461538461539
 40
0.2307692307692308
 40
0.2307692307692308
 40
0.2307692307692308
 40
0.2307692307692308
 40
0.3076923076923077
 40
0.3076923076923077
 40
0.3076923076923077
 40
0.3076923076923077
 40
0.3846153846153846
 40
0.3846153846153846
 40
0.3846153846153846
 40
0.3846153846153846
 40
0.4615384615384616
 40
0.4615384615384616
 40
0.4615384615384616
 40
0.4615384615384616
 40
0.5384615384615384
 40
0.5384615384615384
 40
0.5384615384615384
 40
0.5384615384615384
 40
0.6153846153846154
 40
0.6153846153846154
 40
0.6153846153846154
 40
0.6153846153846154
 40
0.6923076923076923
 40
0.6923076923076923
 40
0.6923076923076923
 40
0.6923076923076923
 40
0.7692307692307693
 40
0.7692307692307693
 40
0.7692307692307693
 40
0.7692307692307693
 40
0.8461538461538461
 40
0.8461538461538461
 40
0.8461538461538461
 40
0.8461538461538461
 40
1.0
 40
1.0
 40
1.0
 40
1.0
 10
7.4549
 20
4.32684
 30
0.0
 10
7.42304
 20
4.31729
 30
0.0
 10
7.39579
 20
4.31251
 30
0.0
 10
7.37308
 20
4.31251
 30
0.0
 10
7.37308
 20
4.31251
 30
0.0
 10
7.33431
 20
4.31251
 30
0.0
 10
7.30278
 20
4.32535
 30
0.0
 10
7.2785
 20
4.35095
 30
0.0
 10
7.2785
 20
4.35095
 30
0.0
 10
7.25421
 20
4.37655
 30
0.0
 10
7.24203
 20
4.40973
 30
0.0
 10
7.24203
 20
4.45056
 30
0.0
 10
7.24203
 20
4.45056
 30
0.0
 10
7.24203
 20
4.49015
 30
0.0
 10
7.25273
 20
4.52266
 30
0.0
 10
7.27422
 20
4.5481
 30
0.0
 10
7.27422
 20
4.5481
 30
0.0
 10
7.2957
 20
4.57345
 30
0.0
 10
7.32319
 20
4.58613
 30
0.0
 10
7.35669
 20
4.58613
 30
0.0
 10
7.35669
 20
4.58613
 30
0.0
 10
7.38839
 20
4.58613
 30
0.0
 10
7.41292
 20
4.57485
 30
0.0
 10
7.4302
 20
4.5523
 30
0.0
 10
7.4302
 20
4.5523
 30
0.0
 10
7.44749
 20
4.52974
 30
0.0
 10
7.45613
 20
4.4978
 30
0.0
 10
7.45613
 20
4.4564
 30
0.0
 10
7.45613
 20
4.4564
 30
0.0
 10
7.45613
 20
4.4564
 30
0.0
 10
7.45588
 20
4.44191
 30
0.0
 10
7.45588
 20
4.44191
 30
0.0
 10
7.45588
 20
4.44191
 30
0.0
 10
7.45588
 20
4.44191
 30
0.0
 10
7.29043
 20
4.44191
 30
0.0
 10
7.29043
 20
4.44191
 30
0.0
 10
7.29043
 20
4.44191
 30
0.0
 10
7.29735
 20
4.37935
 30
0.0
 10
7.32788
 20
4.34807
 30
0.0
 10
7.38197
 20
4.34807
 30
0.0
 10
7.38197
 20
4.34807
 30
0.0
 10
7.4018
 20
4.34807
 30
0.0
 10
7.42609
 20
4.35367
 30
0.0
 10
7.4549
 20
4.36487
 30
0.0
 10
7.4549
 20
4.36487
 30
0.0
 10
7.4549
 20
4.36487
 30
0.0
 10
7.4549
 20
4.32684
 30
0.0
 10
7.4549
 20
4.32684
 30
0.0
  0
SPLINE
  5
78
330
1F
100
AcDbEntity
  8
Layer 1
 62
     5
370
     9
100
AcDbSpline
210
0.0
220
0.0
230
1.0
 70
    11
 71
     3
 72
    16
 73
    12
 74
     0
 42
0.0000000001
 43
0.0000000001
 12
1.0
 22
0.0
 32
0.0
 13
1.0
 23
0.0
 33
0.0
 40
0.0
 40
0.0
 40
0.0
 40
0.0
 40
0.25
 40
0.25
 40
0.25
 40
0.25
 40
0.5
 40
0.5
 40
0.5
 40
0.5
 40
1.0
 40
1.0
 40
1.0
 40
1.0
 10
7.2929
 20
4.47747
 30
0.0
 10
7.2929
 20
4.47747
 30
0.0
 10
7.40847
 20
4.47747
 30
0.0
 10
7.40847
 20
4.47747
 30
0.0
 10
7.40847
 20
4.47747
 30
0.0
 10
7.40847
 20
4.5262
 30
0.0
 10
7.39028
 20
4.55057
 30
0.0
 10
7.35398
 20
4.55057
 30
0.0
 10
7.35398
 20
4.55057
 30
0.0
 10
7.31743
 20
4.55057
 30
0.0
 10
7.2971
 20
4.5262
 30
0.0
 10
7.2929
 20
4.47747
 30
0.0
  0
SPLINE
  5
79
330
1F
100
AcDbEntity
  8
Layer 1
 62
     5
370
     9
100
AcDbSpline
210
0.0
220
0.0
230
1.0
 70
    11
 71
     3
 72
    92
 73
    88
 74
     0
 42
0.0000000001
 43
0.0000000001
 12
1.0
 22
0.0
 32
0.0
 13
1.0
 23
0.0
 33
0.0
 40
0.0
 40
0.0
 40
0.0
 40
0.0
 40
0.0434782608695652
 40
0.0434782608695652
 40
0.0434782608695652
 40
0.0434782608695652
 40
0.0869565217391304
 40
0.0869565217391304
 40
0.0869565217391304
 40
0.0869565217391304
 40
0.1304347826086956
 40
0.1304347826086956
 40
0.1304347826086956
 40
0.1304347826086956
 40
0.1739130434782609
 40
0.1739130434782609
 40
0.1739130434782609
 40
0.1739130434782609
 40
0.2173913043478261
 40
0.2173913043478261
 40
0.2173913043478261
 40
0.2173913043478261
 40
0.2608695652173913
 40
0.2608695652173913
 40
0.2608695652173913
 40
0.2608695652173913
 40
0.3043478260869565
 40
0.3043478260869565
 40
0.3043478260869565
 40
0.3043478260869565
 40
0.3478260869565217
 40
0.3478260869565217
 40
0.3478260869565217
 40
0.3478260869565217
 40
0.391304347826087
 40
0.391304347826087
 40
0.391304347826087
 40
0.391304347826087
 40
0.4347826086956522
 40
0.4347826086956522
 40
0.4347826086956522
 40
0.4347826086956522
 40
0.4782608695652174
 40
0.4782608695652174
 40
0.4782608695652174
 40
0.4782608695652174
 40
0.5217391304347826
 40
0.5217391304347826
 40
0.5217391304347826
 40
0.5217391304347826
 40
0.5652173913043478
 40
0.5652173913043478
 40
0.5652173913043478
 40
0.5652173913043478
 40
0.6086956521739131
 40
0.6086956521739131
 40
0.6086956521739131
 40
0.6086956521739131
 40
0.6521739130434783
 40
0.6521739130434783
 40
0.6521739130434783
 40
0.6521739130434783
 40
0.6956521739130435
 40
0.6956521739130435
 40
0.6956521739130435
 40
0.6956521739130435
 40
0.7391304347826086
 40
0.7391304347826086
 40
0.7391304347826086
 40
0.7391304347826086
 40
0.782608695652174
 40
0.782608695652174
 40
0.782608695652174
 40
0.782608695652174
 40
0.8260869565217391
 40
0.8260869565217391
 40
0.8260869565217391
 40
0.8260869565217391
 40
0.8695652173913043
 40
0.8695652173913043
 40
0.8695652173913043
 40
0.8695652173913043
 40
0.9130434782608695
 40
0.9130434782608695
 40
0.9130434782608695
 40
0.9130434782608695
 40
1.0
 40
1.0
 40
1.0
 40
1.0
 10
7.52857
 20
4.32782
 30
0.0
 10
7.52857
 20
4.32782
 30
0.0
 10
7.52857
 20
4.37129
 30
0.0
 10
7.52857
 20
4.37129
 30
0.0
 10
7.52857
 20
4.37129
 30
0.0
 10
7.5596
 20
4.35581
 30
0.0
 10
7.58652
 20
4.34807
 30
0.0
 10
7.60949
 20
4.34807
 30
0.0
 10
7.60949
 20
4.34807
 30
0.0
 10
7.62315
 20
4.34807
 30
0.0
 10
7.63451
 20
4.35178
 30
0.0
 10
7.64348
 20
4.35919
 30
0.0
 10
7.64348
 20
4.35919
 30
0.0
 10
7.65245
 20
4.36651
 30
0.0
 10
7.65698
 20
4.37573
 30
0.0
 10
7.65698
 20
4.38684
 30
0.0
 10
7.65698
 20
4.38684
 30
0.0
 10
7.65698
 20
4.40306
 30
0.0
 10
7.64439
 20
4.41648
 30
0.0
 10
7.6192
 20
4.4271
 30
0.0
 10
7.6192
 20
4.4271
 30
0.0
 10
7.6192
 20
4.4271
 30
0.0
 10
7.59146
 20
4.43887
 30
0.0
 10
7.59146
 20
4.43887
 30
0.0
 10
7.59146
 20
4.43887
 30
0.0
 10
7.55055
 20
4.45582
 30
0.0
 10
7.53005
 20
4.48035
 30
0.0
 10
7.53005
 20
4.51221
 30
0.0
 10
7.53005
 20
4.51221
 30
0.0
 10
7.53005
 20
4.53501
 30
0.0
 10
7.53812
 20
4.55296
 30
0.0
 10
7.55425
 20
4.56604
 30
0.0
 10
7.55425
 20
4.56604
 30
0.0
 10
7.57039
 20
4.57913
 30
0.0
 10
7.59253
 20
4.58563
 30
0.0
 10
7.6206
 20
4.58563
 30
0.0
 10
7.6206
 20
4.58563
 30
0.0
 10
7.63517
 20
4.58563
 30
0.0
 10
7.65328
 20
4.58366
 30
0.0
 10
7.67476
 20
4.57963
 30
0.0
 10
7.67476
 20
4.57963
 30
0.0
 10
7.67476
 20
4.57963
 30
0.0
 10
7.68464
 20
4.57773
 30
0.0
 10
7.68464
 20
4.57773
 30
0.0
 10
7.68464
 20
4.57773
 30
0.0
 10
7.68464
 20
4.57773
 30
0.0
 10
7.68464
 20
4.53822
 30
0.0
 10
7.68464
 20
4.53822
 30
0.0
 10
7.68464
 20
4.53822
 30
0.0
 10
7.65822
 20
4.54612
 30
0.0
 10
7.63714
 20
4.55007
 30
0.0
 10
7.62142
 20
4.55007
 30
0.0
 10
7.62142
 20
4.55007
 30
0.0
 10
7.60759
 20
4.55007
 30
0.0
 10
7.59664
 20
4.54703
 30
0.0
 10
7.58833
 20
4.54102
 30
0.0
 10
7.58833
 20
4.54102
 30
0.0
 10
7.5801
 20
4.53501
 30
0.0
 10
7.57598
 20
4.52694
 30
0.0
 10
7.57598
 20
4.51682
 30
0.0
 10
7.57598
 20
4.51682
 30
0.0
 10
7.57598
 20
4.50258
 30
0.0
 10
7.58751
 20
4.49048
 30
0.0
 10
7.61064
 20
4.48068
 30
0.0
 10
7.61064
 20
4.48068
 30
0.0
 10
7.61064
 20
4.48068
 30
0.0
 10
7.63344
 20
4.47105
 30
0.0
 10
7.63344
 20
4.47105
 30
0.0
 10
7.63344
 20
4.47105
 30
0.0
 10
7.65929
 20
4.46019
 30
0.0
 10
7.67756
 20
4.44866
 30
0.0
 10
7.68826
 20
4.43656
 30
0.0
 10
7.68826
 20
4.43656
 30
0.0
 10
7.69904
 20
4.42446
 30
0.0
 10
7.70439
 20
4.40932
 30
0.0
 10
7.70439
 20
4.39121
 30
0.0
 10
7.70439
 20
4.39121
 30
0.0
 10
7.70439
 20
4.36824
 30
0.0
 10
7.69534
 20
4.34939
 30
0.0
 10
7.67715
 20
4.33466
 30
0.0
 10
7.67715
 20
4.33466
 30
0.0
 10
7.65904
 20
4.31992
 30
0.0
 10
7.63583
 20
4.31251
 30
0.0
 10
7.60759
 20
4.31251
 30
0.0
 10
7.60759
 20
4.31251
 30
0.0
 10
7.58586
 20
4.31251
 30
0.0
 10
7.5596
 20
4.31762
 30
0.0
 10
7.52857
 20
4.32782
 30
0.0
  0
SPLINE
  5
7A
330
1F
100
AcDbEntity
  8
Layer 1
 62
     5
370
     9
100
AcDbSpline
210
0.0
220
0.0
230
1.0
 70
    11
 71
     3
 72
    72
 73
    68
 74
     0
 42
0.0000000001
 43
0.0000000001
 12
1.0
 22
0.0
 32
0.0
 13
1.0
 23
0.0
 33
0.0
 40
0.0
 40
0.0
 40
0.0
 40
0.0
 40
0.0555555555555556
 40
0.0555555555555556
 40
0.0555555555555556
 40
0.0555555555555556
 40
0.1111111111111111
 40
0.1111111111111111
 40
0.1111111111111111
 40
0.1111111111111111
 40
0.1666666666666667
 40
0.1666666666666667
 40
0.1666666666666667
 40
0.1666666666666667
 40
0.2222222222222222
 40
0.2222222222222222
 40
0.2222222222222222
 40
0.2222222222222222
 40
0.2777777777777778
 40
0.2777777777777778
 40
0.2777777777777778
 40
0.2777777777777778
 40
0.3333333333333333
 40
0.3333333333333333
 40
0.3333333333333333
 40
0.3333333333333333
 40
0.3888888888888889
 40
0.3888888888888889
 40
0.3888888888888889
 40
0.3888888888888889
 40
0.4444444444444444
 40
0.4444444444444444
 40
0.4444444444444444
 40
0.4444444444444444
 40
0.5
 40
0.5
 40
0.5
 40
0.5
 40
0.5555555555555556
 40
0.5555555555555556
 40
0.5555555555555556
 40
0.5555555555555556
 40
0.6111111111111112
 40
0.6111111111111112
 40
0.6111111111111112
 40
0.6111111111111112
 40
0.6666666666666666
 40
0.6666666666666666
 40
0.6666666666666666
 40
0.6666666666666666
 40
0.7222222222222222
 40
0.7222222222222222
 40
0.7222222222222222
 40
0.7222222222222222
 40
0.7777777777777778
 40
0.7777777777777778
 40
0.7777777777777778
 40
0.7777777777777778
 40
0.8333333333333334
 40
0.8333333333333334
 40
0.8333333333333334
 40
0.8333333333333334
 40
0.8888888888888888
 40
0.8888888888888888
 40
0.8888888888888888
 40
0.8888888888888888
 40
1.0
 40
1.0
 40
1.0
 40
1.0
 10
7.90681
 20
4.31852
 30
0.0
 10
7.89215
 20
4.31449
 30
0.0
 10
7.87939
 20
4.31251
 30
0.0
 10
7.86861
 20
4.31251
 30
0.0
 10
7.86861
 20
4.31251
 30
0.0
 10
7.84441
 20
4.31251
 30
0.0
 10
7.82556
 20
4.31943
 30
0.0
 10
7.81206
 20
4.33326
 30
0.0
 10
7.81206
 20
4.33326
 30
0.0
 10
7.79848
 20
4.34709
 30
0.0
 10
7.79173
 20
4.36627
 30
0.0
 10
7.79173
 20
4.39088
 30
0.0
 10
7.79173
 20
4.39088
 30
0.0
 10
7.79173
 20
4.39088
 30
0.0
 10
7.79173
 20
4.54464
 30
0.0
 10
7.79173
 20
4.54464
 30
0.0
 10
7.79173
 20
4.54464
 30
0.0
 10
7.79173
 20
4.54464
 30
0.0
 10
7.75897
 20
4.54464
 30
0.0
 10
7.75897
 20
4.54464
 30
0.0
 10
7.75897
 20
4.54464
 30
0.0
 10
7.75897
 20
4.54464
 30
0.0
 10
7.75897
 20
4.5802
 30
0.0
 10
7.75897
 20
4.5802
 30
0.0
 10
7.75897
 20
4.5802
 30
0.0
 10
7.75897
 20
4.5802
 30
0.0
 10
7.79173
 20
4.5802
 30
0.0
 10
7.79173
 20
4.5802
 30
0.0
 10
7.79173
 20
4.5802
 30
0.0
 10
7.79173
 20
4.5802
 30
0.0
 10
7.79173
 20
4.62753
 30
0.0
 10
7.79173
 20
4.62753
 30
0.0
 10
7.79173
 20
4.62753
 30
0.0
 10
7.79173
 20
4.62753
 30
0.0
 10
7.83914
 20
4.63206
 30
0.0
 10
7.83914
 20
4.63206
 30
0.0
 10
7.83914
 20
4.63206
 30
0.0
 10
7.83914
 20
4.63206
 30
0.0
 10
7.83914
 20
4.5802
 30
0.0
 10
7.83914
 20
4.5802
 30
0.0
 10
7.83914
 20
4.5802
 30
0.0
 10
7.83914
 20
4.5802
 30
0.0
 10
7.90779
 20
4.5802
 30
0.0
 10
7.90779
 20
4.5802
 30
0.0
 10
7.90779
 20
4.5802
 30
0.0
 10
7.90779
 20
4.5802
 30
0.0
 10
7.90779
 20
4.54464
 30
0.0
 10
7.90779
 20
4.54464
 30
0.0
 10
7.90779
 20
4.54464
 30
0.0
 10
7.90779
 20
4.54464
 30
0.0
 10
7.83914
 20
4.54464
 30
0.0
 10
7.83914
 20
4.54464
 30
0.0
 10
7.83914
 20
4.54464
 30
0.0
 10
7.83914
 20
4.54464
 30
0.0
 10
7.83914
 20
4.39944
 30
0.0
 10
7.83914
 20
4.39944
 30
0.0
 10
7.83914
 20
4.39944
 30
0.0
 10
7.83914
 20
4.36519
 30
0.0
 10
7.85404
 20
4.34807
 30
0.0
 10
7.88376
 20
4.34807
 30
0.0
 10
7.88376
 20
4.34807
 30
0.0
 10
7.8901
 20
4.34807
 30
0.0
 10
7.89775
 20
4.34914
 30
0.0
 10
7.90681
 20
4.3512
 30
0.0
 10
7.90681
 20
4.3512
 30
0.0
 10
7.90681
 20
4.3512
 30
0.0
 10
7.90681
 20
4.31852
 30
0.0
 10
7.90681
 20
4.31852
 30
0.0
  0
SPLINE
  5
7B
330
1F
100
AcDbEntity
  8
Layer 1
 62
     5
370
     9
100
AcDbSpline
210
0.0
220
0.0
230
1.0
 70
    11
 71
     3
 72
    20
 73
    16
 74
     0
 42
0.0000000001
 43
0.0000000001
 12
1.0
 22
0.0
 32
0.0
 13
1.0
 23
0.0
 33
0.0
 40
0.0
 40
0.0
 40
0.0
 40
0.0
 40
0.2
 40
0.2
 40
0.2
 40
0.2
 40
0.4
 40
0.4
 40
0.4
 40
0.4
 40
0.6
 40
0.6
 40
0.6
 40
0.6
 40
1.0
 40
1.0
 40
1.0
 40
1.0
 10
7.94779
 20
4.28288
 30
0.0
 10
7.94779
 20
4.28288
 30
0.0
 10
7.94779
 20
4.31844
 30
0.0
 10
7.94779
 20
4.31844
 30
0.0
 10
7.94779
 20
4.31844
 30
0.0
 10
7.94779
 20
4.31844
 30
0.0
 10
8.15325
 20
4.31844
 30
0.0
 10
8.15325
 20
4.31844
 30
0.0
 10
8.15325
 20
4.31844
 30
0.0
 10
8.15325
 20
4.31844
 30
0.0
 10
8.15325
 20
4.28288
 30
0.0
 10
8.15325
 20
4.28288
 30
0.0
 10
8.15325
 20
4.28288
 30
0.0
 10
8.15325
 20
4.28288
 30
0.0
 10
7.94779
 20
4.28288
 30
0.0
 10
7.94779
 20
4.28288
 30
0.0
  0
SPLINE
  5
7C
330
1F
100
AcDbEntity
  8
Layer 1
 62
     5
370
     9
100
AcDbSpline
210
0.0
220
0.0
230
1.0
 70
    11
 71
     3
 72
    36
 73
    32
 74
     0
 42
0.0000000001
 43
0.0000000001
 12
1.0
 22
0.0
 32
0.0
 13
1.0
 23
0.0
 33
0.0
 40
0.0
 40
0.0
 40
0.0
 40
0.0
 40
0.1111111111111111
 40
0.1111111111111111
 40
0.1111111111111111
 40
0.1111111111111111
 40
0.2222222222222222
 40
0.2222222222222222
 40
0.2222222222222222
 40
0.2222222222222222
 40
0.3333333333333333
 40
0.3333333333333333
 40
0.3333333333333333
 40
0.3333333333333333
 40
0.4444444444444444
 40
0.4444444444444444
 40
0.4444444444444444
 40
0.4444444444444444
 40
0.5555555555555556
 40
0.5555555555555556
 40
0.5555555555555556
 40
0.5555555555555556
 40
0.6666666666666666
 40
0.6666666666666666
 40
0.6666666666666666
 40
0.6666666666666666
 40
0.7777777777777778
 40
0.7777777777777778
 40
0.7777777777777778
 40
0.7777777777777778
 40
1.0
 40
1.0
 40
1.0
 40
1.0
 10
8.33007
 20
4.30955
 30
0.0
 10
8.29262
 20
4.30955
 30
0.0
 10
8.26241
 20
4.32675
 30
0.0
 10
8.23952
 20
4.36108
 30
0.0
 10
8.23952
 20
4.36108
 30
0.0
 10
8.21656
 20
4.3954
 30
0.0
 10
8.20512
 20
4.44068
 30
0.0
 10
8.20512
 20
4.49698
 30
0.0
 10
8.20512
 20
4.49698
 30
0.0
 10
8.20512
 20
4.55328
 30
0.0
 10
8.21656
 20
4.59856
 30
0.0
 10
8.23952
 20
4.63288
 30
0.0
 10
8.23952
 20
4.63288
 30
0.0
 10
8.26241
 20
4.66721
 30
0.0
 10
8.29262
 20
4.68441
 30
0.0
 10
8.33007
 20
4.68441
 30
0.0
 10
8.33007
 20
4.68441
 30
0.0
 10
8.36769
 20
4.68441
 30
0.0
 10
8.3979
 20
4.66729
 30
0.0
 10
8.42078
 20
4.63305
 30
0.0
 10
8.42078
 20
4.63305
 30
0.0
 10
8.44358
 20
4.5988
 30
0.0
 10
8.45502
 20
4.55345
 30
0.0
 10
8.45502
 20
4.49698
 30
0.0
 10
8.45502
 20
4.49698
 30
0.0
 10
8.45502
 20
4.44068
 30
0.0
 10
8.44358
 20
4.3954
 30
0.0
 10
8.42078
 20
4.36108
 30
0.0
 10
8.42078
 20
4.36108
 30
0.0
 10
8.3979
 20
4.32675
 30
0.0
 10
8.36769
 20
4.30955
 30
0.0
 10
8.33007
 20
4.30955
 30
0.0
  0
SPLINE
  5
7D
330
1F
100
AcDbEntity
  8
Layer 1
 62
     5
370
     9
100
AcDbSpline
210
0.0
220
0.0
230
1.0
 70
    11
 71
     3
 72
    20
 73
    16
 74
     0
 42
0.0000000001
 43
0.0000000001
 12
1.0
 22
0.0
 32
0.0
 13
1.0
 23
0.0
 33
0.0
 40
0.0
 40
0.0
 40
0.0
 40
0.0
 40
0.2
 40
0.2
 40
0.2
 40
0.2
 40
0.4
 40
0.4
 40
0.4
 40
0.4
 40
0.6
 40
0.6
 40
0.6
 40
0.6
 40
1.0
 40
1.0
 40
1.0
 40
1.0
 10
8.32999
 20
4.34511
 30
0.0
 10
8.37946
 20
4.34511
 30
0.0
 10
8.40415
 20
4.39573
 30
0.0
 10
8.40415
 20
4.49698
 30
0.0
 10
8.40415
 20
4.49698
 30
0.0
 10
8.40415
 20
4.59823
 30
0.0
 10
8.37946
 20
4.64885
 30
0.0
 10
8.32999
 20
4.64885
 30
0.0
 10
8.32999
 20
4.64885
 30
0.0
 10
8.28068
 20
4.64885
 30
0.0
 10
8.25599
 20
4.59823
 30
0.0
 10
8.25599
 20
4.49698
 30
0.0
 10
8.25599
 20
4.49698
 30
0.0
 10
8.25599
 20
4.39573
 30
0.0
 10
8.28068
 20
4.34511
 30
0.0
 10
8.32999
 20
4.34511
 30
0.0
  0
SPLINE
  5
7E
330
1F
100
AcDbEntity
  8
Layer 1
 62
     5
370
     9
100
AcDbSpline
210
0.0
220
0.0
230
1.0
 70
    11
 71
     3
 72
    28
 73
    24
 74
     0
 42
0.0000000001
 43
0.0000000001
 12
1.0
 22
0.0
 32
0.0
 13
1.0
 23
0.0
 33
0.0
 40
0.0
 40
0.0
 40
0.0
 40
0.0
 40
0.1428571428571428
 40
0.1428571428571428
 40
0.1428571428571428
 40
0.1428571428571428
 40
0.2857142857142857
 40
0.2857142857142857
 40
0.2857142857142857
 40
0.2857142857142857
 40
0.4285714285714285
 40
0.4285714285714285
 40
0.4285714285714285
 40
0.4285714285714285
 40
0.5714285714285714
 40
0.5714285714285714
 40
0.5714285714285714
 40
0.5714285714285714
 40
0.7142857142857143
 40
0.7142857142857143
 40
0.7142857142857143
 40
0.7142857142857143
 40
1.0
 40
1.0
 40
1.0
 40
1.0
 10
8.61571
 20
4.31844
 30
0.0
 10
8.61571
 20
4.31844
 30
0.0
 10
8.61571
 20
4.63996
 30
0.0
 10
8.61571
 20
4.63996
 30
0.0
 10
8.61571
 20
4.63996
 30
0.0
 10
8.61571
 20
4.63996
 30
0.0
 10
8.55891
 20
4.63996
 30
0.0
 10
8.55891
 20
4.63996
 30
0.0
 10
8.55891
 20
4.63996
 30
0.0
 10
8.55891
 20
4.63996
 30
0.0
 10
8.55891
 20
4.6696
 30
0.0
 10
8.55891
 20
4.6696
 30
0.0
 10
8.55891
 20
4.6696
 30
0.0
 10
8.55891
 20
4.6696
 30
0.0
 10
8.66312
 20
4.67849
 30
0.0
 10
8.66312
 20
4.67849
 30
0.0
 10
8.66312
 20
4.67849
 30
0.0
 10
8.66312
 20
4.67849
 30
0.0
 10
8.66312
 20
4.31844
 30
0.0
 10
8.66312
 20
4.31844
 30
0.0
 10
8.66312
 20
4.31844
 30
0.0
 10
8.66312
 20
4.31844
 30
0.0
 10
8.61571
 20
4.31844
 30
0.0
 10
8.61571
 20
4.31844
 30
0.0
  0
ELLIPSE
  5
7F
330
1F
100
AcDbEntity
  8
Layer 1
370
    53
100
AcDbEllipse
 10
-9.75001
 20
5.24999
 30
0.0
 11
0.0
 21
0.30001
 31
0.0
210
0.0
220
0.0
230
1.0
 40
1.0
 41
0.0
 42
6.283185307179586
  0
ELLIPSE
  5
80
330
1F
100
AcDbEntity
  8
Layer 1
370
    53
100
AcDbEllipse
 10
-9.75001
 20
6.74999
 30
0.0
 11
0.0
 21
0.30001
 31
0.0
210
0.0
220
0.0
230
1.0
 40
1.0
 41
0.0
 42
6.283185307179586
  0
ELLIPSE
  5
81
330
1F
100
AcDbEntity
  8
Layer 1
370
    53
100
AcDbEllipse
 10
-9.75001
 20
3.74999
 30
0.0
 11
0.0
 21
0.30001
 31
0.0
210
0.0
220
0.0
230
1.0
 40
1.0
 41
0.0
 42
6.283185307179586
  0
ELLIPSE
  5
82
330
1F
100
AcDbEntity
  8
Layer 1
370
    53
100
AcDbEllipse
 10
-9.75
 20
4.5
 30
0.0
 11
0.0
 21
0.15
 31
0.0
210
0.0
220
0.0
230
1.0
 40
1.0
 41
0.0
 42
6.283185307179586
  0
ELLIPSE
  5
83
330
1F
100
AcDbEntity
  8
Layer 1
370
    53
100
AcDbEllipse
 10
-9.75
 20
6.0
 30
0.0
 11
0.0
 21
0.15
 31
0.0
210
0.0
220
0.0
230
1.0
 40
1.0
 41
0.0
 42
6.283185307179586
  0
ELLIPSE
  5
84
330
1F
100
AcDbEntity
  8
Layer 1
370
    53
100
AcDbEllipse
 10
-9.74999
 20
-6.74999
 30
0.0
 11
0.0
 21
0.30001
 31
0.0
210
0.0
220
0.0
230
1.0
 40
1.0
 41
0.0
 42
6.283185307179586
  0
ELLIPSE
  5
85
330
1F
100
AcDbEntity
  8
Layer 1
370
    53
100
AcDbEllipse
 10
-9.74999
 20
-5.24999
 30
0.0
 11
0.0
 21
0.30001
 31
0.0
210
0.0
220
0.0
230
1.0
 40
1.0
 41
0.0
 42
6.283185307179586
  0
ELLIPSE
  5
86
330
1F
100
AcDbEntity
  8
Layer 1
370
    53
100
AcDbEllipse
 10
-9.74999
 20
-3.74999
 30
0.0
 11
0.0
 21
0.30001
 31
0.0
210
0.0
220
0.0
230
1.0
 40
1.0
 41
0.0
 42
6.283185307179586
  0
ELLIPSE
  5
87
330
1F
100
AcDbEntity
  8
Layer 1
370
    53
100
AcDbEllipse
 10
-9.75
 20
-4.5
 30
0.0
 11
0.0
 21
0.15
 31
0.0
210
0.0
220
0.0
230
1.0
 40
1.0
 41
0.0
 42
6.283185307179586
  0
ELLIPSE
  5
88
330
1F
100
AcDbEntity
  8
Layer 1
370
    53
100
AcDbEllipse
 10
-9.75
 20
-6.0
 30
0.0
 11
0.0
 21
0.15
 31
0.0
210
0.0
220
0.0
230
1.0
 40
1.0
 41
0.0
 42
6.283185307179586
  0
ELLIPSE
  5
89
330
1F
100
AcDbEntity
  8
Layer 1
370
    53
100
AcDbEllipse
 10
-9.74999
 20
-2.24999
 30
0.0
 11
0.0
 21
0.30001
 31
0.0
210
0.0
220
0.0
230
1.0
 40
1.0
 41
0.0
 42
6.283185307179586
  0
ELLIPSE
  5
8A
330
1F
100
AcDbEntity
  8
Layer 1
370
    53
100
AcDbEllipse
 10
-9.74999
 20
-0.74999
 30
0.0
 11
0.0
 21
0.30001
 31
0.0
210
0.0
220
0.0
230
1.0
 40
1.0
 41
0.0
 42
6.283185307179586
  0
ELLIPSE
  5
8B
330
1F
100
AcDbEntity
  8
Layer 1
370
    53
100
AcDbEllipse
 10
-9.75
 20
-1.5
 30
0.0
 11
0.0
 21
0.15
 31
0.0
210
0.0
220
0.0
230
1.0
 40
1.0
 41
0.0
 42
6.283185307179586
  0
ELLIPSE
  5
8C
330
1F
100
AcDbEntity
  8
Layer 1
370
    53
100
AcDbEllipse
 10
-9.75
 20
-3.0
 30
0.0
 11
0.0
 21
0.15
 31
0.0
210
0.0
220
0.0
230
1.0
 40
1.0
 41
0.0
 42
6.283185307179586
  0
ELLIPSE
  5
8D
330
1F
100
AcDbEntity
  8
Layer 1
370
    53
100
AcDbEllipse
 10
-9.74999
 20
0.75001
 30
0.0
 11
0.0
 21
0.30001
 31
0.0
210
0.0
220
0.0
230
1.0
 40
1.0
 41
0.0
 42
6.283185307179586
  0
ELLIPSE
  5
8E
330
1F
100
AcDbEntity
  8
Layer 1
370
    53
100
AcDbEllipse
 10
-9.74999
 20
2.25001
 30
0.0
 11
0.0
 21
0.30001
 31
0.0
210
0.0
220
0.0
230
1.0
 40
1.0
 41
0.0
 42
6.283185307179586
  0
ELLIPSE
  5
8F
330
1F
100
AcDbEntity
  8
Layer 1
370
    53
100
AcDbEllipse
 10
-9.75
 20
1.5
 30
0.0
 11
0.0
 21
0.15
 31
0.0
210
0.0
220
0.0
230
1.0
 40
1.0
 41
0.0
 42
6.283185307179586
  0
ELLIPSE
  5
90
330
1F
100
AcDbEntity
  8
Layer 1
370
    53
100
AcDbEllipse
 10
-9.75
 20
0.0
 30
0.0
 11
0.0
 21
0.15
 31
0.0
210
0.0
220
0.0
230
1.0
 40
1.0
 41
0.0
 42
6.283185307179586
  0
ELLIPSE
  5
91
330
1F
100
AcDbEntity
  8
Layer 1
370
    53
100
AcDbEllipse
 10
-9.75
 20
3.0
 30
0.0
 11
0.0
 21
0.15
 31
0.0
210
0.0
220
0.0
230
1.0
 40
1.0
 41
0.0
 42
6.283185307179586
  0
ELLIPSE
  5
92
330
1F
100
AcDbEntity
  8
Layer 1
370
    53
100
AcDbEllipse
 10
9.74999
 20
5.24999
 30
0.0
 11
0.0
 21
0.30001
 31
0.0
210
0.0
220
0.0
230
1.0
 40
1.0
 41
0.0
 42
6.283185307179586
  0
ELLIPSE
  5
93
330
1F
100
AcDbEntity
  8
Layer 1
370
    53
100
AcDbEllipse
 10
9.74999
 20
6.74999
 30
0.0
 11
0.0
 21
0.30001
 31
0.0
210
0.0
220
0.0
230
1.0
 40
1.0
 41
0.0
 42
6.283185307179586
  0
ELLIPSE
  5
94
330
1F
100
AcDbEntity
  8
Layer 1
370
    53
100
AcDbEllipse
 10
9.74999
 20
3.74999
 30
0.0
 11
0.0
 21
0.30001
 31
0.0
210
0.0
220
0.0
230
1.0
 40
1.0
 41
0.0
 42
6.283185307179586
  0
ELLIPSE
  5
95
330
1F
100
AcDbEntity
  8
Layer 1
370
    53
100
AcDbEllipse
 10
9.75
 20
4.5
 30
0.0
 11
0.0
 21
0.15
 31
0.0
210
0.0
220
0.0
230
1.0
 40
1.0
 41
0.0
 42
6.283185307179586
  0
ELLIPSE
  5
96
330
1F
100
AcDbEntity
  8
Layer 1
370
    53
100
AcDbEllipse
 10
9.75
 20
6.0
 30
0.0
 11
0.0
 21
0.15
 31
0.0
210
0.0
220
0.0
230
1.0
 40
1.0
 41
0.0
 42
6.283185307179586
  0
ELLIPSE
  5
97
330
1F
100
AcDbEntity
  8
Layer 1
370
    53
100
AcDbEllipse
 10
9.75001
 20
-6.74999
 30
0.0
 11
0.0
 21
0.30001
 31
0.0
210
0.0
220
0.0
230
1.0
 40
1.0
 41
0.0
 42
6.283185307179586
  0
ELLIPSE
  5
98
330
1F
100
AcDbEntity
  8
Layer 1
370
    53
100
AcDbEllipse
 10
9.75001
 20
-5.24999
 30
0.0
 11
0.0
 21
0.30001
 31
0.0
210
0.0
220
0.0
230
1.0
 40
1.0
 41
0.0
 42
6.283185307179586
  0
ELLIPSE
  5
99
330
1F
100
AcDbEntity
  8
Layer 1
370
    53
100
AcDbEllipse
 10
9.75001
 20
-3.74999
 30
0.0
 11
0.0
 21
0.30001
 31
0.0
210
0.0
220
0.0
230
1.0
 40
1.0
 41
0.0
 42
6.283185307179586
  0
ELLIPSE
  5
9A
330
1F
100
AcDbEntity
  8
Layer 1
370
    53
100
AcDbEllipse
 10
9.75
 20
-4.5
 30
0.0
 11
0.0
 21
0.15
 31
0.0
210
0.0
220
0.0
230
1.0
 40
1.0
 41
0.0
 42
6.283185307179586
  0
ELLIPSE
  5
9B
330
1F
100
AcDbEntity
  8
Layer 1
370
    53
100
AcDbEllipse
 10
9.75
 20
-6.0
 30
0.0
 11
0.0
 21
0.15
 31
0.0
210
0.0
220
0.0
230
1.0
 40
1.0
 41
0.0
 42
6.283185307179586
  0
ELLIPSE
  5
9C
330
1F
100
AcDbEntity
  8
Layer 1
370
    53
100
AcDbEllipse
 10
9.75001
 20
-2.24999
 30
0.0
 11
0.0
 21
0.30001
 31
0.0
210
0.0
220
0.0
230
1.0
 40
1.0
 41
0.0
 42
6.283185307179586
  0
ELLIPSE
  5
9D
330
1F
100
AcDbEntity
  8
Layer 1
370
    53
100
AcDbEllipse
 10
9.75001
 20
-0.74999
 30
0.0
 11
0.0
 21
0.30001
 31
0.0
210
0.0
220
0.0
230
1.0
 40
1.0
 41
0.0
 42
6.283185307179586
  0
ELLIPSE
  5
9E
330
1F
100
AcDbEntity
  8
Layer 1
370
    53
100
AcDbEllipse
 10
9.75
 20
-1.5
 30
0.0
 11
0.0
 21
0.15
 31
0.0
210
0.0
220
0.0
230
1.0
 40
1.0
 41
0.0
 42
6.283185307179586
  0
ELLIPSE
  5
9F
330
1F
100
AcDbEntity
  8
Layer 1
370
    53
100
AcDbEllipse
 10
9.75
 20
-3.0
 30
0.0
 11
0.0
 21
0.15
 31
0.0
210
0.0
220
0.0
230
1.0
 40
1.0
 41
0.0
 42
6.283185307179586
  0
ELLIPSE
  5
A0
330
1F
100
AcDbEntity
  8
Layer 1
370
    53
100
AcDbEllipse
 10
9.75001
 20
0.75001
 30
0.0
 11
0.0
 21
0.30001
 31
0.0
210
0.0
220
0.0
230
1.0
 40
1.0
 41
0.0
 42
6.283185307179586
  0
ELLIPSE
  5
A1
330
1F
100
AcDbEntity
  8
Layer 1
370
    53
100
AcDbEllipse
 10
9.75001
 20
2.25001
 30
0.0
 11
0.0
 21
0.30001
 31
0.0
210
0.0
220
0.0
230
1.0
 40
1.0
 41
0.0
 42
6.283185307179586
  0
ELLIPSE
  5
A2
330
1F
100
AcDbEntity
  8
Layer 1
370
    53
100
AcDbEllipse
 10
9.75
 20
1.5
 30
0.0
 11
0.0
 21
0.15
 31
0.0
210
0.0
220
0.0
230
1.0
 40
1.0
 41
0.0
 42
6.283185307179586
  0
ELLIPSE
  5
A3
330
1F
100
AcDbEntity
  8
Layer 1
370
    53
100
AcDbEllipse
 10
9.75
 20
0.0
 30
0.0
 11
0.0
 21
0.15
 31
0.0
210
0.0
220
0.0
230
1.0
 40
1.0
 41
0.0
 42
6.283185307179586
  0
ELLIPSE
  5
A4
330
1F
100
AcDbEntity
  8
Layer 1
370
    53
100
AcDbEllipse
 10
9.75
 20
3.0
 30
0.0
 11
0.0
 21
0.15
 31
0.0
210
0.0
220
0.0
230
1.0
 40
1.0
 41
0.0
 42
6.283185307179586
  0
SPLINE
  5
A5
330
1F
100
AcDbEntity
  8
Layer 1
370
    53
100
AcDbSpline
210
0.0
220
0.0
230
1.0
 70
    11
 71
     3
 72
    20
 73
    16
 74
     0
 42
0.0000000001
 43
0.0000000001
 12
1.0
 22
0.0
 32
0.0
 13
1.0
 23
0.0
 33
0.0
 40
0.0
 40
0.0
 40
0.0
 40
0.0
 40
0.2
 40
0.2
 40
0.2
 40
0.2
 40
0.4
 40
0.4
 40
0.4
 40
0.4
 40
0.6
 40
0.6
 40
0.6
 40
0.6
 40
1.0
 40
1.0
 40
1.0
 40
1.0
 10
6.45
 20
6.75
 30
0.0
 10
6.45
 20
6.58431
 30
0.0
 10
6.58431
 20
6.45
 30
0.0
 10
6.75
 20
6.45
 30
0.0
 10
6.75
 20
6.45
 30
0.0
 10
6.91569
 20
6.45
 30
0.0
 10
7.05
 20
6.58431
 30
0.0
 10
7.05
 20
6.75
 30
0.0
 10
7.05
 20
6.75
 30
0.0
 10
7.05
 20
6.91569
 30
0.0
 10
6.91569
 20
7.05
 30
0.0
 10
6.75
 20
7.05
 30
0.0
 10
6.75
 20
7.05
 30
0.0
 10
6.58431
 20
7.05
 30
0.0
 10
6.45
 20
6.91569
 30
0.0
 10
6.45
 20
6.75
 30
0.0
  0
SPLINE
  5
A6
330
1F
100
AcDbEntity
  8
Layer 1
370
    53
100
AcDbSpline
210
0.0
220
0.0
230
1.0
 70
    11
 71
     3
 72
    20
 73
    16
 74
     0
 42
0.0000000001
 43
0.0000000001
 12
1.0
 22
0.0
 32
0.0
 13
1.0
 23
0.0
 33
0.0
 40
0.0
 40
0.0
 40
0.0
 40
0.0
 40
0.2
 40
0.2
 40
0.2
 40
0.2
 40
0.4
 40
0.4
 40
0.4
 40
0.4
 40
0.6
 40
0.6
 40
0.6
 40
0.6
 40
1.0
 40
1.0
 40
1.0
 40
1.0
 10
4.95
 20
6.75
 30
0.0
 10
4.95
 20
6.58431
 30
0.0
 10
5.08431
 20
6.45
 30
0.0
 10
5.25
 20
6.45
 30
0.0
 10
5.25
 20
6.45
 30
0.0
 10
5.41569
 20
6.45
 30
0.0
 10
5.55
 20
6.58431
 30
0.0
 10
5.55
 20
6.75
 30
0.0
 10
5.55
 20
6.75
 30
0.0
 10
5.55
 20
6.91569
 30
0.0
 10
5.41569
 20
7.05
 30
0.0
 10
5.25
 20
7.05
 30
0.0
 10
5.25
 20
7.05
 30
0.0
 10
5.08431
 20
7.05
 30
0.0
 10
4.95
 20
6.91569
 30
0.0
 10
4.95
 20
6.75
 30
0.0
  0
SPLINE
  5
A7
330
1F
100
AcDbEntity
  8
Layer 1
370
    53
100
AcDbSpline
210
0.0
220
0.0
230
1.0
 70
    11
 71
     3
 72
    20
 73
    16
 74
     0
 42
0.0000000001
 43
0.0000000001
 12
1.0
 22
0.0
 32
0.0
 13
1.0
 23
0.0
 33
0.0
 40
0.0
 40
0.0
 40
0.0
 40
0.0
 40
0.2
 40
0.2
 40
0.2
 40
0.2
 40
0.4
 40
0.4
 40
0.4
 40
0.4
 40
0.6
 40
0.6
 40
0.6
 40
0.6
 40
1.0
 40
1.0
 40
1.0
 40
1.0
 10
7.95
 20
6.75
 30
0.0
 10
7.95
 20
6.58431
 30
0.0
 10
8.08431
 20
6.45
 30
0.0
 10
8.25
 20
6.45
 30
0.0
 10
8.25
 20
6.45
 30
0.0
 10
8.41569
 20
6.45
 30
0.0
 10
8.55
 20
6.58431
 30
0.0
 10
8.55
 20
6.75
 30
0.0
 10
8.55
 20
6.75
 30
0.0
 10
8.55
 20
6.91569
 30
0.0
 10
8.41569
 20
7.05
 30
0.0
 10
8.25
 20
7.05
 30
0.0
 10
8.25
 20
7.05
 30
0.0
 10
8.08431
 20
7.05
 30
0.0
 10
7.95
 20
6.91569
 30
0.0
 10
7.95
 20
6.75
 30
0.0
  0
SPLINE
  5
A8
330
1F
100
AcDbEntity
  8
Layer 1
370
    53
100
AcDbSpline
210
0.0
220
0.0
230
1.0
 70
    11
 71
     3
 72
    20
 73
    16
 74
     0
 42
0.0000000001
 43
0.0000000001
 12
1.0
 22
0.0
 32
0.0
 13
1.0
 23
0.0
 33
0.0
 40
0.0
 40
0.0
 40
0.0
 40
0.0
 40
0.2
 40
0.2
 40
0.2
 40
0.2
 40
0.4
 40
0.4
 40
0.4
 40
0.4
 40
0.6
 40
0.6
 40
0.6
 40
0.6
 40
1.0
 40
1.0
 40
1.0
 40
1.0
 10
7.35
 20
6.75
 30
0.0
 10
7.35
 20
6.66716
 30
0.0
 10
7.41716
 20
6.6
 30
0.0
 10
7.5
 20
6.6
 30
0.0
 10
7.5
 20
6.6
 30
0.0
 10
7.58284
 20
6.6
 30
0.0
 10
7.65
 20
6.66716
 30
0.0
 10
7.65
 20
6.75
 30
0.0
 10
7.65
 20
6.75
 30
0.0
 10
7.65
 20
6.83284
 30
0.0
 10
7.58284
 20
6.9
 30
0.0
 10
7.5
 20
6.9
 30
0.0
 10
7.5
 20
6.9
 30
0.0
 10
7.41716
 20
6.9
 30
0.0
 10
7.35
 20
6.83284
 30
0.0
 10
7.35
 20
6.75
 30
0.0
  0
SPLINE
  5
A9
330
1F
100
AcDbEntity
  8
Layer 1
370
    53
100
AcDbSpline
210
0.0
220
0.0
230
1.0
 70
    11
 71
     3
 72
    20
 73
    16
 74
     0
 42
0.0000000001
 43
0.0000000001
 12
1.0
 22
0.0
 32
0.0
 13
1.0
 23
0.0
 33
0.0
 40
0.0
 40
0.0
 40
0.0
 40
0.0
 40
0.2
 40
0.2
 40
0.2
 40
0.2
 40
0.4
 40
0.4
 40
0.4
 40
0.4
 40
0.6
 40
0.6
 40
0.6
 40
0.6
 40
1.0
 40
1.0
 40
1.0
 40
1.0
 10
5.85
 20
6.75
 30
0.0
 10
5.85
 20
6.66716
 30
0.0
 10
5.91716
 20
6.6
 30
0.0
 10
6.0
 20
6.6
 30
0.0
 10
6.0
 20
6.6
 30
0.0
 10
6.08284
 20
6.6
 30
0.0
 10
6.15
 20
6.66716
 30
0.0
 10
6.15
 20
6.75
 30
0.0
 10
6.15
 20
6.75
 30
0.0
 10
6.15
 20
6.83284
 30
0.0
 10
6.08284
 20
6.9
 30
0.0
 10
6.0
 20
6.9
 30
0.0
 10
6.0
 20
6.9
 30
0.0
 10
5.91716
 20
6.9
 30
0.0
 10
5.85
 20
6.83284
 30
0.0
 10
5.85
 20
6.75
 30
0.0
  0
SPLINE
  5
AA
330
1F
100
AcDbEntity
  8
Layer 1
370
    53
100
AcDbSpline
210
0.0
220
0.0
230
1.0
 70
    11
 71
     3
 72
    20
 73
    16
 74
     0
 42
0.0000000001
 43
0.0000000001
 12
1.0
 22
0.0
 32
0.0
 13
1.0
 23
0.0
 33
0.0
 40
0.0
 40
0.0
 40
0.0
 40
0.0
 40
0.2
 40
0.2
 40
0.2
 40
0.2
 40
0.4
 40
0.4
 40
0.4
 40
0.4
 40
0.6
 40
0.6
 40
0.6
 40
0.6
 40
1.0
 40
1.0
 40
1.0
 40
1.0
 10
8.85
 20
6.75
 30
0.0
 10
8.85
 20
6.83284
 30
0.0
 10
8.91716
 20
6.9
 30
0.0
 10
9.0
 20
6.9
 30
0.0
 10
9.0
 20
6.9
 30
0.0
 10
9.08284
 20
6.9
 30
0.0
 10
9.15
 20
6.83284
 30
0.0
 10
9.15
 20
6.75
 30
0.0
 10
9.15
 20
6.75
 30
0.0
 10
9.15
 20
6.66716
 30
0.0
 10
9.08284
 20
6.6
 30
0.0
 10
9.0
 20
6.6
 30
0.0
 10
9.0
 20
6.6
 30
0.0
 10
8.91716
 20
6.6
 30
0.0
 10
8.85
 20
6.66716
 30
0.0
 10
8.85
 20
6.75
 30
0.0
  0
SPLINE
  5
AB
330
1F
100
AcDbEntity
  8
Layer 1
370
    53
100
AcDbSpline
210
0.0
220
0.0
230
1.0
 70
    11
 71
     3
 72
    20
 73
    16
 74
     0
 42
0.0000000001
 43
0.0000000001
 12
1.0
 22
0.0
 32
0.0
 13
1.0
 23
0.0
 33
0.0
 40
0.0
 40
0.0
 40
0.0
 40
0.0
 40
0.2
 40
0.2
 40
0.2
 40
0.2
 40
0.4
 40
0.4
 40
0.4
 40
0.4
 40
0.6
 40
0.6
 40
0.6
 40
0.6
 40
1.0
 40
1.0
 40
1.0
 40
1.0
 10
-6.45
 20
-6.75
 30
0.0
 10
-6.45
 20
-6.58431
 30
0.0
 10
-6.58431
 20
-6.45
 30
0.0
 10
-6.75
 20
-6.45
 30
0.0
 10
-6.75
 20
-6.45
 30
0.0
 10
-6.91569
 20
-6.45
 30
0.0
 10
-7.05
 20
-6.58431
 30
0.0
 10
-7.05
 20
-6.75
 30
0.0
 10
-7.05
 20
-6.75
 30
0.0
 10
-7.05
 20
-6.91569
 30
0.0
 10
-6.91569
 20
-7.05
 30
0.0
 10
-6.75
 20
-7.05
 30
0.0
 10
-6.75
 20
-7.05
 30
0.0
 10
-6.58431
 20
-7.05
 30
0.0
 10
-6.45
 20
-6.91569
 30
0.0
 10
-6.45
 20
-6.75
 30
0.0
  0
SPLINE
  5
AC
330
1F
100
AcDbEntity
  8
Layer 1
370
    53
100
AcDbSpline
210
0.0
220
0.0
230
1.0
 70
    11
 71
     3
 72
    20
 73
    16
 74
     0
 42
0.0000000001
 43
0.0000000001
 12
1.0
 22
0.0
 32
0.0
 13
1.0
 23
0.0
 33
0.0
 40
0.0
 40
0.0
 40
0.0
 40
0.0
 40
0.2
 40
0.2
 40
0.2
 40
0.2
 40
0.4
 40
0.4
 40
0.4
 40
0.4
 40
0.6
 40
0.6
 40
0.6
 40
0.6
 40
1.0
 40
1.0
 40
1.0
 40
1.0
 10
-4.95
 20
-6.75
 30
0.0
 10
-4.95
 20
-6.58431
 30
0.0
 10
-5.08431
 20
-6.45
 30
0.0
 10
-5.25
 20
-6.45
 30
0.0
 10
-5.25
 20
-6.45
 30
0.0
 10
-5.41569
 20
-6.45
 30
0.0
 10
-5.55
 20
-6.58431
 30
0.0
 10
-5.55
 20
-6.75
 30
0.0
 10
-5.55
 20
-6.75
 30
0.0
 10
-5.55
 20
-6.91569
 30
0.0
 10
-5.41569
 20
-7.05
 30
0.0
 10
-5.25
 20
-7.05
 30
0.0
 10
-5.25
 20
-7.05
 30
0.0
 10
-5.08431
 20
-7.05
 30
0.0
 10
-4.95
 20
-6.91569
 30
0.0
 10
-4.95
 20
-6.75
 30
0.0
  0
SPLINE
  5
AD
330
1F
100
AcDbEntity
  8
Layer 1
370
    53
100
AcDbSpline
210
0.0
220
0.0
230
1.0
 70
    11
 71
     3
 72
    20
 73
    16
 74
     0
 42
0.0000000001
 43
0.0000000001
 12
1.0
 22
0.0
 32
0.0
 13
1.0
 23
0.0
 33
0.0
 40
0.0
 40
0.0
 40
0.0
 40
0.0
 40
0.2
 40
0.2
 40
0.2
 40
0.2
 40
0.4
 40
0.4
 40
0.4
 40
0.4
 40
0.6
 40
0.6
 40
0.6
 40
0.6
 40
1.0
 40
1.0
 40
1.0
 40
1.0
 10
-7.95
 20
-6.75
 30
0.0
 10
-7.95
 20
-6.58431
 30
0.0
 10
-8.08431
 20
-6.45
 30
0.0
 10
-8.25
 20
-6.45
 30
0.0
 10
-8.25
 20
-6.45
 30
0.0
 10
-8.41569
 20
-6.45
 30
0.0
 10
-8.55
 20
-6.58431
 30
0.0
 10
-8.55
 20
-6.75
 30
0.0
 10
-8.55
 20
-6.75
 30
0.0
 10
-8.55
 20
-6.91569
 30
0.0
 10
-8.41569
 20
-7.05
 30
0.0
 10
-8.25
 20
-7.05
 30
0.0
 10
-8.25
 20
-7.05
 30
0.0
 10
-8.08431
 20
-7.05
 30
0.0
 10
-7.95
 20
-6.91569
 30
0.0
 10
-7.95
 20
-6.75
 30
0.0
  0
SPLINE
  5
AE
330
1F
100
AcDbEntity
  8
Layer 1
370
    53
100
AcDbSpline
210
0.0
220
0.0
230
1.0
 70
    11
 71
     3
 72
    20
 73
    16
 74
     0
 42
0.0000000001
 43
0.0000000001
 12
1.0
 22
0.0
 32
0.0
 13
1.0
 23
0.0
 33
0.0
 40
0.0
 40
0.0
 40
0.0
 40
0.0
 40
0.2
 40
0.2
 40
0.2
 40
0.2
 40
0.4
 40
0.4
 40
0.4
 40
0.4
 40
0.6
 40
0.6
 40
0.6
 40
0.6
 40
1.0
 40
1.0
 40
1.0
 40
1.0
 10
-7.35
 20
-6.75
 30
0.0
 10
-7.35
 20
-6.66716
 30
0.0
 10
-7.41716
 20
-6.6
 30
0.0
 10
-7.5
 20
-6.6
 30
0.0
 10
-7.5
 20
-6.6
 30
0.0
 10
-7.58284
 20
-6.6
 30
0.0
 10
-7.65
 20
-6.66716
 30
0.0
 10
-7.65
 20
-6.75
 30
0.0
 10
-7.65
 20
-6.75
 30
0.0
 10
-7.65
 20
-6.83284
 30
0.0
 10
-7.58284
 20
-6.9
 30
0.0
 10
-7.5
 20
-6.9
 30
0.0
 10
-7.5
 20
-6.9
 30
0.0
 10
-7.41716
 20
-6.9
 30
0.0
 10
-7.35
 20
-6.83284
 30
0.0
 10
-7.35
 20
-6.75
 30
0.0
  0
SPLINE
  5
AF
330
1F
100
AcDbEntity
  8
Layer 1
370
    53
100
AcDbSpline
210
0.0
220
0.0
230
1.0
 70
    11
 71
     3
 72
    20
 73
    16
 74
     0
 42
0.0000000001
 43
0.0000000001
 12
1.0
 22
0.0
 32
0.0
 13
1.0
 23
0.0
 33
0.0
 40
0.0
 40
0.0
 40
0.0
 40
0.0
 40
0.2
 40
0.2
 40
0.2
 40
0.2
 40
0.4
 40
0.4
 40
0.4
 40
0.4
 40
0.6
 40
0.6
 40
0.6
 40
0.6
 40
1.0
 40
1.0
 40
1.0
 40
1.0
 10
-5.85
 20
-6.75
 30
0.0
 10
-5.85
 20
-6.66716
 30
0.0
 10
-5.91716
 20
-6.6
 30
0.0
 10
-6.0
 20
-6.6
 30
0.0
 10
-6.0
 20
-6.6
 30
0.0
 10
-6.08284
 20
-6.6
 30
0.0
 10
-6.15
 20
-6.66716
 30
0.0
 10
-6.15
 20
-6.75
 30
0.0
 10
-6.15
 20
-6.75
 30
0.0
 10
-6.15
 20
-6.83284
 30
0.0
 10
-6.08284
 20
-6.9
 30
0.0
 10
-6.0
 20
-6.9
 30
0.0
 10
-6.0
 20
-6.9
 30
0.0
 10
-5.91716
 20
-6.9
 30
0.0
 10
-5.85
 20
-6.83284
 30
0.0
 10
-5.85
 20
-6.75
 30
0.0
  0
SPLINE
  5
B0
330
1F
100
AcDbEntity
  8
Layer 1
370
    53
100
AcDbSpline
210
0.0
220
0.0
230
1.0
 70
    11
 71
     3
 72
    20
 73
    16
 74
     0
 42
0.0000000001
 43
0.0000000001
 12
1.0
 22
0.0
 32
0.0
 13
1.0
 23
0.0
 33
0.0
 40
0.0
 40
0.0
 40
0.0
 40
0.0
 40
0.2
 40
0.2
 40
0.2
 40
0.2
 40
0.4
 40
0.4
 40
0.4
 40
0.4
 40
0.6
 40
0.6
 40
0.6
 40
0.6
 40
1.0
 40
1.0
 40
1.0
 40
1.0
 10
-8.85
 20
-6.75
 30
0.0
 10
-8.85
 20
-6.83284
 30
0.0
 10
-8.91716
 20
-6.9
 30
0.0
 10
-9.0
 20
-6.9
 30
0.0
 10
-9.0
 20
-6.9
 30
0.0
 10
-9.08284
 20
-6.9
 30
0.0
 10
-9.15
 20
-6.83284
 30
0.0
 10
-9.15
 20
-6.75
 30
0.0
 10
-9.15
 20
-6.75
 30
0.0
 10
-9.15
 20
-6.66716
 30
0.0
 10
-9.08284
 20
-6.6
 30
0.0
 10
-9.0
 20
-6.6
 30
0.0
 10
-9.0
 20
-6.6
 30
0.0
 10
-8.91716
 20
-6.6
 30
0.0
 10
-8.85
 20
-6.66716
 30
0.0
 10
-8.85
 20
-6.75
 30
0.0
  0
ENDSEC
  0
SECTION
  2
OBJECTS
  0
DICTIONARY
  5
C
330
0
100
AcDbDictionary
281
     1
  3
ACAD_GROUP
350
D
  3
ACAD_LAYOUT
350
1A
  3
ACAD_MATERIAL
350
3B
  3
ACAD_MLEADERSTYLE
350
D2
  3
ACAD_MLINESTYLE
350
17
  3
ACAD_PLOTSETTINGS
350
19
  3
ACAD_PLOTSTYLENAME
350
E
  3
ACAD_TABLESTYLE
350
D1
  3
ACAD_VISUALSTYLE
350
2A
  0
DICTIONARY
  5
D
102
{ACAD_REACTORS
330
C
102
}
330
C
100
AcDbDictionary
281
     1
  0
DICTIONARY
  5
1A
102
{ACAD_REACTORS
330
C
102
}
330
C
100
AcDbDictionary
281
     1
  3
Layout1
350
1E
  3
Layout2
350
26
  3
Model
350
22
  0
DICTIONARY
  5
3B
102
{ACAD_REACTORS
330
C
102
}
330
C
100
AcDbDictionary
281
     1
  3
ByBlock
350
3D
  3
ByLayer
350
3C
  3
Global
350
3E
  0
DICTIONARY
  5
D2
102
{ACAD_REACTORS
330
C
102
}
330
C
100
AcDbDictionary
281
     1
  0
DICTIONARY
  5
17
102
{ACAD_REACTORS
330
C
102
}
330
C
100
AcDbDictionary
281
     1
  3
Standard
350
18
  0
DICTIONARY
  5
19
102
{ACAD_REACTORS
330
C
102
}
330
C
100
AcDbDictionary
281
     1
  0
ACDBDICTIONARYWDFLT
  5
E
102
{ACAD_REACTORS
330
C
102
}
330
C
100
AcDbDictionary
281
     1
  3
Normal
350
F
100
AcDbDictionaryWithDefault
340
F
  0
DICTIONARY
  5
D1
102
{ACAD_REACTORS
330
C
102
}
330
C
100
AcDbDictionary
281
     1
  0
DICTIONARY
  5
2A
102
{ACAD_REACTORS
330
C
102
}
330
C
100
AcDbDictionary
281
     1
  3
2dWireframe
350
2F
  3
3D Hidden
350
31
  3
3dWireframe
350
30
  3
Basic
350
32
  3
Brighten
350
36
  3
ColorChange
350
3A
  3
Conceptual
350
34
  3
Dim
350
35
  3
Facepattern
350
39
  3
Flat
350
2B
  3
FlatWithEdges
350
2C
  3
Gouraud
350
2D
  3
GouraudWithEdges
350
2E
  3
Linepattern
350
38
  3
Realistic
350
33
  3
Thicken
350
37
  0
LAYOUT
  5
1E
102
{ACAD_REACTORS
330
1A
102
}
330
1A
100
AcDbPlotSettings
  1

  2
none_device
  4

  6

 40
0.0
 41
0.0
 42
0.0
 43
0.0
 44
0.0
 45
0.0
 46
0.0
 47
0.0
 48
0.0
 49
0.0
140
0.0
141
0.0
142
1.0
143
1.0
 70
   688
 72
     0
 73
     0
 74
     5
  7

 75
    16
 76
     0
 77
     2
 78
   300
147
1.0
148
0.0
149
0.0
100
AcDbLayout
  1
Layout1
 70
     1
 71
     1
 10
0.0
 20
0.0
 11
12.0
 21
9.0
 12
0.0
 22
0.0
 32
0.0
 14
1.000000000000000E+20
 24
1.000000000000000E+20
 34
1.000000000000000E+20
 15
-1.000000000000000E+20
 25
-1.000000000000000E+20
 35
-1.000000000000000E+20
146
0.0
 13
0.0
 23
0.0
 33
0.0
 16
1.0
 26
0.0
 36
0.0
 17
0.0
 27
1.0
 37
0.0
 76
     0
330
1B
  0
LAYOUT
  5
26
102
{ACAD_REACTORS
330
1A
102
}
330
1A
100
AcDbPlotSettings
  1

  2
none_device
  4

  6

 40
0.0
 41
0.0
 42
0.0
 43
0.0
 44
0.0
 45
0.0
 46
0.0
 47
0.0
 48
0.0
 49
0.0
140
0.0
141
0.0
142
1.0
143
1.0
 70
   688
 72
     0
 73
     0
 74
     5
  7

 75
    16
 76
     0
 77
     2
 78
   300
147
1.0
148
0.0
149
0.0
100
AcDbLayout
  1
Layout2
 70
     1
 71
     2
 10
0.0
 20
0.0
 11
0.0
 21
0.0
 12
0.0
 22
0.0
 32
0.0
 14
0.0
 24
0.0
 34
0.0
 15
0.0
 25
0.0
 35
0.0
146
0.0
 13
0.0
 23
0.0
 33
0.0
 16
1.0
 26
0.0
 36
0.0
 17
0.0
 27
1.0
 37
0.0
 76
     0
330
23
  0
LAYOUT
  5
22
102
{ACAD_REACTORS
330
1A
102
}
330
1A
100
AcDbPlotSettings
  1

  2
none_device
  4

  6

 40
0.0
 41
0.0
 42
0.0
 43
0.0
 44
0.0
 45
0.0
 46
0.0
 47
0.0
 48
0.0
 49
0.0
140
0.0
141
0.0
142
1.0
143
1.0
 70
  1712
 72
     0
 73
     0
 74
     0
  7

 75
     0
 76
     0
 77
     2
 78
   300
147
1.0
148
0.0
149
0.0
100
AcDbLayout
  1
Model
 70
     1
 71
     0
 10
0.0
 20
0.0
 11
12.0
 21
9.0
 12
0.0
 22
0.0
 32
0.0
 14
-10.47646
 24
-7.47646
 34
0.0
 15
10.47646
 25
7.47646
 35
0.0
146
0.0
 13
0.0
 23
0.0
 33
0.0
 16
1.0
 26
0.0
 36
0.0
 17
0.0
 27
1.0
 37
0.0
 76
     0
330
1F
331
29
  0
MATERIAL
  5
3D
102
{ACAD_REACTORS
330
3B
102
}
330
3B
100
AcDbMaterial
  1
ByBlock
 72
     1
 94
      127
  0
MATERIAL
  5
3C
102
{ACAD_REACTORS
330
3B
102
}
330
3B
100
AcDbMaterial
  1
ByLayer
 72
     1
 94
      127
  0
MATERIAL
  5
3E
102
{ACAD_REACTORS
330
3B
102
}
330
3B
100
AcDbMaterial
  1
Global
 72
     1
 94
      127
  0
MLINESTYLE
  5
18
102
{ACAD_REACTORS
330
17
102
}
330
17
100
AcDbMlineStyle
  2
Standard
 70
     0
  3

 62
   256
 51
90.0
 52
90.0
 71
     2
 49
0.5
 62
   256
  6
BYLAYER
 49
-0.5
 62
   256
  6
BYLAYER
  0
ACDBPLACEHOLDER
  5
F
102
{ACAD_REACTORS
330
E
102
}
330
E
  0
VISUALSTYLE
  5
2F
102
{ACAD_REACTORS
330
2A
102
}
102
{ACAD_XDICTIONARY
360
B9
102
}
330
2A
100
AcDbVisualStyle
  2
2dWireframe
 70
     4
 71
     0
 72
     2
 73
     0
 90
        0
 40
-0.6
 41
-30.0
 62
     5
 63
     7
421
 16777215
 74
     1
 91
        4
 64
     7
 65
   257
 75
     1
175
     1
 42
1.0
 92
        0
 66
   257
 43
1.0
 76
     1
 77
     6
 78
     2
 67
     7
 79
     5
170
     0
171
     0
290
     0
174
     0
 93
        1
 44
0.0
173
     0
291
     0
 45
0.0
  0
VISUALSTYLE
  5
31
102
{ACAD_REACTORS
330
2A
102
}
102
{ACAD_XDICTIONARY
360
BD
102
}
330
2A
100
AcDbVisualStyle
  2
3D Hidden
 70
     6
 71
     1
 72
     2
 73
     2
 90
        0
 40
-0.6
 41
-30.0
 62
     5
 63
     7
421
 16777215
 74
     2
 91
        2
 64
     7
 65
   257
 75
     2
175
     1
 42
40.0
 92
        0
 66
   257
 43
1.0
 76
     1
 77
     6
 78
     2
 67
     7
 79
     3
170
     0
171
     0
290
     0
174
     0
 93
        1
 44
0.0
173
     0
291
     0
 45
0.0
  0
VISUALSTYLE
  5
30
102
{ACAD_REACTORS
330
2A
102
}
102
{ACAD_XDICTIONARY
360
BB
102
}
330
2A
100
AcDbVisualStyle
  2
3dWireframe
 70
     5
 71
     0
 72
     2
 73
     0
 90
        0
 40
-0.6
 41
-30.0
 62
     5
 63
     7
421
 16777215
 74
     1
 91
        4
 64
     7
 65
   257
 75
     1
175
     1
 42
1.0
 92
        0
 66
   257
 43
1.0
 76
     1
 77
     6
 78
     2
 67
     7
 79
     5
170
     0
171
     0
290
     0
174
     0
 93
        1
 44
0.0
173
     0
291
     0
 45
0.0
  0
VISUALSTYLE
  5
32
102
{ACAD_REACTORS
330
2A
102
}
102
{ACAD_XDICTIONARY
360
BF
102
}
330
2A
100
AcDbVisualStyle
  2
Basic
 70
     7
 71
     1
 72
     0
 73
     1
 90
        0
 40
-0.6
 41
-30.0
 62
     5
 63
     7
421
 16777215
 74
     0
 91
        4
 64
     7
 65
   257
 75
     1
175
     1
 42
1.0
 92
        8
 66
     7
 43
1.0
 76
     1
 77
     6
 78
     2
 67
     7
 79
     5
170
     0
171
     0
290
     0
174
     0
 93
        1
 44
0.0
173
     0
291
     1
 45
0.0
  0
VISUALSTYLE
  5
36
102
{ACAD_REACTORS
330
2A
102
}
102
{ACAD_XDICTIONARY
360
C7
102
}
330
2A
100
AcDbVisualStyle
  2
Brighten
 70
    12
 71
     2
 72
     2
 73
     0
 90
        0
 40
-0.6
 41
-30.0
 62
     5
 63
     7
421
 16777215
 74
     1
 91
        4
 64
     7
 65
   257
 75
     1
175
     1
 42
1.0
 92
        8
 66
     7
 43
1.0
 76
     1
 77
     6
 78
     2
 67
     7
 79
     5
170
     0
171
     0
290
     0
174
     0
 93
        1
 44
50.0
173
     0
291
     1
 45
0.0
  0
VISUALSTYLE
  5
3A
102
{ACAD_REACTORS
330
2A
102
}
102
{ACAD_XDICTIONARY
360
CF
102
}
330
2A
100
AcDbVisualStyle
  2
ColorChange
 70
    16
 71
     2
 72
     2
 73
     3
 90
        0
 40
-0.6
 41
-30.0
 62
     5
 63
     8
421
  8421504
 74
     1
 91
        4
 64
     7
 65
   257
 75
     1
175
     1
 42
1.0
 92
        8
 66
     8
424
  8421504
 43
1.0
 76
     1
 77
     6
 78
     2
 67
     7
 79
     5
170
     0
171
     0
290
     0
174
     0
 93
        1
 44
0.0
173
     0
291
     1
 45
0.0
  0
VISUALSTYLE
  5
34
102
{ACAD_REACTORS
330
2A
102
}
102
{ACAD_XDICTIONARY
360
C3
102
}
330
2A
100
AcDbVisualStyle
  2
Conceptual
 70
     9
 71
     3
 72
     2
 73
     0
 90
        0
 40
-0.6
 41
-30.0
 62
     5
 63
     7
421
 16777215
 74
     2
 91
        2
 64
     7
 65
   257
 75
     1
175
     1
 42
40.0
 92
        8
 66
     7
 43
1.0
 76
     1
 77
     6
 78
     2
 67
     7
 79
     3
170
     0
171
     0
290
     0
174
     0
 93
        1
 44
0.0
173
     0
291
     0
 45
0.0
  0
VISUALSTYLE
  5
35
102
{ACAD_REACTORS
330
2A
102
}
102
{ACAD_XDICTIONARY
360
C5
102
}
330
2A
100
AcDbVisualStyle
  2
Dim
 70
    11
 71
     2
 72
     2
 73
     0
 90
        0
 40
-0.6
 41
-30.0
 62
     5
 63
     7
421
 16777215
 74
     1
 91
        4
 64
     7
 65
   257
 75
     1
175
     1
 42
1.0
 92
        8
 66
     7
 43
1.0
 76
     1
 77
     6
 78
     2
 67
     7
 79
     5
170
     0
171
     0
290
     0
174
     0
 93
        1
 44
-50.0
173
     0
291
     1
 45
0.0
  0
VISUALSTYLE
  5
39
102
{ACAD_REACTORS
330
2A
102
}
102
{ACAD_XDICTIONARY
360
CD
102
}
330
2A
100
AcDbVisualStyle
  2
Facepattern
 70
    15
 71
     2
 72
     2
 73
     0
 90
        0
 40
-0.6
 41
-30.0
 62
     5
 63
     7
421
 16777215
 74
     1
 91
        4
 64
     7
 65
   257
 75
     1
175
     1
 42
1.0
 92
        8
 66
     7
 43
1.0
 76
     1
 77
     6
 78
     2
 67
     7
 79
     5
170
     0
171
     0
290
     0
174
     0
 93
        1
 44
0.0
173
     0
291
     1
 45
0.0
  0
VISUALSTYLE
  5
2B
102
{ACAD_REACTORS
330
2A
102
}
102
{ACAD_XDICTIONARY
360
B1
102
}
330
2A
100
AcDbVisualStyle
  2
Flat
 70
     0
 71
     2
 72
     1
 73
     1
 90
        2
 40
-0.6
 41
30.0
 62
     5
 63
     7
421
 16777215
 74
     0
 91
        4
 64
     7
 65
   257
 75
     1
175
     1
 42
1.0
 92
        8
 66
     7
 43
1.0
 76
     1
 77
     6
 78
     2
 67
     7
 79
     5
170
     0
171
     0
290
     0
174
     0
 93
       13
 44
0.0
173
     0
291
     1
 45
0.0
  0
VISUALSTYLE
  5
2C
102
{ACAD_REACTORS
330
2A
102
}
102
{ACAD_XDICTIONARY
360
B3
102
}
330
2A
100
AcDbVisualStyle
  2
FlatWithEdges
 70
     1
 71
     2
 72
     1
 73
     1
 90
        2
 40
-0.6
 41
30.0
 62
     5
 63
     7
421
 16777215
 74
     1
 91
        4
 64
     7
 65
   257
 75
     1
175
     1
 42
1.0
 92
        0
 66
   257
 43
1.0
 76
     1
 77
     6
 78
     2
 67
     7
 79
     5
170
     0
171
     0
290
     0
174
     0
 93
       13
 44
0.0
173
     0
291
     1
 45
0.0
  0
VISUALSTYLE
  5
2D
102
{ACAD_REACTORS
330
2A
102
}
102
{ACAD_XDICTIONARY
360
B5
102
}
330
2A
100
AcDbVisualStyle
  2
Gouraud
 70
     2
 71
     2
 72
     2
 73
     1
 90
        2
 40
-0.6
 41
30.0
 62
     5
 63
     7
421
 16777215
 74
     0
 91
        4
 64
     7
 65
   257
 75
     1
175
     1
 42
1.0
 92
        0
 66
     7
 43
1.0
 76
     1
 77
     6
 78
     2
 67
     7
 79
     5
170
     0
171
     0
290
     0
174
     0
 93
       13
 44
0.0
173
     0
291
     1
 45
0.0
  0
VISUALSTYLE
  5
2E
102
{ACAD_REACTORS
330
2A
102
}
102
{ACAD_XDICTIONARY
360
B7
102
}
330
2A
100
AcDbVisualStyle
  2
GouraudWithEdges
 70
     3
 71
     2
 72
     2
 73
     1
 90
        2
 40
-0.6
 41
30.0
 62
     5
 63
     7
421
 16777215
 74
     1
 91
        4
 64
     7
 65
   257
 75
     1
175
     1
 42
1.0
 92
        0
 66
   257
 43
1.0
 76
     1
 77
     6
 78
     2
 67
     7
 79
     5
170
     0
171
     0
290
     0
174
     0
 93
       13
 44
0.0
173
     0
291
     1
 45
0.0
  0
VISUALSTYLE
  5
38
102
{ACAD_REACTORS
330
2A
102
}
102
{ACAD_XDICTIONARY
360
CB
102
}
330
2A
100
AcDbVisualStyle
  2
Linepattern
 70
    14
 71
     2
 72
     2
 73
     0
 90
        0
 40
-0.6
 41
-30.0
 62
     5
 63
     7
421
 16777215
 74
     1
 91
        4
 64
     7
 65
   257
 75
     7
175
     7
 42
1.0
 92
        8
 66
     7
 43
1.0
 76
     1
 77
     6
 78
     2
 67
     7
 79
     5
170
     0
171
     0
290
     0
174
     0
 93
        1
 44
0.0
173
     0
291
     1
 45
0.0
  0
VISUALSTYLE
  5
33
102
{ACAD_REACTORS
330
2A
102
}
102
{ACAD_XDICTIONARY
360
C1
102
}
330
2A
100
AcDbVisualStyle
  2
Realistic
 70
     8
 71
     2
 72
     2
 73
     0
 90
        0
 40
-0.6
 41
-30.0
 62
     5
 63
     7
421
 16777215
 74
     1
 91
        0
 64
     7
 65
   257
 75
     1
175
     1
 42
1.0
 92
        8
 66
     8
424
  7895160
 43
1.0
 76
     1
 77
     6
 78
     2
 67
     7
 79
     5
170
     0
171
     0
290
     0
174
     0
 93
       13
 44
0.0
173
     0
291
     0
 45
0.0
  0
VISUALSTYLE
  5
37
102
{ACAD_REACTORS
330
2A
102
}
102
{ACAD_XDICTIONARY
360
C9
102
}
330
2A
100
AcDbVisualStyle
  2
Thicken
 70
    13
 71
     2
 72
     2
 73
     0
 90
        0
 40
-0.6
 41
-30.0
 62
     5
 63
     7
421
 16777215
 74
     1
 91
        4
 64
     7
 65
   257
 75
     1
175
     1
 42
1.0
 92
       12
 66
     7
 43
1.0
 76
     1
 77
     6
 78
     2
 67
     7
 79
     5
170
     0
171
     0
290
     0
174
     0
 93
        1
 44
0.0
173
     0
291
     1
 45
0.0
  0
DICTIONARY
  5
B9
330
2F
100
AcDbDictionary
280
     1
281
     1
  3
ACAD_XREC_ROUNDTRIP
360
BA
  0
DICTIONARY
  5
BD
330
31
100
AcDbDictionary
280
     1
281
     1
  3
ACAD_XREC_ROUNDTRIP
360
BE
  0
DICTIONARY
  5
BB
330
30
100
AcDbDictionary
280
     1
281
     1
  3
ACAD_XREC_ROUNDTRIP
360
BC
  0
DICTIONARY
  5
BF
330
32
100
AcDbDictionary
280
     1
281
     1
  3
ACAD_XREC_ROUNDTRIP
360
C0
  0
DICTIONARY
  5
C7
330
36
100
AcDbDictionary
280
     1
281
     1
  3
ACAD_XREC_ROUNDTRIP
360
C8
  0
DICTIONARY
  5
CF
330
3A
100
AcDbDictionary
280
     1
281
     1
  3
ACAD_XREC_ROUNDTRIP
360
D0
  0
DICTIONARY
  5
C3
330
34
100
AcDbDictionary
280
     1
281
     1
  3
ACAD_XREC_ROUNDTRIP
360
C4
  0
DICTIONARY
  5
C5
330
35
100
AcDbDictionary
280
     1
281
     1
  3
ACAD_XREC_ROUNDTRIP
360
C6
  0
DICTIONARY
  5
CD
330
39
100
AcDbDictionary
280
     1
281
     1
  3
ACAD_XREC_ROUNDTRIP
360
CE
  0
DICTIONARY
  5
B1
330
2B
100
AcDbDictionary
280
     1
281
     1
  3
ACAD_XREC_ROUNDTRIP
360
B2
  0
DICTIONARY
  5
B3
330
2C
100
AcDbDictionary
280
     1
281
     1
  3
ACAD_XREC_ROUNDTRIP
360
B4
  0
DICTIONARY
  5
B5
330
2D
100
AcDbDictionary
280
     1
281
     1
  3
ACAD_XREC_ROUNDTRIP
360
B6
  0
DICTIONARY
  5
B7
330
2E
100
AcDbDictionary
280
     1
281
     1
  3
ACAD_XREC_ROUNDTRIP
360
B8
  0
DICTIONARY
  5
CB
330
38
100
AcDbDictionary
280
     1
281
     1
  3
ACAD_XREC_ROUNDTRIP
360
CC
  0
DICTIONARY
  5
C1
330
33
100
AcDbDictionary
280
     1
281
     1
  3
ACAD_XREC_ROUNDTRIP
360
C2
  0
DICTIONARY
  5
C9
330
37
100
AcDbDictionary
280
     1
281
     1
  3
ACAD_XREC_ROUNDTRIP
360
CA
  0
XRECORD
  5
BA
102
{ACAD_REACTORS
330
B9
102
}
330
B9
100
AcDbXrecord
280
     1
102
RTVSPropertyOp0
 70
     1
102
RTVSPropertyOp1
 70
     1
102
RTVSPropertyOp2
 70
     1
102
RTVSPropertyOp3
 70
     1
102
RTVSPropertyOp4
 70
     1
102
RTVSPropertyOp5
 70
     1
102
RTVSPropertyOp6
 70
     1
102
RTVSPropertyOp7
 70
     1
102
RTVSPropertyOp8
 70
     1
102
RTVSPropertyOp9
 70
     1
102
RTVSPropertyOp10
 70
     1
102
RTVSPropertyOp11
 70
     1
102
RTVSPropertyOp12
 70
     1
102
RTVSPropertyOp13
 70
     1
102
RTVSPropertyOp14
 70
     1
102
RTVSPropertyOp15
 70
     1
102
RTVSPropertyOp16
 70
     1
102
RTVSPropertyOp17
 70
     1
102
RTVSPropertyOp18
 70
     1
102
RTVSPropertyOp19
 70
     1
102
RTVSPropertyOp20
 70
     1
102
RTVSPropertyOp21
 70
     1
102
RTVSPropertyOp22
 70
     1
102
RTVSPropertyOp23
 70
     1
102
RTVSPropertyOp24
 70
     1
102
RTVSPropertyOp25
 70
     1
102
RTVSPropertyOp26
 70
     1
102
RTVSPropertyOp27
 70
     1
102
RTVSPropertyOp28
 70
     1
102
RTVSPropertyOp29
 70
     1
102
RTVSPropertyOp30
 70
     1
102
RTVSPropertyOp31
 70
     1
102
RTVSPropertyOp32
 70
     1
  0
XRECORD
  5
BE
102
{ACAD_REACTORS
330
BD
102
}
330
BD
100
AcDbXrecord
280
     1
102
RTVSPropertyOp0
 70
     1
102
RTVSPropertyOp1
 70
     1
102
RTVSPropertyOp2
 70
     1
102
RTVSPropertyOp3
 70
     1
102
RTVSPropertyOp4
 70
     1
102
RTVSPropertyOp5
 70
     1
102
RTVSPropertyOp6
 70
     1
102
RTVSPropertyOp7
 70
     1
102
RTVSPropertyOp8
 70
     1
102
RTVSPropertyOp9
 70
     1
102
RTVSPropertyOp10
 70
     1
102
RTVSPropertyOp11
 70
     1
102
RTVSPropertyOp12
 70
     1
102
RTVSPropertyOp13
 70
     1
102
RTVSPropertyOp14
 70
     1
102
RTVSPropertyOp15
 70
     1
102
RTVSPropertyOp16
 70
     1
102
RTVSPropertyOp17
 70
     1
102
RTVSPropertyOp18
 70
     1
102
RTVSPropertyOp19
 70
     1
102
RTVSPropertyOp20
 70
     1
102
RTVSPropertyOp21
 70
     1
102
RTVSPropertyOp22
 70
     1
102
RTVSPropertyOp23
 70
     1
102
RTVSPropertyOp24
 70
     1
102
RTVSPropertyOp25
 70
     1
102
RTVSPropertyOp26
 70
     1
102
RTVSPropertyOp27
 70
     1
102
RTVSPropertyOp28
 70
     1
102
RTVSPropertyOp29
 70
     1
102
RTVSPropertyOp30
 70
     1
102
RTVSPropertyOp31
 70
     1
102
RTVSPropertyOp32
 70
     1
  0
XRECORD
  5
BC
102
{ACAD_REACTORS
330
BB
102
}
330
BB
100
AcDbXrecord
280
     1
102
RTVSPropertyOp0
 70
     1
102
RTVSPropertyOp1
 70
     1
102
RTVSPropertyOp2
 70
     1
102
RTVSPropertyOp3
 70
     1
102
RTVSPropertyOp4
 70
     1
102
RTVSPropertyOp5
 70
     1
102
RTVSPropertyOp6
 70
     1
102
RTVSPropertyOp7
 70
     1
102
RTVSPropertyOp8
 70
     1
102
RTVSPropertyOp9
 70
     1
102
RTVSPropertyOp10
 70
     1
102
RTVSPropertyOp11
 70
     1
102
RTVSPropertyOp12
 70
     1
102
RTVSPropertyOp13
 70
     1
102
RTVSPropertyOp14
 70
     1
102
RTVSPropertyOp15
 70
     1
102
RTVSPropertyOp16
 70
     1
102
RTVSPropertyOp17
 70
     1
102
RTVSPropertyOp18
 70
     1
102
RTVSPropertyOp19
 70
     1
102
RTVSPropertyOp20
 70
     1
102
RTVSPropertyOp21
 70
     1
102
RTVSPropertyOp22
 70
     1
102
RTVSPropertyOp23
 70
     1
102
RTVSPropertyOp24
 70
     1
102
RTVSPropertyOp25
 70
     1
102
RTVSPropertyOp26
 70
     1
102
RTVSPropertyOp27
 70
     1
102
RTVSPropertyOp28
 70
     1
102
RTVSPropertyOp29
 70
     1
102
RTVSPropertyOp30
 70
     1
102
RTVSPropertyOp31
 70
     1
102
RTVSPropertyOp32
 70
     1
  0
XRECORD
  5
C0
102
{ACAD_REACTORS
330
BF
102
}
330
BF
100
AcDbXrecord
280
     1
102
RTVSPropertyOp0
 70
     1
102
RTVSPropertyOp1
 70
     1
102
RTVSPropertyOp2
 70
     1
102
RTVSPropertyOp3
 70
     1
102
RTVSPropertyOp4
 70
     1
102
RTVSPropertyOp5
 70
     1
102
RTVSPropertyOp6
 70
     1
102
RTVSPropertyOp7
 70
     1
102
RTVSPropertyOp8
 70
     1
102
RTVSPropertyOp9
 70
     1
102
RTVSPropertyOp10
 70
     1
102
RTVSPropertyOp11
 70
     1
102
RTVSPropertyOp12
 70
     1
102
RTVSPropertyOp13
 70
     1
102
RTVSPropertyOp14
 70
     1
102
RTVSPropertyOp15
 70
     1
102
RTVSPropertyOp16
 70
     1
102
RTVSPropertyOp17
 70
     1
102
RTVSPropertyOp18
 70
     1
102
RTVSPropertyOp19
 70
     1
102
RTVSPropertyOp20
 70
     1
102
RTVSPropertyOp21
 70
     1
102
RTVSPropertyOp22
 70
     1
102
RTVSPropertyOp23
 70
     1
102
RTVSPropertyOp24
 70
     1
102
RTVSPropertyOp25
 70
     1
102
RTVSPropertyOp26
 70
     1
102
RTVSPropertyOp27
 70
     1
102
RTVSPropertyOp28
 70
     1
102
RTVSPropertyOp29
 70
     1
102
RTVSPropertyOp30
 70
     1
102
RTVSPropertyOp31
 70
     1
102
RTVSPropertyOp32
 70
     1
  0
XRECORD
  5
C8
102
{ACAD_REACTORS
330
C7
102
}
330
C7
100
AcDbXrecord
280
     1
102
RTVSPropertyOp0
 70
     1
102
RTVSPropertyOp1
 70
     1
102
RTVSPropertyOp2
 70
     1
102
RTVSPropertyOp3
 70
     1
102
RTVSPropertyOp4
 70
     1
102
RTVSPropertyOp5
 70
     1
102
RTVSPropertyOp6
 70
     1
102
RTVSPropertyOp7
 70
     1
102
RTVSPropertyOp8
 70
     1
102
RTVSPropertyOp9
 70
     1
102
RTVSPropertyOp10
 70
     1
102
RTVSPropertyOp11
 70
     1
102
RTVSPropertyOp12
 70
     1
102
RTVSPropertyOp13
 70
     1
102
RTVSPropertyOp14
 70
     1
102
RTVSPropertyOp15
 70
     1
102
RTVSPropertyOp16
 70
     1
102
RTVSPropertyOp17
 70
     1
102
RTVSPropertyOp18
 70
     1
102
RTVSPropertyOp19
 70
     1
102
RTVSPropertyOp20
 70
     1
102
RTVSPropertyOp21
 70
     1
102
RTVSPropertyOp22
 70
     1
102
RTVSPropertyOp23
 70
     1
102
RTVSPropertyOp24
 70
     1
102
RTVSPropertyOp25
 70
     1
102
RTVSPropertyOp26
 70
     1
102
RTVSPropertyOp27
 70
     1
102
RTVSPropertyOp28
 70
     1
102
RTVSPropertyOp29
 70
     1
102
RTVSPropertyOp30
 70
     1
102
RTVSPropertyOp31
 70
     1
102
RTVSPropertyOp32
 70
     1
  0
XRECORD
  5
D0
102
{ACAD_REACTORS
330
CF
102
}
330
CF
100
AcDbXrecord
280
     1
102
RTVSPropertyOp0
 70
     1
102
RTVSPropertyOp1
 70
     1
102
RTVSPropertyOp2
 70
     1
102
RTVSPropertyOp3
 70
     1
102
RTVSPropertyOp4
 70
     1
102
RTVSPropertyOp5
 70
     1
102
RTVSPropertyOp6
 70
     1
102
RTVSPropertyOp7
 70
     1
102
RTVSPropertyOp8
 70
     1
102
RTVSPropertyOp9
 70
     1
102
RTVSPropertyOp10
 70
     1
102
RTVSPropertyOp11
 70
     1
102
RTVSPropertyOp12
 70
     1
102
RTVSPropertyOp13
 70
     1
102
RTVSPropertyOp14
 70
     1
102
RTVSPropertyOp15
 70
     1
102
RTVSPropertyOp16
 70
     1
102
RTVSPropertyOp17
 70
     1
102
RTVSPropertyOp18
 70
     1
102
RTVSPropertyOp19
 70
     1
102
RTVSPropertyOp20
 70
     1
102
RTVSPropertyOp21
 70
     1
102
RTVSPropertyOp22
 70
     1
102
RTVSPropertyOp23
 70
     1
102
RTVSPropertyOp24
 70
     1
102
RTVSPropertyOp25
 70
     1
102
RTVSPropertyOp26
 70
     1
102
RTVSPropertyOp27
 70
     1
102
RTVSPropertyOp28
 70
     1
102
RTVSPropertyOp29
 70
     1
102
RTVSPropertyOp30
 70
     1
102
RTVSPropertyOp31
 70
     1
102
RTVSPropertyOp32
 70
     1
  0
XRECORD
  5
C4
102
{ACAD_REACTORS
330
C3
102
}
330
C3
100
AcDbXrecord
280
     1
102
RTVSPropertyOp0
 70
     1
102
RTVSPropertyOp1
 70
     1
102
RTVSPropertyOp2
 70
     1
102
RTVSPropertyOp3
 70
     1
102
RTVSPropertyOp4
 70
     1
102
RTVSPropertyOp5
 70
     1
102
RTVSPropertyOp6
 70
     1
102
RTVSPropertyOp7
 70
     1
102
RTVSPropertyOp8
 70
     1
102
RTVSPropertyOp9
 70
     1
102
RTVSPropertyOp10
 70
     1
102
RTVSPropertyOp11
 70
     1
102
RTVSPropertyOp12
 70
     1
102
RTVSPropertyOp13
 70
     1
102
RTVSPropertyOp14
 70
     1
102
RTVSPropertyOp15
 70
     1
102
RTVSPropertyOp16
 70
     1
102
RTVSPropertyOp17
 70
     1
102
RTVSPropertyOp18
 70
     1
102
RTVSPropertyOp19
 70
     1
102
RTVSPropertyOp20
 70
     1
102
RTVSPropertyOp21
 70
     1
102
RTVSPropertyOp22
 70
     1
102
RTVSPropertyOp23
 70
     1
102
RTVSPropertyOp24
 70
     1
102
RTVSPropertyOp25
 70
     1
102
RTVSPropertyOp26
 70
     1
102
RTVSPropertyOp27
 70
     1
102
RTVSPropertyOp28
 70
     1
102
RTVSPropertyOp29
 70
     1
102
RTVSPropertyOp30
 70
     1
102
RTVSPropertyOp31
 70
     1
102
RTVSPropertyOp32
 70
     1
  0
XRECORD
  5
C6
102
{ACAD_REACTORS
330
C5
102
}
330
C5
100
AcDbXrecord
280
     1
102
RTVSPropertyOp0
 70
     1
102
RTVSPropertyOp1
 70
     1
102
RTVSPropertyOp2
 70
     1
102
RTVSPropertyOp3
 70
     1
102
RTVSPropertyOp4
 70
     1
102
RTVSPropertyOp5
 70
     1
102
RTVSPropertyOp6
 70
     1
102
RTVSPropertyOp7
 70
     1
102
RTVSPropertyOp8
 70
     1
102
RTVSPropertyOp9
 70
     1
102
RTVSPropertyOp10
 70
     1
102
RTVSPropertyOp11
 70
     1
102
RTVSPropertyOp12
 70
     1
102
RTVSPropertyOp13
 70
     1
102
RTVSPropertyOp14
 70
     1
102
RTVSPropertyOp15
 70
     1
102
RTVSPropertyOp16
 70
     1
102
RTVSPropertyOp17
 70
     1
102
RTVSPropertyOp18
 70
     1
102
RTVSPropertyOp19
 70
     1
102
RTVSPropertyOp20
 70
     1
102
RTVSPropertyOp21
 70
     1
102
RTVSPropertyOp22
 70
     1
102
RTVSPropertyOp23
 70
     1
102
RTVSPropertyOp24
 70
     1
102
RTVSPropertyOp25
 70
     1
102
RTVSPropertyOp26
 70
     1
102
RTVSPropertyOp27
 70
     1
102
RTVSPropertyOp28
 70
     1
102
RTVSPropertyOp29
 70
     1
102
RTVSPropertyOp30
 70
     1
102
RTVSPropertyOp31
 70
     1
102
RTVSPropertyOp32
 70
     1
  0
XRECORD
  5
CE
102
{ACAD_REACTORS
330
CD
102
}
330
CD
100
AcDbXrecord
280
     1
102
RTVSPropertyOp0
 70
     1
102
RTVSPropertyOp1
 70
     1
102
RTVSPropertyOp2
 70
     1
102
RTVSPropertyOp3
 70
     1
102
RTVSPropertyOp4
 70
     1
102
RTVSPropertyOp5
 70
     1
102
RTVSPropertyOp6
 70
     1
102
RTVSPropertyOp7
 70
     1
102
RTVSPropertyOp8
 70
     1
102
RTVSPropertyOp9
 70
     1
102
RTVSPropertyOp10
 70
     1
102
RTVSPropertyOp11
 70
     1
102
RTVSPropertyOp12
 70
     1
102
RTVSPropertyOp13
 70
     1
102
RTVSPropertyOp14
 70
     1
102
RTVSPropertyOp15
 70
     1
102
RTVSPropertyOp16
 70
     1
102
RTVSPropertyOp17
 70
     1
102
RTVSPropertyOp18
 70
     1
102
RTVSPropertyOp19
 70
     1
102
RTVSPropertyOp20
 70
     1
102
RTVSPropertyOp21
 70
     1
102
RTVSPropertyOp22
 70
     1
102
RTVSPropertyOp23
 70
     1
102
RTVSPropertyOp24
 70
     1
102
RTVSPropertyOp25
 70
     1
102
RTVSPropertyOp26
 70
     1
102
RTVSPropertyOp27
 70
     1
102
RTVSPropertyOp28
 70
     1
102
RTVSPropertyOp29
 70
     1
102
RTVSPropertyOp30
 70
     1
102
RTVSPropertyOp31
 70
     1
102
RTVSPropertyOp32
 70
     1
  0
XRECORD
  5
B2
102
{ACAD_REACTORS
330
B1
102
}
330
B1
100
AcDbXrecord
280
     1
102
RTVSPropertyOp0
 70
     1
102
RTVSPropertyOp1
 70
     1
102
RTVSPropertyOp2
 70
     1
102
RTVSPropertyOp3
 70
     1
102
RTVSPropertyOp4
 70
     1
102
RTVSPropertyOp5
 70
     1
102
RTVSPropertyOp6
 70
     1
102
RTVSPropertyOp7
 70
     1
102
RTVSPropertyOp8
 70
     1
102
RTVSPropertyOp9
 70
     1
102
RTVSPropertyOp10
 70
     1
102
RTVSPropertyOp11
 70
     1
102
RTVSPropertyOp12
 70
     1
102
RTVSPropertyOp13
 70
     1
102
RTVSPropertyOp14
 70
     1
102
RTVSPropertyOp15
 70
     1
102
RTVSPropertyOp16
 70
     1
102
RTVSPropertyOp17
 70
     1
102
RTVSPropertyOp18
 70
     1
102
RTVSPropertyOp19
 70
     1
102
RTVSPropertyOp20
 70
     1
102
RTVSPropertyOp21
 70
     1
102
RTVSPropertyOp22
 70
     1
102
RTVSPropertyOp23
 70
     1
102
RTVSPropertyOp24
 70
     1
102
RTVSPropertyOp25
 70
     1
102
RTVSPropertyOp26
 70
     1
102
RTVSPropertyOp27
 70
     1
102
RTVSPropertyOp28
 70
     1
102
RTVSPropertyOp29
 70
     1
102
RTVSPropertyOp30
 70
     1
102
RTVSPropertyOp31
 70
     1
102
RTVSPropertyOp32
 70
     1
  0
XRECORD
  5
B4
102
{ACAD_REACTORS
330
B3
102
}
330
B3
100
AcDbXrecord
280
     1
102
RTVSPropertyOp0
 70
     1
102
RTVSPropertyOp1
 70
     1
102
RTVSPropertyOp2
 70
     1
102
RTVSPropertyOp3
 70
     1
102
RTVSPropertyOp4
 70
     1
102
RTVSPropertyOp5
 70
     1
102
RTVSPropertyOp6
 70
     1
102
RTVSPropertyOp7
 70
     1
102
RTVSPropertyOp8
 70
     1
102
RTVSPropertyOp9
 70
     1
102
RTVSPropertyOp10
 70
     1
102
RTVSPropertyOp11
 70
     1
102
RTVSPropertyOp12
 70
     1
102
RTVSPropertyOp13
 70
     1
102
RTVSPropertyOp14
 70
     1
102
RTVSPropertyOp15
 70
     1
102
RTVSPropertyOp16
 70
     1
102
RTVSPropertyOp17
 70
     1
102
RTVSPropertyOp18
 70
     1
102
RTVSPropertyOp19
 70
     1
102
RTVSPropertyOp20
 70
     1
102
RTVSPropertyOp21
 70
     1
102
RTVSPropertyOp22
 70
     1
102
RTVSPropertyOp23
 70
     1
102
RTVSPropertyOp24
 70
     1
102
RTVSPropertyOp25
 70
     1
102
RTVSPropertyOp26
 70
     1
102
RTVSPropertyOp27
 70
     1
102
RTVSPropertyOp28
 70
     1
102
RTVSPropertyOp29
 70
     1
102
RTVSPropertyOp30
 70
     1
102
RTVSPropertyOp31
 70
     1
102
RTVSPropertyOp32
 70
     1
  0
XRECORD
  5
B6
102
{ACAD_REACTORS
330
B5
102
}
330
B5
100
AcDbXrecord
280
     1
102
RTVSPropertyOp0
 70
     1
102
RTVSPropertyOp1
 70
     1
102
RTVSPropertyOp2
 70
     1
102
RTVSPropertyOp3
 70
     1
102
RTVSPropertyOp4
 70
     1
102
RTVSPropertyOp5
 70
     1
102
RTVSPropertyOp6
 70
     1
102
RTVSPropertyOp7
 70
     1
102
RTVSPropertyOp8
 70
     1
102
RTVSPropertyOp9
 70
     1
102
RTVSPropertyOp10
 70
     1
102
RTVSPropertyOp11
 70
     1
102
RTVSPropertyOp12
 70
     1
102
RTVSPropertyOp13
 70
     1
102
RTVSPropertyOp14
 70
     1
102
RTVSPropertyOp15
 70
     1
102
RTVSPropertyOp16
 70
     1
102
RTVSPropertyOp17
 70
     1
102
RTVSPropertyOp18
 70
     1
102
RTVSPropertyOp19
 70
     1
102
RTVSPropertyOp20
 70
     1
102
RTVSPropertyOp21
 70
     1
102
RTVSPropertyOp22
 70
     1
102
RTVSPropertyOp23
 70
     1
102
RTVSPropertyOp24
 70
     1
102
RTVSPropertyOp25
 70
     1
102
RTVSPropertyOp26
 70
     1
102
RTVSPropertyOp27
 70
     1
102
RTVSPropertyOp28
 70
     1
102
RTVSPropertyOp29
 70
     1
102
RTVSPropertyOp30
 70
     1
102
RTVSPropertyOp31
 70
     1
102
RTVSPropertyOp32
 70
     1
  0
XRECORD
  5
B8
102
{ACAD_REACTORS
330
B7
102
}
330
B7
100
AcDbXrecord
280
     1
102
RTVSPropertyOp0
 70
     1
102
RTVSPropertyOp1
 70
     1
102
RTVSPropertyOp2
 70
     1
102
RTVSPropertyOp3
 70
     1
102
RTVSPropertyOp4
 70
     1
102
RTVSPropertyOp5
 70
     1
102
RTVSPropertyOp6
 70
     1
102
RTVSPropertyOp7
 70
     1
102
RTVSPropertyOp8
 70
     1
102
RTVSPropertyOp9
 70
     1
102
RTVSPropertyOp10
 70
     1
102
RTVSPropertyOp11
 70
     1
102
RTVSPropertyOp12
 70
     1
102
RTVSPropertyOp13
 70
     1
102
RTVSPropertyOp14
 70
     1
102
RTVSPropertyOp15
 70
     1
102
RTVSPropertyOp16
 70
     1
102
RTVSPropertyOp17
 70
     1
102
RTVSPropertyOp18
 70
     1
102
RTVSPropertyOp19
 70
     1
102
RTVSPropertyOp20
 70
     1
102
RTVSPropertyOp21
 70
     1
102
RTVSPropertyOp22
 70
     1
102
RTVSPropertyOp23
 70
     1
102
RTVSPropertyOp24
 70
     1
102
RTVSPropertyOp25
 70
     1
102
RTVSPropertyOp26
 70
     1
102
RTVSPropertyOp27
 70
     1
102
RTVSPropertyOp28
 70
     1
102
RTVSPropertyOp29
 70
     1
102
RTVSPropertyOp30
 70
     1
102
RTVSPropertyOp31
 70
     1
102
RTVSPropertyOp32
 70
     1
  0
XRECORD
  5
CC
102
{ACAD_REACTORS
330
CB
102
}
330
CB
100
AcDbXrecord
280
     1
102
RTVSPropertyOp0
 70
     1
102
RTVSPropertyOp1
 70
     1
102
RTVSPropertyOp2
 70
     1
102
RTVSPropertyOp3
 70
     1
102
RTVSPropertyOp4
 70
     1
102
RTVSPropertyOp5
 70
     1
102
RTVSPropertyOp6
 70
     1
102
RTVSPropertyOp7
 70
     1
102
RTVSPropertyOp8
 70
     1
102
RTVSPropertyOp9
 70
     1
102
RTVSPropertyOp10
 70
     1
102
RTVSPropertyOp11
 70
     1
102
RTVSPropertyOp12
 70
     1
102
RTVSPropertyOp13
 70
     1
102
RTVSPropertyOp14
 70
     1
102
RTVSPropertyOp15
 70
     1
102
RTVSPropertyOp16
 70
     1
102
RTVSPropertyOp17
 70
     1
102
RTVSPropertyOp18
 70
     1
102
RTVSPropertyOp19
 70
     1
102
RTVSPropertyOp20
 70
     1
102
RTVSPropertyOp21
 70
     1
102
RTVSPropertyOp22
 70
     1
102
RTVSPropertyOp23
 70
     1
102
RTVSPropertyOp24
 70
     1
102
RTVSPropertyOp25
 70
     1
102
RTVSPropertyOp26
 70
     1
102
RTVSPropertyOp27
 70
     1
102
RTVSPropertyOp28
 70
     1
102
RTVSPropertyOp29
 70
     1
102
RTVSPropertyOp30
 70
     1
102
RTVSPropertyOp31
 70
     1
102
RTVSPropertyOp32
 70
     1
  0
XRECORD
  5
C2
102
{ACAD_REACTORS
330
C1
102
}
330
C1
100
AcDbXrecord
280
     1
102
RTVSPropertyOp0
 70
     1
102
RTVSPropertyOp1
 70
     1
102
RTVSPropertyOp2
 70
     1
102
RTVSPropertyOp3
 70
     1
102
RTVSPropertyOp4
 70
     1
102
RTVSPropertyOp5
 70
     1
102
RTVSPropertyOp6
 70
     1
102
RTVSPropertyOp7
 70
     1
102
RTVSPropertyOp8
 70
     1
102
RTVSPropertyOp9
 70
     1
102
RTVSPropertyOp10
 70
     1
102
RTVSPropertyOp11
 70
     1
102
RTVSPropertyOp12
 70
     1
102
RTVSPropertyOp13
 70
     1
102
RTVSPropertyOp14
 70
     1
102
RTVSPropertyOp15
 70
     1
102
RTVSPropertyOp16
 70
     1
102
RTVSPropertyOp17
 70
     1
102
RTVSPropertyOp18
 70
     1
102
RTVSPropertyOp19
 70
     1
102
RTVSPropertyOp20
 70
     1
102
RTVSPropertyOp21
 70
     1
102
RTVSPropertyOp22
 70
     1
102
RTVSPropertyOp23
 70
     1
102
RTVSPropertyOp24
 70
     1
102
RTVSPropertyOp25
 70
     1
102
RTVSPropertyOp26
 70
     1
102
RTVSPropertyOp27
 70
     1
102
RTVSPropertyOp28
 70
     1
102
RTVSPropertyOp29
 70
     1
102
RTVSPropertyOp30
 70
     1
102
RTVSPropertyOp31
 70
     1
102
RTVSPropertyOp32
 70
     1
  0
XRECORD
  5
CA
102
{ACAD_REACTORS
330
C9
102
}
330
C9
100
AcDbXrecord
280
     1
102
RTVSPropertyOp0
 70
     1
102
RTVSPropertyOp1
 70
     1
102
RTVSPropertyOp2
 70
     1
102
RTVSPropertyOp3
 70
     1
102
RTVSPropertyOp4
 70
     1
102
RTVSPropertyOp5
 70
     1
102
RTVSPropertyOp6
 70
     1
102
RTVSPropertyOp7
 70
     1
102
RTVSPropertyOp8
 70
     1
102
RTVSPropertyOp9
 70
     1
102
RTVSPropertyOp10
 70
     1
102
RTVSPropertyOp11
 70
     1
102
RTVSPropertyOp12
 70
     1
102
RTVSPropertyOp13
 70
     1
102
RTVSPropertyOp14
 70
     1
102
RTVSPropertyOp15
 70
     1
102
RTVSPropertyOp16
 70
     1
102
RTVSPropertyOp17
 70
     1
102
RTVSPropertyOp18
 70
     1
102
RTVSPropertyOp19
 70
     1
102
RTVSPropertyOp20
 70
     1
102
RTVSPropertyOp21
 70
     1
102
RTVSPropertyOp22
 70
     1
102
RTVSPropertyOp23
 70
     1
102
RTVSPropertyOp24
 70
     1
102
RTVSPropertyOp25
 70
     1
102
RTVSPropertyOp26
 70
     1
102
RTVSPropertyOp27
 70
     1
102
RTVSPropertyOp28
 70
     1
102
RTVSPropertyOp29
 70
     1
102
RTVSPropertyOp30
 70
     1
102
RTVSPropertyOp31
 70
     1
102
RTVSPropertyOp32
 70
     1
  0
ENDSEC
  0
EOF
