  0
SECTION
  2
HEADER
  9
$ACADVER
  1
AC1021
  9
$ACADMAINTVER
 70
    25
  9
$DWGCODEPAGE
  3
ANSI_1252
  9
$INSBASE
 10
0.0
 20
0.0
 30
0.0
  9
$EXTMIN
 10
-8.97646
 20
-5.97646
 30
0.0
  9
$EXTMAX
 10
8.97646
 20
5.97646
 30
0.0
  9
$LIMMIN
 10
0.0
 20
0.0
  9
$LIMMAX
 10
12.0
 20
9.0
  9
$ORTHOMODE
 70
     0
  9
$REGENMODE
 70
     1
  9
$FILLMODE
 70
     1
  9
$QTEXTMODE
 70
     0
  9
$MIRRTEXT
 70
     1
  9
$LTSCALE
 40
1.0
  9
$ATTMODE
 70
     1
  9
$TEXTSIZE
 40
0.2
  9
$TRACEWID
 40
0.05
  9
$TEXTSTYLE
  7
Standard
  9
$CLAYER
  8
0
  9
$CELTYPE
  6
ByLayer
  9
$CECOLOR
 62
   256
  9
$CELTSCALE
 40
1.0
  9
$DISPSILH
 70
     0
  9
$DIMSCALE
 40
1.0
  9
$DIMASZ
 40
0.18
  9
$DIMEXO
 40
0.0625
  9
$DIMDLI
 40
0.38
  9
$DIMRND
 40
0.0
  9
$DIMDLE
 40
0.0
  9
$DIMEXE
 40
0.18
  9
$DIMTP
 40
0.0
  9
$DIMTM
 40
0.0
  9
$DIMTXT
 40
0.18
  9
$DIMCEN
 40
0.09
  9
$DIMTSZ
 40
0.0
  9
$DIMTOL
 70
     0
  9
$DIMLIM
 70
     0
  9
$DIMTIH
 70
     1
  9
$DIMTOH
 70
     1
  9
$DIMSE1
 70
     0
  9
$DIMSE2
 70
     0
  9
$DIMTAD
 70
     0
  9
$DIMZIN
 70
     0
  9
$DIMBLK
  1

  9
$DIMASO
 70
     1
  9
$DIMSHO
 70
     1
  9
$DIMPOST
  1

  9
$DIMAPOST
  1

  9
$DIMALT
 70
     0
  9
$DIMALTD
 70
     2
  9
$DIMALTF
 40
25.4
  9
$DIMLFAC
 40
1.0
  9
$DIMTOFL
 70
     0
  9
$DIMTVP
 40
0.0
  9
$DIMTIX
 70
     0
  9
$DIMSOXD
 70
     0
  9
$DIMSAH
 70
     0
  9
$DIMBLK1
  1

  9
$DIMBLK2
  1

  9
$DIMSTYLE
  2
Standard
  9
$DIMCLRD
 70
     0
  9
$DIMCLRE
 70
     0
  9
$DIMCLRT
 70
     0
  9
$DIMTFAC
 40
1.0
  9
$DIMGAP
 40
0.09
  9
$DIMJUST
 70
     0
  9
$DIMSD1
 70
     0
  9
$DIMSD2
 70
     0
  9
$DIMTOLJ
 70
     1
  9
$DIMTZIN
 70
     0
  9
$DIMALTZ
 70
     0
  9
$DIMALTTZ
 70
     0
  9
$DIMUPT
 70
     0
  9
$DIMDEC
 70
     4
  9
$DIMTDEC
 70
     4
  9
$DIMALTU
 70
     2
  9
$DIMALTTD
 70
     2
  9
$DIMTXSTY
  7
Standard
  9
$DIMAUNIT
 70
     0
  9
$DIMADEC
 70
     0
  9
$DIMALTRND
 40
0.0
  9
$DIMAZIN
 70
     0
  9
$DIMDSEP
 70
    46
  9
$DIMATFIT
 70
     3
  9
$DIMFRAC
 70
     0
  9
$DIMLDRBLK
  1

  9
$DIMLUNIT
 70
     2
  9
$DIMLWD
 70
    -2
  9
$DIMLWE
 70
    -2
  9
$DIMTMOVE
 70
     0
  9
$DIMFXL
 40
1.0
  9
$DIMFXLON
 70
     0
  9
$DIMJOGANG
 40
0.7853981633974483
  9
$DIMTFILL
 70
     0
  9
$DIMTFILLCLR
 70
     0
  9
$DIMARCSYM
 70
     0
  9
$DIMLTYPE
  6

  9
$DIMLTEX1
  6

  9
$DIMLTEX2
  6

  9
$LUNITS
 70
     2
  9
$LUPREC
 70
     4
  9
$SKETCHINC
 40
0.1
  9
$FILLETRAD
 40
0.5
  9
$AUNITS
 70
     0
  9
$AUPREC
 70
     0
  9
$MENU
  1
.
  9
$ELEVATION
 40
0.0
  9
$PELEVATION
 40
0.0
  9
$THICKNESS
 40
0.0
  9
$LIMCHECK
 70
     0
  9
$CHAMFERA
 40
0.5
  9
$CHAMFERB
 40
0.5
  9
$CHAMFERC
 40
1.0
  9
$CHAMFERD
 40
0.0
  9
$SKPOLY
 70
     0
  9
$TDCREATE
 40
2460292.602976319
  9
$TDUCREATE
 40
2460292.602976319
  9
$TDUPDATE
 40
2460292.602976447
  9
$TDUUPDATE
 40
2460292.602976447
  9
$TDINDWG
 40
0.0000000116
  9
$TDUSRTIMER
 40
0.0000000116
  9
$USRTIMER
 70
     1
  9
$ANGBASE
 50
0.0
  9
$ANGDIR
 70
     0
  9
$PDMODE
 70
     0
  9
$PDSIZE
 40
0.0
  9
$PLINEWID
 40
0.0
  9
$SPLFRAME
 70
     0
  9
$SPLINETYPE
 70
     6
  9
$SPLINESEGS
 70
     8
  9
$HANDSEED
  5
CB
  9
$SURFTAB1
 70
     6
  9
$SURFTAB2
 70
     6
  9
$SURFTYPE
 70
     6
  9
$SURFU
 70
     6
  9
$SURFV
 70
     6
  9
$UCSBASE
  2

  9
$UCSNAME
  2

  9
$UCSORG
 10
0.0
 20
0.0
 30
0.0
  9
$UCSXDIR
 10
1.0
 20
0.0
 30
0.0
  9
$UCSYDIR
 10
0.0
 20
1.0
 30
0.0
  9
$UCSORTHOREF
  2

  9
$UCSORTHOVIEW
 70
     0
  9
$UCSORGTOP
 10
0.0
 20
0.0
 30
0.0
  9
$UCSORGBOTTOM
 10
0.0
 20
0.0
 30
0.0
  9
$UCSORGLEFT
 10
0.0
 20
0.0
 30
0.0
  9
$UCSORGRIGHT
 10
0.0
 20
0.0
 30
0.0
  9
$UCSORGFRONT
 10
0.0
 20
0.0
 30
0.0
  9
$UCSORGBACK
 10
0.0
 20
0.0
 30
0.0
  9
$PUCSBASE
  2

  9
$PUCSNAME
  2

  9
$PUCSORG
 10
0.0
 20
0.0
 30
0.0
  9
$PUCSXDIR
 10
1.0
 20
0.0
 30
0.0
  9
$PUCSYDIR
 10
0.0
 20
1.0
 30
0.0
  9
$PUCSORTHOREF
  2

  9
$PUCSORTHOVIEW
 70
     0
  9
$PUCSORGTOP
 10
0.0
 20
0.0
 30
0.0
  9
$PUCSORGBOTTOM
 10
0.0
 20
0.0
 30
0.0
  9
$PUCSORGLEFT
 10
0.0
 20
0.0
 30
0.0
  9
$PUCSORGRIGHT
 10
0.0
 20
0.0
 30
0.0
  9
$PUCSORGFRONT
 10
0.0
 20
0.0
 30
0.0
  9
$PUCSORGBACK
 10
0.0
 20
0.0
 30
0.0
  9
$USERI1
 70
     0
  9
$USERI2
 70
     0
  9
$USERI3
 70
     0
  9
$USERI4
 70
     0
  9
$USERI5
 70
     0
  9
$USERR1
 40
0.0
  9
$USERR2
 40
0.0
  9
$USERR3
 40
0.0
  9
$USERR4
 40
0.0
  9
$USERR5
 40
0.0
  9
$WORLDVIEW
 70
     1
  9
$SHADEDGE
 70
     3
  9
$SHADEDIF
 70
    70
  9
$TILEMODE
 70
     1
  9
$MAXACTVP
 70
    64
  9
$PINSBASE
 10
0.0
 20
0.0
 30
0.0
  9
$PLIMCHECK
 70
     0
  9
$PEXTMIN
 10
1.000000000000000E+20
 20
1.000000000000000E+20
 30
1.000000000000000E+20
  9
$PEXTMAX
 10
-1.000000000000000E+20
 20
-1.000000000000000E+20
 30
-1.000000000000000E+20
  9
$PLIMMIN
 10
0.0
 20
0.0
  9
$PLIMMAX
 10
12.0
 20
9.0
  9
$UNITMODE
 70
     0
  9
$VISRETAIN
 70
     1
  9
$PLINEGEN
 70
     0
  9
$PSLTSCALE
 70
     1
  9
$TREEDEPTH
 70
  3020
  9
$CMLSTYLE
  2
Standard
  9
$CMLJUST
 70
     0
  9
$CMLSCALE
 40
1.0
  9
$PROXYGRAPHICS
 70
     1
  9
$MEASUREMENT
 70
     0
  9
$CELWEIGHT
370
    -1
  9
$ENDCAPS
280
     0
  9
$JOINSTYLE
280
     0
  9
$LWDISPLAY
290
     0
  9
$INSUNITS
 70
     5
  9
$HYPERLINKBASE
  1

  9
$STYLESHEET
  1

  9
$XEDIT
290
     1
  9
$CEPSNTYPE
380
     0
  9
$PSTYLEMODE
290
     1
  9
$FINGERPRINTGUID
  2
{071857D8-0603-4D83-9121-715E7801BC1C}
  9
$VERSIONGUID
  2
{FAEB1C32-E019-11D5-929B-00C0DF256EC4}
  9
$EXTNAMES
290
     1
  9
$PSVPSCALE
 40
0.0
  9
$OLESTARTUP
290
     0
  9
$SORTENTS
280
   127
  9
$INDEXCTL
280
     0
  9
$HIDETEXT
280
     1
  9
$XCLIPFRAME
290
     0
  9
$HALOGAP
280
     0
  9
$OBSCOLOR
 70
   257
  9
$OBSLTYPE
280
     0
  9
$INTERSECTIONDISPLAY
280
     0
  9
$INTERSECTIONCOLOR
 70
   257
  9
$DIMASSOC
280
     2
  9
$PROJECTNAME
  1

  9
$CAMERADISPLAY
290
     0
  9
$LENSLENGTH
 40
50.0
  9
$CAMERAHEIGHT
 40
0.0
  9
$STEPSPERSEC
 40
2.0
  9
$STEPSIZE
 40
6.0
  9
$3DDWFPREC
 40
2.0
  9
$PSOLWIDTH
 40
0.25
  9
$PSOLHEIGHT
 40
4.0
  9
$LOFTANG1
 40
1.570796326794897
  9
$LOFTANG2
 40
1.570796326794897
  9
$LOFTMAG1
 40
0.0
  9
$LOFTMAG2
 40
0.0
  9
$LOFTPARAM
 70
     7
  9
$LOFTNORMALS
280
     1
  9
$LATITUDE
 40
37.795
  9
$LONGITUDE
 40
-122.394
  9
$NORTHDIRECTION
 40
0.0
  9
$TIMEZONE
 70
 -8000
  9
$LIGHTGLYPHDISPLAY
280
     1
  9
$TILEMODELIGHTSYNCH
280
     1
  9
$SOLIDHIST
280
     1
  9
$SHOWHIST
280
     1
  9
$DWFFRAME
280
     2
  9
$DGNFRAME
280
     2
  9
$REALWORLDSCALE
290
     1
  9
$INTERFERECOLOR
 62
   256
  9
$CSHADOW
280
     0
  9
$SHADOWPLANELOCATION
 40
0.0
  0
ENDSEC
  0
SECTION
  2
CLASSES
  0
CLASS
  1
ACDBDICTIONARYWDFLT
  2
AcDbDictionaryWithDefault
  3
ObjectDBX Classes
 90
        0
 91
        4
280
     0
281
     0
  0
CLASS
  1
VISUALSTYLE
  2
AcDbVisualStyle
  3
ObjectDBX Classes
 90
     4095
 91
        4
280
     0
281
     0
  0
CLASS
  1
MATERIAL
  2
AcDbMaterial
  3
ObjectDBX Classes
 90
     1153
 91
        4
280
     0
281
     0
  0
ENDSEC
  0
SECTION
  2
TABLES
  0
TABLE
  2
VPORT
  5
8
330
0
100
AcDbSymbolTable
 70
     1
  0
VPORT
  5
29
330
8
100
AcDbSymbolTableRecord
100
AcDbViewportTableRecord
  2
*Active
 70
     0
 10
0.0
 20
0.0
 11
1.0
 21
1.0
 12
10.42990654205607
 22
4.5
 13
0.0
 23
0.0
 14
0.5
 24
0.5
 15
0.5
 25
0.5
 16
0.0
 26
0.0
 36
1.0
 17
0.0
 27
0.0
 37
0.0
 40
9.0
 41
1.972972972850329
 42
50.0
 43
0.0
 44
0.0
 50
0.0
 51
0.0
 71
     0
 72
   100
 73
     1
 74
     3
 75
     0
 76
     0
 77
     0
 78
     0
281
     0
 65
     1
110
0.0
120
0.0
130
0.0
111
1.0
121
0.0
131
0.0
112
0.0
122
1.0
132
0.0
 79
     0
146
0.0
 60
     3
 61
     5
292
     1
282
     1
141
0.0
142
0.0
 63
   250
  0
ENDTAB
  0
TABLE
  2
LTYPE
  5
5
330
0
100
AcDbSymbolTable
 70
     1
  0
LTYPE
  5
14
330
5
100
AcDbSymbolTableRecord
100
AcDbLinetypeTableRecord
  2
ByBlock
 70
     0
  3

 72
    65
 73
     0
 40
0.0
  0
LTYPE
  5
15
330
5
100
AcDbSymbolTableRecord
100
AcDbLinetypeTableRecord
  2
ByLayer
 70
     0
  3

 72
    65
 73
     0
 40
0.0
  0
LTYPE
  5
16
330
5
100
AcDbSymbolTableRecord
100
AcDbLinetypeTableRecord
  2
Continuous
 70
     0
  3
Solid line
 72
    65
 73
     0
 40
0.0
  0
ENDTAB
  0
TABLE
  2
LAYER
  5
2
330
0
100
AcDbSymbolTable
 70
     2
  0
LAYER
  5
10
330
2
100
AcDbSymbolTableRecord
100
AcDbLayerTableRecord
  2
0
 70
     0
 62
     7
  6
Continuous
370
    -3
390
F
347
3E
  0
LAYER
  5
40
330
2
100
AcDbSymbolTableRecord
100
AcDbLayerTableRecord
  2
Layer 1
 70
     0
 62
     7
  6
Continuous
370
    -3
390
F
347
3E
  0
ENDTAB
  0
TABLE
  2
STYLE
  5
3
330
0
100
AcDbSymbolTable
 70
     1
  0
STYLE
  5
11
330
3
100
AcDbSymbolTableRecord
100
AcDbTextStyleTableRecord
  2
Standard
 70
     0
 40
0.0
 41
1.0
 50
0.0
 71
     0
 42
0.2
  3
txt
  4

  0
ENDTAB
  0
TABLE
  2
VIEW
  5
6
330
0
100
AcDbSymbolTable
 70
     0
  0
ENDTAB
  0
TABLE
  2
UCS
  5
7
330
0
100
AcDbSymbolTable
 70
     0
  0
ENDTAB
  0
TABLE
  2
APPID
  5
9
330
0
100
AcDbSymbolTable
 70
     2
  0
APPID
  5
12
330
9
100
AcDbSymbolTableRecord
100
AcDbRegAppTableRecord
  2
ACAD
 70
     0
  0
APPID
  5
3F
330
9
100
AcDbSymbolTableRecord
100
AcDbRegAppTableRecord
  2
ODA
 70
     0
  0
ENDTAB
  0
TABLE
  2
DIMSTYLE
  5
A
330
0
100
AcDbSymbolTable
 70
     1
100
AcDbDimStyleTable
  0
DIMSTYLE
105
27
330
A
100
AcDbSymbolTableRecord
100
AcDbDimStyleTableRecord
  2
Standard
 70
     0
178
     0
340
11
  0
ENDTAB
  0
TABLE
  2
BLOCK_RECORD
  5
1
330
0
100
AcDbSymbolTable
 70
     1
  0
BLOCK_RECORD
  5
1F
330
1
100
AcDbSymbolTableRecord
100
AcDbBlockTableRecord
  2
*Model_Space
340
22
 70
     0
280
     1
281
     0
  0
BLOCK_RECORD
  5
1B
330
1
100
AcDbSymbolTableRecord
100
AcDbBlockTableRecord
  2
*Paper_Space
340
1E
 70
     0
280
     1
281
     0
  0
BLOCK_RECORD
  5
23
330
1
100
AcDbSymbolTableRecord
100
AcDbBlockTableRecord
  2
*Paper_Space0
340
26
 70
     0
280
     1
281
     0
  0
ENDTAB
  0
ENDSEC
  0
SECTION
  2
BLOCKS
  0
BLOCK
  5
20
330
1F
100
AcDbEntity
  8
0
100
AcDbBlockBegin
  2
*Model_Space
 70
     0
 10
0.0
 20
0.0
 30
0.0
  3
*Model_Space
  1

  0
ENDBLK
  5
21
330
1F
100
AcDbEntity
  8
0
100
AcDbBlockEnd
  0
BLOCK
  5
1C
330
1B
100
AcDbEntity
 67
     1
  8
0
100
AcDbBlockBegin
  2
*Paper_Space
 70
     0
 10
0.0
 20
0.0
 30
0.0
  3
*Paper_Space
  1

  0
ENDBLK
  5
1D
330
1B
100
AcDbEntity
 67
     1
  8
0
100
AcDbBlockEnd
  0
BLOCK
  5
24
330
23
100
AcDbEntity
  8
0
100
AcDbBlockBegin
  2
*Paper_Space0
 70
     0
 10
0.0
 20
0.0
 30
0.0
  3
*Paper_Space0
  1

  0
ENDBLK
  5
25
330
23
100
AcDbEntity
  8
0
100
AcDbBlockEnd
  0
ENDSEC
  0
SECTION
  2
ENTITIES
  0
SPLINE
  5
41
330
1F
100
AcDbEntity
  8
Layer 1
370
    53
100
AcDbSpline
210
0.0
220
0.0
230
1.0
 70
    11
 71
     3
 72
    36
 73
    32
 74
     0
 42
0.0000000001
 43
0.0000000001
 12
1.0
 22
0.0
 32
0.0
 13
1.0
 23
0.0
 33
0.0
 40
0.0
 40
0.0
 40
0.0
 40
0.0
 40
0.1111111111111111
 40
0.1111111111111111
 40
0.1111111111111111
 40
0.1111111111111111
 40
0.2222222222222222
 40
0.2222222222222222
 40
0.2222222222222222
 40
0.2222222222222222
 40
0.3333333333333333
 40
0.3333333333333333
 40
0.3333333333333333
 40
0.3333333333333333
 40
0.4444444444444444
 40
0.4444444444444444
 40
0.4444444444444444
 40
0.4444444444444444
 40
0.5555555555555556
 40
0.5555555555555556
 40
0.5555555555555556
 40
0.5555555555555556
 40
0.6666666666666666
 40
0.6666666666666666
 40
0.6666666666666666
 40
0.6666666666666666
 40
0.7777777777777778
 40
0.7777777777777778
 40
0.7777777777777778
 40
0.7777777777777778
 40
1.0
 40
1.0
 40
1.0
 40
1.0
 10
-8.95
 20
-5.45
 30
0.0
 10
-8.95
 20
-5.45
 30
0.0
 10
-8.95
 20
5.45
 30
0.0
 10
-8.95
 20
5.45
 30
0.0
 10
-8.95
 20
5.45
 30
0.0
 10
-8.95
 20
5.72614
 30
0.0
 10
-8.72614
 20
5.95
 30
0.0
 10
-8.45
 20
5.95
 30
0.0
 10
-8.45
 20
5.95
 30
0.0
 10
-8.45
 20
5.95
 30
0.0
 10
8.45
 20
5.95
 30
0.0
 10
8.45
 20
5.95
 30
0.0
 10
8.45
 20
5.95
 30
0.0
 10
8.72614
 20
5.95
 30
0.0
 10
8.95
 20
5.72614
 30
0.0
 10
8.95
 20
5.45
 30
0.0
 10
8.95
 20
5.45
 30
0.0
 10
8.95
 20
5.45
 30
0.0
 10
8.95
 20
-5.45
 30
0.0
 10
8.95
 20
-5.45
 30
0.0
 10
8.95
 20
-5.45
 30
0.0
 10
8.95
 20
-5.72614
 30
0.0
 10
8.72614
 20
-5.95
 30
0.0
 10
8.45
 20
-5.95
 30
0.0
 10
8.45
 20
-5.95
 30
0.0
 10
8.45
 20
-5.95
 30
0.0
 10
-8.45
 20
-5.95
 30
0.0
 10
-8.45
 20
-5.95
 30
0.0
 10
-8.45
 20
-5.95
 30
0.0
 10
-8.72614
 20
-5.95
 30
0.0
 10
-8.95
 20
-5.72614
 30
0.0
 10
-8.95
 20
-5.45
 30
0.0
  0
ELLIPSE
  5
42
330
1F
100
AcDbEntity
  8
Layer 1
370
    53
100
AcDbEllipse
 10
-5.99996
 20
-3.00004
 30
0.0
 11
0.0
 21
2.30004
 31
0.0
210
0.0
220
0.0
230
1.0
 40
1.0
 41
0.0
 42
6.283185307179586
  0
ELLIPSE
  5
43
330
1F
100
AcDbEntity
  8
Layer 1
 62
     4
370
    53
100
AcDbEllipse
 10
-5.99995
 20
-3.00005
 30
0.0
 11
0.0
 21
2.55005
 31
0.0
210
0.0
220
0.0
230
1.0
 40
1.0
 41
0.0
 42
6.283185307179586
  0
ELLIPSE
  5
44
330
1F
100
AcDbEntity
  8
Layer 1
370
    53
100
AcDbEllipse
 10
-5.99996
 20
2.99996
 30
0.0
 11
0.0
 21
2.30004
 31
0.0
210
0.0
220
0.0
230
1.0
 40
1.0
 41
0.0
 42
6.283185307179586
  0
ELLIPSE
  5
45
330
1F
100
AcDbEntity
  8
Layer 1
 62
     4
370
    53
100
AcDbEllipse
 10
-5.99995
 20
2.99995
 30
0.0
 11
0.0
 21
2.55005
 31
0.0
210
0.0
220
0.0
230
1.0
 40
1.0
 41
0.0
 42
6.283185307179586
  0
SPLINE
  5
46
330
1F
100
AcDbEntity
  8
Layer 1
 62
     5
370
     9
100
AcDbSpline
210
0.0
220
0.0
230
1.0
 70
    11
 71
     3
 72
    48
 73
    44
 74
     0
 42
0.0000000001
 43
0.0000000001
 12
1.0
 22
0.0
 32
0.0
 13
1.0
 23
0.0
 33
0.0
 40
0.0
 40
0.0
 40
0.0
 40
0.0
 40
0.0833333333333333
 40
0.0833333333333333
 40
0.0833333333333333
 40
0.0833333333333333
 40
0.1666666666666667
 40
0.1666666666666667
 40
0.1666666666666667
 40
0.1666666666666667
 40
0.25
 40
0.25
 40
0.25
 40
0.25
 40
0.3333333333333333
 40
0.3333333333333333
 40
0.3333333333333333
 40
0.3333333333333333
 40
0.4166666666666667
 40
0.4166666666666667
 40
0.4166666666666667
 40
0.4166666666666667
 40
0.5
 40
0.5
 40
0.5
 40
0.5
 40
0.5833333333333334
 40
0.5833333333333334
 40
0.5833333333333334
 40
0.5833333333333334
 40
0.6666666666666666
 40
0.6666666666666666
 40
0.6666666666666666
 40
0.6666666666666666
 40
0.75
 40
0.75
 40
0.75
 40
0.75
 40
0.8333333333333334
 40
0.8333333333333334
 40
0.8333333333333334
 40
0.8333333333333334
 40
1.0
 40
1.0
 40
1.0
 40
1.0
 10
-0.07934
 20
-0.00296
 30
0.0
 10
-0.07934
 20
-0.00296
 30
0.0
 10
-0.07934
 20
0.38079
 30
0.0
 10
-0.07934
 20
0.38079
 30
0.0
 10
-0.07934
 20
0.38079
 30
0.0
 10
-0.07934
 20
0.38079
 30
0.0
 10
-0.03192
 20
0.38079
 30
0.0
 10
-0.03192
 20
0.38079
 30
0.0
 10
-0.03192
 20
0.38079
 30
0.0
 10
-0.03192
 20
0.38079
 30
0.0
 10
-0.03192
 20
0.21229
 30
0.0
 10
-0.03192
 20
0.21229
 30
0.0
 10
-0.03192
 20
0.21229
 30
0.0
 10
-0.0125
 20
0.24892
 30
0.0
 10
0.01673
 20
0.26719
 30
0.0
 10
0.05566
 20
0.26719
 30
0.0
 10
0.05566
 20
0.26719
 30
0.0
 10
0.08719
 20
0.26719
 30
0.0
 10
0.11196
 20
0.25575
 30
0.0
 10
0.13007
 20
0.23279
 30
0.0
 10
0.13007
 20
0.23279
 30
0.0
 10
0.14818
 20
0.20982
 30
0.0
 10
0.15724
 20
0.17846
 30
0.0
 10
0.15724
 20
0.1387
 30
0.0
 10
0.15724
 20
0.1387
 30
0.0
 10
0.15724
 20
0.0954
 30
0.0
 10
0.14695
 20
0.06042
 30
0.0
 10
0.12645
 20
0.03391
 30
0.0
 10
0.12645
 20
0.03391
 30
0.0
 10
0.10595
 20
0.00733
 30
0.0
 10
0.07896
 20
-0.00593
 30
0.0
 10
0.04554
 20
-0.00593
 30
0.0
 10
0.04554
 20
-0.00593
 30
0.0
 10
0.0145
 20
-0.00593
 30
0.0
 10
-0.01134
 20
0.00593
 30
0.0
 10
-0.03192
 20
0.02972
 30
0.0
 10
-0.03192
 20
0.02972
 30
0.0
 10
-0.03192
 20
0.02972
 30
0.0
 10
-0.03769
 20
-0.00296
 30
0.0
 10
-0.03769
 20
-0.00296
 30
0.0
 10
-0.03769
 20
-0.00296
 30
0.0
 10
-0.03769
 20
-0.00296
 30
0.0
 10
-0.07934
 20
-0.00296
 30
0.0
 10
-0.07934
 20
-0.00296
 30
0.0
  0
SPLINE
  5
47
330
1F
100
AcDbEntity
  8
Layer 1
 62
     5
370
     9
100
AcDbSpline
210
0.0
220
0.0
230
1.0
 70
    11
 71
     3
 72
    28
 73
    24
 74
     0
 42
0.0000000001
 43
0.0000000001
 12
1.0
 22
0.0
 32
0.0
 13
1.0
 23
0.0
 33
0.0
 40
0.0
 40
0.0
 40
0.0
 40
0.0
 40
0.1428571428571428
 40
0.1428571428571428
 40
0.1428571428571428
 40
0.1428571428571428
 40
0.2857142857142857
 40
0.2857142857142857
 40
0.2857142857142857
 40
0.2857142857142857
 40
0.4285714285714285
 40
0.4285714285714285
 40
0.4285714285714285
 40
0.4285714285714285
 40
0.5714285714285714
 40
0.5714285714285714
 40
0.5714285714285714
 40
0.5714285714285714
 40
0.7142857142857143
 40
0.7142857142857143
 40
0.7142857142857143
 40
0.7142857142857143
 40
1.0
 40
1.0
 40
1.0
 40
1.0
 10
-0.03192
 20
0.06239
 30
0.0
 10
-0.00748
 20
0.04058
 30
0.0
 10
0.01582
 20
0.02963
 30
0.0
 10
0.03796
 20
0.02963
 30
0.0
 10
0.03796
 20
0.02963
 30
0.0
 10
0.05978
 20
0.02963
 30
0.0
 10
0.07665
 20
0.03877
 30
0.0
 10
0.0885
 20
0.05696
 30
0.0
 10
0.0885
 20
0.05696
 30
0.0
 10
0.10044
 20
0.07515
 30
0.0
 10
0.10637
 20
0.10075
 30
0.0
 10
0.10637
 20
0.13384
 30
0.0
 10
0.10637
 20
0.13384
 30
0.0
 10
0.10637
 20
0.19509
 30
0.0
 10
0.08612
 20
0.22571
 30
0.0
 10
0.04562
 20
0.22571
 30
0.0
 10
0.04562
 20
0.22571
 30
0.0
 10
0.01911
 20
0.22571
 30
0.0
 10
-0.00673
 20
0.21138
 30
0.0
 10
-0.03192
 20
0.18266
 30
0.0
 10
-0.03192
 20
0.18266
 30
0.0
 10
-0.03192
 20
0.18266
 30
0.0
 10
-0.03192
 20
0.06239
 30
0.0
 10
-0.03192
 20
0.06239
 30
0.0
  0
SPLINE
  5
48
330
1F
100
AcDbEntity
  8
Layer 1
 62
     5
370
     9
100
AcDbSpline
210
0.0
220
0.0
230
1.0
 70
    11
 71
     3
 72
    36
 73
    32
 74
     0
 42
0.0000000001
 43
0.0000000001
 12
1.0
 22
0.0
 32
0.0
 13
1.0
 23
0.0
 33
0.0
 40
0.0
 40
0.0
 40
0.0
 40
0.0
 40
0.1111111111111111
 40
0.1111111111111111
 40
0.1111111111111111
 40
0.1111111111111111
 40
0.2222222222222222
 40
0.2222222222222222
 40
0.2222222222222222
 40
0.2222222222222222
 40
0.3333333333333333
 40
0.3333333333333333
 40
0.3333333333333333
 40
0.3333333333333333
 40
0.4444444444444444
 40
0.4444444444444444
 40
0.4444444444444444
 40
0.4444444444444444
 40
0.5555555555555556
 40
0.5555555555555556
 40
0.5555555555555556
 40
0.5555555555555556
 40
0.6666666666666666
 40
0.6666666666666666
 40
0.6666666666666666
 40
0.6666666666666666
 40
0.7777777777777778
 40
0.7777777777777778
 40
0.7777777777777778
 40
0.7777777777777778
 40
1.0
 40
1.0
 40
1.0
 40
1.0
 10
0.33569
 20
-0.00593
 30
0.0
 10
0.29725
 20
-0.00593
 30
0.0
 10
0.2668
 20
0.00634
 30
0.0
 10
0.24441
 20
0.03087
 30
0.0
 10
0.24441
 20
0.03087
 30
0.0
 10
0.22193
 20
0.0554
 30
0.0
 10
0.21074
 20
0.08874
 30
0.0
 10
0.21074
 20
0.1308
 30
0.0
 10
0.21074
 20
0.1308
 30
0.0
 10
0.21074
 20
0.17278
 30
0.0
 10
0.22193
 20
0.20603
 30
0.0
 10
0.24441
 20
0.23048
 30
0.0
 10
0.24441
 20
0.23048
 30
0.0
 10
0.2668
 20
0.25493
 30
0.0
 10
0.29725
 20
0.26719
 30
0.0
 10
0.33569
 20
0.26719
 30
0.0
 10
0.33569
 20
0.26719
 30
0.0
 10
0.37414
 20
0.26719
 30
0.0
 10
0.40459
 20
0.25493
 30
0.0
 10
0.42698
 20
0.23048
 30
0.0
 10
0.42698
 20
0.23048
 30
0.0
 10
0.44945
 20
0.20603
 30
0.0
 10
0.46065
 20
0.17278
 30
0.0
 10
0.46065
 20
0.1308
 30
0.0
 10
0.46065
 20
0.1308
 30
0.0
 10
0.46065
 20
0.08874
 30
0.0
 10
0.44945
 20
0.0554
 30
0.0
 10
0.42698
 20
0.03087
 30
0.0
 10
0.42698
 20
0.03087
 30
0.0
 10
0.40459
 20
0.00634
 30
0.0
 10
0.37414
 20
-0.00593
 30
0.0
 10
0.33569
 20
-0.00593
 30
0.0
  0
SPLINE
  5
49
330
1F
100
AcDbEntity
  8
Layer 1
 62
     5
370
     9
100
AcDbSpline
210
0.0
220
0.0
230
1.0
 70
    11
 71
     3
 72
    36
 73
    32
 74
     0
 42
0.0000000001
 43
0.0000000001
 12
1.0
 22
0.0
 32
0.0
 13
1.0
 23
0.0
 33
0.0
 40
0.0
 40
0.0
 40
0.0
 40
0.0
 40
0.1111111111111111
 40
0.1111111111111111
 40
0.1111111111111111
 40
0.1111111111111111
 40
0.2222222222222222
 40
0.2222222222222222
 40
0.2222222222222222
 40
0.2222222222222222
 40
0.3333333333333333
 40
0.3333333333333333
 40
0.3333333333333333
 40
0.3333333333333333
 40
0.4444444444444444
 40
0.4444444444444444
 40
0.4444444444444444
 40
0.4444444444444444
 40
0.5555555555555556
 40
0.5555555555555556
 40
0.5555555555555556
 40
0.5555555555555556
 40
0.6666666666666666
 40
0.6666666666666666
 40
0.6666666666666666
 40
0.6666666666666666
 40
0.7777777777777778
 40
0.7777777777777778
 40
0.7777777777777778
 40
0.7777777777777778
 40
1.0
 40
1.0
 40
1.0
 40
1.0
 10
0.33561
 20
0.02963
 30
0.0
 10
0.35907
 20
0.02963
 30
0.0
 10
0.37735
 20
0.03844
 30
0.0
 10
0.39035
 20
0.05614
 30
0.0
 10
0.39035
 20
0.05614
 30
0.0
 10
0.40327
 20
0.07375
 30
0.0
 10
0.40978
 20
0.0987
 30
0.0
 10
0.40978
 20
0.1308
 30
0.0
 10
0.40978
 20
0.1308
 30
0.0
 10
0.40978
 20
0.16282
 30
0.0
 10
0.40327
 20
0.18768
 30
0.0
 10
0.39035
 20
0.20529
 30
0.0
 10
0.39035
 20
0.20529
 30
0.0
 10
0.37735
 20
0.22283
 30
0.0
 10
0.35907
 20
0.23163
 30
0.0
 10
0.33561
 20
0.23163
 30
0.0
 10
0.33561
 20
0.23163
 30
0.0
 10
0.31207
 20
0.23163
 30
0.0
 10
0.2938
 20
0.22283
 30
0.0
 10
0.28095
 20
0.20529
 30
0.0
 10
0.28095
 20
0.20529
 30
0.0
 10
0.26803
 20
0.18768
 30
0.0
 10
0.26161
 20
0.16282
 30
0.0
 10
0.26161
 20
0.1308
 30
0.0
 10
0.26161
 20
0.1308
 30
0.0
 10
0.26161
 20
0.0987
 30
0.0
 10
0.26803
 20
0.07375
 30
0.0
 10
0.28095
 20
0.05614
 30
0.0
 10
0.28095
 20
0.05614
 30
0.0
 10
0.2938
 20
0.03844
 30
0.0
 10
0.31207
 20
0.02963
 30
0.0
 10
0.33561
 20
0.02963
 30
0.0
  0
SPLINE
  5
4A
330
1F
100
AcDbEntity
  8
Layer 1
 62
     5
370
     9
100
AcDbSpline
210
0.0
220
0.0
230
1.0
 70
    11
 71
     3
 72
    20
 73
    16
 74
     0
 42
0.0000000001
 43
0.0000000001
 12
1.0
 22
0.0
 32
0.0
 13
1.0
 23
0.0
 33
0.0
 40
0.0
 40
0.0
 40
0.0
 40
0.0
 40
0.2
 40
0.2
 40
0.2
 40
0.2
 40
0.4
 40
0.4
 40
0.4
 40
0.4
 40
0.6
 40
0.6
 40
0.6
 40
0.6
 40
1.0
 40
1.0
 40
1.0
 40
1.0
 10
0.5349
 20
0.0
 30
0.0
 10
0.5349
 20
0.0
 30
0.0
 10
0.5349
 20
0.38079
 30
0.0
 10
0.5349
 20
0.38079
 30
0.0
 10
0.5349
 20
0.38079
 30
0.0
 10
0.5349
 20
0.38079
 30
0.0
 10
0.58232
 20
0.38079
 30
0.0
 10
0.58232
 20
0.38079
 30
0.0
 10
0.58232
 20
0.38079
 30
0.0
 10
0.58232
 20
0.38079
 30
0.0
 10
0.58232
 20
0.0
 30
0.0
 10
0.58232
 20
0.0
 30
0.0
 10
0.58232
 20
0.0
 30
0.0
 10
0.58232
 20
0.0
 30
0.0
 10
0.5349
 20
0.0
 30
0.0
 10
0.5349
 20
0.0
 30
0.0
  0
SPLINE
  5
4B
330
1F
100
AcDbEntity
  8
Layer 1
 62
     5
370
     9
100
AcDbSpline
210
0.0
220
0.0
230
1.0
 70
    11
 71
     3
 72
    72
 73
    68
 74
     0
 42
0.0000000001
 43
0.0000000001
 12
1.0
 22
0.0
 32
0.0
 13
1.0
 23
0.0
 33
0.0
 40
0.0
 40
0.0
 40
0.0
 40
0.0
 40
0.0555555555555556
 40
0.0555555555555556
 40
0.0555555555555556
 40
0.0555555555555556
 40
0.1111111111111111
 40
0.1111111111111111
 40
0.1111111111111111
 40
0.1111111111111111
 40
0.1666666666666667
 40
0.1666666666666667
 40
0.1666666666666667
 40
0.1666666666666667
 40
0.2222222222222222
 40
0.2222222222222222
 40
0.2222222222222222
 40
0.2222222222222222
 40
0.2777777777777778
 40
0.2777777777777778
 40
0.2777777777777778
 40
0.2777777777777778
 40
0.3333333333333333
 40
0.3333333333333333
 40
0.3333333333333333
 40
0.3333333333333333
 40
0.3888888888888889
 40
0.3888888888888889
 40
0.3888888888888889
 40
0.3888888888888889
 40
0.4444444444444444
 40
0.4444444444444444
 40
0.4444444444444444
 40
0.4444444444444444
 40
0.5
 40
0.5
 40
0.5
 40
0.5
 40
0.5555555555555556
 40
0.5555555555555556
 40
0.5555555555555556
 40
0.5555555555555556
 40
0.6111111111111112
 40
0.6111111111111112
 40
0.6111111111111112
 40
0.6111111111111112
 40
0.6666666666666666
 40
0.6666666666666666
 40
0.6666666666666666
 40
0.6666666666666666
 40
0.7222222222222222
 40
0.7222222222222222
 40
0.7222222222222222
 40
0.7222222222222222
 40
0.7777777777777778
 40
0.7777777777777778
 40
0.7777777777777778
 40
0.7777777777777778
 40
0.8333333333333334
 40
0.8333333333333334
 40
0.8333333333333334
 40
0.8333333333333334
 40
0.8888888888888888
 40
0.8888888888888888
 40
0.8888888888888888
 40
0.8888888888888888
 40
1.0
 40
1.0
 40
1.0
 40
1.0
 10
0.79469
 20
0.00008
 30
0.0
 10
0.78003
 20
-0.00395
 30
0.0
 10
0.76727
 20
-0.00593
 30
0.0
 10
0.75649
 20
-0.00593
 30
0.0
 10
0.75649
 20
-0.00593
 30
0.0
 10
0.73229
 20
-0.00593
 30
0.0
 10
0.71344
 20
0.00099
 30
0.0
 10
0.69994
 20
0.01482
 30
0.0
 10
0.69994
 20
0.01482
 30
0.0
 10
0.68636
 20
0.02865
 30
0.0
 10
0.67961
 20
0.04783
 30
0.0
 10
0.67961
 20
0.07244
 30
0.0
 10
0.67961
 20
0.07244
 30
0.0
 10
0.67961
 20
0.07244
 30
0.0
 10
0.67961
 20
0.2262
 30
0.0
 10
0.67961
 20
0.2262
 30
0.0
 10
0.67961
 20
0.2262
 30
0.0
 10
0.67961
 20
0.2262
 30
0.0
 10
0.64685
 20
0.2262
 30
0.0
 10
0.64685
 20
0.2262
 30
0.0
 10
0.64685
 20
0.2262
 30
0.0
 10
0.64685
 20
0.2262
 30
0.0
 10
0.64685
 20
0.26176
 30
0.0
 10
0.64685
 20
0.26176
 30
0.0
 10
0.64685
 20
0.26176
 30
0.0
 10
0.64685
 20
0.26176
 30
0.0
 10
0.67961
 20
0.26176
 30
0.0
 10
0.67961
 20
0.26176
 30
0.0
 10
0.67961
 20
0.26176
 30
0.0
 10
0.67961
 20
0.26176
 30
0.0
 10
0.67961
 20
0.30909
 30
0.0
 10
0.67961
 20
0.30909
 30
0.0
 10
0.67961
 20
0.30909
 30
0.0
 10
0.67961
 20
0.30909
 30
0.0
 10
0.72702
 20
0.31362
 30
0.0
 10
0.72702
 20
0.31362
 30
0.0
 10
0.72702
 20
0.31362
 30
0.0
 10
0.72702
 20
0.31362
 30
0.0
 10
0.72702
 20
0.26176
 30
0.0
 10
0.72702
 20
0.26176
 30
0.0
 10
0.72702
 20
0.26176
 30
0.0
 10
0.72702
 20
0.26176
 30
0.0
 10
0.79567
 20
0.26176
 30
0.0
 10
0.79567
 20
0.26176
 30
0.0
 10
0.79567
 20
0.26176
 30
0.0
 10
0.79567
 20
0.26176
 30
0.0
 10
0.79567
 20
0.2262
 30
0.0
 10
0.79567
 20
0.2262
 30
0.0
 10
0.79567
 20
0.2262
 30
0.0
 10
0.79567
 20
0.2262
 30
0.0
 10
0.72702
 20
0.2262
 30
0.0
 10
0.72702
 20
0.2262
 30
0.0
 10
0.72702
 20
0.2262
 30
0.0
 10
0.72702
 20
0.2262
 30
0.0
 10
0.72702
 20
0.081
 30
0.0
 10
0.72702
 20
0.081
 30
0.0
 10
0.72702
 20
0.081
 30
0.0
 10
0.72702
 20
0.04675
 30
0.0
 10
0.74192
 20
0.02963
 30
0.0
 10
0.77164
 20
0.02963
 30
0.0
 10
0.77164
 20
0.02963
 30
0.0
 10
0.77798
 20
0.02963
 30
0.0
 10
0.78563
 20
0.0307
 30
0.0
 10
0.79469
 20
0.03276
 30
0.0
 10
0.79469
 20
0.03276
 30
0.0
 10
0.79469
 20
0.03276
 30
0.0
 10
0.79469
 20
0.00008
 30
0.0
 10
0.79469
 20
0.00008
 30
0.0
  0
SPLINE
  5
4C
330
1F
100
AcDbEntity
  8
Layer 1
 62
     5
370
     9
100
AcDbSpline
210
0.0
220
0.0
230
1.0
 70
    11
 71
     3
 72
    20
 73
    16
 74
     0
 42
0.0000000001
 43
0.0000000001
 12
1.0
 22
0.0
 32
0.0
 13
1.0
 23
0.0
 33
0.0
 40
0.0
 40
0.0
 40
0.0
 40
0.0
 40
0.2
 40
0.2
 40
0.2
 40
0.2
 40
0.4
 40
0.4
 40
0.4
 40
0.4
 40
0.6
 40
0.6
 40
0.6
 40
0.6
 40
1.0
 40
1.0
 40
1.0
 40
1.0
 10
0.83567
 20
-0.03556
 30
0.0
 10
0.83567
 20
-0.03556
 30
0.0
 10
0.83567
 20
0.0
 30
0.0
 10
0.83567
 20
0.0
 30
0.0
 10
0.83567
 20
0.0
 30
0.0
 10
0.83567
 20
0.0
 30
0.0
 10
1.04113
 20
0.0
 30
0.0
 10
1.04113
 20
0.0
 30
0.0
 10
1.04113
 20
0.0
 30
0.0
 10
1.04113
 20
0.0
 30
0.0
 10
1.04113
 20
-0.03556
 30
0.0
 10
1.04113
 20
-0.03556
 30
0.0
 10
1.04113
 20
-0.03556
 30
0.0
 10
1.04113
 20
-0.03556
 30
0.0
 10
0.83567
 20
-0.03556
 30
0.0
 10
0.83567
 20
-0.03556
 30
0.0
  0
SPLINE
  5
4D
330
1F
100
AcDbEntity
  8
Layer 1
 62
     5
370
     9
100
AcDbSpline
210
0.0
220
0.0
230
1.0
 70
    11
 71
     3
 72
    48
 73
    44
 74
     0
 42
0.0000000001
 43
0.0000000001
 12
1.0
 22
0.0
 32
0.0
 13
1.0
 23
0.0
 33
0.0
 40
0.0
 40
0.0
 40
0.0
 40
0.0
 40
0.0833333333333333
 40
0.0833333333333333
 40
0.0833333333333333
 40
0.0833333333333333
 40
0.1666666666666667
 40
0.1666666666666667
 40
0.1666666666666667
 40
0.1666666666666667
 40
0.25
 40
0.25
 40
0.25
 40
0.25
 40
0.3333333333333333
 40
0.3333333333333333
 40
0.3333333333333333
 40
0.3333333333333333
 40
0.4166666666666667
 40
0.4166666666666667
 40
0.4166666666666667
 40
0.4166666666666667
 40
0.5
 40
0.5
 40
0.5
 40
0.5
 40
0.5833333333333334
 40
0.5833333333333334
 40
0.5833333333333334
 40
0.5833333333333334
 40
0.6666666666666666
 40
0.6666666666666666
 40
0.6666666666666666
 40
0.6666666666666666
 40
0.75
 40
0.75
 40
0.75
 40
0.75
 40
0.8333333333333334
 40
0.8333333333333334
 40
0.8333333333333334
 40
0.8333333333333334
 40
1.0
 40
1.0
 40
1.0
 40
1.0
 10
1.10929
 20
-0.09532
 30
0.0
 10
1.10929
 20
-0.09532
 30
0.0
 10
1.10929
 20
0.26176
 30
0.0
 10
1.10929
 20
0.26176
 30
0.0
 10
1.10929
 20
0.26176
 30
0.0
 10
1.10929
 20
0.26176
 30
0.0
 10
1.15671
 20
0.26176
 30
0.0
 10
1.15671
 20
0.26176
 30
0.0
 10
1.15671
 20
0.26176
 30
0.0
 10
1.15671
 20
0.26176
 30
0.0
 10
1.15671
 20
0.21229
 30
0.0
 10
1.15671
 20
0.21229
 30
0.0
 10
1.15671
 20
0.21229
 30
0.0
 10
1.17613
 20
0.24892
 30
0.0
 10
1.20536
 20
0.26719
 30
0.0
 10
1.24429
 20
0.26719
 30
0.0
 10
1.24429
 20
0.26719
 30
0.0
 10
1.27582
 20
0.26719
 30
0.0
 10
1.30059
 20
0.25575
 30
0.0
 10
1.3187
 20
0.23279
 30
0.0
 10
1.3187
 20
0.23279
 30
0.0
 10
1.33681
 20
0.20982
 30
0.0
 10
1.34587
 20
0.17846
 30
0.0
 10
1.34587
 20
0.1387
 30
0.0
 10
1.34587
 20
0.1387
 30
0.0
 10
1.34587
 20
0.0954
 30
0.0
 10
1.33558
 20
0.06042
 30
0.0
 10
1.31508
 20
0.03391
 30
0.0
 10
1.31508
 20
0.03391
 30
0.0
 10
1.29458
 20
0.00733
 30
0.0
 10
1.26759
 20
-0.00593
 30
0.0
 10
1.23417
 20
-0.00593
 30
0.0
 10
1.23417
 20
-0.00593
 30
0.0
 10
1.20313
 20
-0.00593
 30
0.0
 10
1.17729
 20
0.00593
 30
0.0
 10
1.15671
 20
0.02972
 30
0.0
 10
1.15671
 20
0.02972
 30
0.0
 10
1.15671
 20
0.02972
 30
0.0
 10
1.15671
 20
-0.09532
 30
0.0
 10
1.15671
 20
-0.09532
 30
0.0
 10
1.15671
 20
-0.09532
 30
0.0
 10
1.15671
 20
-0.09532
 30
0.0
 10
1.10929
 20
-0.09532
 30
0.0
 10
1.10929
 20
-0.09532
 30
0.0
  0
SPLINE
  5
4E
330
1F
100
AcDbEntity
  8
Layer 1
 62
     5
370
     9
100
AcDbSpline
210
0.0
220
0.0
230
1.0
 70
    11
 71
     3
 72
    28
 73
    24
 74
     0
 42
0.0000000001
 43
0.0000000001
 12
1.0
 22
0.0
 32
0.0
 13
1.0
 23
0.0
 33
0.0
 40
0.0
 40
0.0
 40
0.0
 40
0.0
 40
0.1428571428571428
 40
0.1428571428571428
 40
0.1428571428571428
 40
0.1428571428571428
 40
0.2857142857142857
 40
0.2857142857142857
 40
0.2857142857142857
 40
0.2857142857142857
 40
0.4285714285714285
 40
0.4285714285714285
 40
0.4285714285714285
 40
0.4285714285714285
 40
0.5714285714285714
 40
0.5714285714285714
 40
0.5714285714285714
 40
0.5714285714285714
 40
0.7142857142857143
 40
0.7142857142857143
 40
0.7142857142857143
 40
0.7142857142857143
 40
1.0
 40
1.0
 40
1.0
 40
1.0
 10
1.15671
 20
0.06239
 30
0.0
 10
1.18115
 20
0.04058
 30
0.0
 10
1.20445
 20
0.02963
 30
0.0
 10
1.22659
 20
0.02963
 30
0.0
 10
1.22659
 20
0.02963
 30
0.0
 10
1.24841
 20
0.02963
 30
0.0
 10
1.26528
 20
0.03877
 30
0.0
 10
1.27713
 20
0.05696
 30
0.0
 10
1.27713
 20
0.05696
 30
0.0
 10
1.28907
 20
0.07515
 30
0.0
 10
1.295
 20
0.10075
 30
0.0
 10
1.295
 20
0.13384
 30
0.0
 10
1.295
 20
0.13384
 30
0.0
 10
1.295
 20
0.19509
 30
0.0
 10
1.27475
 20
0.22571
 30
0.0
 10
1.23425
 20
0.22571
 30
0.0
 10
1.23425
 20
0.22571
 30
0.0
 10
1.20774
 20
0.22571
 30
0.0
 10
1.1819
 20
0.21138
 30
0.0
 10
1.15671
 20
0.18266
 30
0.0
 10
1.15671
 20
0.18266
 30
0.0
 10
1.15671
 20
0.18266
 30
0.0
 10
1.15671
 20
0.06239
 30
0.0
 10
1.15671
 20
0.06239
 30
0.0
  0
SPLINE
  5
4F
330
1F
100
AcDbEntity
  8
Layer 1
 62
     5
370
     9
100
AcDbSpline
210
0.0
220
0.0
230
1.0
 70
    11
 71
     3
 72
    80
 73
    76
 74
     0
 42
0.0000000001
 43
0.0000000001
 12
1.0
 22
0.0
 32
0.0
 13
1.0
 23
0.0
 33
0.0
 40
0.0
 40
0.0
 40
0.0
 40
0.0
 40
0.05
 40
0.05
 40
0.05
 40
0.05
 40
0.1
 40
0.1
 40
0.1
 40
0.1
 40
0.15
 40
0.15
 40
0.15
 40
0.15
 40
0.2
 40
0.2
 40
0.2
 40
0.2
 40
0.25
 40
0.25
 40
0.25
 40
0.25
 40
0.3
 40
0.3
 40
0.3
 40
0.3
 40
0.35
 40
0.35
 40
0.35
 40
0.35
 40
0.4
 40
0.4
 40
0.4
 40
0.4
 40
0.45
 40
0.45
 40
0.45
 40
0.45
 40
0.5
 40
0.5
 40
0.5
 40
0.5
 40
0.55
 40
0.55
 40
0.55
 40
0.55
 40
0.6
 40
0.6
 40
0.6
 40
0.6
 40
0.65
 40
0.65
 40
0.65
 40
0.65
 40
0.7
 40
0.7
 40
0.7
 40
0.7
 40
0.75
 40
0.75
 40
0.75
 40
0.75
 40
0.8
 40
0.8
 40
0.8
 40
0.8
 40
0.85
 40
0.85
 40
0.85
 40
0.85
 40
0.9
 40
0.9
 40
0.9
 40
0.9
 40
1.0
 40
1.0
 40
1.0
 40
1.0
 10
1.55503
 20
0.03334
 30
0.0
 10
1.52655
 20
0.00716
 30
0.0
 10
1.49914
 20
-0.00593
 30
0.0
 10
1.4728
 20
-0.00593
 30
0.0
 10
1.4728
 20
-0.00593
 30
0.0
 10
1.45115
 20
-0.00593
 30
0.0
 10
1.43312
 20
0.00082
 30
0.0
 10
1.41888
 20
0.01441
 30
0.0
 10
1.41888
 20
0.01441
 30
0.0
 10
1.40456
 20
0.02799
 30
0.0
 10
1.39739
 20
0.04511
 30
0.0
 10
1.39739
 20
0.06577
 30
0.0
 10
1.39739
 20
0.06577
 30
0.0
 10
1.39739
 20
0.09433
 30
0.0
 10
1.40941
 20
0.11631
 30
0.0
 10
1.43345
 20
0.13162
 30
0.0
 10
1.43345
 20
0.13162
 30
0.0
 10
1.45748
 20
0.14693
 30
0.0
 10
1.49197
 20
0.15459
 30
0.0
 10
1.53692
 20
0.15459
 30
0.0
 10
1.53692
 20
0.15459
 30
0.0
 10
1.53692
 20
0.15459
 30
0.0
 10
1.54803
 20
0.15459
 30
0.0
 10
1.54803
 20
0.15459
 30
0.0
 10
1.54803
 20
0.15459
 30
0.0
 10
1.54803
 20
0.15459
 30
0.0
 10
1.54803
 20
0.18611
 30
0.0
 10
1.54803
 20
0.18611
 30
0.0
 10
1.54803
 20
0.18611
 30
0.0
 10
1.54803
 20
0.21649
 30
0.0
 10
1.53223
 20
0.23163
 30
0.0
 10
1.50054
 20
0.23163
 30
0.0
 10
1.50054
 20
0.23163
 30
0.0
 10
1.47601
 20
0.23163
 30
0.0
 10
1.44917
 20
0.2239
 30
0.0
 10
1.42011
 20
0.20842
 30
0.0
 10
1.42011
 20
0.20842
 30
0.0
 10
1.42011
 20
0.20842
 30
0.0
 10
1.42011
 20
0.24744
 30
0.0
 10
1.42011
 20
0.24744
 30
0.0
 10
1.42011
 20
0.24744
 30
0.0
 10
1.45205
 20
0.26061
 30
0.0
 10
1.48218
 20
0.26719
 30
0.0
 10
1.51041
 20
0.26719
 30
0.0
 10
1.51041
 20
0.26719
 30
0.0
 10
1.53947
 20
0.26719
 30
0.0
 10
1.56095
 20
0.26061
 30
0.0
 10
1.5747
 20
0.24736
 30
0.0
 10
1.5747
 20
0.24736
 30
0.0
 10
1.58853
 20
0.2341
 30
0.0
 10
1.59544
 20
0.21369
 30
0.0
 10
1.59544
 20
0.18611
 30
0.0
 10
1.59544
 20
0.18611
 30
0.0
 10
1.59544
 20
0.18611
 30
0.0
 10
1.59544
 20
0.06783
 30
0.0
 10
1.59544
 20
0.06783
 30
0.0
 10
1.59544
 20
0.06783
 30
0.0
 10
1.59544
 20
0.04075
 30
0.0
 10
1.60376
 20
0.02716
 30
0.0
 10
1.62047
 20
0.02716
 30
0.0
 10
1.62047
 20
0.02716
 30
0.0
 10
1.62253
 20
0.02716
 30
0.0
 10
1.62557
 20
0.02749
 30
0.0
 10
1.62961
 20
0.02815
 30
0.0
 10
1.62961
 20
0.02815
 30
0.0
 10
1.62961
 20
0.02815
 30
0.0
 10
1.63298
 20
0.00181
 30
0.0
 10
1.63298
 20
0.00181
 30
0.0
 10
1.63298
 20
0.00181
 30
0.0
 10
1.6222
 20
-0.00337
 30
0.0
 10
1.61034
 20
-0.00593
 30
0.0
 10
1.59734
 20
-0.00593
 30
0.0
 10
1.59734
 20
-0.00593
 30
0.0
 10
1.57519
 20
-0.00593
 30
0.0
 10
1.56112
 20
0.00716
 30
0.0
 10
1.55503
 20
0.03334
 30
0.0
  0
SPLINE
  5
50
330
1F
100
AcDbEntity
  8
Layer 1
 62
     5
370
     9
100
AcDbSpline
210
0.0
220
0.0
230
1.0
 70
    11
 71
     3
 72
    32
 73
    28
 74
     0
 42
0.0000000001
 43
0.0000000001
 12
1.0
 22
0.0
 32
0.0
 13
1.0
 23
0.0
 33
0.0
 40
0.0
 40
0.0
 40
0.0
 40
0.0
 40
0.125
 40
0.125
 40
0.125
 40
0.125
 40
0.25
 40
0.25
 40
0.25
 40
0.25
 40
0.375
 40
0.375
 40
0.375
 40
0.375
 40
0.5
 40
0.5
 40
0.5
 40
0.5
 40
0.625
 40
0.625
 40
0.625
 40
0.625
 40
0.75
 40
0.75
 40
0.75
 40
0.75
 40
1.0
 40
1.0
 40
1.0
 40
1.0
 10
1.54803
 20
0.05918
 30
0.0
 10
1.54803
 20
0.05918
 30
0.0
 10
1.54803
 20
0.12644
 30
0.0
 10
1.54803
 20
0.12644
 30
0.0
 10
1.54803
 20
0.12644
 30
0.0
 10
1.54803
 20
0.12644
 30
0.0
 10
1.5328
 20
0.12693
 30
0.0
 10
1.5328
 20
0.12693
 30
0.0
 10
1.5328
 20
0.12693
 30
0.0
 10
1.50646
 20
0.12693
 30
0.0
 10
1.48522
 20
0.12207
 30
0.0
 10
1.46901
 20
0.11236
 30
0.0
 10
1.46901
 20
0.11236
 30
0.0
 10
1.45287
 20
0.10256
 30
0.0
 10
1.44481
 20
0.08964
 30
0.0
 10
1.44481
 20
0.07351
 30
0.0
 10
1.44481
 20
0.07351
 30
0.0
 10
1.44481
 20
0.06223
 30
0.0
 10
1.44884
 20
0.05268
 30
0.0
 10
1.45683
 20
0.04486
 30
0.0
 10
1.45683
 20
0.04486
 30
0.0
 10
1.46489
 20
0.03704
 30
0.0
 10
1.47469
 20
0.03309
 30
0.0
 10
1.48629
 20
0.03309
 30
0.0
 10
1.48629
 20
0.03309
 30
0.0
 10
1.50605
 20
0.03309
 30
0.0
 10
1.52663
 20
0.04182
 30
0.0
 10
1.54803
 20
0.05918
 30
0.0
  0
SPLINE
  5
51
330
1F
100
AcDbEntity
  8
Layer 1
 62
     5
370
     9
100
AcDbSpline
210
0.0
220
0.0
230
1.0
 70
    11
 71
     3
 72
    60
 73
    56
 74
     0
 42
0.0000000001
 43
0.0000000001
 12
1.0
 22
0.0
 32
0.0
 13
1.0
 23
0.0
 33
0.0
 40
0.0
 40
0.0
 40
0.0
 40
0.0
 40
0.0666666666666667
 40
0.0666666666666667
 40
0.0666666666666667
 40
0.0666666666666667
 40
0.1333333333333333
 40
0.1333333333333333
 40
0.1333333333333333
 40
0.1333333333333333
 40
0.2
 40
0.2
 40
0.2
 40
0.2
 40
0.2666666666666667
 40
0.2666666666666667
 40
0.2666666666666667
 40
0.2666666666666667
 40
0.3333333333333333
 40
0.3333333333333333
 40
0.3333333333333333
 40
0.3333333333333333
 40
0.4
 40
0.4
 40
0.4
 40
0.4
 40
0.4666666666666667
 40
0.4666666666666667
 40
0.4666666666666667
 40
0.4666666666666667
 40
0.5333333333333333
 40
0.5333333333333333
 40
0.5333333333333333
 40
0.5333333333333333
 40
0.6
 40
0.6
 40
0.6
 40
0.6
 40
0.6666666666666666
 40
0.6666666666666666
 40
0.6666666666666666
 40
0.6666666666666666
 40
0.7333333333333333
 40
0.7333333333333333
 40
0.7333333333333333
 40
0.7333333333333333
 40
0.8
 40
0.8
 40
0.8
 40
0.8
 40
0.8666666666666667
 40
0.8666666666666667
 40
0.8666666666666667
 40
0.8666666666666667
 40
1.0
 40
1.0
 40
1.0
 40
1.0
 10
1.87457
 20
0.0079
 30
0.0
 10
1.84387
 20
-0.00132
 30
0.0
 10
1.81737
 20
-0.00593
 30
0.0
 10
1.79506
 20
-0.00593
 30
0.0
 10
1.79506
 20
-0.00593
 30
0.0
 10
1.75966
 20
-0.00593
 30
0.0
 10
1.73036
 20
0.00716
 30
0.0
 10
1.70706
 20
0.03326
 30
0.0
 10
1.70706
 20
0.03326
 30
0.0
 10
1.68377
 20
0.05943
 30
0.0
 10
1.67208
 20
0.09244
 30
0.0
 10
1.67208
 20
0.1322
 30
0.0
 10
1.67208
 20
0.1322
 30
0.0
 10
1.67208
 20
0.17467
 30
0.0
 10
1.6836
 20
0.20785
 30
0.0
 10
1.70665
 20
0.23155
 30
0.0
 10
1.70665
 20
0.23155
 30
0.0
 10
1.7297
 20
0.25534
 30
0.0
 10
1.76189
 20
0.26719
 30
0.0
 10
1.80321
 20
0.26719
 30
0.0
 10
1.80321
 20
0.26719
 30
0.0
 10
1.82354
 20
0.26719
 30
0.0
 10
1.84642
 20
0.2644
 30
0.0
 10
1.87161
 20
0.2588
 30
0.0
 10
1.87161
 20
0.2588
 30
0.0
 10
1.87161
 20
0.2588
 30
0.0
 10
1.87161
 20
0.21879
 30
0.0
 10
1.87161
 20
0.21879
 30
0.0
 10
1.87161
 20
0.21879
 30
0.0
 10
1.84486
 20
0.2267
 30
0.0
 10
1.82305
 20
0.23065
 30
0.0
 10
1.80625
 20
0.23065
 30
0.0
 10
1.80625
 20
0.23065
 30
0.0
 10
1.78189
 20
0.23065
 30
0.0
 10
1.76238
 20
0.22151
 30
0.0
 10
1.74781
 20
0.20332
 30
0.0
 10
1.74781
 20
0.20332
 30
0.0
 10
1.73324
 20
0.18513
 30
0.0
 10
1.72591
 20
0.16084
 30
0.0
 10
1.72591
 20
0.13055
 30
0.0
 10
1.72591
 20
0.13055
 30
0.0
 10
1.72591
 20
0.10117
 30
0.0
 10
1.73349
 20
0.07746
 30
0.0
 10
1.74855
 20
0.05927
 30
0.0
 10
1.74855
 20
0.05927
 30
0.0
 10
1.76361
 20
0.04116
 30
0.0
 10
1.78329
 20
0.0321
 30
0.0
 10
1.80774
 20
0.0321
 30
0.0
 10
1.80774
 20
0.0321
 30
0.0
 10
1.82938
 20
0.0321
 30
0.0
 10
1.85161
 20
0.0377
 30
0.0
 10
1.87457
 20
0.0489
 30
0.0
 10
1.87457
 20
0.0489
 30
0.0
 10
1.87457
 20
0.0489
 30
0.0
 10
1.87457
 20
0.0079
 30
0.0
 10
1.87457
 20
0.0079
 30
0.0
  0
SPLINE
  5
52
330
1F
100
AcDbEntity
  8
Layer 1
 62
     5
370
     9
100
AcDbSpline
210
0.0
220
0.0
230
1.0
 70
    11
 71
     3
 72
    48
 73
    44
 74
     0
 42
0.0000000001
 43
0.0000000001
 12
1.0
 22
0.0
 32
0.0
 13
1.0
 23
0.0
 33
0.0
 40
0.0
 40
0.0
 40
0.0
 40
0.0
 40
0.0833333333333333
 40
0.0833333333333333
 40
0.0833333333333333
 40
0.0833333333333333
 40
0.1666666666666667
 40
0.1666666666666667
 40
0.1666666666666667
 40
0.1666666666666667
 40
0.25
 40
0.25
 40
0.25
 40
0.25
 40
0.3333333333333333
 40
0.3333333333333333
 40
0.3333333333333333
 40
0.3333333333333333
 40
0.4166666666666667
 40
0.4166666666666667
 40
0.4166666666666667
 40
0.4166666666666667
 40
0.5
 40
0.5
 40
0.5
 40
0.5
 40
0.5833333333333334
 40
0.5833333333333334
 40
0.5833333333333334
 40
0.5833333333333334
 40
0.6666666666666666
 40
0.6666666666666666
 40
0.6666666666666666
 40
0.6666666666666666
 40
0.75
 40
0.75
 40
0.75
 40
0.75
 40
0.8333333333333334
 40
0.8333333333333334
 40
0.8333333333333334
 40
0.8333333333333334
 40
1.0
 40
1.0
 40
1.0
 40
1.0
 10
1.94577
 20
0.0
 30
0.0
 10
1.94577
 20
0.0
 30
0.0
 10
1.94577
 20
0.38079
 30
0.0
 10
1.94577
 20
0.38079
 30
0.0
 10
1.94577
 20
0.38079
 30
0.0
 10
1.94577
 20
0.38079
 30
0.0
 10
1.99319
 20
0.38079
 30
0.0
 10
1.99319
 20
0.38079
 30
0.0
 10
1.99319
 20
0.38079
 30
0.0
 10
1.99319
 20
0.38079
 30
0.0
 10
1.99319
 20
0.13475
 30
0.0
 10
1.99319
 20
0.13475
 30
0.0
 10
1.99319
 20
0.13475
 30
0.0
 10
1.99319
 20
0.13475
 30
0.0
 10
2.10431
 20
0.26176
 30
0.0
 10
2.10431
 20
0.26176
 30
0.0
 10
2.10431
 20
0.26176
 30
0.0
 10
2.10431
 20
0.26176
 30
0.0
 10
2.15551
 20
0.26176
 30
0.0
 10
2.15551
 20
0.26176
 30
0.0
 10
2.15551
 20
0.26176
 30
0.0
 10
2.15551
 20
0.26176
 30
0.0
 10
2.04933
 20
0.13961
 30
0.0
 10
2.04933
 20
0.13961
 30
0.0
 10
2.04933
 20
0.13961
 30
0.0
 10
2.04933
 20
0.13961
 30
0.0
 10
2.17774
 20
0.0
 30
0.0
 10
2.17774
 20
0.0
 30
0.0
 10
2.17774
 20
0.0
 30
0.0
 10
2.17774
 20
0.0
 30
0.0
 10
2.11666
 20
0.0
 30
0.0
 10
2.11666
 20
0.0
 30
0.0
 10
2.11666
 20
0.0
 30
0.0
 10
2.11666
 20
0.0
 30
0.0
 10
1.99319
 20
0.13426
 30
0.0
 10
1.99319
 20
0.13426
 30
0.0
 10
1.99319
 20
0.13426
 30
0.0
 10
1.99319
 20
0.13426
 30
0.0
 10
1.99319
 20
0.0
 30
0.0
 10
1.99319
 20
0.0
 30
0.0
 10
1.99319
 20
0.0
 30
0.0
 10
1.99319
 20
0.0
 30
0.0
 10
1.94577
 20
0.0
 30
0.0
 10
1.94577
 20
0.0
 30
0.0
  0
SPLINE
  5
53
330
1F
100
AcDbEntity
  8
Layer 1
 62
     5
370
     9
100
AcDbSpline
210
0.0
220
0.0
230
1.0
 70
    11
 71
     3
 72
    80
 73
    76
 74
     0
 42
0.0000000001
 43
0.0000000001
 12
1.0
 22
0.0
 32
0.0
 13
1.0
 23
0.0
 33
0.0
 40
0.0
 40
0.0
 40
0.0
 40
0.0
 40
0.05
 40
0.05
 40
0.05
 40
0.05
 40
0.1
 40
0.1
 40
0.1
 40
0.1
 40
0.15
 40
0.15
 40
0.15
 40
0.15
 40
0.2
 40
0.2
 40
0.2
 40
0.2
 40
0.25
 40
0.25
 40
0.25
 40
0.25
 40
0.3
 40
0.3
 40
0.3
 40
0.3
 40
0.35
 40
0.35
 40
0.35
 40
0.35
 40
0.4
 40
0.4
 40
0.4
 40
0.4
 40
0.45
 40
0.45
 40
0.45
 40
0.45
 40
0.5
 40
0.5
 40
0.5
 40
0.5
 40
0.55
 40
0.55
 40
0.55
 40
0.55
 40
0.6
 40
0.6
 40
0.6
 40
0.6
 40
0.65
 40
0.65
 40
0.65
 40
0.65
 40
0.7
 40
0.7
 40
0.7
 40
0.7
 40
0.75
 40
0.75
 40
0.75
 40
0.75
 40
0.8
 40
0.8
 40
0.8
 40
0.8
 40
0.85
 40
0.85
 40
0.85
 40
0.85
 40
0.9
 40
0.9
 40
0.9
 40
0.9
 40
1.0
 40
1.0
 40
1.0
 40
1.0
 10
2.36938
 20
0.03334
 30
0.0
 10
2.3409
 20
0.00716
 30
0.0
 10
2.31349
 20
-0.00593
 30
0.0
 10
2.28715
 20
-0.00593
 30
0.0
 10
2.28715
 20
-0.00593
 30
0.0
 10
2.2655
 20
-0.00593
 30
0.0
 10
2.24747
 20
0.00082
 30
0.0
 10
2.23323
 20
0.01441
 30
0.0
 10
2.23323
 20
0.01441
 30
0.0
 10
2.21891
 20
0.02799
 30
0.0
 10
2.21174
 20
0.04511
 30
0.0
 10
2.21174
 20
0.06577
 30
0.0
 10
2.21174
 20
0.06577
 30
0.0
 10
2.21174
 20
0.09433
 30
0.0
 10
2.22376
 20
0.11631
 30
0.0
 10
2.2478
 20
0.13162
 30
0.0
 10
2.2478
 20
0.13162
 30
0.0
 10
2.27183
 20
0.14693
 30
0.0
 10
2.30632
 20
0.15459
 30
0.0
 10
2.35127
 20
0.15459
 30
0.0
 10
2.35127
 20
0.15459
 30
0.0
 10
2.35127
 20
0.15459
 30
0.0
 10
2.36238
 20
0.15459
 30
0.0
 10
2.36238
 20
0.15459
 30
0.0
 10
2.36238
 20
0.15459
 30
0.0
 10
2.36238
 20
0.15459
 30
0.0
 10
2.36238
 20
0.18611
 30
0.0
 10
2.36238
 20
0.18611
 30
0.0
 10
2.36238
 20
0.18611
 30
0.0
 10
2.36238
 20
0.21649
 30
0.0
 10
2.34658
 20
0.23163
 30
0.0
 10
2.31489
 20
0.23163
 30
0.0
 10
2.31489
 20
0.23163
 30
0.0
 10
2.29036
 20
0.23163
 30
0.0
 10
2.26352
 20
0.2239
 30
0.0
 10
2.23446
 20
0.20842
 30
0.0
 10
2.23446
 20
0.20842
 30
0.0
 10
2.23446
 20
0.20842
 30
0.0
 10
2.23446
 20
0.24744
 30
0.0
 10
2.23446
 20
0.24744
 30
0.0
 10
2.23446
 20
0.24744
 30
0.0
 10
2.2664
 20
0.26061
 30
0.0
 10
2.29653
 20
0.26719
 30
0.0
 10
2.32476
 20
0.26719
 30
0.0
 10
2.32476
 20
0.26719
 30
0.0
 10
2.35382
 20
0.26719
 30
0.0
 10
2.3753
 20
0.26061
 30
0.0
 10
2.38905
 20
0.24736
 30
0.0
 10
2.38905
 20
0.24736
 30
0.0
 10
2.40288
 20
0.2341
 30
0.0
 10
2.40979
 20
0.21369
 30
0.0
 10
2.40979
 20
0.18611
 30
0.0
 10
2.40979
 20
0.18611
 30
0.0
 10
2.40979
 20
0.18611
 30
0.0
 10
2.40979
 20
0.06783
 30
0.0
 10
2.40979
 20
0.06783
 30
0.0
 10
2.40979
 20
0.06783
 30
0.0
 10
2.40979
 20
0.04075
 30
0.0
 10
2.41811
 20
0.02716
 30
0.0
 10
2.43482
 20
0.02716
 30
0.0
 10
2.43482
 20
0.02716
 30
0.0
 10
2.43688
 20
0.02716
 30
0.0
 10
2.43992
 20
0.02749
 30
0.0
 10
2.44396
 20
0.02815
 30
0.0
 10
2.44396
 20
0.02815
 30
0.0
 10
2.44396
 20
0.02815
 30
0.0
 10
2.44733
 20
0.00181
 30
0.0
 10
2.44733
 20
0.00181
 30
0.0
 10
2.44733
 20
0.00181
 30
0.0
 10
2.43655
 20
-0.00337
 30
0.0
 10
2.42469
 20
-0.00593
 30
0.0
 10
2.41169
 20
-0.00593
 30
0.0
 10
2.41169
 20
-0.00593
 30
0.0
 10
2.38954
 20
-0.00593
 30
0.0
 10
2.37547
 20
0.00716
 30
0.0
 10
2.36938
 20
0.03334
 30
0.0
  0
SPLINE
  5
54
330
1F
100
AcDbEntity
  8
Layer 1
 62
     5
370
     9
100
AcDbSpline
210
0.0
220
0.0
230
1.0
 70
    11
 71
     3
 72
    32
 73
    28
 74
     0
 42
0.0000000001
 43
0.0000000001
 12
1.0
 22
0.0
 32
0.0
 13
1.0
 23
0.0
 33
0.0
 40
0.0
 40
0.0
 40
0.0
 40
0.0
 40
0.125
 40
0.125
 40
0.125
 40
0.125
 40
0.25
 40
0.25
 40
0.25
 40
0.25
 40
0.375
 40
0.375
 40
0.375
 40
0.375
 40
0.5
 40
0.5
 40
0.5
 40
0.5
 40
0.625
 40
0.625
 40
0.625
 40
0.625
 40
0.75
 40
0.75
 40
0.75
 40
0.75
 40
1.0
 40
1.0
 40
1.0
 40
1.0
 10
2.36238
 20
0.05918
 30
0.0
 10
2.36238
 20
0.05918
 30
0.0
 10
2.36238
 20
0.12644
 30
0.0
 10
2.36238
 20
0.12644
 30
0.0
 10
2.36238
 20
0.12644
 30
0.0
 10
2.36238
 20
0.12644
 30
0.0
 10
2.34715
 20
0.12693
 30
0.0
 10
2.34715
 20
0.12693
 30
0.0
 10
2.34715
 20
0.12693
 30
0.0
 10
2.32081
 20
0.12693
 30
0.0
 10
2.29957
 20
0.12207
 30
0.0
 10
2.28336
 20
0.11236
 30
0.0
 10
2.28336
 20
0.11236
 30
0.0
 10
2.26722
 20
0.10256
 30
0.0
 10
2.25916
 20
0.08964
 30
0.0
 10
2.25916
 20
0.07351
 30
0.0
 10
2.25916
 20
0.07351
 30
0.0
 10
2.25916
 20
0.06223
 30
0.0
 10
2.26319
 20
0.05268
 30
0.0
 10
2.27118
 20
0.04486
 30
0.0
 10
2.27118
 20
0.04486
 30
0.0
 10
2.27924
 20
0.03704
 30
0.0
 10
2.28904
 20
0.03309
 30
0.0
 10
2.30064
 20
0.03309
 30
0.0
 10
2.30064
 20
0.03309
 30
0.0
 10
2.3204
 20
0.03309
 30
0.0
 10
2.34098
 20
0.04182
 30
0.0
 10
2.36238
 20
0.05918
 30
0.0
  0
SPLINE
  5
55
330
1F
100
AcDbEntity
  8
Layer 1
 62
     5
370
     9
100
AcDbSpline
210
0.0
220
0.0
230
1.0
 70
    11
 71
     3
 72
    76
 73
    72
 74
     0
 42
0.0000000001
 43
0.0000000001
 12
1.0
 22
0.0
 32
0.0
 13
1.0
 23
0.0
 33
0.0
 40
0.0
 40
0.0
 40
0.0
 40
0.0
 40
0.0526315789473684
 40
0.0526315789473684
 40
0.0526315789473684
 40
0.0526315789473684
 40
0.1052631578947368
 40
0.1052631578947368
 40
0.1052631578947368
 40
0.1052631578947368
 40
0.1578947368421053
 40
0.1578947368421053
 40
0.1578947368421053
 40
0.1578947368421053
 40
0.2105263157894737
 40
0.2105263157894737
 40
0.2105263157894737
 40
0.2105263157894737
 40
0.2631578947368421
 40
0.2631578947368421
 40
0.2631578947368421
 40
0.2631578947368421
 40
0.3157894736842105
 40
0.3157894736842105
 40
0.3157894736842105
 40
0.3157894736842105
 40
0.3684210526315789
 40
0.3684210526315789
 40
0.3684210526315789
 40
0.3684210526315789
 40
0.4210526315789473
 40
0.4210526315789473
 40
0.4210526315789473
 40
0.4210526315789473
 40
0.4736842105263158
 40
0.4736842105263158
 40
0.4736842105263158
 40
0.4736842105263158
 40
0.5263157894736842
 40
0.5263157894736842
 40
0.5263157894736842
 40
0.5263157894736842
 40
0.5789473684210527
 40
0.5789473684210527
 40
0.5789473684210527
 40
0.5789473684210527
 40
0.631578947368421
 40
0.631578947368421
 40
0.631578947368421
 40
0.631578947368421
 40
0.6842105263157895
 40
0.6842105263157895
 40
0.6842105263157895
 40
0.6842105263157895
 40
0.7368421052631579
 40
0.7368421052631579
 40
0.7368421052631579
 40
0.7368421052631579
 40
0.7894736842105263
 40
0.7894736842105263
 40
0.7894736842105263
 40
0.7894736842105263
 40
0.8421052631578947
 40
0.8421052631578947
 40
0.8421052631578947
 40
0.8421052631578947
 40
0.8947368421052632
 40
0.8947368421052632
 40
0.8947368421052632
 40
0.8947368421052632
 40
1.0
 40
1.0
 40
1.0
 40
1.0
 10
2.50816
 20
-0.08692
 30
0.0
 10
2.50816
 20
-0.08692
 30
0.0
 10
2.51376
 20
-0.04593
 30
0.0
 10
2.51376
 20
-0.04593
 30
0.0
 10
2.51376
 20
-0.04593
 30
0.0
 10
2.54125
 20
-0.05877
 30
0.0
 10
2.5685
 20
-0.06519
 30
0.0
 10
2.59542
 20
-0.06519
 30
0.0
 10
2.59542
 20
-0.06519
 30
0.0
 10
2.64884
 20
-0.06519
 30
0.0
 10
2.67559
 20
-0.03688
 30
0.0
 10
2.67559
 20
0.01967
 30
0.0
 10
2.67559
 20
0.01967
 30
0.0
 10
2.67559
 20
0.01967
 30
0.0
 10
2.67559
 20
0.06083
 30
0.0
 10
2.67559
 20
0.06083
 30
0.0
 10
2.67559
 20
0.06083
 30
0.0
 10
2.66736
 20
0.04346
 30
0.0
 10
2.65567
 20
0.03004
 30
0.0
 10
2.64044
 20
0.02041
 30
0.0
 10
2.64044
 20
0.02041
 30
0.0
 10
2.62521
 20
0.01078
 30
0.0
 10
2.60826
 20
0.00593
 30
0.0
 10
2.58957
 20
0.00593
 30
0.0
 10
2.58957
 20
0.00593
 30
0.0
 10
2.55788
 20
0.00593
 30
0.0
 10
2.53277
 20
0.01729
 30
0.0
 10
2.51425
 20
0.04001
 30
0.0
 10
2.51425
 20
0.04001
 30
0.0
 10
2.49573
 20
0.06272
 30
0.0
 10
2.48643
 20
0.09351
 30
0.0
 10
2.48643
 20
0.13236
 30
0.0
 10
2.48643
 20
0.13236
 30
0.0
 10
2.48643
 20
0.17212
 30
0.0
 10
2.49697
 20
0.20455
 30
0.0
 10
2.51804
 20
0.22966
 30
0.0
 10
2.51804
 20
0.22966
 30
0.0
 10
2.53919
 20
0.25468
 30
0.0
 10
2.56644
 20
0.26719
 30
0.0
 10
2.59994
 20
0.26719
 30
0.0
 10
2.59994
 20
0.26719
 30
0.0
 10
2.62925
 20
0.26719
 30
0.0
 10
2.65452
 20
0.25534
 30
0.0
 10
2.67559
 20
0.23155
 30
0.0
 10
2.67559
 20
0.23155
 30
0.0
 10
2.67559
 20
0.23155
 30
0.0
 10
2.67559
 20
0.26176
 30
0.0
 10
2.67559
 20
0.26176
 30
0.0
 10
2.67559
 20
0.26176
 30
0.0
 10
2.67559
 20
0.26176
 30
0.0
 10
2.723
 20
0.26176
 30
0.0
 10
2.723
 20
0.26176
 30
0.0
 10
2.723
 20
0.26176
 30
0.0
 10
2.723
 20
0.26176
 30
0.0
 10
2.723
 20
0.07145
 30
0.0
 10
2.723
 20
0.07145
 30
0.0
 10
2.723
 20
0.07145
 30
0.0
 10
2.723
 20
0.03054
 30
0.0
 10
2.72086
 20
0.00025
 30
0.0
 10
2.71658
 20
-0.01943
 30
0.0
 10
2.71658
 20
-0.01943
 30
0.0
 10
2.71238
 20
-0.0391
 30
0.0
 10
2.70432
 20
-0.05523
 30
0.0
 10
2.69263
 20
-0.06775
 30
0.0
 10
2.69263
 20
-0.06775
 30
0.0
 10
2.67189
 20
-0.08972
 30
0.0
 10
2.63945
 20
-0.10075
 30
0.0
 10
2.59542
 20
-0.10075
 30
0.0
 10
2.59542
 20
-0.10075
 30
0.0
 10
2.56521
 20
-0.10075
 30
0.0
 10
2.53615
 20
-0.09614
 30
0.0
 10
2.50816
 20
-0.08692
 30
0.0
  0
SPLINE
  5
56
330
1F
100
AcDbEntity
  8
Layer 1
 62
     5
370
     9
100
AcDbSpline
210
0.0
220
0.0
230
1.0
 70
    11
 71
     3
 72
    28
 73
    24
 74
     0
 42
0.0000000001
 43
0.0000000001
 12
1.0
 22
0.0
 32
0.0
 13
1.0
 23
0.0
 33
0.0
 40
0.0
 40
0.0
 40
0.0
 40
0.0
 40
0.1428571428571428
 40
0.1428571428571428
 40
0.1428571428571428
 40
0.1428571428571428
 40
0.2857142857142857
 40
0.2857142857142857
 40
0.2857142857142857
 40
0.2857142857142857
 40
0.4285714285714285
 40
0.4285714285714285
 40
0.4285714285714285
 40
0.4285714285714285
 40
0.5714285714285714
 40
0.5714285714285714
 40
0.5714285714285714
 40
0.5714285714285714
 40
0.7142857142857143
 40
0.7142857142857143
 40
0.7142857142857143
 40
0.7142857142857143
 40
1.0
 40
1.0
 40
1.0
 40
1.0
 10
2.67559
 20
0.09055
 30
0.0
 10
2.67559
 20
0.09055
 30
0.0
 10
2.67559
 20
0.19912
 30
0.0
 10
2.67559
 20
0.19912
 30
0.0
 10
2.67559
 20
0.19912
 30
0.0
 10
2.65468
 20
0.22077
 30
0.0
 10
2.63188
 20
0.23163
 30
0.0
 10
2.60727
 20
0.23163
 30
0.0
 10
2.60727
 20
0.23163
 30
0.0
 10
2.58537
 20
0.23163
 30
0.0
 10
2.56825
 20
0.22291
 30
0.0
 10
2.5559
 20
0.20538
 30
0.0
 10
2.5559
 20
0.20538
 30
0.0
 10
2.54347
 20
0.18793
 30
0.0
 10
2.5373
 20
0.16364
 30
0.0
 10
2.5373
 20
0.13269
 30
0.0
 10
2.5373
 20
0.13269
 30
0.0
 10
2.5373
 20
0.07581
 30
0.0
 10
2.55747
 20
0.04741
 30
0.0
 10
2.59788
 20
0.04741
 30
0.0
 10
2.59788
 20
0.04741
 30
0.0
 10
2.62538
 20
0.04741
 30
0.0
 10
2.65131
 20
0.06182
 30
0.0
 10
2.67559
 20
0.09055
 30
0.0
  0
SPLINE
  5
57
330
1F
100
AcDbEntity
  8
Layer 1
 62
     5
370
     9
100
AcDbSpline
210
0.0
220
0.0
230
1.0
 70
    11
 71
     3
 72
    20
 73
    16
 74
     0
 42
0.0000000001
 43
0.0000000001
 12
1.0
 22
0.0
 32
0.0
 13
1.0
 23
0.0
 33
0.0
 40
0.0
 40
0.0
 40
0.0
 40
0.0
 40
0.2
 40
0.2
 40
0.2
 40
0.2
 40
0.4
 40
0.4
 40
0.4
 40
0.4
 40
0.6
 40
0.6
 40
0.6
 40
0.6
 40
1.0
 40
1.0
 40
1.0
 40
1.0
 10
2.81511
 20
0.0
 30
0.0
 10
2.81511
 20
0.0
 30
0.0
 10
2.81511
 20
0.26176
 30
0.0
 10
2.81511
 20
0.26176
 30
0.0
 10
2.81511
 20
0.26176
 30
0.0
 10
2.81511
 20
0.26176
 30
0.0
 10
2.86253
 20
0.26176
 30
0.0
 10
2.86253
 20
0.26176
 30
0.0
 10
2.86253
 20
0.26176
 30
0.0
 10
2.86253
 20
0.26176
 30
0.0
 10
2.86253
 20
0.0
 30
0.0
 10
2.86253
 20
0.0
 30
0.0
 10
2.86253
 20
0.0
 30
0.0
 10
2.86253
 20
0.0
 30
0.0
 10
2.81511
 20
0.0
 30
0.0
 10
2.81511
 20
0.0
 30
0.0
  0
SPLINE
  5
58
330
1F
100
AcDbEntity
  8
Layer 1
 62
     5
370
     9
100
AcDbSpline
210
0.0
220
0.0
230
1.0
 70
    11
 71
     3
 72
    20
 73
    16
 74
     0
 42
0.0000000001
 43
0.0000000001
 12
1.0
 22
0.0
 32
0.0
 13
1.0
 23
0.0
 33
0.0
 40
0.0
 40
0.0
 40
0.0
 40
0.0
 40
0.2
 40
0.2
 40
0.2
 40
0.2
 40
0.4
 40
0.4
 40
0.4
 40
0.4
 40
0.6
 40
0.6
 40
0.6
 40
0.6
 40
1.0
 40
1.0
 40
1.0
 40
1.0
 10
2.81511
 20
0.30967
 30
0.0
 10
2.81511
 20
0.30967
 30
0.0
 10
2.81511
 20
0.35708
 30
0.0
 10
2.81511
 20
0.35708
 30
0.0
 10
2.81511
 20
0.35708
 30
0.0
 10
2.81511
 20
0.35708
 30
0.0
 10
2.86253
 20
0.35708
 30
0.0
 10
2.86253
 20
0.35708
 30
0.0
 10
2.86253
 20
0.35708
 30
0.0
 10
2.86253
 20
0.35708
 30
0.0
 10
2.86253
 20
0.30967
 30
0.0
 10
2.86253
 20
0.30967
 30
0.0
 10
2.86253
 20
0.30967
 30
0.0
 10
2.86253
 20
0.30967
 30
0.0
 10
2.81511
 20
0.30967
 30
0.0
 10
2.81511
 20
0.30967
 30
0.0
  0
SPLINE
  5
59
330
1F
100
AcDbEntity
  8
Layer 1
 62
     5
370
     9
100
AcDbSpline
210
0.0
220
0.0
230
1.0
 70
    11
 71
     3
 72
    60
 73
    56
 74
     0
 42
0.0000000001
 43
0.0000000001
 12
1.0
 22
0.0
 32
0.0
 13
1.0
 23
0.0
 33
0.0
 40
0.0
 40
0.0
 40
0.0
 40
0.0
 40
0.0666666666666667
 40
0.0666666666666667
 40
0.0666666666666667
 40
0.0666666666666667
 40
0.1333333333333333
 40
0.1333333333333333
 40
0.1333333333333333
 40
0.1333333333333333
 40
0.2
 40
0.2
 40
0.2
 40
0.2
 40
0.2666666666666667
 40
0.2666666666666667
 40
0.2666666666666667
 40
0.2666666666666667
 40
0.3333333333333333
 40
0.3333333333333333
 40
0.3333333333333333
 40
0.3333333333333333
 40
0.4
 40
0.4
 40
0.4
 40
0.4
 40
0.4666666666666667
 40
0.4666666666666667
 40
0.4666666666666667
 40
0.4666666666666667
 40
0.5333333333333333
 40
0.5333333333333333
 40
0.5333333333333333
 40
0.5333333333333333
 40
0.6
 40
0.6
 40
0.6
 40
0.6
 40
0.6666666666666666
 40
0.6666666666666666
 40
0.6666666666666666
 40
0.6666666666666666
 40
0.7333333333333333
 40
0.7333333333333333
 40
0.7333333333333333
 40
0.7333333333333333
 40
0.8
 40
0.8
 40
0.8
 40
0.8
 40
0.8666666666666667
 40
0.8666666666666667
 40
0.8666666666666667
 40
0.8666666666666667
 40
1.0
 40
1.0
 40
1.0
 40
1.0
 10
2.95784
 20
0.0
 30
0.0
 10
2.95784
 20
0.0
 30
0.0
 10
2.95784
 20
0.26176
 30
0.0
 10
2.95784
 20
0.26176
 30
0.0
 10
2.95784
 20
0.26176
 30
0.0
 10
2.95784
 20
0.26176
 30
0.0
 10
3.00526
 20
0.26176
 30
0.0
 10
3.00526
 20
0.26176
 30
0.0
 10
3.00526
 20
0.26176
 30
0.0
 10
3.00526
 20
0.26176
 30
0.0
 10
3.00526
 20
0.21229
 30
0.0
 10
3.00526
 20
0.21229
 30
0.0
 10
3.00526
 20
0.21229
 30
0.0
 10
3.03036
 20
0.24892
 30
0.0
 10
3.06115
 20
0.26719
 30
0.0
 10
3.09753
 20
0.26719
 30
0.0
 10
3.09753
 20
0.26719
 30
0.0
 10
3.12042
 20
0.26719
 30
0.0
 10
3.13861
 20
0.26003
 30
0.0
 10
3.15202
 20
0.24563
 30
0.0
 10
3.15202
 20
0.24563
 30
0.0
 10
3.16544
 20
0.23131
 30
0.0
 10
3.17219
 20
0.21196
 30
0.0
 10
3.17219
 20
0.18776
 30
0.0
 10
3.17219
 20
0.18776
 30
0.0
 10
3.17219
 20
0.18776
 30
0.0
 10
3.17219
 20
0.0
 30
0.0
 10
3.17219
 20
0.0
 30
0.0
 10
3.17219
 20
0.0
 30
0.0
 10
3.17219
 20
0.0
 30
0.0
 10
3.12478
 20
0.0
 30
0.0
 10
3.12478
 20
0.0
 30
0.0
 10
3.12478
 20
0.0
 30
0.0
 10
3.12478
 20
0.0
 30
0.0
 10
3.12478
 20
0.17229
 30
0.0
 10
3.12478
 20
0.17229
 30
0.0
 10
3.12478
 20
0.17229
 30
0.0
 10
3.12478
 20
0.19171
 30
0.0
 10
3.1219
 20
0.20554
 30
0.0
 10
3.11622
 20
0.21377
 30
0.0
 10
3.11622
 20
0.21377
 30
0.0
 10
3.11046
 20
0.22209
 30
0.0
 10
3.10099
 20
0.2262
 30
0.0
 10
3.08774
 20
0.2262
 30
0.0
 10
3.08774
 20
0.2262
 30
0.0
 10
3.0586
 20
0.2262
 30
0.0
 10
3.0311
 20
0.20719
 30
0.0
 10
3.00526
 20
0.16916
 30
0.0
 10
3.00526
 20
0.16916
 30
0.0
 10
3.00526
 20
0.16916
 30
0.0
 10
3.00526
 20
0.0
 30
0.0
 10
3.00526
 20
0.0
 30
0.0
 10
3.00526
 20
0.0
 30
0.0
 10
3.00526
 20
0.0
 30
0.0
 10
2.95784
 20
0.0
 30
0.0
 10
2.95784
 20
0.0
 30
0.0
  0
SPLINE
  5
5A
330
1F
100
AcDbEntity
  8
Layer 1
 62
     5
370
     9
100
AcDbSpline
210
0.0
220
0.0
230
1.0
 70
    11
 71
     3
 72
    76
 73
    72
 74
     0
 42
0.0000000001
 43
0.0000000001
 12
1.0
 22
0.0
 32
0.0
 13
1.0
 23
0.0
 33
0.0
 40
0.0
 40
0.0
 40
0.0
 40
0.0
 40
0.0526315789473684
 40
0.0526315789473684
 40
0.0526315789473684
 40
0.0526315789473684
 40
0.1052631578947368
 40
0.1052631578947368
 40
0.1052631578947368
 40
0.1052631578947368
 40
0.1578947368421053
 40
0.1578947368421053
 40
0.1578947368421053
 40
0.1578947368421053
 40
0.2105263157894737
 40
0.2105263157894737
 40
0.2105263157894737
 40
0.2105263157894737
 40
0.2631578947368421
 40
0.2631578947368421
 40
0.2631578947368421
 40
0.2631578947368421
 40
0.3157894736842105
 40
0.3157894736842105
 40
0.3157894736842105
 40
0.3157894736842105
 40
0.3684210526315789
 40
0.3684210526315789
 40
0.3684210526315789
 40
0.3684210526315789
 40
0.4210526315789473
 40
0.4210526315789473
 40
0.4210526315789473
 40
0.4210526315789473
 40
0.4736842105263158
 40
0.4736842105263158
 40
0.4736842105263158
 40
0.4736842105263158
 40
0.5263157894736842
 40
0.5263157894736842
 40
0.5263157894736842
 40
0.5263157894736842
 40
0.5789473684210527
 40
0.5789473684210527
 40
0.5789473684210527
 40
0.5789473684210527
 40
0.631578947368421
 40
0.631578947368421
 40
0.631578947368421
 40
0.631578947368421
 40
0.6842105263157895
 40
0.6842105263157895
 40
0.6842105263157895
 40
0.6842105263157895
 40
0.7368421052631579
 40
0.7368421052631579
 40
0.7368421052631579
 40
0.7368421052631579
 40
0.7894736842105263
 40
0.7894736842105263
 40
0.7894736842105263
 40
0.7894736842105263
 40
0.8421052631578947
 40
0.8421052631578947
 40
0.8421052631578947
 40
0.8421052631578947
 40
0.8947368421052632
 40
0.8947368421052632
 40
0.8947368421052632
 40
0.8947368421052632
 40
1.0
 40
1.0
 40
1.0
 40
1.0
 10
3.26537
 20
-0.08692
 30
0.0
 10
3.26537
 20
-0.08692
 30
0.0
 10
3.27097
 20
-0.04593
 30
0.0
 10
3.27097
 20
-0.04593
 30
0.0
 10
3.27097
 20
-0.04593
 30
0.0
 10
3.29846
 20
-0.05877
 30
0.0
 10
3.32571
 20
-0.06519
 30
0.0
 10
3.35263
 20
-0.06519
 30
0.0
 10
3.35263
 20
-0.06519
 30
0.0
 10
3.40605
 20
-0.06519
 30
0.0
 10
3.4328
 20
-0.03688
 30
0.0
 10
3.4328
 20
0.01967
 30
0.0
 10
3.4328
 20
0.01967
 30
0.0
 10
3.4328
 20
0.01967
 30
0.0
 10
3.4328
 20
0.06083
 30
0.0
 10
3.4328
 20
0.06083
 30
0.0
 10
3.4328
 20
0.06083
 30
0.0
 10
3.42457
 20
0.04346
 30
0.0
 10
3.41288
 20
0.03004
 30
0.0
 10
3.39765
 20
0.02041
 30
0.0
 10
3.39765
 20
0.02041
 30
0.0
 10
3.38242
 20
0.01078
 30
0.0
 10
3.36547
 20
0.00593
 30
0.0
 10
3.34678
 20
0.00593
 30
0.0
 10
3.34678
 20
0.00593
 30
0.0
 10
3.31509
 20
0.00593
 30
0.0
 10
3.28998
 20
0.01729
 30
0.0
 10
3.27146
 20
0.04001
 30
0.0
 10
3.27146
 20
0.04001
 30
0.0
 10
3.25294
 20
0.06272
 30
0.0
 10
3.24364
 20
0.09351
 30
0.0
 10
3.24364
 20
0.13236
 30
0.0
 10
3.24364
 20
0.13236
 30
0.0
 10
3.24364
 20
0.17212
 30
0.0
 10
3.25418
 20
0.20455
 30
0.0
 10
3.27525
 20
0.22966
 30
0.0
 10
3.27525
 20
0.22966
 30
0.0
 10
3.2964
 20
0.25468
 30
0.0
 10
3.32365
 20
0.26719
 30
0.0
 10
3.35715
 20
0.26719
 30
0.0
 10
3.35715
 20
0.26719
 30
0.0
 10
3.38646
 20
0.26719
 30
0.0
 10
3.41173
 20
0.25534
 30
0.0
 10
3.4328
 20
0.23155
 30
0.0
 10
3.4328
 20
0.23155
 30
0.0
 10
3.4328
 20
0.23155
 30
0.0
 10
3.4328
 20
0.26176
 30
0.0
 10
3.4328
 20
0.26176
 30
0.0
 10
3.4328
 20
0.26176
 30
0.0
 10
3.4328
 20
0.26176
 30
0.0
 10
3.48021
 20
0.26176
 30
0.0
 10
3.48021
 20
0.26176
 30
0.0
 10
3.48021
 20
0.26176
 30
0.0
 10
3.48021
 20
0.26176
 30
0.0
 10
3.48021
 20
0.07145
 30
0.0
 10
3.48021
 20
0.07145
 30
0.0
 10
3.48021
 20
0.07145
 30
0.0
 10
3.48021
 20
0.03054
 30
0.0
 10
3.47807
 20
0.00025
 30
0.0
 10
3.47379
 20
-0.01943
 30
0.0
 10
3.47379
 20
-0.01943
 30
0.0
 10
3.46959
 20
-0.0391
 30
0.0
 10
3.46153
 20
-0.05523
 30
0.0
 10
3.44984
 20
-0.06775
 30
0.0
 10
3.44984
 20
-0.06775
 30
0.0
 10
3.4291
 20
-0.08972
 30
0.0
 10
3.39666
 20
-0.10075
 30
0.0
 10
3.35263
 20
-0.10075
 30
0.0
 10
3.35263
 20
-0.10075
 30
0.0
 10
3.32242
 20
-0.10075
 30
0.0
 10
3.29336
 20
-0.09614
 30
0.0
 10
3.26537
 20
-0.08692
 30
0.0
  0
SPLINE
  5
5B
330
1F
100
AcDbEntity
  8
Layer 1
 62
     5
370
     9
100
AcDbSpline
210
0.0
220
0.0
230
1.0
 70
    11
 71
     3
 72
    28
 73
    24
 74
     0
 42
0.0000000001
 43
0.0000000001
 12
1.0
 22
0.0
 32
0.0
 13
1.0
 23
0.0
 33
0.0
 40
0.0
 40
0.0
 40
0.0
 40
0.0
 40
0.1428571428571428
 40
0.1428571428571428
 40
0.1428571428571428
 40
0.1428571428571428
 40
0.2857142857142857
 40
0.2857142857142857
 40
0.2857142857142857
 40
0.2857142857142857
 40
0.4285714285714285
 40
0.4285714285714285
 40
0.4285714285714285
 40
0.4285714285714285
 40
0.5714285714285714
 40
0.5714285714285714
 40
0.5714285714285714
 40
0.5714285714285714
 40
0.7142857142857143
 40
0.7142857142857143
 40
0.7142857142857143
 40
0.7142857142857143
 40
1.0
 40
1.0
 40
1.0
 40
1.0
 10
3.4328
 20
0.09055
 30
0.0
 10
3.4328
 20
0.09055
 30
0.0
 10
3.4328
 20
0.19912
 30
0.0
 10
3.4328
 20
0.19912
 30
0.0
 10
3.4328
 20
0.19912
 30
0.0
 10
3.41189
 20
0.22077
 30
0.0
 10
3.38909
 20
0.23163
 30
0.0
 10
3.36448
 20
0.23163
 30
0.0
 10
3.36448
 20
0.23163
 30
0.0
 10
3.34258
 20
0.23163
 30
0.0
 10
3.32546
 20
0.22291
 30
0.0
 10
3.31311
 20
0.20538
 30
0.0
 10
3.31311
 20
0.20538
 30
0.0
 10
3.30068
 20
0.18793
 30
0.0
 10
3.29451
 20
0.16364
 30
0.0
 10
3.29451
 20
0.13269
 30
0.0
 10
3.29451
 20
0.13269
 30
0.0
 10
3.29451
 20
0.07581
 30
0.0
 10
3.31468
 20
0.04741
 30
0.0
 10
3.35509
 20
0.04741
 30
0.0
 10
3.35509
 20
0.04741
 30
0.0
 10
3.38259
 20
0.04741
 30
0.0
 10
3.40852
 20
0.06182
 30
0.0
 10
3.4328
 20
0.09055
 30
0.0
  0
SPLINE
  5
5C
330
1F
100
AcDbEntity
  8
Layer 1
 62
     5
370
     9
100
AcDbSpline
210
0.0
220
0.0
230
1.0
 70
    11
 71
     3
 72
    20
 73
    16
 74
     0
 42
0.0000000001
 43
0.0000000001
 12
1.0
 22
0.0
 32
0.0
 13
1.0
 23
0.0
 33
0.0
 40
0.0
 40
0.0
 40
0.0
 40
0.0
 40
0.2
 40
0.2
 40
0.2
 40
0.2
 40
0.4
 40
0.4
 40
0.4
 40
0.4
 40
0.6
 40
0.6
 40
0.6
 40
0.6
 40
1.0
 40
1.0
 40
1.0
 40
1.0
 10
3.54565
 20
-0.03556
 30
0.0
 10
3.54565
 20
-0.03556
 30
0.0
 10
3.54565
 20
0.0
 30
0.0
 10
3.54565
 20
0.0
 30
0.0
 10
3.54565
 20
0.0
 30
0.0
 10
3.54565
 20
0.0
 30
0.0
 10
3.75111
 20
0.0
 30
0.0
 10
3.75111
 20
0.0
 30
0.0
 10
3.75111
 20
0.0
 30
0.0
 10
3.75111
 20
0.0
 30
0.0
 10
3.75111
 20
-0.03556
 30
0.0
 10
3.75111
 20
-0.03556
 30
0.0
 10
3.75111
 20
-0.03556
 30
0.0
 10
3.75111
 20
-0.03556
 30
0.0
 10
3.54565
 20
-0.03556
 30
0.0
 10
3.54565
 20
-0.03556
 30
0.0
  0
SPLINE
  5
5D
330
1F
100
AcDbEntity
  8
Layer 1
 62
     5
370
     9
100
AcDbSpline
210
0.0
220
0.0
230
1.0
 70
    11
 71
     3
 72
    56
 73
    52
 74
     0
 42
0.0000000001
 43
0.0000000001
 12
1.0
 22
0.0
 32
0.0
 13
1.0
 23
0.0
 33
0.0
 40
0.0
 40
0.0
 40
0.0
 40
0.0
 40
0.0714285714285714
 40
0.0714285714285714
 40
0.0714285714285714
 40
0.0714285714285714
 40
0.1428571428571428
 40
0.1428571428571428
 40
0.1428571428571428
 40
0.1428571428571428
 40
0.2142857142857143
 40
0.2142857142857143
 40
0.2142857142857143
 40
0.2142857142857143
 40
0.2857142857142857
 40
0.2857142857142857
 40
0.2857142857142857
 40
0.2857142857142857
 40
0.3571428571428572
 40
0.3571428571428572
 40
0.3571428571428572
 40
0.3571428571428572
 40
0.4285714285714285
 40
0.4285714285714285
 40
0.4285714285714285
 40
0.4285714285714285
 40
0.5
 40
0.5
 40
0.5
 40
0.5
 40
0.5714285714285714
 40
0.5714285714285714
 40
0.5714285714285714
 40
0.5714285714285714
 40
0.6428571428571429
 40
0.6428571428571429
 40
0.6428571428571429
 40
0.6428571428571429
 40
0.7142857142857143
 40
0.7142857142857143
 40
0.7142857142857143
 40
0.7142857142857143
 40
0.7857142857142857
 40
0.7857142857142857
 40
0.7857142857142857
 40
0.7857142857142857
 40
0.8571428571428571
 40
0.8571428571428571
 40
0.8571428571428571
 40
0.8571428571428571
 40
1.0
 40
1.0
 40
1.0
 40
1.0
 10
3.8499
 20
0.0
 30
0.0
 10
3.8499
 20
0.0
 30
0.0
 10
3.77482
 20
0.26176
 30
0.0
 10
3.77482
 20
0.26176
 30
0.0
 10
3.77482
 20
0.26176
 30
0.0
 10
3.77482
 20
0.26176
 30
0.0
 10
3.82109
 20
0.26176
 30
0.0
 10
3.82109
 20
0.26176
 30
0.0
 10
3.82109
 20
0.26176
 30
0.0
 10
3.82109
 20
0.26176
 30
0.0
 10
3.87863
 20
0.05853
 30
0.0
 10
3.87863
 20
0.05853
 30
0.0
 10
3.87863
 20
0.05853
 30
0.0
 10
3.87863
 20
0.05853
 30
0.0
 10
3.9407
 20
0.26176
 30
0.0
 10
3.9407
 20
0.26176
 30
0.0
 10
3.9407
 20
0.26176
 30
0.0
 10
3.9407
 20
0.26176
 30
0.0
 10
3.98811
 20
0.26176
 30
0.0
 10
3.98811
 20
0.26176
 30
0.0
 10
3.98811
 20
0.26176
 30
0.0
 10
3.98811
 20
0.26176
 30
0.0
 10
4.04269
 20
0.05886
 30
0.0
 10
4.04269
 20
0.05886
 30
0.0
 10
4.04269
 20
0.05886
 30
0.0
 10
4.04269
 20
0.05886
 30
0.0
 10
4.1087
 20
0.26176
 30
0.0
 10
4.1087
 20
0.26176
 30
0.0
 10
4.1087
 20
0.26176
 30
0.0
 10
4.1087
 20
0.26176
 30
0.0
 10
4.1492
 20
0.26176
 30
0.0
 10
4.1492
 20
0.26176
 30
0.0
 10
4.1492
 20
0.26176
 30
0.0
 10
4.1492
 20
0.26176
 30
0.0
 10
4.06376
 20
0.0
 30
0.0
 10
4.06376
 20
0.0
 30
0.0
 10
4.06376
 20
0.0
 30
0.0
 10
4.06376
 20
0.0
 30
0.0
 10
4.01635
 20
0.0
 30
0.0
 10
4.01635
 20
0.0
 30
0.0
 10
4.01635
 20
0.0
 30
0.0
 10
4.01635
 20
0.0
 30
0.0
 10
3.96021
 20
0.20414
 30
0.0
 10
3.96021
 20
0.20414
 30
0.0
 10
3.96021
 20
0.20414
 30
0.0
 10
3.96021
 20
0.20414
 30
0.0
 10
3.89732
 20
0.0
 30
0.0
 10
3.89732
 20
0.0
 30
0.0
 10
3.89732
 20
0.0
 30
0.0
 10
3.89732
 20
0.0
 30
0.0
 10
3.8499
 20
0.0
 30
0.0
 10
3.8499
 20
0.0
 30
0.0
  0
SPLINE
  5
5E
330
1F
100
AcDbEntity
  8
Layer 1
 62
     5
370
     9
100
AcDbSpline
210
0.0
220
0.0
230
1.0
 70
    11
 71
     3
 72
    36
 73
    32
 74
     0
 42
0.0000000001
 43
0.0000000001
 12
1.0
 22
0.0
 32
0.0
 13
1.0
 23
0.0
 33
0.0
 40
0.0
 40
0.0
 40
0.0
 40
0.0
 40
0.1111111111111111
 40
0.1111111111111111
 40
0.1111111111111111
 40
0.1111111111111111
 40
0.2222222222222222
 40
0.2222222222222222
 40
0.2222222222222222
 40
0.2222222222222222
 40
0.3333333333333333
 40
0.3333333333333333
 40
0.3333333333333333
 40
0.3333333333333333
 40
0.4444444444444444
 40
0.4444444444444444
 40
0.4444444444444444
 40
0.4444444444444444
 40
0.5555555555555556
 40
0.5555555555555556
 40
0.5555555555555556
 40
0.5555555555555556
 40
0.6666666666666666
 40
0.6666666666666666
 40
0.6666666666666666
 40
0.6666666666666666
 40
0.7777777777777778
 40
0.7777777777777778
 40
0.7777777777777778
 40
0.7777777777777778
 40
1.0
 40
1.0
 40
1.0
 40
1.0
 10
4.30403
 20
-0.00593
 30
0.0
 10
4.26559
 20
-0.00593
 30
0.0
 10
4.23514
 20
0.00634
 30
0.0
 10
4.21275
 20
0.03087
 30
0.0
 10
4.21275
 20
0.03087
 30
0.0
 10
4.19027
 20
0.0554
 30
0.0
 10
4.17908
 20
0.08874
 30
0.0
 10
4.17908
 20
0.1308
 30
0.0
 10
4.17908
 20
0.1308
 30
0.0
 10
4.17908
 20
0.17278
 30
0.0
 10
4.19027
 20
0.20603
 30
0.0
 10
4.21275
 20
0.23048
 30
0.0
 10
4.21275
 20
0.23048
 30
0.0
 10
4.23514
 20
0.25493
 30
0.0
 10
4.26559
 20
0.26719
 30
0.0
 10
4.30403
 20
0.26719
 30
0.0
 10
4.30403
 20
0.26719
 30
0.0
 10
4.34248
 20
0.26719
 30
0.0
 10
4.37293
 20
0.25493
 30
0.0
 10
4.39532
 20
0.23048
 30
0.0
 10
4.39532
 20
0.23048
 30
0.0
 10
4.41779
 20
0.20603
 30
0.0
 10
4.42899
 20
0.17278
 30
0.0
 10
4.42899
 20
0.1308
 30
0.0
 10
4.42899
 20
0.1308
 30
0.0
 10
4.42899
 20
0.08874
 30
0.0
 10
4.41779
 20
0.0554
 30
0.0
 10
4.39532
 20
0.03087
 30
0.0
 10
4.39532
 20
0.03087
 30
0.0
 10
4.37293
 20
0.00634
 30
0.0
 10
4.34248
 20
-0.00593
 30
0.0
 10
4.30403
 20
-0.00593
 30
0.0
  0
SPLINE
  5
5F
330
1F
100
AcDbEntity
  8
Layer 1
 62
     5
370
     9
100
AcDbSpline
210
0.0
220
0.0
230
1.0
 70
    11
 71
     3
 72
    36
 73
    32
 74
     0
 42
0.0000000001
 43
0.0000000001
 12
1.0
 22
0.0
 32
0.0
 13
1.0
 23
0.0
 33
0.0
 40
0.0
 40
0.0
 40
0.0
 40
0.0
 40
0.1111111111111111
 40
0.1111111111111111
 40
0.1111111111111111
 40
0.1111111111111111
 40
0.2222222222222222
 40
0.2222222222222222
 40
0.2222222222222222
 40
0.2222222222222222
 40
0.3333333333333333
 40
0.3333333333333333
 40
0.3333333333333333
 40
0.3333333333333333
 40
0.4444444444444444
 40
0.4444444444444444
 40
0.4444444444444444
 40
0.4444444444444444
 40
0.5555555555555556
 40
0.5555555555555556
 40
0.5555555555555556
 40
0.5555555555555556
 40
0.6666666666666666
 40
0.6666666666666666
 40
0.6666666666666666
 40
0.6666666666666666
 40
0.7777777777777778
 40
0.7777777777777778
 40
0.7777777777777778
 40
0.7777777777777778
 40
1.0
 40
1.0
 40
1.0
 40
1.0
 10
4.30395
 20
0.02963
 30
0.0
 10
4.32741
 20
0.02963
 30
0.0
 10
4.34569
 20
0.03844
 30
0.0
 10
4.35869
 20
0.05614
 30
0.0
 10
4.35869
 20
0.05614
 30
0.0
 10
4.37161
 20
0.07375
 30
0.0
 10
4.37812
 20
0.0987
 30
0.0
 10
4.37812
 20
0.1308
 30
0.0
 10
4.37812
 20
0.1308
 30
0.0
 10
4.37812
 20
0.16282
 30
0.0
 10
4.37161
 20
0.18768
 30
0.0
 10
4.35869
 20
0.20529
 30
0.0
 10
4.35869
 20
0.20529
 30
0.0
 10
4.34569
 20
0.22283
 30
0.0
 10
4.32741
 20
0.23163
 30
0.0
 10
4.30395
 20
0.23163
 30
0.0
 10
4.30395
 20
0.23163
 30
0.0
 10
4.28041
 20
0.23163
 30
0.0
 10
4.26214
 20
0.22283
 30
0.0
 10
4.24929
 20
0.20529
 30
0.0
 10
4.24929
 20
0.20529
 30
0.0
 10
4.23637
 20
0.18768
 30
0.0
 10
4.22995
 20
0.16282
 30
0.0
 10
4.22995
 20
0.1308
 30
0.0
 10
4.22995
 20
0.1308
 30
0.0
 10
4.22995
 20
0.0987
 30
0.0
 10
4.23637
 20
0.07375
 30
0.0
 10
4.24929
 20
0.05614
 30
0.0
 10
4.24929
 20
0.05614
 30
0.0
 10
4.26214
 20
0.03844
 30
0.0
 10
4.28041
 20
0.02963
 30
0.0
 10
4.30395
 20
0.02963
 30
0.0
  0
SPLINE
  5
60
330
1F
100
AcDbEntity
  8
Layer 1
 62
     5
370
     9
100
AcDbSpline
210
0.0
220
0.0
230
1.0
 70
    11
 71
     3
 72
    44
 73
    40
 74
     0
 42
0.0000000001
 43
0.0000000001
 12
1.0
 22
0.0
 32
0.0
 13
1.0
 23
0.0
 33
0.0
 40
0.0
 40
0.0
 40
0.0
 40
0.0
 40
0.0909090909090909
 40
0.0909090909090909
 40
0.0909090909090909
 40
0.0909090909090909
 40
0.1818181818181818
 40
0.1818181818181818
 40
0.1818181818181818
 40
0.1818181818181818
 40
0.2727272727272727
 40
0.2727272727272727
 40
0.2727272727272727
 40
0.2727272727272727
 40
0.3636363636363636
 40
0.3636363636363636
 40
0.3636363636363636
 40
0.3636363636363636
 40
0.4545454545454545
 40
0.4545454545454545
 40
0.4545454545454545
 40
0.4545454545454545
 40
0.5454545454545454
 40
0.5454545454545454
 40
0.5454545454545454
 40
0.5454545454545454
 40
0.6363636363636364
 40
0.6363636363636364
 40
0.6363636363636364
 40
0.6363636363636364
 40
0.7272727272727273
 40
0.7272727272727273
 40
0.7272727272727273
 40
0.7272727272727273
 40
0.8181818181818182
 40
0.8181818181818182
 40
0.8181818181818182
 40
0.8181818181818182
 40
1.0
 40
1.0
 40
1.0
 40
1.0
 10
4.50323
 20
0.0
 30
0.0
 10
4.50323
 20
0.0
 30
0.0
 10
4.50323
 20
0.26176
 30
0.0
 10
4.50323
 20
0.26176
 30
0.0
 10
4.50323
 20
0.26176
 30
0.0
 10
4.50323
 20
0.26176
 30
0.0
 10
4.55065
 20
0.26176
 30
0.0
 10
4.55065
 20
0.26176
 30
0.0
 10
4.55065
 20
0.26176
 30
0.0
 10
4.55065
 20
0.26176
 30
0.0
 10
4.55065
 20
0.21229
 30
0.0
 10
4.55065
 20
0.21229
 30
0.0
 10
4.55065
 20
0.21229
 30
0.0
 10
4.5695
 20
0.24892
 30
0.0
 10
4.59683
 20
0.26719
 30
0.0
 10
4.63271
 20
0.26719
 30
0.0
 10
4.63271
 20
0.26719
 30
0.0
 10
4.63757
 20
0.26719
 30
0.0
 10
4.64268
 20
0.26678
 30
0.0
 10
4.64794
 20
0.26596
 30
0.0
 10
4.64794
 20
0.26596
 30
0.0
 10
4.64794
 20
0.26596
 30
0.0
 10
4.64794
 20
0.22159
 30
0.0
 10
4.64794
 20
0.22159
 30
0.0
 10
4.64794
 20
0.22159
 30
0.0
 10
4.63971
 20
0.22431
 30
0.0
 10
4.63247
 20
0.22571
 30
0.0
 10
4.62621
 20
0.22571
 30
0.0
 10
4.62621
 20
0.22571
 30
0.0
 10
4.59608
 20
0.22571
 30
0.0
 10
4.5709
 20
0.20793
 30
0.0
 10
4.55065
 20
0.17229
 30
0.0
 10
4.55065
 20
0.17229
 30
0.0
 10
4.55065
 20
0.17229
 30
0.0
 10
4.55065
 20
0.0
 30
0.0
 10
4.55065
 20
0.0
 30
0.0
 10
4.55065
 20
0.0
 30
0.0
 10
4.55065
 20
0.0
 30
0.0
 10
4.50323
 20
0.0
 30
0.0
 10
4.50323
 20
0.0
 30
0.0
  0
SPLINE
  5
61
330
1F
100
AcDbEntity
  8
Layer 1
 62
     5
370
     9
100
AcDbSpline
210
0.0
220
0.0
230
1.0
 70
    11
 71
     3
 72
    48
 73
    44
 74
     0
 42
0.0000000001
 43
0.0000000001
 12
1.0
 22
0.0
 32
0.0
 13
1.0
 23
0.0
 33
0.0
 40
0.0
 40
0.0
 40
0.0
 40
0.0
 40
0.0833333333333333
 40
0.0833333333333333
 40
0.0833333333333333
 40
0.0833333333333333
 40
0.1666666666666667
 40
0.1666666666666667
 40
0.1666666666666667
 40
0.1666666666666667
 40
0.25
 40
0.25
 40
0.25
 40
0.25
 40
0.3333333333333333
 40
0.3333333333333333
 40
0.3333333333333333
 40
0.3333333333333333
 40
0.4166666666666667
 40
0.4166666666666667
 40
0.4166666666666667
 40
0.4166666666666667
 40
0.5
 40
0.5
 40
0.5
 40
0.5
 40
0.5833333333333334
 40
0.5833333333333334
 40
0.5833333333333334
 40
0.5833333333333334
 40
0.6666666666666666
 40
0.6666666666666666
 40
0.6666666666666666
 40
0.6666666666666666
 40
0.75
 40
0.75
 40
0.75
 40
0.75
 40
0.8333333333333334
 40
0.8333333333333334
 40
0.8333333333333334
 40
0.8333333333333334
 40
1.0
 40
1.0
 40
1.0
 40
1.0
 10
4.70531
 20
0.0
 30
0.0
 10
4.70531
 20
0.0
 30
0.0
 10
4.70531
 20
0.38079
 30
0.0
 10
4.70531
 20
0.38079
 30
0.0
 10
4.70531
 20
0.38079
 30
0.0
 10
4.70531
 20
0.38079
 30
0.0
 10
4.75273
 20
0.38079
 30
0.0
 10
4.75273
 20
0.38079
 30
0.0
 10
4.75273
 20
0.38079
 30
0.0
 10
4.75273
 20
0.38079
 30
0.0
 10
4.75273
 20
0.13475
 30
0.0
 10
4.75273
 20
0.13475
 30
0.0
 10
4.75273
 20
0.13475
 30
0.0
 10
4.75273
 20
0.13475
 30
0.0
 10
4.86385
 20
0.26176
 30
0.0
 10
4.86385
 20
0.26176
 30
0.0
 10
4.86385
 20
0.26176
 30
0.0
 10
4.86385
 20
0.26176
 30
0.0
 10
4.91505
 20
0.26176
 30
0.0
 10
4.91505
 20
0.26176
 30
0.0
 10
4.91505
 20
0.26176
 30
0.0
 10
4.91505
 20
0.26176
 30
0.0
 10
4.80887
 20
0.13961
 30
0.0
 10
4.80887
 20
0.13961
 30
0.0
 10
4.80887
 20
0.13961
 30
0.0
 10
4.80887
 20
0.13961
 30
0.0
 10
4.93728
 20
0.0
 30
0.0
 10
4.93728
 20
0.0
 30
0.0
 10
4.93728
 20
0.0
 30
0.0
 10
4.93728
 20
0.0
 30
0.0
 10
4.8762
 20
0.0
 30
0.0
 10
4.8762
 20
0.0
 30
0.0
 10
4.8762
 20
0.0
 30
0.0
 10
4.8762
 20
0.0
 30
0.0
 10
4.75273
 20
0.13426
 30
0.0
 10
4.75273
 20
0.13426
 30
0.0
 10
4.75273
 20
0.13426
 30
0.0
 10
4.75273
 20
0.13426
 30
0.0
 10
4.75273
 20
0.0
 30
0.0
 10
4.75273
 20
0.0
 30
0.0
 10
4.75273
 20
0.0
 30
0.0
 10
4.75273
 20
0.0
 30
0.0
 10
4.70531
 20
0.0
 30
0.0
 10
4.70531
 20
0.0
 30
0.0
  0
SPLINE
  5
62
330
1F
100
AcDbEntity
  8
Layer 1
 62
     5
370
     9
100
AcDbSpline
210
0.0
220
0.0
230
1.0
 70
    11
 71
     3
 72
    20
 73
    16
 74
     0
 42
0.0000000001
 43
0.0000000001
 12
1.0
 22
0.0
 32
0.0
 13
1.0
 23
0.0
 33
0.0
 40
0.0
 40
0.0
 40
0.0
 40
0.0
 40
0.2
 40
0.2
 40
0.2
 40
0.2
 40
0.4
 40
0.4
 40
0.4
 40
0.4
 40
0.6
 40
0.6
 40
0.6
 40
0.6
 40
1.0
 40
1.0
 40
1.0
 40
1.0
 10
4.99399
 20
0.0
 30
0.0
 10
4.99399
 20
0.0
 30
0.0
 10
4.99399
 20
0.26176
 30
0.0
 10
4.99399
 20
0.26176
 30
0.0
 10
4.99399
 20
0.26176
 30
0.0
 10
4.99399
 20
0.26176
 30
0.0
 10
5.04141
 20
0.26176
 30
0.0
 10
5.04141
 20
0.26176
 30
0.0
 10
5.04141
 20
0.26176
 30
0.0
 10
5.04141
 20
0.26176
 30
0.0
 10
5.04141
 20
0.0
 30
0.0
 10
5.04141
 20
0.0
 30
0.0
 10
5.04141
 20
0.0
 30
0.0
 10
5.04141
 20
0.0
 30
0.0
 10
4.99399
 20
0.0
 30
0.0
 10
4.99399
 20
0.0
 30
0.0
  0
SPLINE
  5
63
330
1F
100
AcDbEntity
  8
Layer 1
 62
     5
370
     9
100
AcDbSpline
210
0.0
220
0.0
230
1.0
 70
    11
 71
     3
 72
    20
 73
    16
 74
     0
 42
0.0000000001
 43
0.0000000001
 12
1.0
 22
0.0
 32
0.0
 13
1.0
 23
0.0
 33
0.0
 40
0.0
 40
0.0
 40
0.0
 40
0.0
 40
0.2
 40
0.2
 40
0.2
 40
0.2
 40
0.4
 40
0.4
 40
0.4
 40
0.4
 40
0.6
 40
0.6
 40
0.6
 40
0.6
 40
1.0
 40
1.0
 40
1.0
 40
1.0
 10
4.99399
 20
0.30967
 30
0.0
 10
4.99399
 20
0.30967
 30
0.0
 10
4.99399
 20
0.35708
 30
0.0
 10
4.99399
 20
0.35708
 30
0.0
 10
4.99399
 20
0.35708
 30
0.0
 10
4.99399
 20
0.35708
 30
0.0
 10
5.04141
 20
0.35708
 30
0.0
 10
5.04141
 20
0.35708
 30
0.0
 10
5.04141
 20
0.35708
 30
0.0
 10
5.04141
 20
0.35708
 30
0.0
 10
5.04141
 20
0.30967
 30
0.0
 10
5.04141
 20
0.30967
 30
0.0
 10
5.04141
 20
0.30967
 30
0.0
 10
5.04141
 20
0.30967
 30
0.0
 10
4.99399
 20
0.30967
 30
0.0
 10
4.99399
 20
0.30967
 30
0.0
  0
SPLINE
  5
64
330
1F
100
AcDbEntity
  8
Layer 1
 62
     5
370
     9
100
AcDbSpline
210
0.0
220
0.0
230
1.0
 70
    11
 71
     3
 72
    60
 73
    56
 74
     0
 42
0.0000000001
 43
0.0000000001
 12
1.0
 22
0.0
 32
0.0
 13
1.0
 23
0.0
 33
0.0
 40
0.0
 40
0.0
 40
0.0
 40
0.0
 40
0.0666666666666667
 40
0.0666666666666667
 40
0.0666666666666667
 40
0.0666666666666667
 40
0.1333333333333333
 40
0.1333333333333333
 40
0.1333333333333333
 40
0.1333333333333333
 40
0.2
 40
0.2
 40
0.2
 40
0.2
 40
0.2666666666666667
 40
0.2666666666666667
 40
0.2666666666666667
 40
0.2666666666666667
 40
0.3333333333333333
 40
0.3333333333333333
 40
0.3333333333333333
 40
0.3333333333333333
 40
0.4
 40
0.4
 40
0.4
 40
0.4
 40
0.4666666666666667
 40
0.4666666666666667
 40
0.4666666666666667
 40
0.4666666666666667
 40
0.5333333333333333
 40
0.5333333333333333
 40
0.5333333333333333
 40
0.5333333333333333
 40
0.6
 40
0.6
 40
0.6
 40
0.6
 40
0.6666666666666666
 40
0.6666666666666666
 40
0.6666666666666666
 40
0.6666666666666666
 40
0.7333333333333333
 40
0.7333333333333333
 40
0.7333333333333333
 40
0.7333333333333333
 40
0.8
 40
0.8
 40
0.8
 40
0.8
 40
0.8666666666666667
 40
0.8666666666666667
 40
0.8666666666666667
 40
0.8666666666666667
 40
1.0
 40
1.0
 40
1.0
 40
1.0
 10
5.13672
 20
0.0
 30
0.0
 10
5.13672
 20
0.0
 30
0.0
 10
5.13672
 20
0.26176
 30
0.0
 10
5.13672
 20
0.26176
 30
0.0
 10
5.13672
 20
0.26176
 30
0.0
 10
5.13672
 20
0.26176
 30
0.0
 10
5.18414
 20
0.26176
 30
0.0
 10
5.18414
 20
0.26176
 30
0.0
 10
5.18414
 20
0.26176
 30
0.0
 10
5.18414
 20
0.26176
 30
0.0
 10
5.18414
 20
0.21229
 30
0.0
 10
5.18414
 20
0.21229
 30
0.0
 10
5.18414
 20
0.21229
 30
0.0
 10
5.20924
 20
0.24892
 30
0.0
 10
5.24003
 20
0.26719
 30
0.0
 10
5.27641
 20
0.26719
 30
0.0
 10
5.27641
 20
0.26719
 30
0.0
 10
5.2993
 20
0.26719
 30
0.0
 10
5.31749
 20
0.26003
 30
0.0
 10
5.3309
 20
0.24563
 30
0.0
 10
5.3309
 20
0.24563
 30
0.0
 10
5.34432
 20
0.23131
 30
0.0
 10
5.35107
 20
0.21196
 30
0.0
 10
5.35107
 20
0.18776
 30
0.0
 10
5.35107
 20
0.18776
 30
0.0
 10
5.35107
 20
0.18776
 30
0.0
 10
5.35107
 20
0.0
 30
0.0
 10
5.35107
 20
0.0
 30
0.0
 10
5.35107
 20
0.0
 30
0.0
 10
5.35107
 20
0.0
 30
0.0
 10
5.30366
 20
0.0
 30
0.0
 10
5.30366
 20
0.0
 30
0.0
 10
5.30366
 20
0.0
 30
0.0
 10
5.30366
 20
0.0
 30
0.0
 10
5.30366
 20
0.17229
 30
0.0
 10
5.30366
 20
0.17229
 30
0.0
 10
5.30366
 20
0.17229
 30
0.0
 10
5.30366
 20
0.19171
 30
0.0
 10
5.30078
 20
0.20554
 30
0.0
 10
5.2951
 20
0.21377
 30
0.0
 10
5.2951
 20
0.21377
 30
0.0
 10
5.28934
 20
0.22209
 30
0.0
 10
5.27987
 20
0.2262
 30
0.0
 10
5.26662
 20
0.2262
 30
0.0
 10
5.26662
 20
0.2262
 30
0.0
 10
5.23748
 20
0.2262
 30
0.0
 10
5.20998
 20
0.20719
 30
0.0
 10
5.18414
 20
0.16916
 30
0.0
 10
5.18414
 20
0.16916
 30
0.0
 10
5.18414
 20
0.16916
 30
0.0
 10
5.18414
 20
0.0
 30
0.0
 10
5.18414
 20
0.0
 30
0.0
 10
5.18414
 20
0.0
 30
0.0
 10
5.18414
 20
0.0
 30
0.0
 10
5.13672
 20
0.0
 30
0.0
 10
5.13672
 20
0.0
 30
0.0
  0
SPLINE
  5
65
330
1F
100
AcDbEntity
  8
Layer 1
 62
     5
370
     9
100
AcDbSpline
210
0.0
220
0.0
230
1.0
 70
    11
 71
     3
 72
    76
 73
    72
 74
     0
 42
0.0000000001
 43
0.0000000001
 12
1.0
 22
0.0
 32
0.0
 13
1.0
 23
0.0
 33
0.0
 40
0.0
 40
0.0
 40
0.0
 40
0.0
 40
0.0526315789473684
 40
0.0526315789473684
 40
0.0526315789473684
 40
0.0526315789473684
 40
0.1052631578947368
 40
0.1052631578947368
 40
0.1052631578947368
 40
0.1052631578947368
 40
0.1578947368421053
 40
0.1578947368421053
 40
0.1578947368421053
 40
0.1578947368421053
 40
0.2105263157894737
 40
0.2105263157894737
 40
0.2105263157894737
 40
0.2105263157894737
 40
0.2631578947368421
 40
0.2631578947368421
 40
0.2631578947368421
 40
0.2631578947368421
 40
0.3157894736842105
 40
0.3157894736842105
 40
0.3157894736842105
 40
0.3157894736842105
 40
0.3684210526315789
 40
0.3684210526315789
 40
0.3684210526315789
 40
0.3684210526315789
 40
0.4210526315789473
 40
0.4210526315789473
 40
0.4210526315789473
 40
0.4210526315789473
 40
0.4736842105263158
 40
0.4736842105263158
 40
0.4736842105263158
 40
0.4736842105263158
 40
0.5263157894736842
 40
0.5263157894736842
 40
0.5263157894736842
 40
0.5263157894736842
 40
0.5789473684210527
 40
0.5789473684210527
 40
0.5789473684210527
 40
0.5789473684210527
 40
0.631578947368421
 40
0.631578947368421
 40
0.631578947368421
 40
0.631578947368421
 40
0.6842105263157895
 40
0.6842105263157895
 40
0.6842105263157895
 40
0.6842105263157895
 40
0.7368421052631579
 40
0.7368421052631579
 40
0.7368421052631579
 40
0.7368421052631579
 40
0.7894736842105263
 40
0.7894736842105263
 40
0.7894736842105263
 40
0.7894736842105263
 40
0.8421052631578947
 40
0.8421052631578947
 40
0.8421052631578947
 40
0.8421052631578947
 40
0.8947368421052632
 40
0.8947368421052632
 40
0.8947368421052632
 40
0.8947368421052632
 40
1.0
 40
1.0
 40
1.0
 40
1.0
 10
5.44426
 20
-0.08692
 30
0.0
 10
5.44426
 20
-0.08692
 30
0.0
 10
5.44986
 20
-0.04593
 30
0.0
 10
5.44986
 20
-0.04593
 30
0.0
 10
5.44986
 20
-0.04593
 30
0.0
 10
5.47735
 20
-0.05877
 30
0.0
 10
5.5046
 20
-0.06519
 30
0.0
 10
5.53152
 20
-0.06519
 30
0.0
 10
5.53152
 20
-0.06519
 30
0.0
 10
5.58494
 20
-0.06519
 30
0.0
 10
5.61169
 20
-0.03688
 30
0.0
 10
5.61169
 20
0.01967
 30
0.0
 10
5.61169
 20
0.01967
 30
0.0
 10
5.61169
 20
0.01967
 30
0.0
 10
5.61169
 20
0.06083
 30
0.0
 10
5.61169
 20
0.06083
 30
0.0
 10
5.61169
 20
0.06083
 30
0.0
 10
5.60346
 20
0.04346
 30
0.0
 10
5.59177
 20
0.03004
 30
0.0
 10
5.57654
 20
0.02041
 30
0.0
 10
5.57654
 20
0.02041
 30
0.0
 10
5.56131
 20
0.01078
 30
0.0
 10
5.54436
 20
0.00593
 30
0.0
 10
5.52567
 20
0.00593
 30
0.0
 10
5.52567
 20
0.00593
 30
0.0
 10
5.49398
 20
0.00593
 30
0.0
 10
5.46887
 20
0.01729
 30
0.0
 10
5.45035
 20
0.04001
 30
0.0
 10
5.45035
 20
0.04001
 30
0.0
 10
5.43183
 20
0.06272
 30
0.0
 10
5.42253
 20
0.09351
 30
0.0
 10
5.42253
 20
0.13236
 30
0.0
 10
5.42253
 20
0.13236
 30
0.0
 10
5.42253
 20
0.17212
 30
0.0
 10
5.43307
 20
0.20455
 30
0.0
 10
5.45414
 20
0.22966
 30
0.0
 10
5.45414
 20
0.22966
 30
0.0
 10
5.47529
 20
0.25468
 30
0.0
 10
5.50254
 20
0.26719
 30
0.0
 10
5.53604
 20
0.26719
 30
0.0
 10
5.53604
 20
0.26719
 30
0.0
 10
5.56535
 20
0.26719
 30
0.0
 10
5.59062
 20
0.25534
 30
0.0
 10
5.61169
 20
0.23155
 30
0.0
 10
5.61169
 20
0.23155
 30
0.0
 10
5.61169
 20
0.23155
 30
0.0
 10
5.61169
 20
0.26176
 30
0.0
 10
5.61169
 20
0.26176
 30
0.0
 10
5.61169
 20
0.26176
 30
0.0
 10
5.61169
 20
0.26176
 30
0.0
 10
5.6591
 20
0.26176
 30
0.0
 10
5.6591
 20
0.26176
 30
0.0
 10
5.6591
 20
0.26176
 30
0.0
 10
5.6591
 20
0.26176
 30
0.0
 10
5.6591
 20
0.07145
 30
0.0
 10
5.6591
 20
0.07145
 30
0.0
 10
5.6591
 20
0.07145
 30
0.0
 10
5.6591
 20
0.03054
 30
0.0
 10
5.65696
 20
0.00025
 30
0.0
 10
5.65268
 20
-0.01943
 30
0.0
 10
5.65268
 20
-0.01943
 30
0.0
 10
5.64848
 20
-0.0391
 30
0.0
 10
5.64042
 20
-0.05523
 30
0.0
 10
5.62873
 20
-0.06775
 30
0.0
 10
5.62873
 20
-0.06775
 30
0.0
 10
5.60799
 20
-0.08972
 30
0.0
 10
5.57555
 20
-0.10075
 30
0.0
 10
5.53152
 20
-0.10075
 30
0.0
 10
5.53152
 20
-0.10075
 30
0.0
 10
5.50131
 20
-0.10075
 30
0.0
 10
5.47225
 20
-0.09614
 30
0.0
 10
5.44426
 20
-0.08692
 30
0.0
  0
SPLINE
  5
66
330
1F
100
AcDbEntity
  8
Layer 1
 62
     5
370
     9
100
AcDbSpline
210
0.0
220
0.0
230
1.0
 70
    11
 71
     3
 72
    28
 73
    24
 74
     0
 42
0.0000000001
 43
0.0000000001
 12
1.0
 22
0.0
 32
0.0
 13
1.0
 23
0.0
 33
0.0
 40
0.0
 40
0.0
 40
0.0
 40
0.0
 40
0.1428571428571428
 40
0.1428571428571428
 40
0.1428571428571428
 40
0.1428571428571428
 40
0.2857142857142857
 40
0.2857142857142857
 40
0.2857142857142857
 40
0.2857142857142857
 40
0.4285714285714285
 40
0.4285714285714285
 40
0.4285714285714285
 40
0.4285714285714285
 40
0.5714285714285714
 40
0.5714285714285714
 40
0.5714285714285714
 40
0.5714285714285714
 40
0.7142857142857143
 40
0.7142857142857143
 40
0.7142857142857143
 40
0.7142857142857143
 40
1.0
 40
1.0
 40
1.0
 40
1.0
 10
5.61169
 20
0.09055
 30
0.0
 10
5.61169
 20
0.09055
 30
0.0
 10
5.61169
 20
0.19912
 30
0.0
 10
5.61169
 20
0.19912
 30
0.0
 10
5.61169
 20
0.19912
 30
0.0
 10
5.59078
 20
0.22077
 30
0.0
 10
5.56798
 20
0.23163
 30
0.0
 10
5.54337
 20
0.23163
 30
0.0
 10
5.54337
 20
0.23163
 30
0.0
 10
5.52147
 20
0.23163
 30
0.0
 10
5.50435
 20
0.22291
 30
0.0
 10
5.492
 20
0.20538
 30
0.0
 10
5.492
 20
0.20538
 30
0.0
 10
5.47957
 20
0.18793
 30
0.0
 10
5.4734
 20
0.16364
 30
0.0
 10
5.4734
 20
0.13269
 30
0.0
 10
5.4734
 20
0.13269
 30
0.0
 10
5.4734
 20
0.07581
 30
0.0
 10
5.49357
 20
0.04741
 30
0.0
 10
5.53398
 20
0.04741
 30
0.0
 10
5.53398
 20
0.04741
 30
0.0
 10
5.56148
 20
0.04741
 30
0.0
 10
5.58741
 20
0.06182
 30
0.0
 10
5.61169
 20
0.09055
 30
0.0
  0
ELLIPSE
  5
67
330
1F
100
AcDbEntity
  8
Layer 1
370
    53
100
AcDbEllipse
 10
-8.25001
 20
5.24999
 30
0.0
 11
0.0
 21
0.30001
 31
0.0
210
0.0
220
0.0
230
1.0
 40
1.0
 41
0.0
 42
6.283185307179586
  0
ELLIPSE
  5
68
330
1F
100
AcDbEntity
  8
Layer 1
370
    53
100
AcDbEllipse
 10
-8.24999
 20
-5.24999
 30
0.0
 11
0.0
 21
0.30001
 31
0.0
210
0.0
220
0.0
230
1.0
 40
1.0
 41
0.0
 42
6.283185307179586
  0
ELLIPSE
  5
69
330
1F
100
AcDbEntity
  8
Layer 1
370
    53
100
AcDbEllipse
 10
-8.24999
 20
-0.74999
 30
0.0
 11
0.0
 21
0.30001
 31
0.0
210
0.0
220
0.0
230
1.0
 40
1.0
 41
0.0
 42
6.283185307179586
  0
ELLIPSE
  5
6A
330
1F
100
AcDbEntity
  8
Layer 1
370
    53
100
AcDbEllipse
 10
-8.24999
 20
0.75001
 30
0.0
 11
0.0
 21
0.30001
 31
0.0
210
0.0
220
0.0
230
1.0
 40
1.0
 41
0.0
 42
6.283185307179586
  0
ELLIPSE
  5
6B
330
1F
100
AcDbEntity
  8
Layer 1
370
    53
100
AcDbEllipse
 10
-8.25
 20
0.0
 30
0.0
 11
0.0
 21
0.15
 31
0.0
210
0.0
220
0.0
230
1.0
 40
1.0
 41
0.0
 42
6.283185307179586
  0
SPLINE
  5
6C
330
1F
100
AcDbEntity
  8
Layer 1
370
    53
100
AcDbSpline
210
0.0
220
0.0
230
1.0
 70
    11
 71
     3
 72
    20
 73
    16
 74
     0
 42
0.0000000001
 43
0.0000000001
 12
1.0
 22
0.0
 32
0.0
 13
1.0
 23
0.0
 33
0.0
 40
0.0
 40
0.0
 40
0.0
 40
0.0
 40
0.2
 40
0.2
 40
0.2
 40
0.2
 40
0.4
 40
0.4
 40
0.4
 40
0.4
 40
0.6
 40
0.6
 40
0.6
 40
0.6
 40
1.0
 40
1.0
 40
1.0
 40
1.0
 10
-3.45
 20
-5.25
 30
0.0
 10
-3.45
 20
-5.08431
 30
0.0
 10
-3.58431
 20
-4.95
 30
0.0
 10
-3.75
 20
-4.95
 30
0.0
 10
-3.75
 20
-4.95
 30
0.0
 10
-3.91569
 20
-4.95
 30
0.0
 10
-4.05
 20
-5.08431
 30
0.0
 10
-4.05
 20
-5.25
 30
0.0
 10
-4.05
 20
-5.25
 30
0.0
 10
-4.05
 20
-5.41569
 30
0.0
 10
-3.91569
 20
-5.55
 30
0.0
 10
-3.75
 20
-5.55
 30
0.0
 10
-3.75
 20
-5.55
 30
0.0
 10
-3.58431
 20
-5.55
 30
0.0
 10
-3.45
 20
-5.41569
 30
0.0
 10
-3.45
 20
-5.25
 30
0.0
  0
ELLIPSE
  5
6D
330
1F
100
AcDbEntity
  8
Layer 1
370
    53
100
AcDbEllipse
 10
0.00004
 20
-3.00004
 30
0.0
 11
0.0
 21
2.30004
 31
0.0
210
0.0
220
0.0
230
1.0
 40
1.0
 41
0.0
 42
6.283185307179586
  0
ELLIPSE
  5
6E
330
1F
100
AcDbEntity
  8
Layer 1
 62
     4
370
    53
100
AcDbEllipse
 10
0.00005
 20
-3.00005
 30
0.0
 11
0.0
 21
2.55005
 31
0.0
210
0.0
220
0.0
230
1.0
 40
1.0
 41
0.0
 42
6.283185307179586
  0
ELLIPSE
  5
6F
330
1F
100
AcDbEntity
  8
Layer 1
370
    53
100
AcDbEllipse
 10
0.00004
 20
2.99996
 30
0.0
 11
0.0
 21
2.30004
 31
0.0
210
0.0
220
0.0
230
1.0
 40
1.0
 41
0.0
 42
6.283185307179586
  0
ELLIPSE
  5
70
330
1F
100
AcDbEntity
  8
Layer 1
 62
     4
370
    53
100
AcDbEllipse
 10
0.00005
 20
2.99995
 30
0.0
 11
0.0
 21
2.55005
 31
0.0
210
0.0
220
0.0
230
1.0
 40
1.0
 41
0.0
 42
6.283185307179586
  0
ELLIPSE
  5
71
330
1F
100
AcDbEntity
  8
Layer 1
370
    53
100
AcDbEllipse
 10
6.00004
 20
-3.00004
 30
0.0
 11
0.0
 21
2.30004
 31
0.0
210
0.0
220
0.0
230
1.0
 40
1.0
 41
0.0
 42
6.283185307179586
  0
ELLIPSE
  5
72
330
1F
100
AcDbEntity
  8
Layer 1
 62
     4
370
    53
100
AcDbEllipse
 10
6.00005
 20
-3.00005
 30
0.0
 11
0.0
 21
2.55005
 31
0.0
210
0.0
220
0.0
230
1.0
 40
1.0
 41
0.0
 42
6.283185307179586
  0
ELLIPSE
  5
73
330
1F
100
AcDbEntity
  8
Layer 1
370
    53
100
AcDbEllipse
 10
6.00004
 20
2.99996
 30
0.0
 11
0.0
 21
2.30004
 31
0.0
210
0.0
220
0.0
230
1.0
 40
1.0
 41
0.0
 42
6.283185307179586
  0
ELLIPSE
  5
74
330
1F
100
AcDbEntity
  8
Layer 1
 62
     4
370
    53
100
AcDbEllipse
 10
6.00005
 20
2.99995
 30
0.0
 11
0.0
 21
2.55005
 31
0.0
210
0.0
220
0.0
230
1.0
 40
1.0
 41
0.0
 42
6.283185307179586
  0
SPLINE
  5
75
330
1F
100
AcDbEntity
  8
Layer 1
 62
     5
370
     9
100
AcDbSpline
210
0.0
220
0.0
230
1.0
 70
    11
 71
     3
 72
    40
 73
    36
 74
     0
 42
0.0000000001
 43
0.0000000001
 12
1.0
 22
0.0
 32
0.0
 13
1.0
 23
0.0
 33
0.0
 40
0.0
 40
0.0
 40
0.0
 40
0.0
 40
0.1
 40
0.1
 40
0.1
 40
0.1
 40
0.2
 40
0.2
 40
0.2
 40
0.2
 40
0.3
 40
0.3
 40
0.3
 40
0.3
 40
0.4
 40
0.4
 40
0.4
 40
0.4
 40
0.5
 40
0.5
 40
0.5
 40
0.5
 40
0.6
 40
0.6
 40
0.6
 40
0.6
 40
0.7
 40
0.7
 40
0.7
 40
0.7
 40
0.8
 40
0.8
 40
0.8
 40
0.8
 40
1.0
 40
1.0
 40
1.0
 40
1.0
 10
-4.92156
 20
0.24859
 30
0.0
 10
-4.91695
 20
0.27641
 30
0.0
 10
-4.91028
 20
0.30053
 30
0.0
 10
-4.90172
 20
0.32078
 30
0.0
 10
-4.90172
 20
0.32078
 30
0.0
 10
-4.89316
 20
0.34103
 30
0.0
 10
-4.87793
 20
0.36893
 30
0.0
 10
-4.8562
 20
0.40433
 30
0.0
 10
-4.8562
 20
0.40433
 30
0.0
 10
-4.8562
 20
0.40433
 30
0.0
 10
-4.75907
 20
0.56122
 30
0.0
 10
-4.75907
 20
0.56122
 30
0.0
 10
-4.75907
 20
0.56122
 30
0.0
 10
-4.75907
 20
0.56122
 30
0.0
 10
-4.9423
 20
0.56122
 30
0.0
 10
-4.9423
 20
0.56122
 30
0.0
 10
-4.9423
 20
0.56122
 30
0.0
 10
-4.9423
 20
0.56122
 30
0.0
 10
-4.9423
 20
0.60567
 30
0.0
 10
-4.9423
 20
0.60567
 30
0.0
 10
-4.9423
 20
0.60567
 30
0.0
 10
-4.9423
 20
0.60567
 30
0.0
 10
-4.71313
 20
0.60567
 30
0.0
 10
-4.71313
 20
0.60567
 30
0.0
 10
-4.71313
 20
0.60567
 30
0.0
 10
-4.71313
 20
0.60567
 30
0.0
 10
-4.71313
 20
0.56122
 30
0.0
 10
-4.71313
 20
0.56122
 30
0.0
 10
-4.71313
 20
0.56122
 30
0.0
 10
-4.80459
 20
0.42623
 30
0.0
 10
-4.85579
 20
0.32201
 30
0.0
 10
-4.86673
 20
0.24859
 30
0.0
 10
-4.86673
 20
0.24859
 30
0.0
 10
-4.86673
 20
0.24859
 30
0.0
 10
-4.92156
 20
0.24859
 30
0.0
 10
-4.92156
 20
0.24859
 30
0.0
  0
SPLINE
  5
76
330
1F
100
AcDbEntity
  8
Layer 1
 62
     5
370
     9
100
AcDbSpline
210
0.0
220
0.0
230
1.0
 70
    11
 71
     3
 72
    20
 73
    16
 74
     0
 42
0.0000000001
 43
0.0000000001
 12
1.0
 22
0.0
 32
0.0
 13
1.0
 23
0.0
 33
0.0
 40
0.0
 40
0.0
 40
0.0
 40
0.0
 40
0.2
 40
0.2
 40
0.2
 40
0.2
 40
0.4
 40
0.4
 40
0.4
 40
0.4
 40
0.6
 40
0.6
 40
0.6
 40
0.6
 40
1.0
 40
1.0
 40
1.0
 40
1.0
 10
-4.6626
 20
0.21303
 30
0.0
 10
-4.6626
 20
0.21303
 30
0.0
 10
-4.6626
 20
0.24859
 30
0.0
 10
-4.6626
 20
0.24859
 30
0.0
 10
-4.6626
 20
0.24859
 30
0.0
 10
-4.6626
 20
0.24859
 30
0.0
 10
-4.45714
 20
0.24859
 30
0.0
 10
-4.45714
 20
0.24859
 30
0.0
 10
-4.45714
 20
0.24859
 30
0.0
 10
-4.45714
 20
0.24859
 30
0.0
 10
-4.45714
 20
0.21303
 30
0.0
 10
-4.45714
 20
0.21303
 30
0.0
 10
-4.45714
 20
0.21303
 30
0.0
 10
-4.45714
 20
0.21303
 30
0.0
 10
-4.6626
 20
0.21303
 30
0.0
 10
-4.6626
 20
0.21303
 30
0.0
  0
SPLINE
  5
77
330
1F
100
AcDbEntity
  8
Layer 1
 62
     5
370
     9
100
AcDbSpline
210
0.0
220
0.0
230
1.0
 70
    11
 71
     3
 72
    20
 73
    16
 74
     0
 42
0.0000000001
 43
0.0000000001
 12
1.0
 22
0.0
 32
0.0
 13
1.0
 23
0.0
 33
0.0
 40
0.0
 40
0.0
 40
0.0
 40
0.0
 40
0.2
 40
0.2
 40
0.2
 40
0.2
 40
0.4
 40
0.4
 40
0.4
 40
0.4
 40
0.6
 40
0.6
 40
0.6
 40
0.6
 40
1.0
 40
1.0
 40
1.0
 40
1.0
 10
-4.38898
 20
0.24859
 30
0.0
 10
-4.38898
 20
0.24859
 30
0.0
 10
-4.38898
 20
0.51035
 30
0.0
 10
-4.38898
 20
0.51035
 30
0.0
 10
-4.38898
 20
0.51035
 30
0.0
 10
-4.38898
 20
0.51035
 30
0.0
 10
-4.34156
 20
0.51035
 30
0.0
 10
-4.34156
 20
0.51035
 30
0.0
 10
-4.34156
 20
0.51035
 30
0.0
 10
-4.34156
 20
0.51035
 30
0.0
 10
-4.34156
 20
0.24859
 30
0.0
 10
-4.34156
 20
0.24859
 30
0.0
 10
-4.34156
 20
0.24859
 30
0.0
 10
-4.34156
 20
0.24859
 30
0.0
 10
-4.38898
 20
0.24859
 30
0.0
 10
-4.38898
 20
0.24859
 30
0.0
  0
SPLINE
  5
78
330
1F
100
AcDbEntity
  8
Layer 1
 62
     5
370
     9
100
AcDbSpline
210
0.0
220
0.0
230
1.0
 70
    11
 71
     3
 72
    20
 73
    16
 74
     0
 42
0.0000000001
 43
0.0000000001
 12
1.0
 22
0.0
 32
0.0
 13
1.0
 23
0.0
 33
0.0
 40
0.0
 40
0.0
 40
0.0
 40
0.0
 40
0.2
 40
0.2
 40
0.2
 40
0.2
 40
0.4
 40
0.4
 40
0.4
 40
0.4
 40
0.6
 40
0.6
 40
0.6
 40
0.6
 40
1.0
 40
1.0
 40
1.0
 40
1.0
 10
-4.38898
 20
0.55826
 30
0.0
 10
-4.38898
 20
0.55826
 30
0.0
 10
-4.38898
 20
0.60567
 30
0.0
 10
-4.38898
 20
0.60567
 30
0.0
 10
-4.38898
 20
0.60567
 30
0.0
 10
-4.38898
 20
0.60567
 30
0.0
 10
-4.34156
 20
0.60567
 30
0.0
 10
-4.34156
 20
0.60567
 30
0.0
 10
-4.34156
 20
0.60567
 30
0.0
 10
-4.34156
 20
0.60567
 30
0.0
 10
-4.34156
 20
0.55826
 30
0.0
 10
-4.34156
 20
0.55826
 30
0.0
 10
-4.34156
 20
0.55826
 30
0.0
 10
-4.34156
 20
0.55826
 30
0.0
 10
-4.38898
 20
0.55826
 30
0.0
 10
-4.38898
 20
0.55826
 30
0.0
  0
SPLINE
  5
79
330
1F
100
AcDbEntity
  8
Layer 1
 62
     5
370
     9
100
AcDbSpline
210
0.0
220
0.0
230
1.0
 70
    11
 71
     3
 72
    60
 73
    56
 74
     0
 42
0.0000000001
 43
0.0000000001
 12
1.0
 22
0.0
 32
0.0
 13
1.0
 23
0.0
 33
0.0
 40
0.0
 40
0.0
 40
0.0
 40
0.0
 40
0.0666666666666667
 40
0.0666666666666667
 40
0.0666666666666667
 40
0.0666666666666667
 40
0.1333333333333333
 40
0.1333333333333333
 40
0.1333333333333333
 40
0.1333333333333333
 40
0.2
 40
0.2
 40
0.2
 40
0.2
 40
0.2666666666666667
 40
0.2666666666666667
 40
0.2666666666666667
 40
0.2666666666666667
 40
0.3333333333333333
 40
0.3333333333333333
 40
0.3333333333333333
 40
0.3333333333333333
 40
0.4
 40
0.4
 40
0.4
 40
0.4
 40
0.4666666666666667
 40
0.4666666666666667
 40
0.4666666666666667
 40
0.4666666666666667
 40
0.5333333333333333
 40
0.5333333333333333
 40
0.5333333333333333
 40
0.5333333333333333
 40
0.6
 40
0.6
 40
0.6
 40
0.6
 40
0.6666666666666666
 40
0.6666666666666666
 40
0.6666666666666666
 40
0.6666666666666666
 40
0.7333333333333333
 40
0.7333333333333333
 40
0.7333333333333333
 40
0.7333333333333333
 40
0.8
 40
0.8
 40
0.8
 40
0.8
 40
0.8666666666666667
 40
0.8666666666666667
 40
0.8666666666666667
 40
0.8666666666666667
 40
1.0
 40
1.0
 40
1.0
 40
1.0
 10
-4.24625
 20
0.24859
 30
0.0
 10
-4.24625
 20
0.24859
 30
0.0
 10
-4.24625
 20
0.51035
 30
0.0
 10
-4.24625
 20
0.51035
 30
0.0
 10
-4.24625
 20
0.51035
 30
0.0
 10
-4.24625
 20
0.51035
 30
0.0
 10
-4.19883
 20
0.51035
 30
0.0
 10
-4.19883
 20
0.51035
 30
0.0
 10
-4.19883
 20
0.51035
 30
0.0
 10
-4.19883
 20
0.51035
 30
0.0
 10
-4.19883
 20
0.46088
 30
0.0
 10
-4.19883
 20
0.46088
 30
0.0
 10
-4.19883
 20
0.46088
 30
0.0
 10
-4.17373
 20
0.49751
 30
0.0
 10
-4.14294
 20
0.51578
 30
0.0
 10
-4.10656
 20
0.51578
 30
0.0
 10
-4.10656
 20
0.51578
 30
0.0
 10
-4.08367
 20
0.51578
 30
0.0
 10
-4.06548
 20
0.50862
 30
0.0
 10
-4.05207
 20
0.49422
 30
0.0
 10
-4.05207
 20
0.49422
 30
0.0
 10
-4.03865
 20
0.4799
 30
0.0
 10
-4.0319
 20
0.46055
 30
0.0
 10
-4.0319
 20
0.43635
 30
0.0
 10
-4.0319
 20
0.43635
 30
0.0
 10
-4.0319
 20
0.43635
 30
0.0
 10
-4.0319
 20
0.24859
 30
0.0
 10
-4.0319
 20
0.24859
 30
0.0
 10
-4.0319
 20
0.24859
 30
0.0
 10
-4.0319
 20
0.24859
 30
0.0
 10
-4.07931
 20
0.24859
 30
0.0
 10
-4.07931
 20
0.24859
 30
0.0
 10
-4.07931
 20
0.24859
 30
0.0
 10
-4.07931
 20
0.24859
 30
0.0
 10
-4.07931
 20
0.42088
 30
0.0
 10
-4.07931
 20
0.42088
 30
0.0
 10
-4.07931
 20
0.42088
 30
0.0
 10
-4.07931
 20
0.4403
 30
0.0
 10
-4.08219
 20
0.45413
 30
0.0
 10
-4.08787
 20
0.46236
 30
0.0
 10
-4.08787
 20
0.46236
 30
0.0
 10
-4.09363
 20
0.47068
 30
0.0
 10
-4.1031
 20
0.47479
 30
0.0
 10
-4.11635
 20
0.47479
 30
0.0
 10
-4.11635
 20
0.47479
 30
0.0
 10
-4.14549
 20
0.47479
 30
0.0
 10
-4.17299
 20
0.45578
 30
0.0
 10
-4.19883
 20
0.41775
 30
0.0
 10
-4.19883
 20
0.41775
 30
0.0
 10
-4.19883
 20
0.41775
 30
0.0
 10
-4.19883
 20
0.24859
 30
0.0
 10
-4.19883
 20
0.24859
 30
0.0
 10
-4.19883
 20
0.24859
 30
0.0
 10
-4.19883
 20
0.24859
 30
0.0
 10
-4.24625
 20
0.24859
 30
0.0
 10
-4.24625
 20
0.24859
 30
0.0
  0
SPLINE
  5
7A
330
1F
100
AcDbEntity
  8
Layer 1
 62
     5
370
     9
100
AcDbSpline
210
0.0
220
0.0
230
1.0
 70
    11
 71
     3
 72
    20
 73
    16
 74
     0
 42
0.0000000001
 43
0.0000000001
 12
1.0
 22
0.0
 32
0.0
 13
1.0
 23
0.0
 33
0.0
 40
0.0
 40
0.0
 40
0.0
 40
0.0
 40
0.2
 40
0.2
 40
0.2
 40
0.2
 40
0.4
 40
0.4
 40
0.4
 40
0.4
 40
0.6
 40
0.6
 40
0.6
 40
0.6
 40
1.0
 40
1.0
 40
1.0
 40
1.0
 10
-3.96638
 20
0.21303
 30
0.0
 10
-3.96638
 20
0.21303
 30
0.0
 10
-3.96638
 20
0.24859
 30
0.0
 10
-3.96638
 20
0.24859
 30
0.0
 10
-3.96638
 20
0.24859
 30
0.0
 10
-3.96638
 20
0.24859
 30
0.0
 10
-3.76092
 20
0.24859
 30
0.0
 10
-3.76092
 20
0.24859
 30
0.0
 10
-3.76092
 20
0.24859
 30
0.0
 10
-3.76092
 20
0.24859
 30
0.0
 10
-3.76092
 20
0.21303
 30
0.0
 10
-3.76092
 20
0.21303
 30
0.0
 10
-3.76092
 20
0.21303
 30
0.0
 10
-3.76092
 20
0.21303
 30
0.0
 10
-3.96638
 20
0.21303
 30
0.0
 10
-3.96638
 20
0.21303
 30
0.0
  0
SPLINE
  5
7B
330
1F
100
AcDbEntity
  8
Layer 1
 62
     5
370
     9
100
AcDbSpline
210
0.0
220
0.0
230
1.0
 70
    11
 71
     3
 72
    52
 73
    48
 74
     0
 42
0.0000000001
 43
0.0000000001
 12
1.0
 22
0.0
 32
0.0
 13
1.0
 23
0.0
 33
0.0
 40
0.0
 40
0.0
 40
0.0
 40
0.0
 40
0.0769230769230769
 40
0.0769230769230769
 40
0.0769230769230769
 40
0.0769230769230769
 40
0.1538461538461539
 40
0.1538461538461539
 40
0.1538461538461539
 40
0.1538461538461539
 40
0.2307692307692308
 40
0.2307692307692308
 40
0.2307692307692308
 40
0.2307692307692308
 40
0.3076923076923077
 40
0.3076923076923077
 40
0.3076923076923077
 40
0.3076923076923077
 40
0.3846153846153846
 40
0.3846153846153846
 40
0.3846153846153846
 40
0.3846153846153846
 40
0.4615384615384616
 40
0.4615384615384616
 40
0.4615384615384616
 40
0.4615384615384616
 40
0.5384615384615384
 40
0.5384615384615384
 40
0.5384615384615384
 40
0.5384615384615384
 40
0.6153846153846154
 40
0.6153846153846154
 40
0.6153846153846154
 40
0.6153846153846154
 40
0.6923076923076923
 40
0.6923076923076923
 40
0.6923076923076923
 40
0.6923076923076923
 40
0.7692307692307693
 40
0.7692307692307693
 40
0.7692307692307693
 40
0.7692307692307693
 40
0.8461538461538461
 40
0.8461538461538461
 40
0.8461538461538461
 40
0.8461538461538461
 40
1.0
 40
1.0
 40
1.0
 40
1.0
 10
-3.71893
 20
0.24859
 30
0.0
 10
-3.71893
 20
0.24859
 30
0.0
 10
-3.61925
 20
0.38367
 30
0.0
 10
-3.61925
 20
0.38367
 30
0.0
 10
-3.61925
 20
0.38367
 30
0.0
 10
-3.61925
 20
0.38367
 30
0.0
 10
-3.71597
 20
0.51035
 30
0.0
 10
-3.71597
 20
0.51035
 30
0.0
 10
-3.71597
 20
0.51035
 30
0.0
 10
-3.71597
 20
0.51035
 30
0.0
 10
-3.65942
 20
0.51035
 30
0.0
 10
-3.65942
 20
0.51035
 30
0.0
 10
-3.65942
 20
0.51035
 30
0.0
 10
-3.65942
 20
0.51035
 30
0.0
 10
-3.58303
 20
0.40952
 30
0.0
 10
-3.58303
 20
0.40952
 30
0.0
 10
-3.58303
 20
0.40952
 30
0.0
 10
-3.58303
 20
0.40952
 30
0.0
 10
-3.51389
 20
0.51035
 30
0.0
 10
-3.51389
 20
0.51035
 30
0.0
 10
-3.51389
 20
0.51035
 30
0.0
 10
-3.51389
 20
0.51035
 30
0.0
 10
-3.46754
 20
0.51035
 30
0.0
 10
-3.46754
 20
0.51035
 30
0.0
 10
-3.46754
 20
0.51035
 30
0.0
 10
-3.46754
 20
0.51035
 30
0.0
 10
-3.55809
 20
0.37758
 30
0.0
 10
-3.55809
 20
0.37758
 30
0.0
 10
-3.55809
 20
0.37758
 30
0.0
 10
-3.55809
 20
0.37758
 30
0.0
 10
-3.45964
 20
0.24859
 30
0.0
 10
-3.45964
 20
0.24859
 30
0.0
 10
-3.45964
 20
0.24859
 30
0.0
 10
-3.45964
 20
0.24859
 30
0.0
 10
-3.51619
 20
0.24859
 30
0.0
 10
-3.51619
 20
0.24859
 30
0.0
 10
-3.51619
 20
0.24859
 30
0.0
 10
-3.51619
 20
0.24859
 30
0.0
 10
-3.59505
 20
0.35231
 30
0.0
 10
-3.59505
 20
0.35231
 30
0.0
 10
-3.59505
 20
0.35231
 30
0.0
 10
-3.59505
 20
0.35231
 30
0.0
 10
-3.67135
 20
0.24859
 30
0.0
 10
-3.67135
 20
0.24859
 30
0.0
 10
-3.67135
 20
0.24859
 30
0.0
 10
-3.67135
 20
0.24859
 30
0.0
 10
-3.71893
 20
0.24859
 30
0.0
 10
-3.71893
 20
0.24859
 30
0.0
  0
SPLINE
  5
7C
330
1F
100
AcDbEntity
  8
Layer 1
 62
     5
370
     9
100
AcDbSpline
210
0.0
220
0.0
230
1.0
 70
    11
 71
     3
 72
    20
 73
    16
 74
     0
 42
0.0000000001
 43
0.0000000001
 12
1.0
 22
0.0
 32
0.0
 13
1.0
 23
0.0
 33
0.0
 40
0.0
 40
0.0
 40
0.0
 40
0.0
 40
0.2
 40
0.2
 40
0.2
 40
0.2
 40
0.4
 40
0.4
 40
0.4
 40
0.4
 40
0.6
 40
0.6
 40
0.6
 40
0.6
 40
1.0
 40
1.0
 40
1.0
 40
1.0
 10
-3.41651
 20
0.21303
 30
0.0
 10
-3.41651
 20
0.21303
 30
0.0
 10
-3.41651
 20
0.24859
 30
0.0
 10
-3.41651
 20
0.24859
 30
0.0
 10
-3.41651
 20
0.24859
 30
0.0
 10
-3.41651
 20
0.24859
 30
0.0
 10
-3.21105
 20
0.24859
 30
0.0
 10
-3.21105
 20
0.24859
 30
0.0
 10
-3.21105
 20
0.24859
 30
0.0
 10
-3.21105
 20
0.24859
 30
0.0
 10
-3.21105
 20
0.21303
 30
0.0
 10
-3.21105
 20
0.21303
 30
0.0
 10
-3.21105
 20
0.21303
 30
0.0
 10
-3.21105
 20
0.21303
 30
0.0
 10
-3.41651
 20
0.21303
 30
0.0
 10
-3.41651
 20
0.21303
 30
0.0
  0
SPLINE
  5
7D
330
1F
100
AcDbEntity
  8
Layer 1
 62
     5
370
     9
100
AcDbSpline
210
0.0
220
0.0
230
1.0
 70
    11
 71
     3
 72
    72
 73
    68
 74
     0
 42
0.0000000001
 43
0.0000000001
 12
1.0
 22
0.0
 32
0.0
 13
1.0
 23
0.0
 33
0.0
 40
0.0
 40
0.0
 40
0.0
 40
0.0
 40
0.0555555555555556
 40
0.0555555555555556
 40
0.0555555555555556
 40
0.0555555555555556
 40
0.1111111111111111
 40
0.1111111111111111
 40
0.1111111111111111
 40
0.1111111111111111
 40
0.1666666666666667
 40
0.1666666666666667
 40
0.1666666666666667
 40
0.1666666666666667
 40
0.2222222222222222
 40
0.2222222222222222
 40
0.2222222222222222
 40
0.2222222222222222
 40
0.2777777777777778
 40
0.2777777777777778
 40
0.2777777777777778
 40
0.2777777777777778
 40
0.3333333333333333
 40
0.3333333333333333
 40
0.3333333333333333
 40
0.3333333333333333
 40
0.3888888888888889
 40
0.3888888888888889
 40
0.3888888888888889
 40
0.3888888888888889
 40
0.4444444444444444
 40
0.4444444444444444
 40
0.4444444444444444
 40
0.4444444444444444
 40
0.5
 40
0.5
 40
0.5
 40
0.5
 40
0.5555555555555556
 40
0.5555555555555556
 40
0.5555555555555556
 40
0.5555555555555556
 40
0.6111111111111112
 40
0.6111111111111112
 40
0.6111111111111112
 40
0.6111111111111112
 40
0.6666666666666666
 40
0.6666666666666666
 40
0.6666666666666666
 40
0.6666666666666666
 40
0.7222222222222222
 40
0.7222222222222222
 40
0.7222222222222222
 40
0.7222222222222222
 40
0.7777777777777778
 40
0.7777777777777778
 40
0.7777777777777778
 40
0.7777777777777778
 40
0.8333333333333334
 40
0.8333333333333334
 40
0.8333333333333334
 40
0.8333333333333334
 40
0.8888888888888888
 40
0.8888888888888888
 40
0.8888888888888888
 40
0.8888888888888888
 40
1.0
 40
1.0
 40
1.0
 40
1.0
 10
-3.13005
 20
0.24711
 30
0.0
 10
-3.13005
 20
0.24711
 30
0.0
 10
-3.13005
 20
0.28958
 30
0.0
 10
-3.13005
 20
0.28958
 30
0.0
 10
-3.13005
 20
0.28958
 30
0.0
 10
-3.10642
 20
0.28003
 30
0.0
 10
-3.08403
 20
0.27526
 30
0.0
 10
-3.06263
 20
0.27526
 30
0.0
 10
-3.06263
 20
0.27526
 30
0.0
 10
-3.03925
 20
0.27526
 30
0.0
 10
-3.02081
 20
0.28217
 30
0.0
 10
-3.0074
 20
0.296
 30
0.0
 10
-3.0074
 20
0.296
 30
0.0
 10
-2.99398
 20
0.30983
 30
0.0
 10
-2.98731
 20
0.32885
 30
0.0
 10
-2.98731
 20
0.35305
 30
0.0
 10
-2.98731
 20
0.35305
 30
0.0
 10
-2.98731
 20
0.37906
 30
0.0
 10
-2.99678
 20
0.39898
 30
0.0
 10
-3.01571
 20
0.41273
 30
0.0
 10
-3.01571
 20
0.41273
 30
0.0
 10
-3.03464
 20
0.42647
 30
0.0
 10
-3.06205
 20
0.4333
 30
0.0
 10
-3.09786
 20
0.4333
 30
0.0
 10
-3.09786
 20
0.4333
 30
0.0
 10
-3.10617
 20
0.4333
 30
0.0
 10
-3.11498
 20
0.43273
 30
0.0
 10
-3.12412
 20
0.43158
 30
0.0
 10
-3.12412
 20
0.43158
 30
0.0
 10
-3.12412
 20
0.43158
 30
0.0
 10
-3.12412
 20
0.60567
 30
0.0
 10
-3.12412
 20
0.60567
 30
0.0
 10
-3.12412
 20
0.60567
 30
0.0
 10
-3.12412
 20
0.60567
 30
0.0
 10
-2.94335
 20
0.60567
 30
0.0
 10
-2.94335
 20
0.60567
 30
0.0
 10
-2.94335
 20
0.60567
 30
0.0
 10
-2.94335
 20
0.60567
 30
0.0
 10
-2.94335
 20
0.56419
 30
0.0
 10
-2.94335
 20
0.56419
 30
0.0
 10
-2.94335
 20
0.56419
 30
0.0
 10
-2.94335
 20
0.56419
 30
0.0
 10
-3.08263
 20
0.56419
 30
0.0
 10
-3.08263
 20
0.56419
 30
0.0
 10
-3.08263
 20
0.56419
 30
0.0
 10
-3.08263
 20
0.56419
 30
0.0
 10
-3.08263
 20
0.46985
 30
0.0
 10
-3.08263
 20
0.46985
 30
0.0
 10
-3.08263
 20
0.46985
 30
0.0
 10
-3.0367
 20
0.46985
 30
0.0
 10
-3.00089
 20
0.45932
 30
0.0
 10
-2.97513
 20
0.43824
 30
0.0
 10
-2.97513
 20
0.43824
 30
0.0
 10
-2.94936
 20
0.41725
 30
0.0
 10
-2.93644
 20
0.38811
 30
0.0
 10
-2.93644
 20
0.35083
 30
0.0
 10
-2.93644
 20
0.35083
 30
0.0
 10
-2.93644
 20
0.31609
 30
0.0
 10
-2.94813
 20
0.28892
 30
0.0
 10
-2.97151
 20
0.26925
 30
0.0
 10
-2.97151
 20
0.26925
 30
0.0
 10
-2.99488
 20
0.24958
 30
0.0
 10
-3.02715
 20
0.2397
 30
0.0
 10
-3.06831
 20
0.2397
 30
0.0
 10
-3.06831
 20
0.2397
 30
0.0
 10
-3.08667
 20
0.2397
 30
0.0
 10
-3.10724
 20
0.24217
 30
0.0
 10
-3.13005
 20
0.24711
 30
0.0
  0
SPLINE
  5
7E
330
1F
100
AcDbEntity
  8
Layer 1
 62
     5
370
     9
100
AcDbSpline
210
0.0
220
0.0
230
1.0
 70
    11
 71
     3
 72
    20
 73
    16
 74
     0
 42
0.0000000001
 43
0.0000000001
 12
1.0
 22
0.0
 32
0.0
 13
1.0
 23
0.0
 33
0.0
 40
0.0
 40
0.0
 40
0.0
 40
0.0
 40
0.2
 40
0.2
 40
0.2
 40
0.2
 40
0.4
 40
0.4
 40
0.4
 40
0.4
 40
0.6
 40
0.6
 40
0.6
 40
0.6
 40
1.0
 40
1.0
 40
1.0
 40
1.0
 10
-2.85726
 20
0.21303
 30
0.0
 10
-2.85726
 20
0.21303
 30
0.0
 10
-2.85726
 20
0.24859
 30
0.0
 10
-2.85726
 20
0.24859
 30
0.0
 10
-2.85726
 20
0.24859
 30
0.0
 10
-2.85726
 20
0.24859
 30
0.0
 10
-2.6518
 20
0.24859
 30
0.0
 10
-2.6518
 20
0.24859
 30
0.0
 10
-2.6518
 20
0.24859
 30
0.0
 10
-2.6518
 20
0.24859
 30
0.0
 10
-2.6518
 20
0.21303
 30
0.0
 10
-2.6518
 20
0.21303
 30
0.0
 10
-2.6518
 20
0.21303
 30
0.0
 10
-2.6518
 20
0.21303
 30
0.0
 10
-2.85726
 20
0.21303
 30
0.0
 10
-2.85726
 20
0.21303
 30
0.0
  0
SPLINE
  5
7F
330
1F
100
AcDbEntity
  8
Layer 1
 62
     5
370
     9
100
AcDbSpline
210
0.0
220
0.0
230
1.0
 70
    11
 71
     3
 72
    20
 73
    16
 74
     0
 42
0.0000000001
 43
0.0000000001
 12
1.0
 22
0.0
 32
0.0
 13
1.0
 23
0.0
 33
0.0
 40
0.0
 40
0.0
 40
0.0
 40
0.0
 40
0.2
 40
0.2
 40
0.2
 40
0.2
 40
0.4
 40
0.4
 40
0.4
 40
0.4
 40
0.6
 40
0.6
 40
0.6
 40
0.6
 40
1.0
 40
1.0
 40
1.0
 40
1.0
 10
-2.58364
 20
0.24859
 30
0.0
 10
-2.58364
 20
0.24859
 30
0.0
 10
-2.58364
 20
0.51035
 30
0.0
 10
-2.58364
 20
0.51035
 30
0.0
 10
-2.58364
 20
0.51035
 30
0.0
 10
-2.58364
 20
0.51035
 30
0.0
 10
-2.53622
 20
0.51035
 30
0.0
 10
-2.53622
 20
0.51035
 30
0.0
 10
-2.53622
 20
0.51035
 30
0.0
 10
-2.53622
 20
0.51035
 30
0.0
 10
-2.53622
 20
0.24859
 30
0.0
 10
-2.53622
 20
0.24859
 30
0.0
 10
-2.53622
 20
0.24859
 30
0.0
 10
-2.53622
 20
0.24859
 30
0.0
 10
-2.58364
 20
0.24859
 30
0.0
 10
-2.58364
 20
0.24859
 30
0.0
  0
SPLINE
  5
80
330
1F
100
AcDbEntity
  8
Layer 1
 62
     5
370
     9
100
AcDbSpline
210
0.0
220
0.0
230
1.0
 70
    11
 71
     3
 72
    20
 73
    16
 74
     0
 42
0.0000000001
 43
0.0000000001
 12
1.0
 22
0.0
 32
0.0
 13
1.0
 23
0.0
 33
0.0
 40
0.0
 40
0.0
 40
0.0
 40
0.0
 40
0.2
 40
0.2
 40
0.2
 40
0.2
 40
0.4
 40
0.4
 40
0.4
 40
0.4
 40
0.6
 40
0.6
 40
0.6
 40
0.6
 40
1.0
 40
1.0
 40
1.0
 40
1.0
 10
-2.58364
 20
0.55826
 30
0.0
 10
-2.58364
 20
0.55826
 30
0.0
 10
-2.58364
 20
0.60567
 30
0.0
 10
-2.58364
 20
0.60567
 30
0.0
 10
-2.58364
 20
0.60567
 30
0.0
 10
-2.58364
 20
0.60567
 30
0.0
 10
-2.53622
 20
0.60567
 30
0.0
 10
-2.53622
 20
0.60567
 30
0.0
 10
-2.53622
 20
0.60567
 30
0.0
 10
-2.53622
 20
0.60567
 30
0.0
 10
-2.53622
 20
0.55826
 30
0.0
 10
-2.53622
 20
0.55826
 30
0.0
 10
-2.53622
 20
0.55826
 30
0.0
 10
-2.53622
 20
0.55826
 30
0.0
 10
-2.58364
 20
0.55826
 30
0.0
 10
-2.58364
 20
0.55826
 30
0.0
  0
SPLINE
  5
81
330
1F
100
AcDbEntity
  8
Layer 1
 62
     5
370
     9
100
AcDbSpline
210
0.0
220
0.0
230
1.0
 70
    11
 71
     3
 72
    60
 73
    56
 74
     0
 42
0.0000000001
 43
0.0000000001
 12
1.0
 22
0.0
 32
0.0
 13
1.0
 23
0.0
 33
0.0
 40
0.0
 40
0.0
 40
0.0
 40
0.0
 40
0.0666666666666667
 40
0.0666666666666667
 40
0.0666666666666667
 40
0.0666666666666667
 40
0.1333333333333333
 40
0.1333333333333333
 40
0.1333333333333333
 40
0.1333333333333333
 40
0.2
 40
0.2
 40
0.2
 40
0.2
 40
0.2666666666666667
 40
0.2666666666666667
 40
0.2666666666666667
 40
0.2666666666666667
 40
0.3333333333333333
 40
0.3333333333333333
 40
0.3333333333333333
 40
0.3333333333333333
 40
0.4
 40
0.4
 40
0.4
 40
0.4
 40
0.4666666666666667
 40
0.4666666666666667
 40
0.4666666666666667
 40
0.4666666666666667
 40
0.5333333333333333
 40
0.5333333333333333
 40
0.5333333333333333
 40
0.5333333333333333
 40
0.6
 40
0.6
 40
0.6
 40
0.6
 40
0.6666666666666666
 40
0.6666666666666666
 40
0.6666666666666666
 40
0.6666666666666666
 40
0.7333333333333333
 40
0.7333333333333333
 40
0.7333333333333333
 40
0.7333333333333333
 40
0.8
 40
0.8
 40
0.8
 40
0.8
 40
0.8666666666666667
 40
0.8666666666666667
 40
0.8666666666666667
 40
0.8666666666666667
 40
1.0
 40
1.0
 40
1.0
 40
1.0
 10
-2.44091
 20
0.24859
 30
0.0
 10
-2.44091
 20
0.24859
 30
0.0
 10
-2.44091
 20
0.51035
 30
0.0
 10
-2.44091
 20
0.51035
 30
0.0
 10
-2.44091
 20
0.51035
 30
0.0
 10
-2.44091
 20
0.51035
 30
0.0
 10
-2.39349
 20
0.51035
 30
0.0
 10
-2.39349
 20
0.51035
 30
0.0
 10
-2.39349
 20
0.51035
 30
0.0
 10
-2.39349
 20
0.51035
 30
0.0
 10
-2.39349
 20
0.46088
 30
0.0
 10
-2.39349
 20
0.46088
 30
0.0
 10
-2.39349
 20
0.46088
 30
0.0
 10
-2.36839
 20
0.49751
 30
0.0
 10
-2.3376
 20
0.51578
 30
0.0
 10
-2.30122
 20
0.51578
 30
0.0
 10
-2.30122
 20
0.51578
 30
0.0
 10
-2.27833
 20
0.51578
 30
0.0
 10
-2.26014
 20
0.50862
 30
0.0
 10
-2.24673
 20
0.49422
 30
0.0
 10
-2.24673
 20
0.49422
 30
0.0
 10
-2.23331
 20
0.4799
 30
0.0
 10
-2.22656
 20
0.46055
 30
0.0
 10
-2.22656
 20
0.43635
 30
0.0
 10
-2.22656
 20
0.43635
 30
0.0
 10
-2.22656
 20
0.43635
 30
0.0
 10
-2.22656
 20
0.24859
 30
0.0
 10
-2.22656
 20
0.24859
 30
0.0
 10
-2.22656
 20
0.24859
 30
0.0
 10
-2.22656
 20
0.24859
 30
0.0
 10
-2.27397
 20
0.24859
 30
0.0
 10
-2.27397
 20
0.24859
 30
0.0
 10
-2.27397
 20
0.24859
 30
0.0
 10
-2.27397
 20
0.24859
 30
0.0
 10
-2.27397
 20
0.42088
 30
0.0
 10
-2.27397
 20
0.42088
 30
0.0
 10
-2.27397
 20
0.42088
 30
0.0
 10
-2.27397
 20
0.4403
 30
0.0
 10
-2.27685
 20
0.45413
 30
0.0
 10
-2.28253
 20
0.46236
 30
0.0
 10
-2.28253
 20
0.46236
 30
0.0
 10
-2.28829
 20
0.47068
 30
0.0
 10
-2.29776
 20
0.47479
 30
0.0
 10
-2.31101
 20
0.47479
 30
0.0
 10
-2.31101
 20
0.47479
 30
0.0
 10
-2.34015
 20
0.47479
 30
0.0
 10
-2.36765
 20
0.45578
 30
0.0
 10
-2.39349
 20
0.41775
 30
0.0
 10
-2.39349
 20
0.41775
 30
0.0
 10
-2.39349
 20
0.41775
 30
0.0
 10
-2.39349
 20
0.24859
 30
0.0
 10
-2.39349
 20
0.24859
 30
0.0
 10
-2.39349
 20
0.24859
 30
0.0
 10
-2.39349
 20
0.24859
 30
0.0
 10
-2.44091
 20
0.24859
 30
0.0
 10
-2.44091
 20
0.24859
 30
0.0
  0
SPLINE
  5
82
330
1F
100
AcDbEntity
  8
Layer 1
 62
     5
370
     9
100
AcDbSpline
210
0.0
220
0.0
230
1.0
 70
    11
 71
     3
 72
    20
 73
    16
 74
     0
 42
0.0000000001
 43
0.0000000001
 12
1.0
 22
0.0
 32
0.0
 13
1.0
 23
0.0
 33
0.0
 40
0.0
 40
0.0
 40
0.0
 40
0.0
 40
0.2
 40
0.2
 40
0.2
 40
0.2
 40
0.4
 40
0.4
 40
0.4
 40
0.4
 40
0.6
 40
0.6
 40
0.6
 40
0.6
 40
1.0
 40
1.0
 40
1.0
 40
1.0
 10
-2.16104
 20
0.21303
 30
0.0
 10
-2.16104
 20
0.21303
 30
0.0
 10
-2.16104
 20
0.24859
 30
0.0
 10
-2.16104
 20
0.24859
 30
0.0
 10
-2.16104
 20
0.24859
 30
0.0
 10
-2.16104
 20
0.24859
 30
0.0
 10
-1.95558
 20
0.24859
 30
0.0
 10
-1.95558
 20
0.24859
 30
0.0
 10
-1.95558
 20
0.24859
 30
0.0
 10
-1.95558
 20
0.24859
 30
0.0
 10
-1.95558
 20
0.21303
 30
0.0
 10
-1.95558
 20
0.21303
 30
0.0
 10
-1.95558
 20
0.21303
 30
0.0
 10
-1.95558
 20
0.21303
 30
0.0
 10
-2.16104
 20
0.21303
 30
0.0
 10
-2.16104
 20
0.21303
 30
0.0
  0
SPLINE
  5
83
330
1F
100
AcDbEntity
  8
Layer 1
 62
     5
370
     9
100
AcDbSpline
210
0.0
220
0.0
230
1.0
 70
    11
 71
     3
 72
    72
 73
    68
 74
     0
 42
0.0000000001
 43
0.0000000001
 12
1.0
 22
0.0
 32
0.0
 13
1.0
 23
0.0
 33
0.0
 40
0.0
 40
0.0
 40
0.0
 40
0.0
 40
0.0555555555555556
 40
0.0555555555555556
 40
0.0555555555555556
 40
0.0555555555555556
 40
0.1111111111111111
 40
0.1111111111111111
 40
0.1111111111111111
 40
0.1111111111111111
 40
0.1666666666666667
 40
0.1666666666666667
 40
0.1666666666666667
 40
0.1666666666666667
 40
0.2222222222222222
 40
0.2222222222222222
 40
0.2222222222222222
 40
0.2222222222222222
 40
0.2777777777777778
 40
0.2777777777777778
 40
0.2777777777777778
 40
0.2777777777777778
 40
0.3333333333333333
 40
0.3333333333333333
 40
0.3333333333333333
 40
0.3333333333333333
 40
0.3888888888888889
 40
0.3888888888888889
 40
0.3888888888888889
 40
0.3888888888888889
 40
0.4444444444444444
 40
0.4444444444444444
 40
0.4444444444444444
 40
0.4444444444444444
 40
0.5
 40
0.5
 40
0.5
 40
0.5
 40
0.5555555555555556
 40
0.5555555555555556
 40
0.5555555555555556
 40
0.5555555555555556
 40
0.6111111111111112
 40
0.6111111111111112
 40
0.6111111111111112
 40
0.6111111111111112
 40
0.6666666666666666
 40
0.6666666666666666
 40
0.6666666666666666
 40
0.6666666666666666
 40
0.7222222222222222
 40
0.7222222222222222
 40
0.7222222222222222
 40
0.7222222222222222
 40
0.7777777777777778
 40
0.7777777777777778
 40
0.7777777777777778
 40
0.7777777777777778
 40
0.8333333333333334
 40
0.8333333333333334
 40
0.8333333333333334
 40
0.8333333333333334
 40
0.8888888888888888
 40
0.8888888888888888
 40
0.8888888888888888
 40
0.8888888888888888
 40
1.0
 40
1.0
 40
1.0
 40
1.0
 10
-1.77036
 20
0.24867
 30
0.0
 10
-1.78502
 20
0.24464
 30
0.0
 10
-1.79778
 20
0.24266
 30
0.0
 10
-1.80856
 20
0.24266
 30
0.0
 10
-1.80856
 20
0.24266
 30
0.0
 10
-1.83276
 20
0.24266
 30
0.0
 10
-1.85161
 20
0.24958
 30
0.0
 10
-1.86511
 20
0.26341
 30
0.0
 10
-1.86511
 20
0.26341
 30
0.0
 10
-1.87869
 20
0.27724
 30
0.0
 10
-1.88544
 20
0.29642
 30
0.0
 10
-1.88544
 20
0.32103
 30
0.0
 10
-1.88544
 20
0.32103
 30
0.0
 10
-1.88544
 20
0.32103
 30
0.0
 10
-1.88544
 20
0.47479
 30
0.0
 10
-1.88544
 20
0.47479
 30
0.0
 10
-1.88544
 20
0.47479
 30
0.0
 10
-1.88544
 20
0.47479
 30
0.0
 10
-1.9182
 20
0.47479
 30
0.0
 10
-1.9182
 20
0.47479
 30
0.0
 10
-1.9182
 20
0.47479
 30
0.0
 10
-1.9182
 20
0.47479
 30
0.0
 10
-1.9182
 20
0.51035
 30
0.0
 10
-1.9182
 20
0.51035
 30
0.0
 10
-1.9182
 20
0.51035
 30
0.0
 10
-1.9182
 20
0.51035
 30
0.0
 10
-1.88544
 20
0.51035
 30
0.0
 10
-1.88544
 20
0.51035
 30
0.0
 10
-1.88544
 20
0.51035
 30
0.0
 10
-1.88544
 20
0.51035
 30
0.0
 10
-1.88544
 20
0.55768
 30
0.0
 10
-1.88544
 20
0.55768
 30
0.0
 10
-1.88544
 20
0.55768
 30
0.0
 10
-1.88544
 20
0.55768
 30
0.0
 10
-1.83803
 20
0.56221
 30
0.0
 10
-1.83803
 20
0.56221
 30
0.0
 10
-1.83803
 20
0.56221
 30
0.0
 10
-1.83803
 20
0.56221
 30
0.0
 10
-1.83803
 20
0.51035
 30
0.0
 10
-1.83803
 20
0.51035
 30
0.0
 10
-1.83803
 20
0.51035
 30
0.0
 10
-1.83803
 20
0.51035
 30
0.0
 10
-1.76938
 20
0.51035
 30
0.0
 10
-1.76938
 20
0.51035
 30
0.0
 10
-1.76938
 20
0.51035
 30
0.0
 10
-1.76938
 20
0.51035
 30
0.0
 10
-1.76938
 20
0.47479
 30
0.0
 10
-1.76938
 20
0.47479
 30
0.0
 10
-1.76938
 20
0.47479
 30
0.0
 10
-1.76938
 20
0.47479
 30
0.0
 10
-1.83803
 20
0.47479
 30
0.0
 10
-1.83803
 20
0.47479
 30
0.0
 10
-1.83803
 20
0.47479
 30
0.0
 10
-1.83803
 20
0.47479
 30
0.0
 10
-1.83803
 20
0.32959
 30
0.0
 10
-1.83803
 20
0.32959
 30
0.0
 10
-1.83803
 20
0.32959
 30
0.0
 10
-1.83803
 20
0.29534
 30
0.0
 10
-1.82313
 20
0.27822
 30
0.0
 10
-1.79341
 20
0.27822
 30
0.0
 10
-1.79341
 20
0.27822
 30
0.0
 10
-1.78707
 20
0.27822
 30
0.0
 10
-1.77942
 20
0.27929
 30
0.0
 10
-1.77036
 20
0.28135
 30
0.0
 10
-1.77036
 20
0.28135
 30
0.0
 10
-1.77036
 20
0.28135
 30
0.0
 10
-1.77036
 20
0.24867
 30
0.0
 10
-1.77036
 20
0.24867
 30
0.0
  0
SPLINE
  5
84
330
1F
100
AcDbEntity
  8
Layer 1
 62
     5
370
     9
100
AcDbSpline
210
0.0
220
0.0
230
1.0
 70
    11
 71
     3
 72
    52
 73
    48
 74
     0
 42
0.0000000001
 43
0.0000000001
 12
1.0
 22
0.0
 32
0.0
 13
1.0
 23
0.0
 33
0.0
 40
0.0
 40
0.0
 40
0.0
 40
0.0
 40
0.0769230769230769
 40
0.0769230769230769
 40
0.0769230769230769
 40
0.0769230769230769
 40
0.1538461538461539
 40
0.1538461538461539
 40
0.1538461538461539
 40
0.1538461538461539
 40
0.2307692307692308
 40
0.2307692307692308
 40
0.2307692307692308
 40
0.2307692307692308
 40
0.3076923076923077
 40
0.3076923076923077
 40
0.3076923076923077
 40
0.3076923076923077
 40
0.3846153846153846
 40
0.3846153846153846
 40
0.3846153846153846
 40
0.3846153846153846
 40
0.4615384615384616
 40
0.4615384615384616
 40
0.4615384615384616
 40
0.4615384615384616
 40
0.5384615384615384
 40
0.5384615384615384
 40
0.5384615384615384
 40
0.5384615384615384
 40
0.6153846153846154
 40
0.6153846153846154
 40
0.6153846153846154
 40
0.6153846153846154
 40
0.6923076923076923
 40
0.6923076923076923
 40
0.6923076923076923
 40
0.6923076923076923
 40
0.7692307692307693
 40
0.7692307692307693
 40
0.7692307692307693
 40
0.7692307692307693
 40
0.8461538461538461
 40
0.8461538461538461
 40
0.8461538461538461
 40
0.8461538461538461
 40
1.0
 40
1.0
 40
1.0
 40
1.0
 10
-1.51058
 20
0.25699
 30
0.0
 10
-1.54244
 20
0.24744
 30
0.0
 10
-1.56969
 20
0.24266
 30
0.0
 10
-1.5924
 20
0.24266
 30
0.0
 10
-1.5924
 20
0.24266
 30
0.0
 10
-1.63117
 20
0.24266
 30
0.0
 10
-1.6627
 20
0.2555
 30
0.0
 10
-1.68698
 20
0.2811
 30
0.0
 10
-1.68698
 20
0.2811
 30
0.0
 10
-1.71127
 20
0.3067
 30
0.0
 10
-1.72345
 20
0.33988
 30
0.0
 10
-1.72345
 20
0.38071
 30
0.0
 10
-1.72345
 20
0.38071
 30
0.0
 10
-1.72345
 20
0.4203
 30
0.0
 10
-1.71275
 20
0.45281
 30
0.0
 10
-1.69126
 20
0.47825
 30
0.0
 10
-1.69126
 20
0.47825
 30
0.0
 10
-1.66978
 20
0.5036
 30
0.0
 10
-1.64229
 20
0.51628
 30
0.0
 10
-1.60879
 20
0.51628
 30
0.0
 10
-1.60879
 20
0.51628
 30
0.0
 10
-1.57709
 20
0.51628
 30
0.0
 10
-1.55256
 20
0.505
 30
0.0
 10
-1.53528
 20
0.48245
 30
0.0
 10
-1.53528
 20
0.48245
 30
0.0
 10
-1.51799
 20
0.45989
 30
0.0
 10
-1.50935
 20
0.42795
 30
0.0
 10
-1.50935
 20
0.38655
 30
0.0
 10
-1.50935
 20
0.38655
 30
0.0
 10
-1.50935
 20
0.38655
 30
0.0
 10
-1.5096
 20
0.37206
 30
0.0
 10
-1.5096
 20
0.37206
 30
0.0
 10
-1.5096
 20
0.37206
 30
0.0
 10
-1.5096
 20
0.37206
 30
0.0
 10
-1.67505
 20
0.37206
 30
0.0
 10
-1.67505
 20
0.37206
 30
0.0
 10
-1.67505
 20
0.37206
 30
0.0
 10
-1.66813
 20
0.3095
 30
0.0
 10
-1.6376
 20
0.27822
 30
0.0
 10
-1.58351
 20
0.27822
 30
0.0
 10
-1.58351
 20
0.27822
 30
0.0
 10
-1.56368
 20
0.27822
 30
0.0
 10
-1.53939
 20
0.28382
 30
0.0
 10
-1.51058
 20
0.29502
 30
0.0
 10
-1.51058
 20
0.29502
 30
0.0
 10
-1.51058
 20
0.29502
 30
0.0
 10
-1.51058
 20
0.25699
 30
0.0
 10
-1.51058
 20
0.25699
 30
0.0
  0
SPLINE
  5
85
330
1F
100
AcDbEntity
  8
Layer 1
 62
     5
370
     9
100
AcDbSpline
210
0.0
220
0.0
230
1.0
 70
    11
 71
     3
 72
    16
 73
    12
 74
     0
 42
0.0000000001
 43
0.0000000001
 12
1.0
 22
0.0
 32
0.0
 13
1.0
 23
0.0
 33
0.0
 40
0.0
 40
0.0
 40
0.0
 40
0.0
 40
0.25
 40
0.25
 40
0.25
 40
0.25
 40
0.5
 40
0.5
 40
0.5
 40
0.5
 40
1.0
 40
1.0
 40
1.0
 40
1.0
 10
-1.67258
 20
0.40762
 30
0.0
 10
-1.67258
 20
0.40762
 30
0.0
 10
-1.55701
 20
0.40762
 30
0.0
 10
-1.55701
 20
0.40762
 30
0.0
 10
-1.55701
 20
0.40762
 30
0.0
 10
-1.55701
 20
0.45635
 30
0.0
 10
-1.5752
 20
0.48072
 30
0.0
 10
-1.6115
 20
0.48072
 30
0.0
 10
-1.6115
 20
0.48072
 30
0.0
 10
-1.64805
 20
0.48072
 30
0.0
 10
-1.66838
 20
0.45635
 30
0.0
 10
-1.67258
 20
0.40762
 30
0.0
  0
SPLINE
  5
86
330
1F
100
AcDbEntity
  8
Layer 1
 62
     5
370
     9
100
AcDbSpline
210
0.0
220
0.0
230
1.0
 70
    11
 71
     3
 72
    92
 73
    88
 74
     0
 42
0.0000000001
 43
0.0000000001
 12
1.0
 22
0.0
 32
0.0
 13
1.0
 23
0.0
 33
0.0
 40
0.0
 40
0.0
 40
0.0
 40
0.0
 40
0.0434782608695652
 40
0.0434782608695652
 40
0.0434782608695652
 40
0.0434782608695652
 40
0.0869565217391304
 40
0.0869565217391304
 40
0.0869565217391304
 40
0.0869565217391304
 40
0.1304347826086956
 40
0.1304347826086956
 40
0.1304347826086956
 40
0.1304347826086956
 40
0.1739130434782609
 40
0.1739130434782609
 40
0.1739130434782609
 40
0.1739130434782609
 40
0.2173913043478261
 40
0.2173913043478261
 40
0.2173913043478261
 40
0.2173913043478261
 40
0.2608695652173913
 40
0.2608695652173913
 40
0.2608695652173913
 40
0.2608695652173913
 40
0.3043478260869565
 40
0.3043478260869565
 40
0.3043478260869565
 40
0.3043478260869565
 40
0.3478260869565217
 40
0.3478260869565217
 40
0.3478260869565217
 40
0.3478260869565217
 40
0.391304347826087
 40
0.391304347826087
 40
0.391304347826087
 40
0.391304347826087
 40
0.4347826086956522
 40
0.4347826086956522
 40
0.4347826086956522
 40
0.4347826086956522
 40
0.4782608695652174
 40
0.4782608695652174
 40
0.4782608695652174
 40
0.4782608695652174
 40
0.5217391304347826
 40
0.5217391304347826
 40
0.5217391304347826
 40
0.5217391304347826
 40
0.5652173913043478
 40
0.5652173913043478
 40
0.5652173913043478
 40
0.5652173913043478
 40
0.6086956521739131
 40
0.6086956521739131
 40
0.6086956521739131
 40
0.6086956521739131
 40
0.6521739130434783
 40
0.6521739130434783
 40
0.6521739130434783
 40
0.6521739130434783
 40
0.6956521739130435
 40
0.6956521739130435
 40
0.6956521739130435
 40
0.6956521739130435
 40
0.7391304347826086
 40
0.7391304347826086
 40
0.7391304347826086
 40
0.7391304347826086
 40
0.782608695652174
 40
0.782608695652174
 40
0.782608695652174
 40
0.782608695652174
 40
0.8260869565217391
 40
0.8260869565217391
 40
0.8260869565217391
 40
0.8260869565217391
 40
0.8695652173913043
 40
0.8695652173913043
 40
0.8695652173913043
 40
0.8695652173913043
 40
0.9130434782608695
 40
0.9130434782608695
 40
0.9130434782608695
 40
0.9130434782608695
 40
1.0
 40
1.0
 40
1.0
 40
1.0
 10
-1.43691
 20
0.25797
 30
0.0
 10
-1.43691
 20
0.25797
 30
0.0
 10
-1.43691
 20
0.30144
 30
0.0
 10
-1.43691
 20
0.30144
 30
0.0
 10
-1.43691
 20
0.30144
 30
0.0
 10
-1.40588
 20
0.28596
 30
0.0
 10
-1.37896
 20
0.27822
 30
0.0
 10
-1.35599
 20
0.27822
 30
0.0
 10
-1.35599
 20
0.27822
 30
0.0
 10
-1.34233
 20
0.27822
 30
0.0
 10
-1.33097
 20
0.28193
 30
0.0
 10
-1.322
 20
0.28934
 30
0.0
 10
-1.322
 20
0.28934
 30
0.0
 10
-1.31303
 20
0.29666
 30
0.0
 10
-1.3085
 20
0.30588
 30
0.0
 10
-1.3085
 20
0.31699
 30
0.0
 10
-1.3085
 20
0.31699
 30
0.0
 10
-1.3085
 20
0.33321
 30
0.0
 10
-1.32109
 20
0.34663
 30
0.0
 10
-1.34628
 20
0.35725
 30
0.0
 10
-1.34628
 20
0.35725
 30
0.0
 10
-1.34628
 20
0.35725
 30
0.0
 10
-1.37402
 20
0.36902
 30
0.0
 10
-1.37402
 20
0.36902
 30
0.0
 10
-1.37402
 20
0.36902
 30
0.0
 10
-1.41493
 20
0.38597
 30
0.0
 10
-1.43543
 20
0.4105
 30
0.0
 10
-1.43543
 20
0.44236
 30
0.0
 10
-1.43543
 20
0.44236
 30
0.0
 10
-1.43543
 20
0.46516
 30
0.0
 10
-1.42736
 20
0.48311
 30
0.0
 10
-1.41123
 20
0.49619
 30
0.0
 10
-1.41123
 20
0.49619
 30
0.0
 10
-1.39509
 20
0.50928
 30
0.0
 10
-1.37295
 20
0.51578
 30
0.0
 10
-1.34488
 20
0.51578
 30
0.0
 10
-1.34488
 20
0.51578
 30
0.0
 10
-1.33031
 20
0.51578
 30
0.0
 10
-1.3122
 20
0.51381
 30
0.0
 10
-1.29072
 20
0.50978
 30
0.0
 10
-1.29072
 20
0.50978
 30
0.0
 10
-1.29072
 20
0.50978
 30
0.0
 10
-1.28084
 20
0.50788
 30
0.0
 10
-1.28084
 20
0.50788
 30
0.0
 10
-1.28084
 20
0.50788
 30
0.0
 10
-1.28084
 20
0.50788
 30
0.0
 10
-1.28084
 20
0.46837
 30
0.0
 10
-1.28084
 20
0.46837
 30
0.0
 10
-1.28084
 20
0.46837
 30
0.0
 10
-1.30726
 20
0.47627
 30
0.0
 10
-1.32834
 20
0.48022
 30
0.0
 10
-1.34406
 20
0.48022
 30
0.0
 10
-1.34406
 20
0.48022
 30
0.0
 10
-1.35789
 20
0.48022
 30
0.0
 10
-1.36884
 20
0.47718
 30
0.0
 10
-1.37715
 20
0.47117
 30
0.0
 10
-1.37715
 20
0.47117
 30
0.0
 10
-1.38538
 20
0.46516
 30
0.0
 10
-1.3895
 20
0.45709
 30
0.0
 10
-1.3895
 20
0.44697
 30
0.0
 10
-1.3895
 20
0.44697
 30
0.0
 10
-1.3895
 20
0.43273
 30
0.0
 10
-1.37797
 20
0.42063
 30
0.0
 10
-1.35484
 20
0.41083
 30
0.0
 10
-1.35484
 20
0.41083
 30
0.0
 10
-1.35484
 20
0.41083
 30
0.0
 10
-1.33204
 20
0.4012
 30
0.0
 10
-1.33204
 20
0.4012
 30
0.0
 10
-1.33204
 20
0.4012
 30
0.0
 10
-1.30619
 20
0.39034
 30
0.0
 10
-1.28792
 20
0.37881
 30
0.0
 10
-1.27722
 20
0.36671
 30
0.0
 10
-1.27722
 20
0.36671
 30
0.0
 10
-1.26644
 20
0.35461
 30
0.0
 10
-1.26109
 20
0.33947
 30
0.0
 10
-1.26109
 20
0.32136
 30
0.0
 10
-1.26109
 20
0.32136
 30
0.0
 10
-1.26109
 20
0.29839
 30
0.0
 10
-1.27014
 20
0.27954
 30
0.0
 10
-1.28833
 20
0.26481
 30
0.0
 10
-1.28833
 20
0.26481
 30
0.0
 10
-1.30644
 20
0.25007
 30
0.0
 10
-1.32965
 20
0.24266
 30
0.0
 10
-1.35789
 20
0.24266
 30
0.0
 10
-1.35789
 20
0.24266
 30
0.0
 10
-1.37962
 20
0.24266
 30
0.0
 10
-1.40588
 20
0.24777
 30
0.0
 10
-1.43691
 20
0.25797
 30
0.0
  0
SPLINE
  5
87
330
1F
100
AcDbEntity
  8
Layer 1
 62
     5
370
     9
100
AcDbSpline
210
0.0
220
0.0
230
1.0
 70
    11
 71
     3
 72
    72
 73
    68
 74
     0
 42
0.0000000001
 43
0.0000000001
 12
1.0
 22
0.0
 32
0.0
 13
1.0
 23
0.0
 33
0.0
 40
0.0
 40
0.0
 40
0.0
 40
0.0
 40
0.0555555555555556
 40
0.0555555555555556
 40
0.0555555555555556
 40
0.0555555555555556
 40
0.1111111111111111
 40
0.1111111111111111
 40
0.1111111111111111
 40
0.1111111111111111
 40
0.1666666666666667
 40
0.1666666666666667
 40
0.1666666666666667
 40
0.1666666666666667
 40
0.2222222222222222
 40
0.2222222222222222
 40
0.2222222222222222
 40
0.2222222222222222
 40
0.2777777777777778
 40
0.2777777777777778
 40
0.2777777777777778
 40
0.2777777777777778
 40
0.3333333333333333
 40
0.3333333333333333
 40
0.3333333333333333
 40
0.3333333333333333
 40
0.3888888888888889
 40
0.3888888888888889
 40
0.3888888888888889
 40
0.3888888888888889
 40
0.4444444444444444
 40
0.4444444444444444
 40
0.4444444444444444
 40
0.4444444444444444
 40
0.5
 40
0.5
 40
0.5
 40
0.5
 40
0.5555555555555556
 40
0.5555555555555556
 40
0.5555555555555556
 40
0.5555555555555556
 40
0.6111111111111112
 40
0.6111111111111112
 40
0.6111111111111112
 40
0.6111111111111112
 40
0.6666666666666666
 40
0.6666666666666666
 40
0.6666666666666666
 40
0.6666666666666666
 40
0.7222222222222222
 40
0.7222222222222222
 40
0.7222222222222222
 40
0.7222222222222222
 40
0.7777777777777778
 40
0.7777777777777778
 40
0.7777777777777778
 40
0.7777777777777778
 40
0.8333333333333334
 40
0.8333333333333334
 40
0.8333333333333334
 40
0.8333333333333334
 40
0.8888888888888888
 40
0.8888888888888888
 40
0.8888888888888888
 40
0.8888888888888888
 40
1.0
 40
1.0
 40
1.0
 40
1.0
 10
-1.05867
 20
0.24867
 30
0.0
 10
-1.07333
 20
0.24464
 30
0.0
 10
-1.08609
 20
0.24266
 30
0.0
 10
-1.09687
 20
0.24266
 30
0.0
 10
-1.09687
 20
0.24266
 30
0.0
 10
-1.12107
 20
0.24266
 30
0.0
 10
-1.13992
 20
0.24958
 30
0.0
 10
-1.15342
 20
0.26341
 30
0.0
 10
-1.15342
 20
0.26341
 30
0.0
 10
-1.167
 20
0.27724
 30
0.0
 10
-1.17375
 20
0.29642
 30
0.0
 10
-1.17375
 20
0.32103
 30
0.0
 10
-1.17375
 20
0.32103
 30
0.0
 10
-1.17375
 20
0.32103
 30
0.0
 10
-1.17375
 20
0.47479
 30
0.0
 10
-1.17375
 20
0.47479
 30
0.0
 10
-1.17375
 20
0.47479
 30
0.0
 10
-1.17375
 20
0.47479
 30
0.0
 10
-1.20651
 20
0.47479
 30
0.0
 10
-1.20651
 20
0.47479
 30
0.0
 10
-1.20651
 20
0.47479
 30
0.0
 10
-1.20651
 20
0.47479
 30
0.0
 10
-1.20651
 20
0.51035
 30
0.0
 10
-1.20651
 20
0.51035
 30
0.0
 10
-1.20651
 20
0.51035
 30
0.0
 10
-1.20651
 20
0.51035
 30
0.0
 10
-1.17375
 20
0.51035
 30
0.0
 10
-1.17375
 20
0.51035
 30
0.0
 10
-1.17375
 20
0.51035
 30
0.0
 10
-1.17375
 20
0.51035
 30
0.0
 10
-1.17375
 20
0.55768
 30
0.0
 10
-1.17375
 20
0.55768
 30
0.0
 10
-1.17375
 20
0.55768
 30
0.0
 10
-1.17375
 20
0.55768
 30
0.0
 10
-1.12634
 20
0.56221
 30
0.0
 10
-1.12634
 20
0.56221
 30
0.0
 10
-1.12634
 20
0.56221
 30
0.0
 10
-1.12634
 20
0.56221
 30
0.0
 10
-1.12634
 20
0.51035
 30
0.0
 10
-1.12634
 20
0.51035
 30
0.0
 10
-1.12634
 20
0.51035
 30
0.0
 10
-1.12634
 20
0.51035
 30
0.0
 10
-1.05769
 20
0.51035
 30
0.0
 10
-1.05769
 20
0.51035
 30
0.0
 10
-1.05769
 20
0.51035
 30
0.0
 10
-1.05769
 20
0.51035
 30
0.0
 10
-1.05769
 20
0.47479
 30
0.0
 10
-1.05769
 20
0.47479
 30
0.0
 10
-1.05769
 20
0.47479
 30
0.0
 10
-1.05769
 20
0.47479
 30
0.0
 10
-1.12634
 20
0.47479
 30
0.0
 10
-1.12634
 20
0.47479
 30
0.0
 10
-1.12634
 20
0.47479
 30
0.0
 10
-1.12634
 20
0.47479
 30
0.0
 10
-1.12634
 20
0.32959
 30
0.0
 10
-1.12634
 20
0.32959
 30
0.0
 10
-1.12634
 20
0.32959
 30
0.0
 10
-1.12634
 20
0.29534
 30
0.0
 10
-1.11144
 20
0.27822
 30
0.0
 10
-1.08172
 20
0.27822
 30
0.0
 10
-1.08172
 20
0.27822
 30
0.0
 10
-1.07538
 20
0.27822
 30
0.0
 10
-1.06773
 20
0.27929
 30
0.0
 10
-1.05867
 20
0.28135
 30
0.0
 10
-1.05867
 20
0.28135
 30
0.0
 10
-1.05867
 20
0.28135
 30
0.0
 10
-1.05867
 20
0.24867
 30
0.0
 10
-1.05867
 20
0.24867
 30
0.0
  0
SPLINE
  5
88
330
1F
100
AcDbEntity
  8
Layer 1
 62
     5
370
     9
100
AcDbSpline
210
0.0
220
0.0
230
1.0
 70
    11
 71
     3
 72
    20
 73
    16
 74
     0
 42
0.0000000001
 43
0.0000000001
 12
1.0
 22
0.0
 32
0.0
 13
1.0
 23
0.0
 33
0.0
 40
0.0
 40
0.0
 40
0.0
 40
0.0
 40
0.2
 40
0.2
 40
0.2
 40
0.2
 40
0.4
 40
0.4
 40
0.4
 40
0.4
 40
0.6
 40
0.6
 40
0.6
 40
0.6
 40
1.0
 40
1.0
 40
1.0
 40
1.0
 10
-3.26776
 20
-0.51035
 30
0.0
 10
-3.26776
 20
-0.51035
 30
0.0
 10
-3.26776
 20
-0.12956
 30
0.0
 10
-3.26776
 20
-0.12956
 30
0.0
 10
-3.26776
 20
-0.12956
 30
0.0
 10
-3.26776
 20
-0.12956
 30
0.0
 10
-3.22034
 20
-0.12956
 30
0.0
 10
-3.22034
 20
-0.12956
 30
0.0
 10
-3.22034
 20
-0.12956
 30
0.0
 10
-3.22034
 20
-0.12956
 30
0.0
 10
-3.22034
 20
-0.51035
 30
0.0
 10
-3.22034
 20
-0.51035
 30
0.0
 10
-3.22034
 20
-0.51035
 30
0.0
 10
-3.22034
 20
-0.51035
 30
0.0
 10
-3.26776
 20
-0.51035
 30
0.0
 10
-3.26776
 20
-0.51035
 30
0.0
  0
SPLINE
  5
89
330
1F
100
AcDbEntity
  8
Layer 1
 62
     5
370
     9
100
AcDbSpline
210
0.0
220
0.0
230
1.0
 70
    11
 71
     3
 72
    20
 73
    16
 74
     0
 42
0.0000000001
 43
0.0000000001
 12
1.0
 22
0.0
 32
0.0
 13
1.0
 23
0.0
 33
0.0
 40
0.0
 40
0.0
 40
0.0
 40
0.0
 40
0.2
 40
0.2
 40
0.2
 40
0.2
 40
0.4
 40
0.4
 40
0.4
 40
0.4
 40
0.6
 40
0.6
 40
0.6
 40
0.6
 40
1.0
 40
1.0
 40
1.0
 40
1.0
 10
-3.12503
 20
-0.51035
 30
0.0
 10
-3.12503
 20
-0.51035
 30
0.0
 10
-3.12503
 20
-0.24859
 30
0.0
 10
-3.12503
 20
-0.24859
 30
0.0
 10
-3.12503
 20
-0.24859
 30
0.0
 10
-3.12503
 20
-0.24859
 30
0.0
 10
-3.07761
 20
-0.24859
 30
0.0
 10
-3.07761
 20
-0.24859
 30
0.0
 10
-3.07761
 20
-0.24859
 30
0.0
 10
-3.07761
 20
-0.24859
 30
0.0
 10
-3.07761
 20
-0.51035
 30
0.0
 10
-3.07761
 20
-0.51035
 30
0.0
 10
-3.07761
 20
-0.51035
 30
0.0
 10
-3.07761
 20
-0.51035
 30
0.0
 10
-3.12503
 20
-0.51035
 30
0.0
 10
-3.12503
 20
-0.51035
 30
0.0
  0
SPLINE
  5
8A
330
1F
100
AcDbEntity
  8
Layer 1
 62
     5
370
     9
100
AcDbSpline
210
0.0
220
0.0
230
1.0
 70
    11
 71
     3
 72
    20
 73
    16
 74
     0
 42
0.0000000001
 43
0.0000000001
 12
1.0
 22
0.0
 32
0.0
 13
1.0
 23
0.0
 33
0.0
 40
0.0
 40
0.0
 40
0.0
 40
0.0
 40
0.2
 40
0.2
 40
0.2
 40
0.2
 40
0.4
 40
0.4
 40
0.4
 40
0.4
 40
0.6
 40
0.6
 40
0.6
 40
0.6
 40
1.0
 40
1.0
 40
1.0
 40
1.0
 10
-3.12503
 20
-0.20068
 30
0.0
 10
-3.12503
 20
-0.20068
 30
0.0
 10
-3.12503
 20
-0.15327
 30
0.0
 10
-3.12503
 20
-0.15327
 30
0.0
 10
-3.12503
 20
-0.15327
 30
0.0
 10
-3.12503
 20
-0.15327
 30
0.0
 10
-3.07761
 20
-0.15327
 30
0.0
 10
-3.07761
 20
-0.15327
 30
0.0
 10
-3.07761
 20
-0.15327
 30
0.0
 10
-3.07761
 20
-0.15327
 30
0.0
 10
-3.07761
 20
-0.20068
 30
0.0
 10
-3.07761
 20
-0.20068
 30
0.0
 10
-3.07761
 20
-0.20068
 30
0.0
 10
-3.07761
 20
-0.20068
 30
0.0
 10
-3.12503
 20
-0.20068
 30
0.0
 10
-3.12503
 20
-0.20068
 30
0.0
  0
SPLINE
  5
8B
330
1F
100
AcDbEntity
  8
Layer 1
 62
     5
370
     9
100
AcDbSpline
210
0.0
220
0.0
230
1.0
 70
    11
 71
     3
 72
    48
 73
    44
 74
     0
 42
0.0000000001
 43
0.0000000001
 12
1.0
 22
0.0
 32
0.0
 13
1.0
 23
0.0
 33
0.0
 40
0.0
 40
0.0
 40
0.0
 40
0.0
 40
0.0833333333333333
 40
0.0833333333333333
 40
0.0833333333333333
 40
0.0833333333333333
 40
0.1666666666666667
 40
0.1666666666666667
 40
0.1666666666666667
 40
0.1666666666666667
 40
0.25
 40
0.25
 40
0.25
 40
0.25
 40
0.3333333333333333
 40
0.3333333333333333
 40
0.3333333333333333
 40
0.3333333333333333
 40
0.4166666666666667
 40
0.4166666666666667
 40
0.4166666666666667
 40
0.4166666666666667
 40
0.5
 40
0.5
 40
0.5
 40
0.5
 40
0.5833333333333334
 40
0.5833333333333334
 40
0.5833333333333334
 40
0.5833333333333334
 40
0.6666666666666666
 40
0.6666666666666666
 40
0.6666666666666666
 40
0.6666666666666666
 40
0.75
 40
0.75
 40
0.75
 40
0.75
 40
0.8333333333333334
 40
0.8333333333333334
 40
0.8333333333333334
 40
0.8333333333333334
 40
1.0
 40
1.0
 40
1.0
 40
1.0
 10
-2.9823
 20
-0.60567
 30
0.0
 10
-2.9823
 20
-0.60567
 30
0.0
 10
-2.9823
 20
-0.24859
 30
0.0
 10
-2.9823
 20
-0.24859
 30
0.0
 10
-2.9823
 20
-0.24859
 30
0.0
 10
-2.9823
 20
-0.24859
 30
0.0
 10
-2.93488
 20
-0.24859
 30
0.0
 10
-2.93488
 20
-0.24859
 30
0.0
 10
-2.93488
 20
-0.24859
 30
0.0
 10
-2.93488
 20
-0.24859
 30
0.0
 10
-2.93488
 20
-0.29806
 30
0.0
 10
-2.93488
 20
-0.29806
 30
0.0
 10
-2.93488
 20
-0.29806
 30
0.0
 10
-2.91546
 20
-0.26143
 30
0.0
 10
-2.88623
 20
-0.24316
 30
0.0
 10
-2.8473
 20
-0.24316
 30
0.0
 10
-2.8473
 20
-0.24316
 30
0.0
 10
-2.81577
 20
-0.24316
 30
0.0
 10
-2.791
 20
-0.2546
 30
0.0
 10
-2.77289
 20
-0.27756
 30
0.0
 10
-2.77289
 20
-0.27756
 30
0.0
 10
-2.75478
 20
-0.30053
 30
0.0
 10
-2.74572
 20
-0.33189
 30
0.0
 10
-2.74572
 20
-0.37165
 30
0.0
 10
-2.74572
 20
-0.37165
 30
0.0
 10
-2.74572
 20
-0.41495
 30
0.0
 10
-2.75601
 20
-0.44993
 30
0.0
 10
-2.77651
 20
-0.47644
 30
0.0
 10
-2.77651
 20
-0.47644
 30
0.0
 10
-2.79701
 20
-0.50302
 30
0.0
 10
-2.824
 20
-0.51628
 30
0.0
 10
-2.85742
 20
-0.51628
 30
0.0
 10
-2.85742
 20
-0.51628
 30
0.0
 10
-2.88846
 20
-0.51628
 30
0.0
 10
-2.9143
 20
-0.50442
 30
0.0
 10
-2.93488
 20
-0.48063
 30
0.0
 10
-2.93488
 20
-0.48063
 30
0.0
 10
-2.93488
 20
-0.48063
 30
0.0
 10
-2.93488
 20
-0.60567
 30
0.0
 10
-2.93488
 20
-0.60567
 30
0.0
 10
-2.93488
 20
-0.60567
 30
0.0
 10
-2.93488
 20
-0.60567
 30
0.0
 10
-2.9823
 20
-0.60567
 30
0.0
 10
-2.9823
 20
-0.60567
 30
0.0
  0
SPLINE
  5
8C
330
1F
100
AcDbEntity
  8
Layer 1
 62
     5
370
     9
100
AcDbSpline
210
0.0
220
0.0
230
1.0
 70
    11
 71
     3
 72
    28
 73
    24
 74
     0
 42
0.0000000001
 43
0.0000000001
 12
1.0
 22
0.0
 32
0.0
 13
1.0
 23
0.0
 33
0.0
 40
0.0
 40
0.0
 40
0.0
 40
0.0
 40
0.1428571428571428
 40
0.1428571428571428
 40
0.1428571428571428
 40
0.1428571428571428
 40
0.2857142857142857
 40
0.2857142857142857
 40
0.2857142857142857
 40
0.2857142857142857
 40
0.4285714285714285
 40
0.4285714285714285
 40
0.4285714285714285
 40
0.4285714285714285
 40
0.5714285714285714
 40
0.5714285714285714
 40
0.5714285714285714
 40
0.5714285714285714
 40
0.7142857142857143
 40
0.7142857142857143
 40
0.7142857142857143
 40
0.7142857142857143
 40
1.0
 40
1.0
 40
1.0
 40
1.0
 10
-2.93488
 20
-0.44796
 30
0.0
 10
-2.91044
 20
-0.46977
 30
0.0
 10
-2.88714
 20
-0.48072
 30
0.0
 10
-2.865
 20
-0.48072
 30
0.0
 10
-2.865
 20
-0.48072
 30
0.0
 10
-2.84318
 20
-0.48072
 30
0.0
 10
-2.82631
 20
-0.47158
 30
0.0
 10
-2.81446
 20
-0.45339
 30
0.0
 10
-2.81446
 20
-0.45339
 30
0.0
 10
-2.80252
 20
-0.4352
 30
0.0
 10
-2.79659
 20
-0.4096
 30
0.0
 10
-2.79659
 20
-0.37651
 30
0.0
 10
-2.79659
 20
-0.37651
 30
0.0
 10
-2.79659
 20
-0.31526
 30
0.0
 10
-2.81684
 20
-0.28464
 30
0.0
 10
-2.85734
 20
-0.28464
 30
0.0
 10
-2.85734
 20
-0.28464
 30
0.0
 10
-2.88385
 20
-0.28464
 30
0.0
 10
-2.90969
 20
-0.29897
 30
0.0
 10
-2.93488
 20
-0.32769
 30
0.0
 10
-2.93488
 20
-0.32769
 30
0.0
 10
-2.93488
 20
-0.32769
 30
0.0
 10
-2.93488
 20
-0.44796
 30
0.0
 10
-2.93488
 20
-0.44796
 30
0.0
  0
SPLINE
  5
8D
330
1F
100
AcDbEntity
  8
Layer 1
370
    53
100
AcDbSpline
210
0.0
220
0.0
230
1.0
 70
    11
 71
     3
 72
    20
 73
    16
 74
     0
 42
0.0000000001
 43
0.0000000001
 12
1.0
 22
0.0
 32
0.0
 13
1.0
 23
0.0
 33
0.0
 40
0.0
 40
0.0
 40
0.0
 40
0.0
 40
0.2
 40
0.2
 40
0.2
 40
0.2
 40
0.4
 40
0.4
 40
0.4
 40
0.4
 40
0.6
 40
0.6
 40
0.6
 40
0.6
 40
1.0
 40
1.0
 40
1.0
 40
1.0
 10
-1.95
 20
-5.25
 30
0.0
 10
-1.95
 20
-5.08431
 30
0.0
 10
-2.08431
 20
-4.95
 30
0.0
 10
-2.25
 20
-4.95
 30
0.0
 10
-2.25
 20
-4.95
 30
0.0
 10
-2.41569
 20
-4.95
 30
0.0
 10
-2.55
 20
-5.08431
 30
0.0
 10
-2.55
 20
-5.25
 30
0.0
 10
-2.55
 20
-5.25
 30
0.0
 10
-2.55
 20
-5.41569
 30
0.0
 10
-2.41569
 20
-5.55
 30
0.0
 10
-2.25
 20
-5.55
 30
0.0
 10
-2.25
 20
-5.55
 30
0.0
 10
-2.08431
 20
-5.55
 30
0.0
 10
-1.95
 20
-5.41569
 30
0.0
 10
-1.95
 20
-5.25
 30
0.0
  0
SPLINE
  5
8E
330
1F
100
AcDbEntity
  8
Layer 1
370
    53
100
AcDbSpline
210
0.0
220
0.0
230
1.0
 70
    11
 71
     3
 72
    20
 73
    16
 74
     0
 42
0.0000000001
 43
0.0000000001
 12
1.0
 22
0.0
 32
0.0
 13
1.0
 23
0.0
 33
0.0
 40
0.0
 40
0.0
 40
0.0
 40
0.0
 40
0.2
 40
0.2
 40
0.2
 40
0.2
 40
0.4
 40
0.4
 40
0.4
 40
0.4
 40
0.6
 40
0.6
 40
0.6
 40
0.6
 40
1.0
 40
1.0
 40
1.0
 40
1.0
 10
-2.85
 20
-5.25
 30
0.0
 10
-2.85
 20
-5.33284
 30
0.0
 10
-2.91716
 20
-5.4
 30
0.0
 10
-3.0
 20
-5.4
 30
0.0
 10
-3.0
 20
-5.4
 30
0.0
 10
-3.08284
 20
-5.4
 30
0.0
 10
-3.15
 20
-5.33284
 30
0.0
 10
-3.15
 20
-5.25
 30
0.0
 10
-3.15
 20
-5.25
 30
0.0
 10
-3.15
 20
-5.16716
 30
0.0
 10
-3.08284
 20
-5.1
 30
0.0
 10
-3.0
 20
-5.1
 30
0.0
 10
-3.0
 20
-5.1
 30
0.0
 10
-2.91716
 20
-5.1
 30
0.0
 10
-2.85
 20
-5.16716
 30
0.0
 10
-2.85
 20
-5.25
 30
0.0
  0
SPLINE
  5
8F
330
1F
100
AcDbEntity
  8
Layer 1
370
    53
100
AcDbSpline
210
0.0
220
0.0
230
1.0
 70
    11
 71
     3
 72
    20
 73
    16
 74
     0
 42
0.0000000001
 43
0.0000000001
 12
1.0
 22
0.0
 32
0.0
 13
1.0
 23
0.0
 33
0.0
 40
0.0
 40
0.0
 40
0.0
 40
0.0
 40
0.2
 40
0.2
 40
0.2
 40
0.2
 40
0.4
 40
0.4
 40
0.4
 40
0.4
 40
0.6
 40
0.6
 40
0.6
 40
0.6
 40
1.0
 40
1.0
 40
1.0
 40
1.0
 10
4.05
 20
-5.25
 30
0.0
 10
4.05
 20
-5.08431
 30
0.0
 10
3.91569
 20
-4.95
 30
0.0
 10
3.75
 20
-4.95
 30
0.0
 10
3.75
 20
-4.95
 30
0.0
 10
3.58431
 20
-4.95
 30
0.0
 10
3.45
 20
-5.08431
 30
0.0
 10
3.45
 20
-5.25
 30
0.0
 10
3.45
 20
-5.25
 30
0.0
 10
3.45
 20
-5.41569
 30
0.0
 10
3.58431
 20
-5.55
 30
0.0
 10
3.75
 20
-5.55
 30
0.0
 10
3.75
 20
-5.55
 30
0.0
 10
3.91569
 20
-5.55
 30
0.0
 10
4.05
 20
-5.41569
 30
0.0
 10
4.05
 20
-5.25
 30
0.0
  0
SPLINE
  5
90
330
1F
100
AcDbEntity
  8
Layer 1
370
    53
100
AcDbSpline
210
0.0
220
0.0
230
1.0
 70
    11
 71
     3
 72
    20
 73
    16
 74
     0
 42
0.0000000001
 43
0.0000000001
 12
1.0
 22
0.0
 32
0.0
 13
1.0
 23
0.0
 33
0.0
 40
0.0
 40
0.0
 40
0.0
 40
0.0
 40
0.2
 40
0.2
 40
0.2
 40
0.2
 40
0.4
 40
0.4
 40
0.4
 40
0.4
 40
0.6
 40
0.6
 40
0.6
 40
0.6
 40
1.0
 40
1.0
 40
1.0
 40
1.0
 10
2.55
 20
-5.25
 30
0.0
 10
2.55
 20
-5.08431
 30
0.0
 10
2.41569
 20
-4.95
 30
0.0
 10
2.25
 20
-4.95
 30
0.0
 10
2.25
 20
-4.95
 30
0.0
 10
2.08431
 20
-4.95
 30
0.0
 10
1.95
 20
-5.08431
 30
0.0
 10
1.95
 20
-5.25
 30
0.0
 10
1.95
 20
-5.25
 30
0.0
 10
1.95
 20
-5.41569
 30
0.0
 10
2.08431
 20
-5.55
 30
0.0
 10
2.25
 20
-5.55
 30
0.0
 10
2.25
 20
-5.55
 30
0.0
 10
2.41569
 20
-5.55
 30
0.0
 10
2.55
 20
-5.41569
 30
0.0
 10
2.55
 20
-5.25
 30
0.0
  0
SPLINE
  5
91
330
1F
100
AcDbEntity
  8
Layer 1
370
    53
100
AcDbSpline
210
0.0
220
0.0
230
1.0
 70
    11
 71
     3
 72
    20
 73
    16
 74
     0
 42
0.0000000001
 43
0.0000000001
 12
1.0
 22
0.0
 32
0.0
 13
1.0
 23
0.0
 33
0.0
 40
0.0
 40
0.0
 40
0.0
 40
0.0
 40
0.2
 40
0.2
 40
0.2
 40
0.2
 40
0.4
 40
0.4
 40
0.4
 40
0.4
 40
0.6
 40
0.6
 40
0.6
 40
0.6
 40
1.0
 40
1.0
 40
1.0
 40
1.0
 10
3.15
 20
-5.25
 30
0.0
 10
3.15
 20
-5.16716
 30
0.0
 10
3.08284
 20
-5.1
 30
0.0
 10
3.0
 20
-5.1
 30
0.0
 10
3.0
 20
-5.1
 30
0.0
 10
2.91716
 20
-5.1
 30
0.0
 10
2.85
 20
-5.16716
 30
0.0
 10
2.85
 20
-5.25
 30
0.0
 10
2.85
 20
-5.25
 30
0.0
 10
2.85
 20
-5.33284
 30
0.0
 10
2.91716
 20
-5.4
 30
0.0
 10
3.0
 20
-5.4
 30
0.0
 10
3.0
 20
-5.4
 30
0.0
 10
3.08284
 20
-5.4
 30
0.0
 10
3.15
 20
-5.33284
 30
0.0
 10
3.15
 20
-5.25
 30
0.0
  0
SPLINE
  5
92
330
1F
100
AcDbEntity
  8
Layer 1
370
    53
100
AcDbSpline
210
0.0
220
0.0
230
1.0
 70
    11
 71
     3
 72
    20
 73
    16
 74
     0
 42
0.0000000001
 43
0.0000000001
 12
1.0
 22
0.0
 32
0.0
 13
1.0
 23
0.0
 33
0.0
 40
0.0
 40
0.0
 40
0.0
 40
0.0
 40
0.2
 40
0.2
 40
0.2
 40
0.2
 40
0.4
 40
0.4
 40
0.4
 40
0.4
 40
0.6
 40
0.6
 40
0.6
 40
0.6
 40
1.0
 40
1.0
 40
1.0
 40
1.0
 10
8.55
 20
-5.25
 30
0.0
 10
8.55
 20
-5.08431
 30
0.0
 10
8.41569
 20
-4.95
 30
0.0
 10
8.25
 20
-4.95
 30
0.0
 10
8.25
 20
-4.95
 30
0.0
 10
8.08431
 20
-4.95
 30
0.0
 10
7.95
 20
-5.08431
 30
0.0
 10
7.95
 20
-5.25
 30
0.0
 10
7.95
 20
-5.25
 30
0.0
 10
7.95
 20
-5.41569
 30
0.0
 10
8.08431
 20
-5.55
 30
0.0
 10
8.25
 20
-5.55
 30
0.0
 10
8.25
 20
-5.55
 30
0.0
 10
8.41569
 20
-5.55
 30
0.0
 10
8.55
 20
-5.41569
 30
0.0
 10
8.55
 20
-5.25
 30
0.0
  0
SPLINE
  5
93
330
1F
100
AcDbEntity
  8
Layer 1
370
    53
100
AcDbSpline
210
0.0
220
0.0
230
1.0
 70
    11
 71
     3
 72
    20
 73
    16
 74
     0
 42
0.0000000001
 43
0.0000000001
 12
1.0
 22
0.0
 32
0.0
 13
1.0
 23
0.0
 33
0.0
 40
0.0
 40
0.0
 40
0.0
 40
0.0
 40
0.2
 40
0.2
 40
0.2
 40
0.2
 40
0.4
 40
0.4
 40
0.4
 40
0.4
 40
0.6
 40
0.6
 40
0.6
 40
0.6
 40
1.0
 40
1.0
 40
1.0
 40
1.0
 10
-3.45
 20
-0.75
 30
0.0
 10
-3.45
 20
-0.58431
 30
0.0
 10
-3.58431
 20
-0.45
 30
0.0
 10
-3.75
 20
-0.45
 30
0.0
 10
-3.75
 20
-0.45
 30
0.0
 10
-3.91569
 20
-0.45
 30
0.0
 10
-4.05
 20
-0.58431
 30
0.0
 10
-4.05
 20
-0.75
 30
0.0
 10
-4.05
 20
-0.75
 30
0.0
 10
-4.05
 20
-0.91569
 30
0.0
 10
-3.91569
 20
-1.05
 30
0.0
 10
-3.75
 20
-1.05
 30
0.0
 10
-3.75
 20
-1.05
 30
0.0
 10
-3.58431
 20
-1.05
 30
0.0
 10
-3.45
 20
-0.91569
 30
0.0
 10
-3.45
 20
-0.75
 30
0.0
  0
SPLINE
  5
94
330
1F
100
AcDbEntity
  8
Layer 1
370
    53
100
AcDbSpline
210
0.0
220
0.0
230
1.0
 70
    11
 71
     3
 72
    20
 73
    16
 74
     0
 42
0.0000000001
 43
0.0000000001
 12
1.0
 22
0.0
 32
0.0
 13
1.0
 23
0.0
 33
0.0
 40
0.0
 40
0.0
 40
0.0
 40
0.0
 40
0.2
 40
0.2
 40
0.2
 40
0.2
 40
0.4
 40
0.4
 40
0.4
 40
0.4
 40
0.6
 40
0.6
 40
0.6
 40
0.6
 40
1.0
 40
1.0
 40
1.0
 40
1.0
 10
-1.95
 20
-0.75
 30
0.0
 10
-1.95
 20
-0.58431
 30
0.0
 10
-2.08431
 20
-0.45
 30
0.0
 10
-2.25
 20
-0.45
 30
0.0
 10
-2.25
 20
-0.45
 30
0.0
 10
-2.41569
 20
-0.45
 30
0.0
 10
-2.55
 20
-0.58431
 30
0.0
 10
-2.55
 20
-0.75
 30
0.0
 10
-2.55
 20
-0.75
 30
0.0
 10
-2.55
 20
-0.91569
 30
0.0
 10
-2.41569
 20
-1.05
 30
0.0
 10
-2.25
 20
-1.05
 30
0.0
 10
-2.25
 20
-1.05
 30
0.0
 10
-2.08431
 20
-1.05
 30
0.0
 10
-1.95
 20
-0.91569
 30
0.0
 10
-1.95
 20
-0.75
 30
0.0
  0
SPLINE
  5
95
330
1F
100
AcDbEntity
  8
Layer 1
370
    53
100
AcDbSpline
210
0.0
220
0.0
230
1.0
 70
    11
 71
     3
 72
    20
 73
    16
 74
     0
 42
0.0000000001
 43
0.0000000001
 12
1.0
 22
0.0
 32
0.0
 13
1.0
 23
0.0
 33
0.0
 40
0.0
 40
0.0
 40
0.0
 40
0.0
 40
0.2
 40
0.2
 40
0.2
 40
0.2
 40
0.4
 40
0.4
 40
0.4
 40
0.4
 40
0.6
 40
0.6
 40
0.6
 40
0.6
 40
1.0
 40
1.0
 40
1.0
 40
1.0
 10
-2.85
 20
-0.75
 30
0.0
 10
-2.85
 20
-0.83284
 30
0.0
 10
-2.91716
 20
-0.9
 30
0.0
 10
-3.0
 20
-0.9
 30
0.0
 10
-3.0
 20
-0.9
 30
0.0
 10
-3.08284
 20
-0.9
 30
0.0
 10
-3.15
 20
-0.83284
 30
0.0
 10
-3.15
 20
-0.75
 30
0.0
 10
-3.15
 20
-0.75
 30
0.0
 10
-3.15
 20
-0.66716
 30
0.0
 10
-3.08284
 20
-0.6
 30
0.0
 10
-3.0
 20
-0.6
 30
0.0
 10
-3.0
 20
-0.6
 30
0.0
 10
-2.91716
 20
-0.6
 30
0.0
 10
-2.85
 20
-0.66716
 30
0.0
 10
-2.85
 20
-0.75
 30
0.0
  0
SPLINE
  5
96
330
1F
100
AcDbEntity
  8
Layer 1
370
    53
100
AcDbSpline
210
0.0
220
0.0
230
1.0
 70
    11
 71
     3
 72
    20
 73
    16
 74
     0
 42
0.0000000001
 43
0.0000000001
 12
1.0
 22
0.0
 32
0.0
 13
1.0
 23
0.0
 33
0.0
 40
0.0
 40
0.0
 40
0.0
 40
0.0
 40
0.2
 40
0.2
 40
0.2
 40
0.2
 40
0.4
 40
0.4
 40
0.4
 40
0.4
 40
0.6
 40
0.6
 40
0.6
 40
0.6
 40
1.0
 40
1.0
 40
1.0
 40
1.0
 10
4.05
 20
-0.75
 30
0.0
 10
4.05
 20
-0.58431
 30
0.0
 10
3.91569
 20
-0.45
 30
0.0
 10
3.75
 20
-0.45
 30
0.0
 10
3.75
 20
-0.45
 30
0.0
 10
3.58431
 20
-0.45
 30
0.0
 10
3.45
 20
-0.58431
 30
0.0
 10
3.45
 20
-0.75
 30
0.0
 10
3.45
 20
-0.75
 30
0.0
 10
3.45
 20
-0.91569
 30
0.0
 10
3.58431
 20
-1.05
 30
0.0
 10
3.75
 20
-1.05
 30
0.0
 10
3.75
 20
-1.05
 30
0.0
 10
3.91569
 20
-1.05
 30
0.0
 10
4.05
 20
-0.91569
 30
0.0
 10
4.05
 20
-0.75
 30
0.0
  0
SPLINE
  5
97
330
1F
100
AcDbEntity
  8
Layer 1
370
    53
100
AcDbSpline
210
0.0
220
0.0
230
1.0
 70
    11
 71
     3
 72
    20
 73
    16
 74
     0
 42
0.0000000001
 43
0.0000000001
 12
1.0
 22
0.0
 32
0.0
 13
1.0
 23
0.0
 33
0.0
 40
0.0
 40
0.0
 40
0.0
 40
0.0
 40
0.2
 40
0.2
 40
0.2
 40
0.2
 40
0.4
 40
0.4
 40
0.4
 40
0.4
 40
0.6
 40
0.6
 40
0.6
 40
0.6
 40
1.0
 40
1.0
 40
1.0
 40
1.0
 10
2.55
 20
-0.75
 30
0.0
 10
2.55
 20
-0.58431
 30
0.0
 10
2.41569
 20
-0.45
 30
0.0
 10
2.25
 20
-0.45
 30
0.0
 10
2.25
 20
-0.45
 30
0.0
 10
2.08431
 20
-0.45
 30
0.0
 10
1.95
 20
-0.58431
 30
0.0
 10
1.95
 20
-0.75
 30
0.0
 10
1.95
 20
-0.75
 30
0.0
 10
1.95
 20
-0.91569
 30
0.0
 10
2.08431
 20
-1.05
 30
0.0
 10
2.25
 20
-1.05
 30
0.0
 10
2.25
 20
-1.05
 30
0.0
 10
2.41569
 20
-1.05
 30
0.0
 10
2.55
 20
-0.91569
 30
0.0
 10
2.55
 20
-0.75
 30
0.0
  0
SPLINE
  5
98
330
1F
100
AcDbEntity
  8
Layer 1
370
    53
100
AcDbSpline
210
0.0
220
0.0
230
1.0
 70
    11
 71
     3
 72
    20
 73
    16
 74
     0
 42
0.0000000001
 43
0.0000000001
 12
1.0
 22
0.0
 32
0.0
 13
1.0
 23
0.0
 33
0.0
 40
0.0
 40
0.0
 40
0.0
 40
0.0
 40
0.2
 40
0.2
 40
0.2
 40
0.2
 40
0.4
 40
0.4
 40
0.4
 40
0.4
 40
0.6
 40
0.6
 40
0.6
 40
0.6
 40
1.0
 40
1.0
 40
1.0
 40
1.0
 10
3.15
 20
-0.75
 30
0.0
 10
3.15
 20
-0.66716
 30
0.0
 10
3.08284
 20
-0.6
 30
0.0
 10
3.0
 20
-0.6
 30
0.0
 10
3.0
 20
-0.6
 30
0.0
 10
2.91716
 20
-0.6
 30
0.0
 10
2.85
 20
-0.66716
 30
0.0
 10
2.85
 20
-0.75
 30
0.0
 10
2.85
 20
-0.75
 30
0.0
 10
2.85
 20
-0.83284
 30
0.0
 10
2.91716
 20
-0.9
 30
0.0
 10
3.0
 20
-0.9
 30
0.0
 10
3.0
 20
-0.9
 30
0.0
 10
3.08284
 20
-0.9
 30
0.0
 10
3.15
 20
-0.83284
 30
0.0
 10
3.15
 20
-0.75
 30
0.0
  0
SPLINE
  5
99
330
1F
100
AcDbEntity
  8
Layer 1
370
    53
100
AcDbSpline
210
0.0
220
0.0
230
1.0
 70
    11
 71
     3
 72
    20
 73
    16
 74
     0
 42
0.0000000001
 43
0.0000000001
 12
1.0
 22
0.0
 32
0.0
 13
1.0
 23
0.0
 33
0.0
 40
0.0
 40
0.0
 40
0.0
 40
0.0
 40
0.2
 40
0.2
 40
0.2
 40
0.2
 40
0.4
 40
0.4
 40
0.4
 40
0.4
 40
0.6
 40
0.6
 40
0.6
 40
0.6
 40
1.0
 40
1.0
 40
1.0
 40
1.0
 10
-3.45
 20
0.75
 30
0.0
 10
-3.45
 20
0.91569
 30
0.0
 10
-3.58431
 20
1.05
 30
0.0
 10
-3.75
 20
1.05
 30
0.0
 10
-3.75
 20
1.05
 30
0.0
 10
-3.91569
 20
1.05
 30
0.0
 10
-4.05
 20
0.91569
 30
0.0
 10
-4.05
 20
0.75
 30
0.0
 10
-4.05
 20
0.75
 30
0.0
 10
-4.05
 20
0.58431
 30
0.0
 10
-3.91569
 20
0.45
 30
0.0
 10
-3.75
 20
0.45
 30
0.0
 10
-3.75
 20
0.45
 30
0.0
 10
-3.58431
 20
0.45
 30
0.0
 10
-3.45
 20
0.58431
 30
0.0
 10
-3.45
 20
0.75
 30
0.0
  0
SPLINE
  5
9A
330
1F
100
AcDbEntity
  8
Layer 1
370
    53
100
AcDbSpline
210
0.0
220
0.0
230
1.0
 70
    11
 71
     3
 72
    20
 73
    16
 74
     0
 42
0.0000000001
 43
0.0000000001
 12
1.0
 22
0.0
 32
0.0
 13
1.0
 23
0.0
 33
0.0
 40
0.0
 40
0.0
 40
0.0
 40
0.0
 40
0.2
 40
0.2
 40
0.2
 40
0.2
 40
0.4
 40
0.4
 40
0.4
 40
0.4
 40
0.6
 40
0.6
 40
0.6
 40
0.6
 40
1.0
 40
1.0
 40
1.0
 40
1.0
 10
-1.95
 20
0.75
 30
0.0
 10
-1.95
 20
0.91569
 30
0.0
 10
-2.08431
 20
1.05
 30
0.0
 10
-2.25
 20
1.05
 30
0.0
 10
-2.25
 20
1.05
 30
0.0
 10
-2.41569
 20
1.05
 30
0.0
 10
-2.55
 20
0.91569
 30
0.0
 10
-2.55
 20
0.75
 30
0.0
 10
-2.55
 20
0.75
 30
0.0
 10
-2.55
 20
0.58431
 30
0.0
 10
-2.41569
 20
0.45
 30
0.0
 10
-2.25
 20
0.45
 30
0.0
 10
-2.25
 20
0.45
 30
0.0
 10
-2.08431
 20
0.45
 30
0.0
 10
-1.95
 20
0.58431
 30
0.0
 10
-1.95
 20
0.75
 30
0.0
  0
SPLINE
  5
9B
330
1F
100
AcDbEntity
  8
Layer 1
370
    53
100
AcDbSpline
210
0.0
220
0.0
230
1.0
 70
    11
 71
     3
 72
    20
 73
    16
 74
     0
 42
0.0000000001
 43
0.0000000001
 12
1.0
 22
0.0
 32
0.0
 13
1.0
 23
0.0
 33
0.0
 40
0.0
 40
0.0
 40
0.0
 40
0.0
 40
0.2
 40
0.2
 40
0.2
 40
0.2
 40
0.4
 40
0.4
 40
0.4
 40
0.4
 40
0.6
 40
0.6
 40
0.6
 40
0.6
 40
1.0
 40
1.0
 40
1.0
 40
1.0
 10
-2.85
 20
0.75
 30
0.0
 10
-2.85
 20
0.66716
 30
0.0
 10
-2.91716
 20
0.6
 30
0.0
 10
-3.0
 20
0.6
 30
0.0
 10
-3.0
 20
0.6
 30
0.0
 10
-3.08284
 20
0.6
 30
0.0
 10
-3.15
 20
0.66716
 30
0.0
 10
-3.15
 20
0.75
 30
0.0
 10
-3.15
 20
0.75
 30
0.0
 10
-3.15
 20
0.83284
 30
0.0
 10
-3.08284
 20
0.9
 30
0.0
 10
-3.0
 20
0.9
 30
0.0
 10
-3.0
 20
0.9
 30
0.0
 10
-2.91716
 20
0.9
 30
0.0
 10
-2.85
 20
0.83284
 30
0.0
 10
-2.85
 20
0.75
 30
0.0
  0
SPLINE
  5
9C
330
1F
100
AcDbEntity
  8
Layer 1
370
    53
100
AcDbSpline
210
0.0
220
0.0
230
1.0
 70
    11
 71
     3
 72
    20
 73
    16
 74
     0
 42
0.0000000001
 43
0.0000000001
 12
1.0
 22
0.0
 32
0.0
 13
1.0
 23
0.0
 33
0.0
 40
0.0
 40
0.0
 40
0.0
 40
0.0
 40
0.2
 40
0.2
 40
0.2
 40
0.2
 40
0.4
 40
0.4
 40
0.4
 40
0.4
 40
0.6
 40
0.6
 40
0.6
 40
0.6
 40
1.0
 40
1.0
 40
1.0
 40
1.0
 10
4.05
 20
0.75
 30
0.0
 10
4.05
 20
0.91569
 30
0.0
 10
3.91569
 20
1.05
 30
0.0
 10
3.75
 20
1.05
 30
0.0
 10
3.75
 20
1.05
 30
0.0
 10
3.58431
 20
1.05
 30
0.0
 10
3.45
 20
0.91569
 30
0.0
 10
3.45
 20
0.75
 30
0.0
 10
3.45
 20
0.75
 30
0.0
 10
3.45
 20
0.58431
 30
0.0
 10
3.58431
 20
0.45
 30
0.0
 10
3.75
 20
0.45
 30
0.0
 10
3.75
 20
0.45
 30
0.0
 10
3.91569
 20
0.45
 30
0.0
 10
4.05
 20
0.58431
 30
0.0
 10
4.05
 20
0.75
 30
0.0
  0
SPLINE
  5
9D
330
1F
100
AcDbEntity
  8
Layer 1
370
    53
100
AcDbSpline
210
0.0
220
0.0
230
1.0
 70
    11
 71
     3
 72
    20
 73
    16
 74
     0
 42
0.0000000001
 43
0.0000000001
 12
1.0
 22
0.0
 32
0.0
 13
1.0
 23
0.0
 33
0.0
 40
0.0
 40
0.0
 40
0.0
 40
0.0
 40
0.2
 40
0.2
 40
0.2
 40
0.2
 40
0.4
 40
0.4
 40
0.4
 40
0.4
 40
0.6
 40
0.6
 40
0.6
 40
0.6
 40
1.0
 40
1.0
 40
1.0
 40
1.0
 10
2.55
 20
0.75
 30
0.0
 10
2.55
 20
0.91569
 30
0.0
 10
2.41569
 20
1.05
 30
0.0
 10
2.25
 20
1.05
 30
0.0
 10
2.25
 20
1.05
 30
0.0
 10
2.08431
 20
1.05
 30
0.0
 10
1.95
 20
0.91569
 30
0.0
 10
1.95
 20
0.75
 30
0.0
 10
1.95
 20
0.75
 30
0.0
 10
1.95
 20
0.58431
 30
0.0
 10
2.08431
 20
0.45
 30
0.0
 10
2.25
 20
0.45
 30
0.0
 10
2.25
 20
0.45
 30
0.0
 10
2.41569
 20
0.45
 30
0.0
 10
2.55
 20
0.58431
 30
0.0
 10
2.55
 20
0.75
 30
0.0
  0
SPLINE
  5
9E
330
1F
100
AcDbEntity
  8
Layer 1
370
    53
100
AcDbSpline
210
0.0
220
0.0
230
1.0
 70
    11
 71
     3
 72
    20
 73
    16
 74
     0
 42
0.0000000001
 43
0.0000000001
 12
1.0
 22
0.0
 32
0.0
 13
1.0
 23
0.0
 33
0.0
 40
0.0
 40
0.0
 40
0.0
 40
0.0
 40
0.2
 40
0.2
 40
0.2
 40
0.2
 40
0.4
 40
0.4
 40
0.4
 40
0.4
 40
0.6
 40
0.6
 40
0.6
 40
0.6
 40
1.0
 40
1.0
 40
1.0
 40
1.0
 10
3.15
 20
0.75
 30
0.0
 10
3.15
 20
0.83284
 30
0.0
 10
3.08284
 20
0.9
 30
0.0
 10
3.0
 20
0.9
 30
0.0
 10
3.0
 20
0.9
 30
0.0
 10
2.91716
 20
0.9
 30
0.0
 10
2.85
 20
0.83284
 30
0.0
 10
2.85
 20
0.75
 30
0.0
 10
2.85
 20
0.75
 30
0.0
 10
2.85
 20
0.66716
 30
0.0
 10
2.91716
 20
0.6
 30
0.0
 10
3.0
 20
0.6
 30
0.0
 10
3.0
 20
0.6
 30
0.0
 10
3.08284
 20
0.6
 30
0.0
 10
3.15
 20
0.66716
 30
0.0
 10
3.15
 20
0.75
 30
0.0
  0
SPLINE
  5
9F
330
1F
100
AcDbEntity
  8
Layer 1
370
    53
100
AcDbSpline
210
0.0
220
0.0
230
1.0
 70
    11
 71
     3
 72
    20
 73
    16
 74
     0
 42
0.0000000001
 43
0.0000000001
 12
1.0
 22
0.0
 32
0.0
 13
1.0
 23
0.0
 33
0.0
 40
0.0
 40
0.0
 40
0.0
 40
0.0
 40
0.2
 40
0.2
 40
0.2
 40
0.2
 40
0.4
 40
0.4
 40
0.4
 40
0.4
 40
0.6
 40
0.6
 40
0.6
 40
0.6
 40
1.0
 40
1.0
 40
1.0
 40
1.0
 10
-3.45
 20
5.25
 30
0.0
 10
-3.45
 20
5.41569
 30
0.0
 10
-3.58431
 20
5.55
 30
0.0
 10
-3.75
 20
5.55
 30
0.0
 10
-3.75
 20
5.55
 30
0.0
 10
-3.91569
 20
5.55
 30
0.0
 10
-4.05
 20
5.41569
 30
0.0
 10
-4.05
 20
5.25
 30
0.0
 10
-4.05
 20
5.25
 30
0.0
 10
-4.05
 20
5.08431
 30
0.0
 10
-3.91569
 20
4.95
 30
0.0
 10
-3.75
 20
4.95
 30
0.0
 10
-3.75
 20
4.95
 30
0.0
 10
-3.58431
 20
4.95
 30
0.0
 10
-3.45
 20
5.08431
 30
0.0
 10
-3.45
 20
5.25
 30
0.0
  0
SPLINE
  5
A0
330
1F
100
AcDbEntity
  8
Layer 1
370
    53
100
AcDbSpline
210
0.0
220
0.0
230
1.0
 70
    11
 71
     3
 72
    20
 73
    16
 74
     0
 42
0.0000000001
 43
0.0000000001
 12
1.0
 22
0.0
 32
0.0
 13
1.0
 23
0.0
 33
0.0
 40
0.0
 40
0.0
 40
0.0
 40
0.0
 40
0.2
 40
0.2
 40
0.2
 40
0.2
 40
0.4
 40
0.4
 40
0.4
 40
0.4
 40
0.6
 40
0.6
 40
0.6
 40
0.6
 40
1.0
 40
1.0
 40
1.0
 40
1.0
 10
-1.95
 20
5.25
 30
0.0
 10
-1.95
 20
5.41569
 30
0.0
 10
-2.08431
 20
5.55
 30
0.0
 10
-2.25
 20
5.55
 30
0.0
 10
-2.25
 20
5.55
 30
0.0
 10
-2.41569
 20
5.55
 30
0.0
 10
-2.55
 20
5.41569
 30
0.0
 10
-2.55
 20
5.25
 30
0.0
 10
-2.55
 20
5.25
 30
0.0
 10
-2.55
 20
5.08431
 30
0.0
 10
-2.41569
 20
4.95
 30
0.0
 10
-2.25
 20
4.95
 30
0.0
 10
-2.25
 20
4.95
 30
0.0
 10
-2.08431
 20
4.95
 30
0.0
 10
-1.95
 20
5.08431
 30
0.0
 10
-1.95
 20
5.25
 30
0.0
  0
SPLINE
  5
A1
330
1F
100
AcDbEntity
  8
Layer 1
370
    53
100
AcDbSpline
210
0.0
220
0.0
230
1.0
 70
    11
 71
     3
 72
    20
 73
    16
 74
     0
 42
0.0000000001
 43
0.0000000001
 12
1.0
 22
0.0
 32
0.0
 13
1.0
 23
0.0
 33
0.0
 40
0.0
 40
0.0
 40
0.0
 40
0.0
 40
0.2
 40
0.2
 40
0.2
 40
0.2
 40
0.4
 40
0.4
 40
0.4
 40
0.4
 40
0.6
 40
0.6
 40
0.6
 40
0.6
 40
1.0
 40
1.0
 40
1.0
 40
1.0
 10
-2.85
 20
5.25
 30
0.0
 10
-2.85
 20
5.16716
 30
0.0
 10
-2.91716
 20
5.1
 30
0.0
 10
-3.0
 20
5.1
 30
0.0
 10
-3.0
 20
5.1
 30
0.0
 10
-3.08284
 20
5.1
 30
0.0
 10
-3.15
 20
5.16716
 30
0.0
 10
-3.15
 20
5.25
 30
0.0
 10
-3.15
 20
5.25
 30
0.0
 10
-3.15
 20
5.33284
 30
0.0
 10
-3.08284
 20
5.4
 30
0.0
 10
-3.0
 20
5.4
 30
0.0
 10
-3.0
 20
5.4
 30
0.0
 10
-2.91716
 20
5.4
 30
0.0
 10
-2.85
 20
5.33284
 30
0.0
 10
-2.85
 20
5.25
 30
0.0
  0
SPLINE
  5
A2
330
1F
100
AcDbEntity
  8
Layer 1
370
    53
100
AcDbSpline
210
0.0
220
0.0
230
1.0
 70
    11
 71
     3
 72
    20
 73
    16
 74
     0
 42
0.0000000001
 43
0.0000000001
 12
1.0
 22
0.0
 32
0.0
 13
1.0
 23
0.0
 33
0.0
 40
0.0
 40
0.0
 40
0.0
 40
0.0
 40
0.2
 40
0.2
 40
0.2
 40
0.2
 40
0.4
 40
0.4
 40
0.4
 40
0.4
 40
0.6
 40
0.6
 40
0.6
 40
0.6
 40
1.0
 40
1.0
 40
1.0
 40
1.0
 10
4.05
 20
5.25
 30
0.0
 10
4.05
 20
5.41569
 30
0.0
 10
3.91569
 20
5.55
 30
0.0
 10
3.75
 20
5.55
 30
0.0
 10
3.75
 20
5.55
 30
0.0
 10
3.58431
 20
5.55
 30
0.0
 10
3.45
 20
5.41569
 30
0.0
 10
3.45
 20
5.25
 30
0.0
 10
3.45
 20
5.25
 30
0.0
 10
3.45
 20
5.08431
 30
0.0
 10
3.58431
 20
4.95
 30
0.0
 10
3.75
 20
4.95
 30
0.0
 10
3.75
 20
4.95
 30
0.0
 10
3.91569
 20
4.95
 30
0.0
 10
4.05
 20
5.08431
 30
0.0
 10
4.05
 20
5.25
 30
0.0
  0
SPLINE
  5
A3
330
1F
100
AcDbEntity
  8
Layer 1
370
    53
100
AcDbSpline
210
0.0
220
0.0
230
1.0
 70
    11
 71
     3
 72
    20
 73
    16
 74
     0
 42
0.0000000001
 43
0.0000000001
 12
1.0
 22
0.0
 32
0.0
 13
1.0
 23
0.0
 33
0.0
 40
0.0
 40
0.0
 40
0.0
 40
0.0
 40
0.2
 40
0.2
 40
0.2
 40
0.2
 40
0.4
 40
0.4
 40
0.4
 40
0.4
 40
0.6
 40
0.6
 40
0.6
 40
0.6
 40
1.0
 40
1.0
 40
1.0
 40
1.0
 10
2.55
 20
5.25
 30
0.0
 10
2.55
 20
5.41569
 30
0.0
 10
2.41569
 20
5.55
 30
0.0
 10
2.25
 20
5.55
 30
0.0
 10
2.25
 20
5.55
 30
0.0
 10
2.08431
 20
5.55
 30
0.0
 10
1.95
 20
5.41569
 30
0.0
 10
1.95
 20
5.25
 30
0.0
 10
1.95
 20
5.25
 30
0.0
 10
1.95
 20
5.08431
 30
0.0
 10
2.08431
 20
4.95
 30
0.0
 10
2.25
 20
4.95
 30
0.0
 10
2.25
 20
4.95
 30
0.0
 10
2.41569
 20
4.95
 30
0.0
 10
2.55
 20
5.08431
 30
0.0
 10
2.55
 20
5.25
 30
0.0
  0
SPLINE
  5
A4
330
1F
100
AcDbEntity
  8
Layer 1
370
    53
100
AcDbSpline
210
0.0
220
0.0
230
1.0
 70
    11
 71
     3
 72
    20
 73
    16
 74
     0
 42
0.0000000001
 43
0.0000000001
 12
1.0
 22
0.0
 32
0.0
 13
1.0
 23
0.0
 33
0.0
 40
0.0
 40
0.0
 40
0.0
 40
0.0
 40
0.2
 40
0.2
 40
0.2
 40
0.2
 40
0.4
 40
0.4
 40
0.4
 40
0.4
 40
0.6
 40
0.6
 40
0.6
 40
0.6
 40
1.0
 40
1.0
 40
1.0
 40
1.0
 10
3.15
 20
5.25
 30
0.0
 10
3.15
 20
5.33284
 30
0.0
 10
3.08284
 20
5.4
 30
0.0
 10
3.0
 20
5.4
 30
0.0
 10
3.0
 20
5.4
 30
0.0
 10
2.91716
 20
5.4
 30
0.0
 10
2.85
 20
5.33284
 30
0.0
 10
2.85
 20
5.25
 30
0.0
 10
2.85
 20
5.25
 30
0.0
 10
2.85
 20
5.16716
 30
0.0
 10
2.91716
 20
5.1
 30
0.0
 10
3.0
 20
5.1
 30
0.0
 10
3.0
 20
5.1
 30
0.0
 10
3.08284
 20
5.1
 30
0.0
 10
3.15
 20
5.16716
 30
0.0
 10
3.15
 20
5.25
 30
0.0
  0
ELLIPSE
  5
A5
330
1F
100
AcDbEntity
  8
Layer 1
370
    53
100
AcDbEllipse
 10
8.24999
 20
5.24999
 30
0.0
 11
0.0
 21
0.30001
 31
0.0
210
0.0
220
0.0
230
1.0
 40
1.0
 41
0.0
 42
6.283185307179586
  0
ELLIPSE
  5
A6
330
1F
100
AcDbEntity
  8
Layer 1
370
    53
100
AcDbEllipse
 10
8.25001
 20
-0.74999
 30
0.0
 11
0.0
 21
0.30001
 31
0.0
210
0.0
220
0.0
230
1.0
 40
1.0
 41
0.0
 42
6.283185307179586
  0
ELLIPSE
  5
A7
330
1F
100
AcDbEntity
  8
Layer 1
370
    53
100
AcDbEllipse
 10
8.25001
 20
0.75001
 30
0.0
 11
0.0
 21
0.30001
 31
0.0
210
0.0
220
0.0
230
1.0
 40
1.0
 41
0.0
 42
6.283185307179586
  0
ELLIPSE
  5
A8
330
1F
100
AcDbEntity
  8
Layer 1
370
    53
100
AcDbEllipse
 10
8.25
 20
0.0
 30
0.0
 11
0.0
 21
0.15
 31
0.0
210
0.0
220
0.0
230
1.0
 40
1.0
 41
0.0
 42
6.283185307179586
  0
ENDSEC
  0
SECTION
  2
OBJECTS
  0
DICTIONARY
  5
C
330
0
100
AcDbDictionary
281
     1
  3
ACAD_GROUP
350
D
  3
ACAD_LAYOUT
350
1A
  3
ACAD_MATERIAL
350
3B
  3
ACAD_MLEADERSTYLE
350
CA
  3
ACAD_MLINESTYLE
350
17
  3
ACAD_PLOTSETTINGS
350
19
  3
ACAD_PLOTSTYLENAME
350
E
  3
ACAD_TABLESTYLE
350
C9
  3
ACAD_VISUALSTYLE
350
2A
  0
DICTIONARY
  5
D
102
{ACAD_REACTORS
330
C
102
}
330
C
100
AcDbDictionary
281
     1
  0
DICTIONARY
  5
1A
102
{ACAD_REACTORS
330
C
102
}
330
C
100
AcDbDictionary
281
     1
  3
Layout1
350
1E
  3
Layout2
350
26
  3
Model
350
22
  0
DICTIONARY
  5
3B
102
{ACAD_REACTORS
330
C
102
}
330
C
100
AcDbDictionary
281
     1
  3
ByBlock
350
3D
  3
ByLayer
350
3C
  3
Global
350
3E
  0
DICTIONARY
  5
CA
102
{ACAD_REACTORS
330
C
102
}
330
C
100
AcDbDictionary
281
     1
  0
DICTIONARY
  5
17
102
{ACAD_REACTORS
330
C
102
}
330
C
100
AcDbDictionary
281
     1
  3
Standard
350
18
  0
DICTIONARY
  5
19
102
{ACAD_REACTORS
330
C
102
}
330
C
100
AcDbDictionary
281
     1
  0
ACDBDICTIONARYWDFLT
  5
E
102
{ACAD_REACTORS
330
C
102
}
330
C
100
AcDbDictionary
281
     1
  3
Normal
350
F
100
AcDbDictionaryWithDefault
340
F
  0
DICTIONARY
  5
C9
102
{ACAD_REACTORS
330
C
102
}
330
C
100
AcDbDictionary
281
     1
  0
DICTIONARY
  5
2A
102
{ACAD_REACTORS
330
C
102
}
330
C
100
AcDbDictionary
281
     1
  3
2dWireframe
350
2F
  3
3D Hidden
350
31
  3
3dWireframe
350
30
  3
Basic
350
32
  3
Brighten
350
36
  3
ColorChange
350
3A
  3
Conceptual
350
34
  3
Dim
350
35
  3
Facepattern
350
39
  3
Flat
350
2B
  3
FlatWithEdges
350
2C
  3
Gouraud
350
2D
  3
GouraudWithEdges
350
2E
  3
Linepattern
350
38
  3
Realistic
350
33
  3
Thicken
350
37
  0
LAYOUT
  5
1E
102
{ACAD_REACTORS
330
1A
102
}
330
1A
100
AcDbPlotSettings
  1

  2
none_device
  4

  6

 40
0.0
 41
0.0
 42
0.0
 43
0.0
 44
0.0
 45
0.0
 46
0.0
 47
0.0
 48
0.0
 49
0.0
140
0.0
141
0.0
142
1.0
143
1.0
 70
   688
 72
     0
 73
     0
 74
     5
  7

 75
    16
 76
     0
 77
     2
 78
   300
147
1.0
148
0.0
149
0.0
100
AcDbLayout
  1
Layout1
 70
     1
 71
     1
 10
0.0
 20
0.0
 11
12.0
 21
9.0
 12
0.0
 22
0.0
 32
0.0
 14
1.000000000000000E+20
 24
1.000000000000000E+20
 34
1.000000000000000E+20
 15
-1.000000000000000E+20
 25
-1.000000000000000E+20
 35
-1.000000000000000E+20
146
0.0
 13
0.0
 23
0.0
 33
0.0
 16
1.0
 26
0.0
 36
0.0
 17
0.0
 27
1.0
 37
0.0
 76
     0
330
1B
  0
LAYOUT
  5
26
102
{ACAD_REACTORS
330
1A
102
}
330
1A
100
AcDbPlotSettings
  1

  2
none_device
  4

  6

 40
0.0
 41
0.0
 42
0.0
 43
0.0
 44
0.0
 45
0.0
 46
0.0
 47
0.0
 48
0.0
 49
0.0
140
0.0
141
0.0
142
1.0
143
1.0
 70
   688
 72
     0
 73
     0
 74
     5
  7

 75
    16
 76
     0
 77
     2
 78
   300
147
1.0
148
0.0
149
0.0
100
AcDbLayout
  1
Layout2
 70
     1
 71
     2
 10
0.0
 20
0.0
 11
0.0
 21
0.0
 12
0.0
 22
0.0
 32
0.0
 14
0.0
 24
0.0
 34
0.0
 15
0.0
 25
0.0
 35
0.0
146
0.0
 13
0.0
 23
0.0
 33
0.0
 16
1.0
 26
0.0
 36
0.0
 17
0.0
 27
1.0
 37
0.0
 76
     0
330
23
  0
LAYOUT
  5
22
102
{ACAD_REACTORS
330
1A
102
}
330
1A
100
AcDbPlotSettings
  1

  2
none_device
  4

  6

 40
0.0
 41
0.0
 42
0.0
 43
0.0
 44
0.0
 45
0.0
 46
0.0
 47
0.0
 48
0.0
 49
0.0
140
0.0
141
0.0
142
1.0
143
1.0
 70
  1712
 72
     0
 73
     0
 74
     0
  7

 75
     0
 76
     0
 77
     2
 78
   300
147
1.0
148
0.0
149
0.0
100
AcDbLayout
  1
Model
 70
     1
 71
     0
 10
0.0
 20
0.0
 11
12.0
 21
9.0
 12
0.0
 22
0.0
 32
0.0
 14
-8.97646
 24
-5.97646
 34
0.0
 15
8.97646
 25
5.97646
 35
0.0
146
0.0
 13
0.0
 23
0.0
 33
0.0
 16
1.0
 26
0.0
 36
0.0
 17
0.0
 27
1.0
 37
0.0
 76
     0
330
1F
331
29
  0
MATERIAL
  5
3D
102
{ACAD_REACTORS
330
3B
102
}
330
3B
100
AcDbMaterial
  1
ByBlock
 72
     1
 94
      127
  0
MATERIAL
  5
3C
102
{ACAD_REACTORS
330
3B
102
}
330
3B
100
AcDbMaterial
  1
ByLayer
 72
     1
 94
      127
  0
MATERIAL
  5
3E
102
{ACAD_REACTORS
330
3B
102
}
330
3B
100
AcDbMaterial
  1
Global
 72
     1
 94
      127
  0
MLINESTYLE
  5
18
102
{ACAD_REACTORS
330
17
102
}
330
17
100
AcDbMlineStyle
  2
Standard
 70
     0
  3

 62
   256
 51
90.0
 52
90.0
 71
     2
 49
0.5
 62
   256
  6
BYLAYER
 49
-0.5
 62
   256
  6
BYLAYER
  0
ACDBPLACEHOLDER
  5
F
102
{ACAD_REACTORS
330
E
102
}
330
E
  0
VISUALSTYLE
  5
2F
102
{ACAD_REACTORS
330
2A
102
}
102
{ACAD_XDICTIONARY
360
B1
102
}
330
2A
100
AcDbVisualStyle
  2
2dWireframe
 70
     4
 71
     0
 72
     2
 73
     0
 90
        0
 40
-0.6
 41
-30.0
 62
     5
 63
     7
421
 16777215
 74
     1
 91
        4
 64
     7
 65
   257
 75
     1
175
     1
 42
1.0
 92
        0
 66
   257
 43
1.0
 76
     1
 77
     6
 78
     2
 67
     7
 79
     5
170
     0
171
     0
290
     0
174
     0
 93
        1
 44
0.0
173
     0
291
     0
 45
0.0
  0
VISUALSTYLE
  5
31
102
{ACAD_REACTORS
330
2A
102
}
102
{ACAD_XDICTIONARY
360
B5
102
}
330
2A
100
AcDbVisualStyle
  2
3D Hidden
 70
     6
 71
     1
 72
     2
 73
     2
 90
        0
 40
-0.6
 41
-30.0
 62
     5
 63
     7
421
 16777215
 74
     2
 91
        2
 64
     7
 65
   257
 75
     2
175
     1
 42
40.0
 92
        0
 66
   257
 43
1.0
 76
     1
 77
     6
 78
     2
 67
     7
 79
     3
170
     0
171
     0
290
     0
174
     0
 93
        1
 44
0.0
173
     0
291
     0
 45
0.0
  0
VISUALSTYLE
  5
30
102
{ACAD_REACTORS
330
2A
102
}
102
{ACAD_XDICTIONARY
360
B3
102
}
330
2A
100
AcDbVisualStyle
  2
3dWireframe
 70
     5
 71
     0
 72
     2
 73
     0
 90
        0
 40
-0.6
 41
-30.0
 62
     5
 63
     7
421
 16777215
 74
     1
 91
        4
 64
     7
 65
   257
 75
     1
175
     1
 42
1.0
 92
        0
 66
   257
 43
1.0
 76
     1
 77
     6
 78
     2
 67
     7
 79
     5
170
     0
171
     0
290
     0
174
     0
 93
        1
 44
0.0
173
     0
291
     0
 45
0.0
  0
VISUALSTYLE
  5
32
102
{ACAD_REACTORS
330
2A
102
}
102
{ACAD_XDICTIONARY
360
B7
102
}
330
2A
100
AcDbVisualStyle
  2
Basic
 70
     7
 71
     1
 72
     0
 73
     1
 90
        0
 40
-0.6
 41
-30.0
 62
     5
 63
     7
421
 16777215
 74
     0
 91
        4
 64
     7
 65
   257
 75
     1
175
     1
 42
1.0
 92
        8
 66
     7
 43
1.0
 76
     1
 77
     6
 78
     2
 67
     7
 79
     5
170
     0
171
     0
290
     0
174
     0
 93
        1
 44
0.0
173
     0
291
     1
 45
0.0
  0
VISUALSTYLE
  5
36
102
{ACAD_REACTORS
330
2A
102
}
102
{ACAD_XDICTIONARY
360
BF
102
}
330
2A
100
AcDbVisualStyle
  2
Brighten
 70
    12
 71
     2
 72
     2
 73
     0
 90
        0
 40
-0.6
 41
-30.0
 62
     5
 63
     7
421
 16777215
 74
     1
 91
        4
 64
     7
 65
   257
 75
     1
175
     1
 42
1.0
 92
        8
 66
     7
 43
1.0
 76
     1
 77
     6
 78
     2
 67
     7
 79
     5
170
     0
171
     0
290
     0
174
     0
 93
        1
 44
50.0
173
     0
291
     1
 45
0.0
  0
VISUALSTYLE
  5
3A
102
{ACAD_REACTORS
330
2A
102
}
102
{ACAD_XDICTIONARY
360
C7
102
}
330
2A
100
AcDbVisualStyle
  2
ColorChange
 70
    16
 71
     2
 72
     2
 73
     3
 90
        0
 40
-0.6
 41
-30.0
 62
     5
 63
     8
421
  8421504
 74
     1
 91
        4
 64
     7
 65
   257
 75
     1
175
     1
 42
1.0
 92
        8
 66
     8
424
  8421504
 43
1.0
 76
     1
 77
     6
 78
     2
 67
     7
 79
     5
170
     0
171
     0
290
     0
174
     0
 93
        1
 44
0.0
173
     0
291
     1
 45
0.0
  0
VISUALSTYLE
  5
34
102
{ACAD_REACTORS
330
2A
102
}
102
{ACAD_XDICTIONARY
360
BB
102
}
330
2A
100
AcDbVisualStyle
  2
Conceptual
 70
     9
 71
     3
 72
     2
 73
     0
 90
        0
 40
-0.6
 41
-30.0
 62
     5
 63
     7
421
 16777215
 74
     2
 91
        2
 64
     7
 65
   257
 75
     1
175
     1
 42
40.0
 92
        8
 66
     7
 43
1.0
 76
     1
 77
     6
 78
     2
 67
     7
 79
     3
170
     0
171
     0
290
     0
174
     0
 93
        1
 44
0.0
173
     0
291
     0
 45
0.0
  0
VISUALSTYLE
  5
35
102
{ACAD_REACTORS
330
2A
102
}
102
{ACAD_XDICTIONARY
360
BD
102
}
330
2A
100
AcDbVisualStyle
  2
Dim
 70
    11
 71
     2
 72
     2
 73
     0
 90
        0
 40
-0.6
 41
-30.0
 62
     5
 63
     7
421
 16777215
 74
     1
 91
        4
 64
     7
 65
   257
 75
     1
175
     1
 42
1.0
 92
        8
 66
     7
 43
1.0
 76
     1
 77
     6
 78
     2
 67
     7
 79
     5
170
     0
171
     0
290
     0
174
     0
 93
        1
 44
-50.0
173
     0
291
     1
 45
0.0
  0
VISUALSTYLE
  5
39
102
{ACAD_REACTORS
330
2A
102
}
102
{ACAD_XDICTIONARY
360
C5
102
}
330
2A
100
AcDbVisualStyle
  2
Facepattern
 70
    15
 71
     2
 72
     2
 73
     0
 90
        0
 40
-0.6
 41
-30.0
 62
     5
 63
     7
421
 16777215
 74
     1
 91
        4
 64
     7
 65
   257
 75
     1
175
     1
 42
1.0
 92
        8
 66
     7
 43
1.0
 76
     1
 77
     6
 78
     2
 67
     7
 79
     5
170
     0
171
     0
290
     0
174
     0
 93
        1
 44
0.0
173
     0
291
     1
 45
0.0
  0
VISUALSTYLE
  5
2B
102
{ACAD_REACTORS
330
2A
102
}
102
{ACAD_XDICTIONARY
360
A9
102
}
330
2A
100
AcDbVisualStyle
  2
Flat
 70
     0
 71
     2
 72
     1
 73
     1
 90
        2
 40
-0.6
 41
30.0
 62
     5
 63
     7
421
 16777215
 74
     0
 91
        4
 64
     7
 65
   257
 75
     1
175
     1
 42
1.0
 92
        8
 66
     7
 43
1.0
 76
     1
 77
     6
 78
     2
 67
     7
 79
     5
170
     0
171
     0
290
     0
174
     0
 93
       13
 44
0.0
173
     0
291
     1
 45
0.0
  0
VISUALSTYLE
  5
2C
102
{ACAD_REACTORS
330
2A
102
}
102
{ACAD_XDICTIONARY
360
AB
102
}
330
2A
100
AcDbVisualStyle
  2
FlatWithEdges
 70
     1
 71
     2
 72
     1
 73
     1
 90
        2
 40
-0.6
 41
30.0
 62
     5
 63
     7
421
 16777215
 74
     1
 91
        4
 64
     7
 65
   257
 75
     1
175
     1
 42
1.0
 92
        0
 66
   257
 43
1.0
 76
     1
 77
     6
 78
     2
 67
     7
 79
     5
170
     0
171
     0
290
     0
174
     0
 93
       13
 44
0.0
173
     0
291
     1
 45
0.0
  0
VISUALSTYLE
  5
2D
102
{ACAD_REACTORS
330
2A
102
}
102
{ACAD_XDICTIONARY
360
AD
102
}
330
2A
100
AcDbVisualStyle
  2
Gouraud
 70
     2
 71
     2
 72
     2
 73
     1
 90
        2
 40
-0.6
 41
30.0
 62
     5
 63
     7
421
 16777215
 74
     0
 91
        4
 64
     7
 65
   257
 75
     1
175
     1
 42
1.0
 92
        0
 66
     7
 43
1.0
 76
     1
 77
     6
 78
     2
 67
     7
 79
     5
170
     0
171
     0
290
     0
174
     0
 93
       13
 44
0.0
173
     0
291
     1
 45
0.0
  0
VISUALSTYLE
  5
2E
102
{ACAD_REACTORS
330
2A
102
}
102
{ACAD_XDICTIONARY
360
AF
102
}
330
2A
100
AcDbVisualStyle
  2
GouraudWithEdges
 70
     3
 71
     2
 72
     2
 73
     1
 90
        2
 40
-0.6
 41
30.0
 62
     5
 63
     7
421
 16777215
 74
     1
 91
        4
 64
     7
 65
   257
 75
     1
175
     1
 42
1.0
 92
        0
 66
   257
 43
1.0
 76
     1
 77
     6
 78
     2
 67
     7
 79
     5
170
     0
171
     0
290
     0
174
     0
 93
       13
 44
0.0
173
     0
291
     1
 45
0.0
  0
VISUALSTYLE
  5
38
102
{ACAD_REACTORS
330
2A
102
}
102
{ACAD_XDICTIONARY
360
C3
102
}
330
2A
100
AcDbVisualStyle
  2
Linepattern
 70
    14
 71
     2
 72
     2
 73
     0
 90
        0
 40
-0.6
 41
-30.0
 62
     5
 63
     7
421
 16777215
 74
     1
 91
        4
 64
     7
 65
   257
 75
     7
175
     7
 42
1.0
 92
        8
 66
     7
 43
1.0
 76
     1
 77
     6
 78
     2
 67
     7
 79
     5
170
     0
171
     0
290
     0
174
     0
 93
        1
 44
0.0
173
     0
291
     1
 45
0.0
  0
VISUALSTYLE
  5
33
102
{ACAD_REACTORS
330
2A
102
}
102
{ACAD_XDICTIONARY
360
B9
102
}
330
2A
100
AcDbVisualStyle
  2
Realistic
 70
     8
 71
     2
 72
     2
 73
     0
 90
        0
 40
-0.6
 41
-30.0
 62
     5
 63
     7
421
 16777215
 74
     1
 91
        0
 64
     7
 65
   257
 75
     1
175
     1
 42
1.0
 92
        8
 66
     8
424
  7895160
 43
1.0
 76
     1
 77
     6
 78
     2
 67
     7
 79
     5
170
     0
171
     0
290
     0
174
     0
 93
       13
 44
0.0
173
     0
291
     0
 45
0.0
  0
VISUALSTYLE
  5
37
102
{ACAD_REACTORS
330
2A
102
}
102
{ACAD_XDICTIONARY
360
C1
102
}
330
2A
100
AcDbVisualStyle
  2
Thicken
 70
    13
 71
     2
 72
     2
 73
     0
 90
        0
 40
-0.6
 41
-30.0
 62
     5
 63
     7
421
 16777215
 74
     1
 91
        4
 64
     7
 65
   257
 75
     1
175
     1
 42
1.0
 92
       12
 66
     7
 43
1.0
 76
     1
 77
     6
 78
     2
 67
     7
 79
     5
170
     0
171
     0
290
     0
174
     0
 93
        1
 44
0.0
173
     0
291
     1
 45
0.0
  0
DICTIONARY
  5
B1
330
2F
100
AcDbDictionary
280
     1
281
     1
  3
ACAD_XREC_ROUNDTRIP
360
B2
  0
DICTIONARY
  5
B5
330
31
100
AcDbDictionary
280
     1
281
     1
  3
ACAD_XREC_ROUNDTRIP
360
B6
  0
DICTIONARY
  5
B3
330
30
100
AcDbDictionary
280
     1
281
     1
  3
ACAD_XREC_ROUNDTRIP
360
B4
  0
DICTIONARY
  5
B7
330
32
100
AcDbDictionary
280
     1
281
     1
  3
ACAD_XREC_ROUNDTRIP
360
B8
  0
DICTIONARY
  5
BF
330
36
100
AcDbDictionary
280
     1
281
     1
  3
ACAD_XREC_ROUNDTRIP
360
C0
  0
DICTIONARY
  5
C7
330
3A
100
AcDbDictionary
280
     1
281
     1
  3
ACAD_XREC_ROUNDTRIP
360
C8
  0
DICTIONARY
  5
BB
330
34
100
AcDbDictionary
280
     1
281
     1
  3
ACAD_XREC_ROUNDTRIP
360
BC
  0
DICTIONARY
  5
BD
330
35
100
AcDbDictionary
280
     1
281
     1
  3
ACAD_XREC_ROUNDTRIP
360
BE
  0
DICTIONARY
  5
C5
330
39
100
AcDbDictionary
280
     1
281
     1
  3
ACAD_XREC_ROUNDTRIP
360
C6
  0
DICTIONARY
  5
A9
330
2B
100
AcDbDictionary
280
     1
281
     1
  3
ACAD_XREC_ROUNDTRIP
360
AA
  0
DICTIONARY
  5
AB
330
2C
100
AcDbDictionary
280
     1
281
     1
  3
ACAD_XREC_ROUNDTRIP
360
AC
  0
DICTIONARY
  5
AD
330
2D
100
AcDbDictionary
280
     1
281
     1
  3
ACAD_XREC_ROUNDTRIP
360
AE
  0
DICTIONARY
  5
AF
330
2E
100
AcDbDictionary
280
     1
281
     1
  3
ACAD_XREC_ROUNDTRIP
360
B0
  0
DICTIONARY
  5
C3
330
38
100
AcDbDictionary
280
     1
281
     1
  3
ACAD_XREC_ROUNDTRIP
360
C4
  0
DICTIONARY
  5
B9
330
33
100
AcDbDictionary
280
     1
281
     1
  3
ACAD_XREC_ROUNDTRIP
360
BA
  0
DICTIONARY
  5
C1
330
37
100
AcDbDictionary
280
     1
281
     1
  3
ACAD_XREC_ROUNDTRIP
360
C2
  0
XRECORD
  5
B2
102
{ACAD_REACTORS
330
B1
102
}
330
B1
100
AcDbXrecord
280
     1
102
RTVSPropertyOp0
 70
     1
102
RTVSPropertyOp1
 70
     1
102
RTVSPropertyOp2
 70
     1
102
RTVSPropertyOp3
 70
     1
102
RTVSPropertyOp4
 70
     1
102
RTVSPropertyOp5
 70
     1
102
RTVSPropertyOp6
 70
     1
102
RTVSPropertyOp7
 70
     1
102
RTVSPropertyOp8
 70
     1
102
RTVSPropertyOp9
 70
     1
102
RTVSPropertyOp10
 70
     1
102
RTVSPropertyOp11
 70
     1
102
RTVSPropertyOp12
 70
     1
102
RTVSPropertyOp13
 70
     1
102
RTVSPropertyOp14
 70
     1
102
RTVSPropertyOp15
 70
     1
102
RTVSPropertyOp16
 70
     1
102
RTVSPropertyOp17
 70
     1
102
RTVSPropertyOp18
 70
     1
102
RTVSPropertyOp19
 70
     1
102
RTVSPropertyOp20
 70
     1
102
RTVSPropertyOp21
 70
     1
102
RTVSPropertyOp22
 70
     1
102
RTVSPropertyOp23
 70
     1
102
RTVSPropertyOp24
 70
     1
102
RTVSPropertyOp25
 70
     1
102
RTVSPropertyOp26
 70
     1
102
RTVSPropertyOp27
 70
     1
102
RTVSPropertyOp28
 70
     1
102
RTVSPropertyOp29
 70
     1
102
RTVSPropertyOp30
 70
     1
102
RTVSPropertyOp31
 70
     1
102
RTVSPropertyOp32
 70
     1
  0
XRECORD
  5
B6
102
{ACAD_REACTORS
330
B5
102
}
330
B5
100
AcDbXrecord
280
     1
102
RTVSPropertyOp0
 70
     1
102
RTVSPropertyOp1
 70
     1
102
RTVSPropertyOp2
 70
     1
102
RTVSPropertyOp3
 70
     1
102
RTVSPropertyOp4
 70
     1
102
RTVSPropertyOp5
 70
     1
102
RTVSPropertyOp6
 70
     1
102
RTVSPropertyOp7
 70
     1
102
RTVSPropertyOp8
 70
     1
102
RTVSPropertyOp9
 70
     1
102
RTVSPropertyOp10
 70
     1
102
RTVSPropertyOp11
 70
     1
102
RTVSPropertyOp12
 70
     1
102
RTVSPropertyOp13
 70
     1
102
RTVSPropertyOp14
 70
     1
102
RTVSPropertyOp15
 70
     1
102
RTVSPropertyOp16
 70
     1
102
RTVSPropertyOp17
 70
     1
102
RTVSPropertyOp18
 70
     1
102
RTVSPropertyOp19
 70
     1
102
RTVSPropertyOp20
 70
     1
102
RTVSPropertyOp21
 70
     1
102
RTVSPropertyOp22
 70
     1
102
RTVSPropertyOp23
 70
     1
102
RTVSPropertyOp24
 70
     1
102
RTVSPropertyOp25
 70
     1
102
RTVSPropertyOp26
 70
     1
102
RTVSPropertyOp27
 70
     1
102
RTVSPropertyOp28
 70
     1
102
RTVSPropertyOp29
 70
     1
102
RTVSPropertyOp30
 70
     1
102
RTVSPropertyOp31
 70
     1
102
RTVSPropertyOp32
 70
     1
  0
XRECORD
  5
B4
102
{ACAD_REACTORS
330
B3
102
}
330
B3
100
AcDbXrecord
280
     1
102
RTVSPropertyOp0
 70
     1
102
RTVSPropertyOp1
 70
     1
102
RTVSPropertyOp2
 70
     1
102
RTVSPropertyOp3
 70
     1
102
RTVSPropertyOp4
 70
     1
102
RTVSPropertyOp5
 70
     1
102
RTVSPropertyOp6
 70
     1
102
RTVSPropertyOp7
 70
     1
102
RTVSPropertyOp8
 70
     1
102
RTVSPropertyOp9
 70
     1
102
RTVSPropertyOp10
 70
     1
102
RTVSPropertyOp11
 70
     1
102
RTVSPropertyOp12
 70
     1
102
RTVSPropertyOp13
 70
     1
102
RTVSPropertyOp14
 70
     1
102
RTVSPropertyOp15
 70
     1
102
RTVSPropertyOp16
 70
     1
102
RTVSPropertyOp17
 70
     1
102
RTVSPropertyOp18
 70
     1
102
RTVSPropertyOp19
 70
     1
102
RTVSPropertyOp20
 70
     1
102
RTVSPropertyOp21
 70
     1
102
RTVSPropertyOp22
 70
     1
102
RTVSPropertyOp23
 70
     1
102
RTVSPropertyOp24
 70
     1
102
RTVSPropertyOp25
 70
     1
102
RTVSPropertyOp26
 70
     1
102
RTVSPropertyOp27
 70
     1
102
RTVSPropertyOp28
 70
     1
102
RTVSPropertyOp29
 70
     1
102
RTVSPropertyOp30
 70
     1
102
RTVSPropertyOp31
 70
     1
102
RTVSPropertyOp32
 70
     1
  0
XRECORD
  5
B8
102
{ACAD_REACTORS
330
B7
102
}
330
B7
100
AcDbXrecord
280
     1
102
RTVSPropertyOp0
 70
     1
102
RTVSPropertyOp1
 70
     1
102
RTVSPropertyOp2
 70
     1
102
RTVSPropertyOp3
 70
     1
102
RTVSPropertyOp4
 70
     1
102
RTVSPropertyOp5
 70
     1
102
RTVSPropertyOp6
 70
     1
102
RTVSPropertyOp7
 70
     1
102
RTVSPropertyOp8
 70
     1
102
RTVSPropertyOp9
 70
     1
102
RTVSPropertyOp10
 70
     1
102
RTVSPropertyOp11
 70
     1
102
RTVSPropertyOp12
 70
     1
102
RTVSPropertyOp13
 70
     1
102
RTVSPropertyOp14
 70
     1
102
RTVSPropertyOp15
 70
     1
102
RTVSPropertyOp16
 70
     1
102
RTVSPropertyOp17
 70
     1
102
RTVSPropertyOp18
 70
     1
102
RTVSPropertyOp19
 70
     1
102
RTVSPropertyOp20
 70
     1
102
RTVSPropertyOp21
 70
     1
102
RTVSPropertyOp22
 70
     1
102
RTVSPropertyOp23
 70
     1
102
RTVSPropertyOp24
 70
     1
102
RTVSPropertyOp25
 70
     1
102
RTVSPropertyOp26
 70
     1
102
RTVSPropertyOp27
 70
     1
102
RTVSPropertyOp28
 70
     1
102
RTVSPropertyOp29
 70
     1
102
RTVSPropertyOp30
 70
     1
102
RTVSPropertyOp31
 70
     1
102
RTVSPropertyOp32
 70
     1
  0
XRECORD
  5
C0
102
{ACAD_REACTORS
330
BF
102
}
330
BF
100
AcDbXrecord
280
     1
102
RTVSPropertyOp0
 70
     1
102
RTVSPropertyOp1
 70
     1
102
RTVSPropertyOp2
 70
     1
102
RTVSPropertyOp3
 70
     1
102
RTVSPropertyOp4
 70
     1
102
RTVSPropertyOp5
 70
     1
102
RTVSPropertyOp6
 70
     1
102
RTVSPropertyOp7
 70
     1
102
RTVSPropertyOp8
 70
     1
102
RTVSPropertyOp9
 70
     1
102
RTVSPropertyOp10
 70
     1
102
RTVSPropertyOp11
 70
     1
102
RTVSPropertyOp12
 70
     1
102
RTVSPropertyOp13
 70
     1
102
RTVSPropertyOp14
 70
     1
102
RTVSPropertyOp15
 70
     1
102
RTVSPropertyOp16
 70
     1
102
RTVSPropertyOp17
 70
     1
102
RTVSPropertyOp18
 70
     1
102
RTVSPropertyOp19
 70
     1
102
RTVSPropertyOp20
 70
     1
102
RTVSPropertyOp21
 70
     1
102
RTVSPropertyOp22
 70
     1
102
RTVSPropertyOp23
 70
     1
102
RTVSPropertyOp24
 70
     1
102
RTVSPropertyOp25
 70
     1
102
RTVSPropertyOp26
 70
     1
102
RTVSPropertyOp27
 70
     1
102
RTVSPropertyOp28
 70
     1
102
RTVSPropertyOp29
 70
     1
102
RTVSPropertyOp30
 70
     1
102
RTVSPropertyOp31
 70
     1
102
RTVSPropertyOp32
 70
     1
  0
XRECORD
  5
C8
102
{ACAD_REACTORS
330
C7
102
}
330
C7
100
AcDbXrecord
280
     1
102
RTVSPropertyOp0
 70
     1
102
RTVSPropertyOp1
 70
     1
102
RTVSPropertyOp2
 70
     1
102
RTVSPropertyOp3
 70
     1
102
RTVSPropertyOp4
 70
     1
102
RTVSPropertyOp5
 70
     1
102
RTVSPropertyOp6
 70
     1
102
RTVSPropertyOp7
 70
     1
102
RTVSPropertyOp8
 70
     1
102
RTVSPropertyOp9
 70
     1
102
RTVSPropertyOp10
 70
     1
102
RTVSPropertyOp11
 70
     1
102
RTVSPropertyOp12
 70
     1
102
RTVSPropertyOp13
 70
     1
102
RTVSPropertyOp14
 70
     1
102
RTVSPropertyOp15
 70
     1
102
RTVSPropertyOp16
 70
     1
102
RTVSPropertyOp17
 70
     1
102
RTVSPropertyOp18
 70
     1
102
RTVSPropertyOp19
 70
     1
102
RTVSPropertyOp20
 70
     1
102
RTVSPropertyOp21
 70
     1
102
RTVSPropertyOp22
 70
     1
102
RTVSPropertyOp23
 70
     1
102
RTVSPropertyOp24
 70
     1
102
RTVSPropertyOp25
 70
     1
102
RTVSPropertyOp26
 70
     1
102
RTVSPropertyOp27
 70
     1
102
RTVSPropertyOp28
 70
     1
102
RTVSPropertyOp29
 70
     1
102
RTVSPropertyOp30
 70
     1
102
RTVSPropertyOp31
 70
     1
102
RTVSPropertyOp32
 70
     1
  0
XRECORD
  5
BC
102
{ACAD_REACTORS
330
BB
102
}
330
BB
100
AcDbXrecord
280
     1
102
RTVSPropertyOp0
 70
     1
102
RTVSPropertyOp1
 70
     1
102
RTVSPropertyOp2
 70
     1
102
RTVSPropertyOp3
 70
     1
102
RTVSPropertyOp4
 70
     1
102
RTVSPropertyOp5
 70
     1
102
RTVSPropertyOp6
 70
     1
102
RTVSPropertyOp7
 70
     1
102
RTVSPropertyOp8
 70
     1
102
RTVSPropertyOp9
 70
     1
102
RTVSPropertyOp10
 70
     1
102
RTVSPropertyOp11
 70
     1
102
RTVSPropertyOp12
 70
     1
102
RTVSPropertyOp13
 70
     1
102
RTVSPropertyOp14
 70
     1
102
RTVSPropertyOp15
 70
     1
102
RTVSPropertyOp16
 70
     1
102
RTVSPropertyOp17
 70
     1
102
RTVSPropertyOp18
 70
     1
102
RTVSPropertyOp19
 70
     1
102
RTVSPropertyOp20
 70
     1
102
RTVSPropertyOp21
 70
     1
102
RTVSPropertyOp22
 70
     1
102
RTVSPropertyOp23
 70
     1
102
RTVSPropertyOp24
 70
     1
102
RTVSPropertyOp25
 70
     1
102
RTVSPropertyOp26
 70
     1
102
RTVSPropertyOp27
 70
     1
102
RTVSPropertyOp28
 70
     1
102
RTVSPropertyOp29
 70
     1
102
RTVSPropertyOp30
 70
     1
102
RTVSPropertyOp31
 70
     1
102
RTVSPropertyOp32
 70
     1
  0
XRECORD
  5
BE
102
{ACAD_REACTORS
330
BD
102
}
330
BD
100
AcDbXrecord
280
     1
102
RTVSPropertyOp0
 70
     1
102
RTVSPropertyOp1
 70
     1
102
RTVSPropertyOp2
 70
     1
102
RTVSPropertyOp3
 70
     1
102
RTVSPropertyOp4
 70
     1
102
RTVSPropertyOp5
 70
     1
102
RTVSPropertyOp6
 70
     1
102
RTVSPropertyOp7
 70
     1
102
RTVSPropertyOp8
 70
     1
102
RTVSPropertyOp9
 70
     1
102
RTVSPropertyOp10
 70
     1
102
RTVSPropertyOp11
 70
     1
102
RTVSPropertyOp12
 70
     1
102
RTVSPropertyOp13
 70
     1
102
RTVSPropertyOp14
 70
     1
102
RTVSPropertyOp15
 70
     1
102
RTVSPropertyOp16
 70
     1
102
RTVSPropertyOp17
 70
     1
102
RTVSPropertyOp18
 70
     1
102
RTVSPropertyOp19
 70
     1
102
RTVSPropertyOp20
 70
     1
102
RTVSPropertyOp21
 70
     1
102
RTVSPropertyOp22
 70
     1
102
RTVSPropertyOp23
 70
     1
102
RTVSPropertyOp24
 70
     1
102
RTVSPropertyOp25
 70
     1
102
RTVSPropertyOp26
 70
     1
102
RTVSPropertyOp27
 70
     1
102
RTVSPropertyOp28
 70
     1
102
RTVSPropertyOp29
 70
     1
102
RTVSPropertyOp30
 70
     1
102
RTVSPropertyOp31
 70
     1
102
RTVSPropertyOp32
 70
     1
  0
XRECORD
  5
C6
102
{ACAD_REACTORS
330
C5
102
}
330
C5
100
AcDbXrecord
280
     1
102
RTVSPropertyOp0
 70
     1
102
RTVSPropertyOp1
 70
     1
102
RTVSPropertyOp2
 70
     1
102
RTVSPropertyOp3
 70
     1
102
RTVSPropertyOp4
 70
     1
102
RTVSPropertyOp5
 70
     1
102
RTVSPropertyOp6
 70
     1
102
RTVSPropertyOp7
 70
     1
102
RTVSPropertyOp8
 70
     1
102
RTVSPropertyOp9
 70
     1
102
RTVSPropertyOp10
 70
     1
102
RTVSPropertyOp11
 70
     1
102
RTVSPropertyOp12
 70
     1
102
RTVSPropertyOp13
 70
     1
102
RTVSPropertyOp14
 70
     1
102
RTVSPropertyOp15
 70
     1
102
RTVSPropertyOp16
 70
     1
102
RTVSPropertyOp17
 70
     1
102
RTVSPropertyOp18
 70
     1
102
RTVSPropertyOp19
 70
     1
102
RTVSPropertyOp20
 70
     1
102
RTVSPropertyOp21
 70
     1
102
RTVSPropertyOp22
 70
     1
102
RTVSPropertyOp23
 70
     1
102
RTVSPropertyOp24
 70
     1
102
RTVSPropertyOp25
 70
     1
102
RTVSPropertyOp26
 70
     1
102
RTVSPropertyOp27
 70
     1
102
RTVSPropertyOp28
 70
     1
102
RTVSPropertyOp29
 70
     1
102
RTVSPropertyOp30
 70
     1
102
RTVSPropertyOp31
 70
     1
102
RTVSPropertyOp32
 70
     1
  0
XRECORD
  5
AA
102
{ACAD_REACTORS
330
A9
102
}
330
A9
100
AcDbXrecord
280
     1
102
RTVSPropertyOp0
 70
     1
102
RTVSPropertyOp1
 70
     1
102
RTVSPropertyOp2
 70
     1
102
RTVSPropertyOp3
 70
     1
102
RTVSPropertyOp4
 70
     1
102
RTVSPropertyOp5
 70
     1
102
RTVSPropertyOp6
 70
     1
102
RTVSPropertyOp7
 70
     1
102
RTVSPropertyOp8
 70
     1
102
RTVSPropertyOp9
 70
     1
102
RTVSPropertyOp10
 70
     1
102
RTVSPropertyOp11
 70
     1
102
RTVSPropertyOp12
 70
     1
102
RTVSPropertyOp13
 70
     1
102
RTVSPropertyOp14
 70
     1
102
RTVSPropertyOp15
 70
     1
102
RTVSPropertyOp16
 70
     1
102
RTVSPropertyOp17
 70
     1
102
RTVSPropertyOp18
 70
     1
102
RTVSPropertyOp19
 70
     1
102
RTVSPropertyOp20
 70
     1
102
RTVSPropertyOp21
 70
     1
102
RTVSPropertyOp22
 70
     1
102
RTVSPropertyOp23
 70
     1
102
RTVSPropertyOp24
 70
     1
102
RTVSPropertyOp25
 70
     1
102
RTVSPropertyOp26
 70
     1
102
RTVSPropertyOp27
 70
     1
102
RTVSPropertyOp28
 70
     1
102
RTVSPropertyOp29
 70
     1
102
RTVSPropertyOp30
 70
     1
102
RTVSPropertyOp31
 70
     1
102
RTVSPropertyOp32
 70
     1
  0
XRECORD
  5
AC
102
{ACAD_REACTORS
330
AB
102
}
330
AB
100
AcDbXrecord
280
     1
102
RTVSPropertyOp0
 70
     1
102
RTVSPropertyOp1
 70
     1
102
RTVSPropertyOp2
 70
     1
102
RTVSPropertyOp3
 70
     1
102
RTVSPropertyOp4
 70
     1
102
RTVSPropertyOp5
 70
     1
102
RTVSPropertyOp6
 70
     1
102
RTVSPropertyOp7
 70
     1
102
RTVSPropertyOp8
 70
     1
102
RTVSPropertyOp9
 70
     1
102
RTVSPropertyOp10
 70
     1
102
RTVSPropertyOp11
 70
     1
102
RTVSPropertyOp12
 70
     1
102
RTVSPropertyOp13
 70
     1
102
RTVSPropertyOp14
 70
     1
102
RTVSPropertyOp15
 70
     1
102
RTVSPropertyOp16
 70
     1
102
RTVSPropertyOp17
 70
     1
102
RTVSPropertyOp18
 70
     1
102
RTVSPropertyOp19
 70
     1
102
RTVSPropertyOp20
 70
     1
102
RTVSPropertyOp21
 70
     1
102
RTVSPropertyOp22
 70
     1
102
RTVSPropertyOp23
 70
     1
102
RTVSPropertyOp24
 70
     1
102
RTVSPropertyOp25
 70
     1
102
RTVSPropertyOp26
 70
     1
102
RTVSPropertyOp27
 70
     1
102
RTVSPropertyOp28
 70
     1
102
RTVSPropertyOp29
 70
     1
102
RTVSPropertyOp30
 70
     1
102
RTVSPropertyOp31
 70
     1
102
RTVSPropertyOp32
 70
     1
  0
XRECORD
  5
AE
102
{ACAD_REACTORS
330
AD
102
}
330
AD
100
AcDbXrecord
280
     1
102
RTVSPropertyOp0
 70
     1
102
RTVSPropertyOp1
 70
     1
102
RTVSPropertyOp2
 70
     1
102
RTVSPropertyOp3
 70
     1
102
RTVSPropertyOp4
 70
     1
102
RTVSPropertyOp5
 70
     1
102
RTVSPropertyOp6
 70
     1
102
RTVSPropertyOp7
 70
     1
102
RTVSPropertyOp8
 70
     1
102
RTVSPropertyOp9
 70
     1
102
RTVSPropertyOp10
 70
     1
102
RTVSPropertyOp11
 70
     1
102
RTVSPropertyOp12
 70
     1
102
RTVSPropertyOp13
 70
     1
102
RTVSPropertyOp14
 70
     1
102
RTVSPropertyOp15
 70
     1
102
RTVSPropertyOp16
 70
     1
102
RTVSPropertyOp17
 70
     1
102
RTVSPropertyOp18
 70
     1
102
RTVSPropertyOp19
 70
     1
102
RTVSPropertyOp20
 70
     1
102
RTVSPropertyOp21
 70
     1
102
RTVSPropertyOp22
 70
     1
102
RTVSPropertyOp23
 70
     1
102
RTVSPropertyOp24
 70
     1
102
RTVSPropertyOp25
 70
     1
102
RTVSPropertyOp26
 70
     1
102
RTVSPropertyOp27
 70
     1
102
RTVSPropertyOp28
 70
     1
102
RTVSPropertyOp29
 70
     1
102
RTVSPropertyOp30
 70
     1
102
RTVSPropertyOp31
 70
     1
102
RTVSPropertyOp32
 70
     1
  0
XRECORD
  5
B0
102
{ACAD_REACTORS
330
AF
102
}
330
AF
100
AcDbXrecord
280
     1
102
RTVSPropertyOp0
 70
     1
102
RTVSPropertyOp1
 70
     1
102
RTVSPropertyOp2
 70
     1
102
RTVSPropertyOp3
 70
     1
102
RTVSPropertyOp4
 70
     1
102
RTVSPropertyOp5
 70
     1
102
RTVSPropertyOp6
 70
     1
102
RTVSPropertyOp7
 70
     1
102
RTVSPropertyOp8
 70
     1
102
RTVSPropertyOp9
 70
     1
102
RTVSPropertyOp10
 70
     1
102
RTVSPropertyOp11
 70
     1
102
RTVSPropertyOp12
 70
     1
102
RTVSPropertyOp13
 70
     1
102
RTVSPropertyOp14
 70
     1
102
RTVSPropertyOp15
 70
     1
102
RTVSPropertyOp16
 70
     1
102
RTVSPropertyOp17
 70
     1
102
RTVSPropertyOp18
 70
     1
102
RTVSPropertyOp19
 70
     1
102
RTVSPropertyOp20
 70
     1
102
RTVSPropertyOp21
 70
     1
102
RTVSPropertyOp22
 70
     1
102
RTVSPropertyOp23
 70
     1
102
RTVSPropertyOp24
 70
     1
102
RTVSPropertyOp25
 70
     1
102
RTVSPropertyOp26
 70
     1
102
RTVSPropertyOp27
 70
     1
102
RTVSPropertyOp28
 70
     1
102
RTVSPropertyOp29
 70
     1
102
RTVSPropertyOp30
 70
     1
102
RTVSPropertyOp31
 70
     1
102
RTVSPropertyOp32
 70
     1
  0
XRECORD
  5
C4
102
{ACAD_REACTORS
330
C3
102
}
330
C3
100
AcDbXrecord
280
     1
102
RTVSPropertyOp0
 70
     1
102
RTVSPropertyOp1
 70
     1
102
RTVSPropertyOp2
 70
     1
102
RTVSPropertyOp3
 70
     1
102
RTVSPropertyOp4
 70
     1
102
RTVSPropertyOp5
 70
     1
102
RTVSPropertyOp6
 70
     1
102
RTVSPropertyOp7
 70
     1
102
RTVSPropertyOp8
 70
     1
102
RTVSPropertyOp9
 70
     1
102
RTVSPropertyOp10
 70
     1
102
RTVSPropertyOp11
 70
     1
102
RTVSPropertyOp12
 70
     1
102
RTVSPropertyOp13
 70
     1
102
RTVSPropertyOp14
 70
     1
102
RTVSPropertyOp15
 70
     1
102
RTVSPropertyOp16
 70
     1
102
RTVSPropertyOp17
 70
     1
102
RTVSPropertyOp18
 70
     1
102
RTVSPropertyOp19
 70
     1
102
RTVSPropertyOp20
 70
     1
102
RTVSPropertyOp21
 70
     1
102
RTVSPropertyOp22
 70
     1
102
RTVSPropertyOp23
 70
     1
102
RTVSPropertyOp24
 70
     1
102
RTVSPropertyOp25
 70
     1
102
RTVSPropertyOp26
 70
     1
102
RTVSPropertyOp27
 70
     1
102
RTVSPropertyOp28
 70
     1
102
RTVSPropertyOp29
 70
     1
102
RTVSPropertyOp30
 70
     1
102
RTVSPropertyOp31
 70
     1
102
RTVSPropertyOp32
 70
     1
  0
XRECORD
  5
BA
102
{ACAD_REACTORS
330
B9
102
}
330
B9
100
AcDbXrecord
280
     1
102
RTVSPropertyOp0
 70
     1
102
RTVSPropertyOp1
 70
     1
102
RTVSPropertyOp2
 70
     1
102
RTVSPropertyOp3
 70
     1
102
RTVSPropertyOp4
 70
     1
102
RTVSPropertyOp5
 70
     1
102
RTVSPropertyOp6
 70
     1
102
RTVSPropertyOp7
 70
     1
102
RTVSPropertyOp8
 70
     1
102
RTVSPropertyOp9
 70
     1
102
RTVSPropertyOp10
 70
     1
102
RTVSPropertyOp11
 70
     1
102
RTVSPropertyOp12
 70
     1
102
RTVSPropertyOp13
 70
     1
102
RTVSPropertyOp14
 70
     1
102
RTVSPropertyOp15
 70
     1
102
RTVSPropertyOp16
 70
     1
102
RTVSPropertyOp17
 70
     1
102
RTVSPropertyOp18
 70
     1
102
RTVSPropertyOp19
 70
     1
102
RTVSPropertyOp20
 70
     1
102
RTVSPropertyOp21
 70
     1
102
RTVSPropertyOp22
 70
     1
102
RTVSPropertyOp23
 70
     1
102
RTVSPropertyOp24
 70
     1
102
RTVSPropertyOp25
 70
     1
102
RTVSPropertyOp26
 70
     1
102
RTVSPropertyOp27
 70
     1
102
RTVSPropertyOp28
 70
     1
102
RTVSPropertyOp29
 70
     1
102
RTVSPropertyOp30
 70
     1
102
RTVSPropertyOp31
 70
     1
102
RTVSPropertyOp32
 70
     1
  0
XRECORD
  5
C2
102
{ACAD_REACTORS
330
C1
102
}
330
C1
100
AcDbXrecord
280
     1
102
RTVSPropertyOp0
 70
     1
102
RTVSPropertyOp1
 70
     1
102
RTVSPropertyOp2
 70
     1
102
RTVSPropertyOp3
 70
     1
102
RTVSPropertyOp4
 70
     1
102
RTVSPropertyOp5
 70
     1
102
RTVSPropertyOp6
 70
     1
102
RTVSPropertyOp7
 70
     1
102
RTVSPropertyOp8
 70
     1
102
RTVSPropertyOp9
 70
     1
102
RTVSPropertyOp10
 70
     1
102
RTVSPropertyOp11
 70
     1
102
RTVSPropertyOp12
 70
     1
102
RTVSPropertyOp13
 70
     1
102
RTVSPropertyOp14
 70
     1
102
RTVSPropertyOp15
 70
     1
102
RTVSPropertyOp16
 70
     1
102
RTVSPropertyOp17
 70
     1
102
RTVSPropertyOp18
 70
     1
102
RTVSPropertyOp19
 70
     1
102
RTVSPropertyOp20
 70
     1
102
RTVSPropertyOp21
 70
     1
102
RTVSPropertyOp22
 70
     1
102
RTVSPropertyOp23
 70
     1
102
RTVSPropertyOp24
 70
     1
102
RTVSPropertyOp25
 70
     1
102
RTVSPropertyOp26
 70
     1
102
RTVSPropertyOp27
 70
     1
102
RTVSPropertyOp28
 70
     1
102
RTVSPropertyOp29
 70
     1
102
RTVSPropertyOp30
 70
     1
102
RTVSPropertyOp31
 70
     1
102
RTVSPropertyOp32
 70
     1
  0
ENDSEC
  0
EOF
